<svg xmlns="http://www.w3.org/2000/svg" xmlns:xlink="http://www.w3.org/1999/xlink" width="3246.625" height="719.32" viewBox="0 0 3246.625 719.32">
  <defs>
    <linearGradient id="linear-gradient" x1="0.958" y1="-0.401" x2="0.039" y2="1.075" gradientUnits="objectBoundingBox">
      <stop offset="0" stop-color="#5368ff"/>
      <stop offset="1" stop-color="#2432ab"/>
    </linearGradient>
  </defs>
  <path id="Union_5" data-name="Union 5" d="M2971.441,889.736q-49.68-10.584-89.424-30.888a417.62,417.62,0,0,0,24.408-41.04,385.715,385.715,0,0,0,18.792-44.064q30.672,17.712,71.28,27.648t75.6,9.936q35.856,0,50.544-6.264t14.688-13.608q0-26.352-80.352-26.352-88.128,0-127.872-18.36t-39.744-59.4q0-58.32,48.384-85.968t125.712-27.648a391.435,391.435,0,0,1,92.232,11.448q47.3,11.448,85.32,31.32-12.528,28.512-26.352,69.552-2.592,8.64-4.32,12.96-22.032-17.712-66.528-29.592t-78.624-11.88q-41.04,0-55.3,5.4T2995.633,678.7q0,10.368,19.656,16.632T3072.1,701.6q91.584,0,133.056,20.952t41.472,64.152q0,60.48-44.064,87.048T3069.073,900.32A467.718,467.718,0,0,1,2971.441,889.736ZM1765.3,860.792q-37.584-39.528-36.72-103.9V581.936h107.136V749.984q0,19.008,2.808,30.888t18.144,22.248q15.336,10.368,49.464,10.368,37.152,0,54.432-10.584t20.52-23.544q3.24-12.96,3.24-33.264V581.936h107.136V753.872q-.864,63.5-43.416,104.976T1904.833,900.32Q1802.881,900.32,1765.3,860.792ZM2507.473,896q3.456-83.808,3.456-156.816t-3.456-156.816h335.664V660.56H2609.425v41.472q20.736.432,61.344.432,68.688,0,142.128-2.592v74.3q-73.44-2.592-142.128-2.592-40.608,0-61.344.432v44.928q164.16-.864,238.032-4.752a272.512,272.512,0,0,0-3.672,36.5q-.648,18.792-.648,47.3Zm-155.952,0q-19.008-35.424-60.048-100.224h-63.5V896H2126.017q3.456-83.808,3.456-156.816t-3.456-156.816h101.952v.432h88.56q87.264,0,121.824,28.08t34.56,76.032q0,37.584-18.36,63.5T2391.7,788a103.911,103.911,0,0,1,7.344,10.8l69.984,97.2ZM2227.969,714.992h58.32q36.72,0,55.512-2.376t26.136-7.56q7.344-5.184,7.344-15.12,0-9.5-6.912-14.688t-25.92-7.344q-19.008-2.16-56.16-2.16h-58.32ZM1454.257,896V670.5q-64.368.432-131.328,2.592v-90.72h371.088v90.72q-67.824-2.16-131.76-2.592V896Zm-320.544,0L1029.169,660.128,1036.945,896H925.921q3.456-83.808,3.456-156.816,0-72.576-3.456-156.384H1084.9l104.976,242.352L1182.529,582.8h105.84q-3.024,73.008-3.024,156.384,0,83.808,3.024,156.816Zm-582.336,0q3.456-83.808,3.456-156.816t-3.456-156.816H887.041V660.56H653.329v41.472q20.736.432,61.344.432,68.688,0,142.128-2.592v74.3q-73.44-2.592-142.128-2.592-40.608,0-61.344.432v44.928q164.16-.864,238.032-4.752a272.512,272.512,0,0,0-3.672,36.5q-.648,18.792-.648,47.3Zm-279.5,0q-17.712-53.568-39.1-106.056t-57.24-134.568Q169.489,641.552,144,582.368H264.1q12.96,41.9,38.448,107.568,22.464,57.888,36.288,100.224,9.072-29.808,21.816-63.72t15.336-41.256q25.056-66.1,36.72-102.816H528.481l-28.512,66.1q-37.584,87.7-59.184,140.4T401.041,896ZM587.926,478.814q-38.628-40.626-37.74-106.782V192.211H660.3V364.928q0,19.536,2.885,31.746t18.648,22.866Q697.595,430.2,732.67,430.2q38.183,0,55.944-10.878t21.09-24.2q3.33-13.32,3.33-34.188V192.211H923.146V368.924q-.888,65.268-44.622,107.892T731.338,519.44Q626.554,519.44,587.926,478.814ZM1508.338,515V432.416a764.976,764.976,0,0,0-38.628-68.6q-22.2-35.3-63.048-97.015-31.968-47.064-48.84-74.147h124.321q13.319,27.084,43.511,80.364,30.193,54.169,41.292,76.368,15.54-32.411,41.737-79.475,30.636-55.056,41.292-77.256h120.767l-8.436,12.875q-47.508,73.7-81.474,130.315t-56.61,104.117V515Zm-414.7,0V283.232q-66.155.444-134.976,2.664v-93.24h381.4V285.9q-69.707-2.221-135.42-2.664V515Zm-753.215-3h-190V299h91V421h99v0l.5,0a74.152,74.152,0,0,0,41.654-12.723A74.717,74.717,0,0,0,409.572,375.5a74.4,74.4,0,0,0-6.869-70.652,74.717,74.717,0,0,0-32.778-26.992,74.025,74.025,0,0,0-29-5.854c-.166,0-.335,0-.5,0v0H91L0,181H340.426v0h.5a166.717,166.717,0,0,1,33.354,3.362,164.6,164.6,0,0,1,59.179,24.9,165.979,165.979,0,0,1,59.962,72.815,164.684,164.684,0,0,1,9.643,31.066,167.112,167.112,0,0,1,0,66.708,164.6,164.6,0,0,1-24.9,59.179,165.983,165.983,0,0,1-72.815,59.961,164.647,164.647,0,0,1-31.066,9.644A166.718,166.718,0,0,1,340.925,512Z" transform="translate(0 -181)" fill="url(#linear-gradient)"/>
</svg>
