<svg xmlns="http://www.w3.org/2000/svg" width="16612" height="12145" fill="none"><path fill="url(#a)" d="m0 12145 2183.39-5700.71 4014.33-367.8z"/><path fill="url(#b)" d="m2187.65 9454.33 2152.43-4730.17 8136.22 518.75z"/><path fill="url(#c)" d="m9245.67 12132.6 3230.63-6890.58-3833.94-243.18z"/><path fill="url(#d)" d="m13548.9 0 607.8 1281.73-2441.8 1333.5-4255.01 2308.81z"/><path fill="url(#e)" d="m16612 3222.23-4633-754.62 2177-1186.36z"/><path fill="url(#f)" d="m15363.7 3975.29 1247.7-753.26-4637.5-756.14-268.7 150.5z"/><path fill="url(#g)" d="m10746.1 2267.89 1234 199.05-271.8 149.6z"/><path fill="url(#h)" d="m13896.2 3430.26-1422 1814.11-5013.08-321.07 4246.78-2307.23z"/><path fill="url(#i)" d="M8790.92 6751.34 8642.1 4999.1l3834.4 242.25z"/><path fill="url(#j)" d="m3615.24 6313.66 2579.05-240.7L3149.65 9061.2l-962.18 394.83z"/><defs><linearGradient id="a" x1="1518.44" x2="1904.77" y1="6604.45" y2="11503" gradientUnits="userSpaceOnUse"><stop stop-color="#3E50F7"/><stop offset="1" stop-color="#070E4F"/></linearGradient><linearGradient id="b" x1="3988.16" x2="7685.52" y1="5112.03" y2="8275.17" gradientUnits="userSpaceOnUse"><stop stop-color="#3E50F7"/><stop offset="1" stop-color="#070E4F"/></linearGradient><linearGradient id="c" x1="10559.3" x2="11321.7" y1="4998.84" y2="11469.7" gradientUnits="userSpaceOnUse"><stop stop-color="#070E4F"/><stop offset="1" stop-color="#3E50F7"/></linearGradient><linearGradient id="d" x1="14156.7" x2="8337.74" y1="1871.13" y2="2754.47" gradientUnits="userSpaceOnUse"><stop stop-color="#3E50F7"/><stop offset="1" stop-color="#070E4F"/></linearGradient><linearGradient id="e" x1="11399.8" x2="15578.7" y1="2601.12" y2="854.581" gradientUnits="userSpaceOnUse"><stop stop-color="#3E50F7"/><stop offset="1" stop-color="#070E4F"/></linearGradient><linearGradient id="f" x1="11822.9" x2="12665.6" y1="2509.66" y2="5042.37" gradientUnits="userSpaceOnUse"><stop stop-color="#3E50F7"/><stop offset="1" stop-color="#3E50F7"/></linearGradient><linearGradient id="g" x1="10746.1" x2="10916.6" y1="2267.89" y2="2844.32" gradientUnits="userSpaceOnUse"><stop stop-color="#3E50F7"/><stop offset="1" stop-color="#3E50F7"/></linearGradient><linearGradient id="h" x1="13973.4" x2="11191.1" y1="3470.26" y2="7596.5" gradientUnits="userSpaceOnUse"><stop stop-color="#3E50F7"/><stop offset="1" stop-color="#070E4F"/></linearGradient><linearGradient id="i" x1="8408.2" x2="11125.9" y1="6036.43" y2="3591.49" gradientUnits="userSpaceOnUse"><stop stop-color="#3E50F7"/><stop offset="1" stop-color="#070E4F"/></linearGradient><linearGradient id="j" x1="6150.21" x2="2637.5" y1="6072.96" y2="10158" gradientUnits="userSpaceOnUse"><stop stop-color="#3E50F7"/><stop offset="1" stop-color="#070E4F"/></linearGradient></defs></svg>