<svg width="5346" height="1710" viewBox="0 0 5346 1710" fill="none" xmlns="http://www.w3.org/2000/svg">
<path d="M98.6719 700C92.0052 700 86.0052 697.667 80.6719 693C76.0052 687.667 73.6719 681.667 73.6719 675V25C73.6719 17.6666 76.0052 11.6666 80.6719 6.99998C86.0052 2.3333 92.0052 -4.76837e-05 98.6719 -4.76837e-05H358.672C456.672 -4.76837e-05 532.672 23.3333 586.672 69.9999C640.672 116.667 669.005 184.333 671.672 273C672.339 292.333 672.672 318 672.672 350C672.672 382 672.339 407.333 671.672 426C668.339 518.667 640.672 587.667 588.672 633C537.339 677.667 462.339 700 363.672 700H98.6719ZM358.672 556C402.672 556 435.005 545.667 455.672 525C476.339 503.667 487.339 470 488.672 424C490.005 404.667 490.672 379.667 490.672 349C490.672 318.333 490.005 293.667 488.672 275C487.339 230.333 475.339 197.333 452.672 176C430.672 154.667 397.672 144 353.672 144H253.672V556H358.672ZM1083.49 710C989.492 710 915.826 687 862.492 641C809.826 595 783.492 525.667 783.492 433V25C783.492 17.6666 785.826 11.6666 790.492 6.99998C795.826 2.3333 801.826 -4.76837e-05 808.492 -4.76837e-05H937.492C944.826 -4.76837e-05 950.826 2.3333 955.492 6.99998C960.826 11.6666 963.492 17.6666 963.492 25V432C963.492 475.333 973.492 508 993.492 530C1014.16 551.333 1043.83 562 1082.49 562C1120.49 562 1149.83 551 1170.49 529C1191.16 507 1201.49 474.667 1201.49 432V25C1201.49 17.6666 1203.83 11.6666 1208.49 6.99998C1213.83 2.3333 1219.83 -4.76837e-05 1226.49 -4.76837e-05H1356.49C1363.83 -4.76837e-05 1369.83 2.3333 1374.49 6.99998C1379.16 11.6666 1381.49 17.6666 1381.49 25V433C1381.49 525.667 1354.83 595 1301.49 641C1248.83 687 1176.16 710 1083.49 710ZM1693.1 700C1686.43 700 1680.43 697.667 1675.1 693C1670.43 687.667 1668.1 681.667 1668.1 675V157H1490.1C1483.43 157 1477.43 154.667 1472.1 150C1467.43 144.667 1465.1 138.667 1465.1 132V25C1465.1 17.6666 1467.43 11.6666 1472.1 6.99998C1477.43 2.3333 1483.43 -4.76837e-05 1490.1 -4.76837e-05H2028.1C2035.43 -4.76837e-05 2041.43 2.3333 2046.1 6.99998C2050.77 11.6666 2053.1 17.6666 2053.1 25V132C2053.1 139.333 2050.77 145.333 2046.1 150C2041.43 154.667 2035.43 157 2028.1 157H1850.1V675C1850.1 681.667 1847.77 687.667 1843.1 693C1838.43 697.667 1832.43 700 1825.1 700H1693.1ZM2348.98 700C2342.32 700 2336.32 697.667 2330.98 693C2326.32 687.667 2323.98 681.667 2323.98 675V460L2091.98 32C2089.98 26 2088.98 22.3333 2088.98 21C2088.98 15.6666 2090.98 11 2094.98 6.99998C2099.65 2.3333 2104.98 -4.76837e-05 2110.98 -4.76837e-05H2235.98C2249.32 -4.76837e-05 2260.98 6.99996 2270.98 21L2413.98 279L2557.98 21C2565.98 6.99996 2577.65 -4.76837e-05 2592.98 -4.76837e-05H2717.98C2723.98 -4.76837e-05 2728.98 2.3333 2732.98 6.99998C2736.98 11 2738.98 15.6666 2738.98 21C2738.98 24.3333 2738.32 28 2736.98 32L2504.98 460V675C2504.98 682.333 2502.32 688.333 2496.98 693C2492.32 697.667 2486.32 700 2478.98 700H2348.98Z" fill="#3E50F7"/>
<path d="M247.305 1700C225.971 1700 212.305 1690 206.305 1670L2.30469 1030L0.304689 1021C0.304689 1015.67 2.30469 1011 6.30469 1007C10.9714 1002.33 16.3047 1000 22.3047 1000H146.305C155.638 1000 163.305 1002.67 169.305 1008C175.971 1013.33 180.305 1019.33 182.305 1026L324.305 1488L465.305 1026C467.305 1019.33 471.305 1013.33 477.305 1008C483.971 1002.67 491.971 1000 501.305 1000H626.305C631.638 1000 636.305 1002.33 640.305 1007C644.971 1011 647.305 1015.67 647.305 1021L645.305 1030L441.305 1670C435.305 1690 421.638 1700 400.305 1700H247.305ZM765.664 1700C758.997 1700 752.997 1697.67 747.664 1693C742.997 1687.67 740.664 1681.67 740.664 1675V1025C740.664 1017.67 742.997 1011.67 747.664 1007C752.997 1002.33 758.997 1000 765.664 1000H1232.66C1240 1000 1246 1002.33 1250.66 1007C1255.33 1011.67 1257.66 1017.67 1257.66 1025V1119C1257.66 1125.67 1255.33 1131.67 1250.66 1137C1246 1141.67 1240 1144 1232.66 1144H913.664V1279H1210.66C1218 1279 1224 1281.67 1228.66 1287C1233.33 1291.67 1235.66 1297.67 1235.66 1305V1392C1235.66 1398.67 1233.33 1404.67 1228.66 1410C1224 1414.67 1218 1417 1210.66 1417H913.664V1556H1240.66C1248 1556 1254 1558.33 1258.66 1563C1263.33 1567.67 1265.66 1573.67 1265.66 1581V1675C1265.66 1681.67 1263.33 1687.67 1258.66 1693C1254 1697.67 1248 1700 1240.66 1700H765.664ZM1404.34 1700C1397.67 1700 1391.67 1697.67 1386.34 1693C1381.67 1687.67 1379.34 1681.67 1379.34 1675V1025C1379.34 1017.67 1381.67 1011.67 1386.34 1007C1391.67 1002.33 1397.67 1000 1404.34 1000H1510.34C1527 1000 1538.34 1006.33 1544.34 1019L1788.34 1403V1025C1788.34 1017.67 1790.67 1011.67 1795.34 1007C1800.67 1002.33 1806.67 1000 1813.34 1000H1933.34C1940.67 1000 1946.67 1002.33 1951.34 1007C1956 1011.67 1958.34 1017.67 1958.34 1025V1674C1958.34 1681.33 1956 1687.67 1951.34 1693C1946.67 1697.67 1940.67 1700 1933.34 1700H1826.34C1811.67 1700 1800.67 1693.67 1793.34 1681L1549.34 1311V1675C1549.34 1681.67 1547 1687.67 1542.34 1693C1537.67 1697.67 1531.67 1700 1524.34 1700H1404.34ZM2277.09 1700C2270.42 1700 2264.42 1697.67 2259.09 1693C2254.42 1687.67 2252.09 1681.67 2252.09 1675V1157H2074.09C2067.42 1157 2061.42 1154.67 2056.09 1150C2051.42 1144.67 2049.09 1138.67 2049.09 1132V1025C2049.09 1017.67 2051.42 1011.67 2056.09 1007C2061.42 1002.33 2067.42 1000 2074.09 1000H2612.09C2619.42 1000 2625.42 1002.33 2630.09 1007C2634.75 1011.67 2637.09 1017.67 2637.09 1025V1132C2637.09 1139.33 2634.75 1145.33 2630.09 1150C2625.42 1154.67 2619.42 1157 2612.09 1157H2434.09V1675C2434.09 1681.67 2431.75 1687.67 2427.09 1693C2422.42 1697.67 2416.42 1700 2409.09 1700H2277.09ZM3021.97 1710C2927.97 1710 2854.3 1687 2800.97 1641C2748.3 1595 2721.97 1525.67 2721.97 1433V1025C2721.97 1017.67 2724.3 1011.67 2728.97 1007C2734.3 1002.33 2740.3 1000 2746.97 1000H2875.97C2883.3 1000 2889.3 1002.33 2893.97 1007C2899.3 1011.67 2901.97 1017.67 2901.97 1025V1432C2901.97 1475.33 2911.97 1508 2931.97 1530C2952.64 1551.33 2982.3 1562 3020.97 1562C3058.97 1562 3088.3 1551 3108.97 1529C3129.64 1507 3139.97 1474.67 3139.97 1432V1025C3139.97 1017.67 3142.3 1011.67 3146.97 1007C3152.3 1002.33 3158.3 1000 3164.97 1000H3294.97C3302.3 1000 3308.3 1002.33 3312.97 1007C3317.64 1011.67 3319.97 1017.67 3319.97 1025V1433C3319.97 1525.67 3293.3 1595 3239.97 1641C3187.3 1687 3114.64 1710 3021.97 1710ZM3477.58 1700C3470.91 1700 3464.91 1697.67 3459.58 1693C3454.91 1687.67 3452.58 1681.67 3452.58 1675V1025C3452.58 1017.67 3454.91 1011.67 3459.58 1007C3464.91 1002.33 3470.91 1000 3477.58 1000H3749.58C3836.91 1000 3904.91 1020 3953.58 1060C4002.91 1099.33 4027.58 1155.33 4027.58 1228C4027.58 1274.67 4016.58 1314.33 3994.58 1347C3972.58 1379.67 3942.24 1404.67 3903.58 1422L4040.58 1668C4042.58 1672 4043.58 1675.67 4043.58 1679C4043.58 1684.33 4041.24 1689.33 4036.58 1694C4032.58 1698 4027.91 1700 4022.58 1700H3889.58C3870.24 1700 3856.58 1691 3848.58 1673L3734.58 1453H3632.58V1675C3632.58 1682.33 3629.91 1688.33 3624.58 1693C3619.91 1697.67 3613.91 1700 3606.58 1700H3477.58ZM3747.58 1311C3778.24 1311 3801.58 1303.67 3817.58 1289C3833.58 1273.67 3841.58 1252.67 3841.58 1226C3841.58 1199.33 3833.58 1178.33 3817.58 1163C3802.24 1147 3778.91 1139 3747.58 1139H3632.58V1311H3747.58ZM4168.98 1700C4162.32 1700 4156.32 1697.67 4150.98 1693C4146.32 1687.67 4143.98 1681.67 4143.98 1675V1025C4143.98 1017.67 4146.32 1011.67 4150.98 1007C4156.32 1002.33 4162.32 1000 4168.98 1000H4635.98C4643.32 1000 4649.32 1002.33 4653.98 1007C4658.65 1011.67 4660.98 1017.67 4660.98 1025V1119C4660.98 1125.67 4658.65 1131.67 4653.98 1137C4649.32 1141.67 4643.32 1144 4635.98 1144H4316.98V1279H4613.98C4621.32 1279 4627.32 1281.67 4631.98 1287C4636.65 1291.67 4638.98 1297.67 4638.98 1305V1392C4638.98 1398.67 4636.65 1404.67 4631.98 1410C4627.32 1414.67 4621.32 1417 4613.98 1417H4316.98V1556H4643.98C4651.32 1556 4657.32 1558.33 4661.98 1563C4666.65 1567.67 4668.98 1573.67 4668.98 1581V1675C4668.98 1681.67 4666.65 1687.67 4661.98 1693C4657.32 1697.67 4651.32 1700 4643.98 1700H4168.98ZM5043.66 1710C4980.32 1710 4925.99 1700.67 4880.66 1682C4835.32 1663.33 4800.99 1639 4777.66 1609C4754.99 1578.33 4742.99 1545 4741.66 1509C4741.66 1503.67 4743.66 1499 4747.66 1495C4752.32 1490.33 4757.66 1488 4763.66 1488H4889.66C4897.66 1488 4903.99 1489.67 4908.66 1493C4913.99 1495.67 4919.32 1500 4924.66 1506C4933.32 1523.33 4947.32 1537.67 4966.66 1549C4985.99 1560.33 5011.66 1566 5043.66 1566C5081.66 1566 5110.66 1560 5130.66 1548C5150.66 1536 5160.66 1519.67 5160.66 1499C5160.66 1484.33 5155.32 1472.33 5144.66 1463C5134.66 1453.67 5118.66 1445.33 5096.66 1438C5074.66 1430.67 5041.99 1422.33 4998.66 1413C4918.66 1396.33 4858.66 1372 4818.66 1340C4779.32 1307.33 4759.66 1261 4759.66 1201C4759.66 1160.33 4770.99 1124 4793.66 1092C4816.32 1060 4848.66 1035 4890.66 1017C4932.66 999 4981.66 990 5037.66 990C5095.66 990 5145.99 1000 5188.66 1020C5231.32 1040 5263.66 1065.33 5285.66 1096C5308.32 1126 5320.32 1155.67 5321.66 1185C5321.66 1191 5319.66 1196 5315.66 1200C5311.66 1204 5306.66 1206 5300.66 1206H5168.66C5160.66 1206 5153.99 1204.67 5148.66 1202C5143.99 1199.33 5139.66 1195 5135.66 1189C5131.66 1173.67 5120.66 1160.67 5102.66 1150C5085.32 1139.33 5063.66 1134 5037.66 1134C5007.66 1134 4984.66 1139.33 4968.66 1150C4952.66 1160.67 4944.66 1176.33 4944.66 1197C4944.66 1211 4948.99 1222.67 4957.66 1232C4966.99 1241.33 4981.66 1250 5001.66 1258C5022.32 1265.33 5051.66 1273 5089.66 1281C5151.66 1292.33 5200.99 1306.67 5237.66 1324C5274.99 1340.67 5302.32 1362.67 5319.66 1390C5336.99 1416.67 5345.66 1450.33 5345.66 1491C5345.66 1535.67 5332.66 1574.67 5306.66 1608C5281.32 1640.67 5245.66 1666 5199.66 1684C5154.32 1701.33 5102.32 1710 5043.66 1710Z" fill="#1729D2"/>
</svg>
