<svg width="2150" height="580" viewBox="0 0 2150 580" fill="none" xmlns="http://www.w3.org/2000/svg">
<path d="M266.5 579.5L351 512.5L323 509L222 560.5L266.5 579.5Z" fill="#EF233C"/>
<path d="M878.648 356.824L806.936 559H745.304L673.592 356.824H726.008L776.12 509.464L826.52 356.824H878.648ZM948.479 396.28V437.176H1014.43V475.192H948.479V519.544H1023.07V559H899.231V356.824H1023.07V396.28H948.479ZM1235.91 559H1186.66L1104.29 434.296V559H1055.04V356.824H1104.29L1186.66 482.104V356.824H1235.91V559ZM1417.05 356.824V396.28H1363.48V559H1314.23V396.28H1260.66V356.824H1417.05ZM1490.15 356.824V477.784C1490.15 489.88 1493.12 499.192 1499.07 505.72C1505.03 512.248 1513.76 515.512 1525.28 515.512C1536.8 515.512 1545.63 512.248 1551.78 505.72C1557.92 499.192 1560.99 489.88 1560.99 477.784V356.824H1610.24V477.496C1610.24 495.544 1606.4 510.808 1598.72 523.288C1591.04 535.768 1580.67 545.176 1567.62 551.512C1554.75 557.848 1540.35 561.016 1524.42 561.016C1508.48 561.016 1494.18 557.944 1481.51 551.8C1469.03 545.464 1459.14 536.056 1451.84 523.576C1444.55 510.904 1440.9 495.544 1440.9 477.496V356.824H1490.15ZM1747.93 559L1705.88 482.68H1694.07V559H1644.82V356.824H1727.48C1743.42 356.824 1756.95 359.608 1768.09 365.176C1779.42 370.744 1787.86 378.424 1793.43 388.216C1799 397.816 1801.78 408.568 1801.78 420.472C1801.78 433.912 1797.94 445.912 1790.26 456.472C1782.78 467.032 1771.64 474.52 1756.86 478.936L1803.51 559H1747.93ZM1694.07 447.832H1724.6C1733.62 447.832 1740.34 445.624 1744.76 441.208C1749.37 436.792 1751.67 430.552 1751.67 422.488C1751.67 414.808 1749.37 408.76 1744.76 404.344C1740.34 399.928 1733.62 397.72 1724.6 397.72H1694.07V447.832ZM1881.95 396.28V437.176H1947.9V475.192H1881.95V519.544H1956.54V559H1832.7V356.824H1956.54V396.28H1881.95ZM2061.66 561.016C2046.88 561.016 2033.63 558.616 2021.92 553.816C2010.21 549.016 2000.8 541.912 1993.7 532.504C1986.78 523.096 1983.14 511.768 1982.75 498.52H2035.17C2035.94 506.008 2038.53 511.768 2042.94 515.8C2047.36 519.64 2053.12 521.56 2060.22 521.56C2067.52 521.56 2073.28 519.928 2077.5 516.664C2081.73 513.208 2083.84 508.504 2083.84 502.552C2083.84 497.56 2082.11 493.432 2078.66 490.168C2075.39 486.904 2071.26 484.216 2066.27 482.104C2061.47 479.992 2054.56 477.592 2045.54 474.904C2032.48 470.872 2021.82 466.84 2013.57 462.808C2005.31 458.776 1998.21 452.824 1992.26 444.952C1986.3 437.08 1983.33 426.808 1983.33 414.136C1983.33 395.32 1990.14 380.632 2003.78 370.072C2017.41 359.32 2035.17 353.944 2057.06 353.944C2079.33 353.944 2097.28 359.32 2110.91 370.072C2124.54 380.632 2131.84 395.416 2132.8 414.424H2079.52C2079.14 407.896 2076.74 402.808 2072.32 399.16C2067.9 395.32 2062.24 393.4 2055.33 393.4C2049.38 393.4 2044.58 395.032 2040.93 398.296C2037.28 401.368 2035.46 405.88 2035.46 411.832C2035.46 418.36 2038.53 423.448 2044.67 427.096C2050.82 430.744 2060.42 434.68 2073.47 438.904C2086.53 443.32 2097.09 447.544 2105.15 451.576C2113.41 455.608 2120.51 461.464 2126.46 469.144C2132.42 476.824 2135.39 486.712 2135.39 498.808C2135.39 510.328 2132.42 520.792 2126.46 530.2C2120.7 539.608 2112.26 547.096 2101.12 552.664C2089.98 558.232 2076.83 561.016 2061.66 561.016Z" fill="#EF233C"/>
<path d="M482.5 271L354.5 518.5L473 352.5L527 257.5L482.5 271Z" fill="#EF233C"/>
<path d="M316 474.885L354.5 518.5L350.125 459.591L327.7 437.5L316 474.885Z" fill="#EF233C"/>
<path d="M397 501C383 514 354.5 518.5 354.5 518.5C354.5 518.5 382.999 501.5 397 488C411.001 474.5 600 232.5 600 232.5C600 232.5 411 488 397 501Z" fill="#C51C31"/>
<path d="M429 306L354.5 518.5L429 376L470.5 275L429 306Z" fill="#EF233C"/>
<path d="M384.5 363L354.5 518.5L404 379L415.5 322.5L384.5 363Z" fill="#EF233C"/>
<path d="M340 426.268L354.5 518.5L373.5 420L369.93 381.5L340 426.268Z" fill="#EF233C"/>
<path d="M38 171.5L0 0L262 337.5L38 171.5Z" fill="#EF233C"/>
<path d="M80.5 296.5L42.5 201.5L262 337.5L284.5 400L80.5 296.5Z" fill="#EF233C"/>
<path d="M144.5 403L89.5 314L285.5 403L299.5 434.5L144.5 403Z" fill="#EF233C"/>
<path d="M214.5 461L152.5 418.5L297 429L351 492.5L214.5 461Z" fill="#EF233C"/>
<path d="M171 510.5H288L261.884 528.991L208.085 541.5L171 510.5Z" fill="#C51C31"/>
<path d="M545.5 250.5L601 230L387.5 504.5L354.5 518.5L545.5 250.5Z" fill="#EF233C"/>
<path d="M412.5 487L409 500.5L377 499.5L353 478.5L381 464L416.5 447L445.5 454.5L450.5 482.5L437 473.5L412.5 487Z" fill="#C51C31"/>
<path d="M384 554L409 500.5L369.5 505L384 554Z" fill="#C51C31"/>
<path d="M384 554L312.5 514L369.5 505L384 554Z" fill="#C51C31"/>
<path d="M293 517.5L408.5 500.5L329 480.5L216.5 487.5L293 517.5Z" fill="#EF233C"/>
<path d="M764.6 126.824C785.912 126.824 804.536 131.048 820.472 139.496C836.408 147.944 848.696 159.848 857.336 175.208C866.168 190.376 870.584 207.944 870.584 227.912C870.584 247.688 866.168 265.256 857.336 280.616C848.696 295.976 836.312 307.88 820.184 316.328C804.248 324.776 785.72 329 764.6 329H688.856V126.824H764.6ZM761.432 286.376C780.056 286.376 794.552 281.288 804.92 271.112C815.288 260.936 820.472 246.536 820.472 227.912C820.472 209.288 815.288 194.792 804.92 184.424C794.552 174.056 780.056 168.872 761.432 168.872H738.104V286.376H761.432ZM946.49 126.824V247.784C946.49 259.88 949.466 269.192 955.418 275.72C961.37 282.248 970.106 285.512 981.626 285.512C993.146 285.512 1001.98 282.248 1008.12 275.72C1014.27 269.192 1017.34 259.88 1017.34 247.784V126.824H1066.59V247.496C1066.59 265.544 1062.75 280.808 1055.07 293.288C1047.39 305.768 1037.02 315.176 1023.96 321.512C1011.1 327.848 996.698 331.016 980.762 331.016C964.826 331.016 950.522 327.944 937.85 321.8C925.37 315.464 915.482 306.056 908.186 293.576C900.89 280.904 897.242 265.544 897.242 247.496V126.824H946.49ZM1246.61 126.824V166.28H1193.04V329H1143.79V166.28H1090.22V126.824H1246.61ZM1444.7 126.824L1374.72 262.184V329H1325.47V262.184L1255.48 126.824H1311.36L1350.52 211.496L1389.4 126.824H1444.7Z" fill="black"/>
</svg>
