<svg id="logo_copy" data-name="logo copy" xmlns="http://www.w3.org/2000/svg" width="100" height="25" viewBox="0 0 138 35">
  <metadata><?xpacket begin="﻿" id="W5M0MpCehiHzreSzNTczkc9d"?>
<x:xmpmeta xmlns:x="adobe:ns:meta/" x:xmptk="Adobe XMP Core 5.6-c138 79.159824, 2016/09/14-01:09:01        ">
   <rdf:RDF xmlns:rdf="http://www.w3.org/1999/02/22-rdf-syntax-ns#">
      <rdf:Description rdf:about=""/>
   </rdf:RDF>
</x:xmpmeta>
<?xpacket end="w"?></metadata>
  <text id="Soft" class="logo-text fill-dark" transform="translate(-1.621 34.37) scale(0.09 0.09)">Soft</text>
  <g id="x">
    <path class="fill-dark" d="M101.672,35c-1.6,0-4.208-2.693-4.208-4.2V4.2C97.5,2.67,99.936,0,101.672,0H124.6c2.81,0,4.958,2.7,4.958,2.7s7.373,11.8,7.573,12.147a4.623,4.623,0,0,1,0,5.4c-0.849,1.428-7.574,12.082-7.574,12.082S127.393,35,124.6,35H101.672Z"/>
    <path id="X-2" data-name="X" class="fill-white" d="M110.819,18.392l-4.653,5.468A3.324,3.324,0,0,0,105,26.216c0,0.684.45,0.972,1.532,1.942s1.161,1.1,1.86,1.1a3.409,3.409,0,0,0,2.436-1.461l4.921-6.155,4.2,5.165c0.958,1.094,1.71,2.451,2.436,2.451s0.805-.208,1.859-1.166a5.061,5.061,0,0,0,1.762-2.413c0.133-.644-0.647-1.676-1.577-2.716l-4.653-5.468,4.653-5.468a4.125,4.125,0,0,0,1.4-2.585,3.006,3.006,0,0,0-1.6-2.544,2.506,2.506,0,0,0-1.748-.536A4.061,4.061,0,0,0,119.95,8l-4.382,5.165M119.95,8l-4.292,5.255m-4.839,5.137-4.653,5.468"/>
    <path id="X_dote" data-name="X dote" class="fill-white" d="M110.382,15.475L107.1,12.243a4.511,4.511,0,0,1-1.435-2.63q0-1.028,1.619-2.486c1.079-.973,1.3-0.892,2.034-0.739,0.682,0.142,1.087.908,2.07,2l2.474,3.289m-3.478,3.794L107.1,12.243"/>
  </g>
</svg>
