<?xml version="1.0" encoding="utf-8"?>
<!-- Generator: Adobe Illustrator 17.1.0, SVG Export Plug-In . SVG Version: 6.00 Build 0)  -->
<!DOCTYPE svg PUBLIC "-//W3C//DTD SVG 1.1//EN" "http://www.w3.org/Graphics/SVG/1.1/DTD/svg11.dtd">
<svg version="1.1" id="Layer_1" xmlns="http://www.w3.org/2000/svg" xmlns:xlink="http://www.w3.org/1999/xlink" x="0px" y="0px"
	 viewBox="0 0 468.8 238.2" enable-background="new 0 0 468.8 238.2" xml:space="preserve">
<g>
	<path d="M133.9,141l22.8-88.2c0.4-1.2,0.8-3,1-5.3c0.3-2.3,0.4-4.2,0.4-5.7c0-1.4-0.1-2.6-0.2-3.5
		c-0.1-1-0.6-2.2-1.2-3.7h31.7c-1.2,1.9-2.3,3.7-3.3,5.2c-1,1.5-1.8,3.1-2.5,4.9c-0.7,1.7-1.4,3.7-2.1,5.8c-0.7,2.1-1.4,4.7-2.3,7.8
		l-29.6,114.5H90L54.4,68.1L32,154.4c-0.3,1.1-0.6,2.8-0.8,5.2c-0.3,2.3-0.4,4.3-0.4,5.8c0,1.2,0.1,2.4,0.2,3.4c0.1,1,0.5,2.3,1,3.8
		H0.6c1.2-1.8,2.3-3.5,3.3-5.1c1-1.6,1.8-3.2,2.5-4.9c0.7-1.7,1.4-3.6,2.1-5.7c0.7-2.1,1.4-4.8,2.3-8l24.8-96.3
		c0.3-1.1,0.6-2.9,0.8-5.3c0.3-2.4,0.4-4.3,0.4-5.7c0-1.2-0.1-2.4-0.2-3.4c-0.1-1-0.5-2.3-1-3.8h61.7L133.9,141z"/>
	<path d="M291.6,172.6H165.1c1.2-1.8,2.3-3.5,3.3-5.1c1-1.6,1.8-3.3,2.5-5c0.7-1.7,1.4-3.7,2.1-5.8
		c0.7-2.2,1.4-4.8,2.3-7.8l24.8-96.3c0.3-1.1,0.5-2.9,0.8-5.3c0.3-2.4,0.4-4.3,0.4-5.7c0-1.2-0.1-2.4-0.2-3.4c-0.1-1-0.5-2.3-1-3.8
		H262c-1.2,1.9-2.3,3.7-3.3,5.2c-1,1.5-1.8,3.1-2.5,4.9c-0.7,1.7-1.4,3.7-2.1,5.8c-0.7,2.1-1.4,4.7-2.3,7.8l-23.6,91.7h34.4
		c6.2,0,11.3,0,15.3-0.1c4-0.1,7.4-0.2,10.2-0.4c2.8-0.2,5.2-0.5,7.2-1c2-0.5,4.2-1.1,6.5-1.8L291.6,172.6z"/>
	<path d="M428.2,55.5c1.7-2.8,3-5.9,3.9-9.3c1-3.4,1.4-6.7,1.4-9.7v-1.9h35.2c-2.1,2.3-3.8,4.2-5.1,5.7
		c-1.3,1.4-2.5,2.9-3.4,4.2c-1,1.4-1.9,2.8-2.9,4.3c-1,1.5-2.1,3.5-3.5,5.8l-70,118h-57.8L309.6,53.4c-0.6-3.9-1.3-7.3-2.3-10.2
		c-1-3-2.2-5.8-3.7-8.6h61.1c-1.4,2.5-2.3,4.6-2.7,6.4c-0.4,1.8-0.6,4.1-0.6,6.8c0,1.5,0,3,0.1,4.6c0.1,1.5,0.2,3,0.5,4.3l12.6,89.2
		L428.2,55.5z"/>
</g>
<g>
	<path d="M31.8,209.7l5.4-21c0.1-0.3,0.2-0.7,0.2-1.3c0.1-0.5,0.1-1,0.1-1.4c0-0.3,0-0.6,0-0.8
		c0-0.2-0.1-0.5-0.3-0.9h7.6c-0.3,0.5-0.6,0.9-0.8,1.2c-0.2,0.4-0.4,0.7-0.6,1.2c-0.2,0.4-0.3,0.9-0.5,1.4c-0.2,0.5-0.3,1.1-0.5,1.9
		l-7.1,27.3h-14l-8.5-24.9l-5.3,20.6c-0.1,0.3-0.1,0.7-0.2,1.2c-0.1,0.6-0.1,1-0.1,1.4c0,0.3,0,0.6,0,0.8c0,0.2,0.1,0.6,0.2,0.9H0
		c0.3-0.4,0.6-0.8,0.8-1.2c0.2-0.4,0.4-0.8,0.6-1.2c0.2-0.4,0.3-0.8,0.5-1.4c0.2-0.5,0.3-1.1,0.5-1.9l5.9-23
		c0.1-0.3,0.1-0.7,0.2-1.3c0.1-0.6,0.1-1,0.1-1.4c0-0.3,0-0.6,0-0.8c0-0.2-0.1-0.6-0.2-0.9h14.7L31.8,209.7z"/>
	<path d="M68.2,217.3H47.1c-2.5,0-4.4-0.6-5.6-1.7c-1.4-1.3-2-2.7-2-4.4c0-0.6,0.1-1.3,0.2-2l2.8-10.7
		c0.5-1.9,1.4-3.3,2.6-4.2c1.3-0.9,2.9-1.3,5.1-1.3h15.2c1.8,0,3.2,0.1,4.1,0.3c0.9,0.2,1.7,0.7,2.4,1.3c1.3,1.2,1.9,2.6,1.9,4.4
		c0,0.8-0.1,1.6-0.3,2.4l-1.5,6H52.1l-0.6,2.2c-0.1,0.2-0.1,0.5-0.1,0.7c0,0.3,0,0.5,0,0.6c0,0.3,0.1,0.6,0.3,0.8
		c0.2,0.3,0.4,0.4,0.7,0.5c0.1,0,0.1,0.1,0.2,0.1c0.1,0,0.2,0,0.3,0s0.3,0,0.6,0c0.3,0,0.6,0,1.1,0h11.6c1.1,0,1.9,0,2.5-0.1
		c0.6-0.1,1.2-0.2,1.8-0.4L68.2,217.3z M61.3,202.8L62,200c0.1-0.3,0.1-0.5,0.1-0.7c0-0.2,0-0.3,0-0.4c0-0.8-0.6-1.2-1.8-1.2h-3.7
		c-0.5,0-0.8,0-1.1,0.1c-0.3,0-0.5,0.2-0.7,0.3c-0.2,0.2-0.4,0.4-0.5,0.7c-0.1,0.3-0.3,0.7-0.4,1.2l-0.7,2.7H61.3z"/>
	<path  d="M99.5,195.6c0.8-0.7,1.4-1.2,1.8-1.6c0.3-0.4,0.6-0.7,0.7-1h8.6l-14.7,11l5.2,8.9c0.9,1.5,2,3,3.2,4.3h-15
		c0-0.3,0-0.5,0-0.7c0-0.2-0.1-0.4-0.1-0.6c-0.1-0.2-0.2-0.5-0.3-0.8c-0.1-0.3-0.4-0.7-0.7-1.3l-1.8-3.2l-6,4.6
		c-0.6,0.5-1.1,0.9-1.3,1.1c-0.2,0.2-0.4,0.6-0.6,0.9h-8.5l14-10.3l-6.4-10.9c-0.3-0.5-0.5-0.9-0.7-1.3c-0.2-0.3-0.4-0.6-0.5-0.8
		c-0.1-0.2-0.3-0.4-0.5-0.5c-0.2-0.1-0.4-0.3-0.6-0.5h15.1c0,0.7,0.1,1.4,0.3,2c0.2,0.6,0.5,1.3,0.9,2l1.7,3L99.5,195.6z"/>
	<path d="M133.9,197.7h-9.6l-3.2,12.2c-0.1,0.3-0.1,0.5-0.1,0.7c0,0.7,0.3,1.1,0.8,1.4c0.5,0.3,1.4,0.4,2.5,0.4h3.2
		c0.8,0,1.5-0.1,2.1-0.2c0.6-0.1,1.3-0.3,2-0.6l-1.4,5.5h-12.1c-0.5,0-1.1,0-1.8,0c-0.8,0-1.4-0.1-2-0.1c-0.8-0.1-1.4-0.3-2.1-0.6
		c-0.6-0.3-1.2-0.7-1.6-1.3c-0.5-0.5-0.8-1.1-1.1-1.8c-0.3-0.7-0.4-1.4-0.4-2.1c0-0.6,0.1-1.3,0.2-2l3-11.5h-5l1.2-4.7h4.9l1.2-4.6
		l12-0.7l-1.4,5.3h9.6L133.9,197.7z"/>
	<path d="M174.2,217.3H144c0.3-0.4,0.6-0.8,0.8-1.2c0.2-0.4,0.4-0.8,0.6-1.2c0.2-0.4,0.3-0.9,0.5-1.4
		c0.2-0.5,0.3-1.1,0.5-1.9l5.9-23c0.1-0.3,0.1-0.7,0.2-1.3c0.1-0.6,0.1-1,0.1-1.4c0-0.3,0-0.6,0-0.8c0-0.2-0.1-0.6-0.2-0.9h14.8
		c-0.3,0.5-0.6,0.9-0.8,1.2c-0.2,0.4-0.4,0.7-0.6,1.2c-0.2,0.4-0.3,0.9-0.5,1.4c-0.2,0.5-0.3,1.1-0.5,1.9l-5.6,21.9h8.2
		c1.5,0,2.7,0,3.7,0c1,0,1.8,0,2.4-0.1c0.7,0,1.3-0.1,1.7-0.2c0.5-0.1,1-0.3,1.6-0.4L174.2,217.3z"/>
	<path d="M207.2,217.3h-21.1c-2.5,0-4.4-0.6-5.6-1.7c-1.4-1.3-2-2.7-2-4.4c0-0.6,0.1-1.3,0.2-2l2.8-10.7
		c0.5-1.9,1.4-3.3,2.6-4.2c1.3-0.9,2.9-1.3,5.1-1.3h15.2c1.8,0,3.2,0.1,4.1,0.3c0.9,0.2,1.7,0.7,2.4,1.3c1.3,1.2,1.9,2.6,1.9,4.4
		c0,0.8-0.1,1.6-0.3,2.4l-1.5,6H191l-0.6,2.2c-0.1,0.2-0.1,0.5-0.1,0.7c0,0.3,0,0.5,0,0.6c0,0.3,0.1,0.6,0.3,0.8
		c0.2,0.3,0.4,0.4,0.7,0.5c0.1,0,0.1,0.1,0.2,0.1c0.1,0,0.2,0,0.3,0s0.3,0,0.6,0c0.3,0,0.6,0,1.1,0H205c1.1,0,1.9,0,2.5-0.1
		c0.6-0.1,1.2-0.2,1.8-0.4L207.2,217.3z M200.2,202.8l0.7-2.7c0.1-0.3,0.1-0.5,0.1-0.7c0-0.2,0-0.3,0-0.4c0-0.8-0.6-1.2-1.8-1.2
		h-3.7c-0.5,0-0.8,0-1.1,0.1c-0.3,0-0.5,0.2-0.7,0.3c-0.2,0.2-0.4,0.4-0.5,0.7c-0.1,0.3-0.3,0.7-0.4,1.2l-0.7,2.7H200.2z"/>
	<path d="M238.8,197c0.9-1.3,1.4-2.6,1.5-3.9h7.2c-0.3,0.3-0.5,0.5-0.7,0.7c-0.2,0.2-0.4,0.4-0.6,0.6
		c-0.2,0.2-0.4,0.6-0.7,0.9c-0.2,0.4-0.6,0.8-0.9,1.4l-13.9,20.6h-12.9l-2.9-19.8c-0.1-0.6-0.2-1.1-0.2-1.6
		c-0.1-0.4-0.1-0.8-0.2-1.1c-0.1-0.3-0.2-0.6-0.3-0.9c-0.1-0.3-0.2-0.6-0.4-0.9h13.4c-0.3,0.6-0.5,1.1-0.6,1.5
		c-0.1,0.4-0.1,1-0.1,1.7c0,0.8,0,1.5,0.1,2.2l1.8,14.2L238.8,197z"/>
	<path d="M271.7,217.3h-21.1c-2.5,0-4.4-0.6-5.6-1.7c-1.4-1.3-2-2.7-2-4.4c0-0.6,0.1-1.3,0.2-2l2.8-10.7
		c0.5-1.9,1.4-3.3,2.6-4.2c1.3-0.9,2.9-1.3,5.1-1.3h15.2c1.8,0,3.2,0.1,4.1,0.3c0.9,0.2,1.7,0.7,2.4,1.3c1.3,1.2,1.9,2.6,1.9,4.4
		c0,0.8-0.1,1.6-0.3,2.4l-1.5,6h-19.9l-0.6,2.2c-0.1,0.2-0.1,0.5-0.1,0.7c0,0.3,0,0.5,0,0.6c0,0.3,0.1,0.6,0.3,0.8
		c0.2,0.3,0.4,0.4,0.7,0.5c0.1,0,0.1,0.1,0.2,0.1c0.1,0,0.2,0,0.3,0s0.3,0,0.6,0c0.3,0,0.6,0,1.1,0h11.6c1.1,0,1.9,0,2.5-0.1
		c0.6-0.1,1.2-0.2,1.8-0.4L271.7,217.3z M264.8,202.8l0.7-2.7c0.1-0.3,0.1-0.5,0.1-0.7c0-0.2,0-0.3,0-0.4c0-0.8-0.6-1.2-1.8-1.2
		h-3.7c-0.5,0-0.8,0-1.1,0.1c-0.3,0-0.5,0.2-0.7,0.3c-0.2,0.2-0.4,0.4-0.5,0.7c-0.1,0.3-0.3,0.7-0.4,1.2l-0.7,2.7H264.8z"/>
	<path d="M290,212.9c-0.1,0.3-0.1,0.7-0.2,1.2c-0.1,0.6-0.1,1-0.1,1.4c0,0.3,0,0.6,0,0.8c0,0.2,0.1,0.5,0.2,0.9H276
		c0.3-0.4,0.6-0.8,0.8-1.2c0.2-0.4,0.4-0.8,0.6-1.2c0.2-0.4,0.3-0.8,0.5-1.4c0.2-0.5,0.3-1.1,0.5-1.9l5.9-23
		c0.1-0.3,0.1-0.7,0.2-1.3c0.1-0.6,0.1-1,0.1-1.4c0-0.3,0-0.6,0-0.8c0-0.2-0.1-0.6-0.2-0.9h13L290,212.9z"/>
	<path d="M340.8,189.3c0.4-0.7,0.7-1.4,0.9-2.2c0.2-0.8,0.3-1.6,0.3-2.3v-0.4h8.4c-0.5,0.6-0.9,1-1.2,1.4
		c-0.3,0.3-0.6,0.7-0.8,1c-0.2,0.3-0.5,0.7-0.7,1c-0.2,0.4-0.5,0.8-0.8,1.4l-16.7,28.2h-13.8l-4-28.5c-0.1-0.9-0.3-1.7-0.5-2.4
		c-0.2-0.7-0.5-1.4-0.9-2h14.6c-0.3,0.6-0.5,1.1-0.6,1.5c-0.1,0.4-0.1,1-0.1,1.6c0,0.4,0,0.7,0,1.1c0,0.4,0.1,0.7,0.1,1l3,21.3
		L340.8,189.3z"/>
	<path d="M356.2,212.9c-0.1,0.3-0.1,0.7-0.2,1.2c-0.1,0.6-0.1,1-0.1,1.4c0,0.3,0,0.6,0,0.8c0,0.2,0.1,0.5,0.2,0.9
		h-13.9c0.3-0.4,0.6-0.8,0.8-1.2c0.2-0.4,0.4-0.8,0.6-1.2c0.2-0.4,0.3-0.8,0.5-1.4c0.2-0.5,0.3-1.1,0.5-1.9l3.7-14.2
		c0.1-0.3,0.2-0.8,0.2-1.3c0.1-0.5,0.1-1,0.1-1.3c0-0.3,0-0.6,0-0.8c0-0.2-0.1-0.6-0.3-0.9h13L356.2,212.9z M361.9,190.7H350
		l1.7-6.4h11.9L361.9,190.7z"/>
	<path d="M392,212.9c-0.1,0.3-0.1,0.7-0.2,1.3c-0.1,0.6-0.1,1-0.1,1.4c0,0.3,0,0.6,0,0.8c0,0.2,0.1,0.6,0.3,0.9
		h-12.4v-2.1c-0.3,0.4-0.5,0.8-0.8,1c-0.3,0.3-0.6,0.5-0.9,0.6c-0.3,0.1-0.7,0.3-1.2,0.3c-0.4,0.1-1,0.1-1.6,0.1h-6.7
		c-1.5,0-2.6-0.1-3.4-0.4c-0.8-0.3-1.6-0.7-2.3-1.4c-1.2-1.1-1.7-2.4-1.7-4c0-0.2,0-0.4,0-0.6c0-0.2,0-0.3,0-0.5
		c0-0.2,0.1-0.4,0.2-0.7c0.1-0.3,0.2-0.7,0.3-1.2l2.5-9.7c0.5-2,1.4-3.5,2.7-4.4s3-1.4,5.2-1.4h8.7c1.2,0,2,0.2,2.6,0.5
		c0.6,0.3,1,1,1.4,1.9l1.7-6.8c0.1-0.3,0.2-0.7,0.2-1.3c0.1-0.6,0.1-1,0.1-1.3c0-0.3,0-0.6,0-0.8c0-0.2-0.1-0.6-0.3-0.9h13
		L392,212.9z M378,212.5c1,0,1.6-0.1,2-0.4c0.4-0.3,0.7-0.9,0.9-1.8l2.4-9.2c0.1-0.3,0.1-0.6,0.2-1c0.1-0.4,0.1-0.7,0.1-0.9
		c0-1-0.7-1.5-2.2-1.5h-2.8c-0.5,0-0.9,0-1.2,0.1c-0.3,0.1-0.6,0.2-0.8,0.4c-0.2,0.2-0.4,0.6-0.5,1c-0.1,0.4-0.3,1-0.5,1.7l-2.2,8.4
		l-0.2,0.8c-0.1,0.4-0.2,0.7-0.2,1.1c0,0.5,0.2,0.8,0.6,1c0.4,0.2,1,0.3,1.9,0.3H378z"/>
	<path d="M425.6,217.3h-21.1c-2.5,0-4.4-0.6-5.6-1.7c-1.4-1.3-2-2.7-2-4.4c0-0.6,0.1-1.3,0.2-2l2.8-10.7
		c0.5-1.9,1.4-3.3,2.6-4.2c1.3-0.9,2.9-1.3,5.1-1.3h15.2c1.8,0,3.2,0.1,4.1,0.3c0.9,0.2,1.7,0.7,2.4,1.3c1.3,1.2,1.9,2.6,1.9,4.4
		c0,0.8-0.1,1.6-0.3,2.4l-1.5,6h-19.9l-0.6,2.2c-0.1,0.2-0.1,0.5-0.1,0.7c0,0.3,0,0.5,0,0.6c0,0.3,0.1,0.6,0.3,0.8s0.4,0.4,0.7,0.5
		c0.1,0,0.1,0.1,0.2,0.1c0.1,0,0.2,0,0.3,0s0.3,0,0.6,0c0.3,0,0.6,0,1.1,0h11.6c1.1,0,1.9,0,2.5-0.1c0.6-0.1,1.2-0.2,1.8-0.4
		L425.6,217.3z M418.6,202.8l0.7-2.7c0.1-0.3,0.1-0.5,0.1-0.7c0-0.2,0-0.3,0-0.4c0-0.8-0.6-1.2-1.8-1.2h-3.7c-0.5,0-0.8,0-1.1,0.1
		c-0.3,0-0.5,0.2-0.7,0.3c-0.2,0.2-0.4,0.4-0.5,0.7c-0.1,0.3-0.3,0.7-0.4,1.2l-0.7,2.7H418.6z"/>
	<path d="M459.6,193c1.5,0,2.8,0.2,3.7,0.5c0.9,0.3,1.7,0.9,2.3,1.8c0.4,0.5,0.7,1.1,0.9,1.8
		c0.2,0.7,0.3,1.4,0.3,2.2c0,0.4,0,0.8-0.1,1.2c-0.1,0.4-0.2,0.9-0.3,1.5l-2.3,8.9c-0.2,0.7-0.3,1.2-0.5,1.7
		c-0.2,0.5-0.4,0.9-0.6,1.3c-0.2,0.4-0.5,0.7-0.7,1c-0.3,0.3-0.6,0.6-1,0.9c-0.4,0.3-0.7,0.5-1.1,0.7c-0.4,0.2-0.9,0.3-1.4,0.4
		c-0.5,0.1-1.2,0.2-1.9,0.2c-0.7,0-1.5,0.1-2.5,0.1h-14.6c-1,0-1.7,0-2.3,0c-0.6,0-1.1-0.1-1.5-0.2c-0.4-0.1-0.8-0.2-1.1-0.4
		c-0.3-0.2-0.6-0.4-0.9-0.7c-0.7-0.6-1.3-1.3-1.6-2.1c-0.4-0.8-0.5-1.7-0.5-2.6c0-0.4,0-0.7,0.1-1c0-0.3,0.1-0.7,0.2-1.1l2.8-10.6
		c0.3-1.1,0.7-2,1.4-2.8c0.6-0.8,1.4-1.4,2.3-1.8c0.7-0.3,1.6-0.6,2.5-0.7s2.2-0.2,3.9-0.2H459.6z M443.8,209.8
		c-0.1,0.6-0.2,0.9-0.2,1.1c0,0.1,0,0.3,0,0.4c0,0.9,0.8,1.3,2.3,1.3h3.5c0.5,0,1,0,1.3-0.1c0.3,0,0.6-0.1,0.9-0.3
		c0.2-0.1,0.4-0.4,0.5-0.6c0.1-0.3,0.2-0.6,0.3-1.1l2.4-9.4c0.2-0.5,0.3-0.9,0.3-1.1c0-0.2,0-0.4,0-0.6c0-0.6-0.2-1-0.6-1.2
		c-0.4-0.3-1-0.4-1.9-0.4h-3c-0.6,0-1,0-1.4,0.1c-0.4,0.1-0.7,0.2-0.9,0.3c-0.2,0.1-0.4,0.4-0.6,0.6s-0.3,0.6-0.4,1.1L443.8,209.8z"
		/>
</g>
</svg>
