<?xml version="1.0" encoding="utf-8"?>
<!-- Generator: Adobe Illustrator 23.0.0, SVG Export Plug-In . SVG Version: 6.00 Build 0)  -->
<svg version="1.1" id="Layer_1" xmlns="http://www.w3.org/2000/svg" xmlns:xlink="http://www.w3.org/1999/xlink" x="0px" y="0px"
	 viewBox="0 0 868 448" style="enable-background:new 0 0 868 448;" xml:space="preserve">
<style type="text/css">
	.st1{fill:#FFBDA1;}
	.st2{fill:#CE7152;}
	.st3{fill:#524F63;}
	.st4{fill:#E0E4ED;}
	.st5{fill:#91616A;}
	.st6{fill:#4A4549;}
	.st7{fill:#FFBB22;}
	.st8{fill:#DD851B;}
</style>
<g>
	<ellipse class="fill-dark" cx="436.5" cy="417.5" rx="431.5" ry="28"/>
	<ellipse class="fill-white" opacity="0.9" cx="436.5" cy="417.5" rx="435.5" ry="29"/>
	<g>
		<g>
			<path class="fill-blue" d="M432.4,212.6l32.6,117l2.8,10.1l0.4,1.5c1-1,2-2,3.1-2.8c0.3-0.2,0.6-0.5,0.9-0.7c2-1.6,4.3-2.9,6.8-3.7
				c0.4-0.1,0.7-0.2,1.1-0.3l0.6-0.1c0.5-0.1,1.1-0.1,1.6-0.1c1.9,0,3.8-0.4,5.6-1l0,0l0.8-0.3c4.4-1.7,8.6-3.7,12.7-6
				c0.3-0.1,0.5-0.3,0.7-0.4c1.3-0.7,2.1-1.2,2.1-1.2s0.8-0.4,2.1-1c1.1-0.5,2.4-1.1,3.8-1.7c2.3-1,4.6-1.8,7-2.4c0-0.5,0-0.9,0-1.4
				c0-0.1,0-0.3,0-0.4c0-0.3,0-0.6,0-0.8c0.1-3.3,0.2-6.5,0.2-9.7c0.1-5.3,0.2-10.4,0.3-15.6l0-2.7l0.1-7.7l0-2.9l0-2.2
				c0.1-8,0.2-15.9,0.2-23.6l-26.9-60.2l-4.3-5l-4.1-4.8l-4.2-0.6l-0.6-0.1l-4.1-0.6l0,0l-1-0.1l-2-0.3l-6.3,11.5l0,0.1l-0.1,0.3
				l-2.7,1.6l-1.7,1l-0.5,0l-2.2-0.1l0,0l-0.7,0l-0.2,0l0,0l-1.9-0.1l0,0l-5.5-0.3l-2.7,2.9l-1.7,1.9l-0.9,1l-0.8,0.7L432.4,212.6z"
				/>
			<path class="fill-blue" d="M469.6,346.7c0.4,1.5,1.9,1.9,5.6,0c1.7-0.8,3.4-1.5,5.2-2.1l0,0c0.3-0.1,0.7-0.2,1-0.4
				c3.6-1.2,8.2-2.5,13.2-4.1l0.3-0.1c2.2-0.7,4.6-1.5,6.9-2.3l1.4-0.5l0,0c3.2-1.2,6.5-2.4,9.8-3.9l0.1-0.1
				c1.2-0.5,2.4-1.1,3.6-1.6c0-0.3,0-0.5,0-0.8l0.4-0.2l-0.4-0.5c0.1-3.3,0.2-6.5,0.3-9.7c0-0.3,0-0.7,0-1c0-0.5,0-0.9,0-1.4
				c0-0.1,0-0.3,0-0.4l-1.3,0.6c-2.1,1-4.1,2.1-6.2,3.1l-0.2,0.1c-1.2,0.6-2.4,1.1-3.5,1.7c0,0-0.1,0-0.1,0.1
				c-1.3,0.6-2.6,1.2-3.9,1.8l-0.8,0.3c-1.4,0.6-2.8,1.1-4.1,1.6c-3.2,1.2-6.3,2.1-9,2.9c-0.3,0.1-0.5,0.2-0.8,0.2
				c-2.4,0.7-4.7,1.2-6.5,1.6l-0.9,0.2l-1.1,0.2c-2.5,0.5-3.9,0.7-3.9,0.7s-0.5,0.9-1.2,2.2c-0.4,0.8-0.9,1.7-1.4,2.7
				C470.7,340.9,469.2,344.7,469.6,346.7z"/>
			<path class="fill-blue" d="M469.6,346.7c0.6,0.9,2.2,0.9,5.3-0.7c1.7-0.9,3.5-1.6,5.4-2.2l0.1,0l0.9-0.3c3.5-1.1,7.9-2.4,12.6-3.9
				c0.1,0,0.2-0.1,0.3-0.1c2.6-0.8,5.3-1.7,8.1-2.7l0,0c0.5-0.2,0.9-0.3,1.4-0.5c3-1.1,6-2.3,9-3.6l0.1-0.1l3.9-1.7l0.4-0.2
				l-0.4-0.5c0.1-3.3,0.2-6.5,0.3-9.7c0-0.3,0-0.7,0-1c0-0.5,0-0.9,0-1.4c0-0.1,0-0.3,0-0.4c0-0.3,0-0.6,0-0.8
				c-2.2,1.1-4.5,2.3-6.8,3.4c0,0,0,0-0.1,0l-1.1,0.5c-1.2,0.6-2.4,1.2-3.7,1.8c-1.1,0.5-2.2,1-3.3,1.5c-0.2,0.1-0.4,0.2-0.6,0.2
				c-0.2,0.1-0.5,0.2-0.8,0.3c-4.3,1.8-8.7,3.3-13.1,4.5c-0.3,0.1-0.5,0.2-0.8,0.2l0,0c-2.4,0.6-4.5,1.2-6.3,1.6
				c-0.3,0.1-0.7,0.1-1,0.2l-1.1,0.2c-2.6,0.5-4.1,0.7-4.1,0.7s-0.9,1.5-1.9,3.6c-0.4,0.9-0.9,1.8-1.3,2.8
				C469.8,341.7,468.6,345.3,469.6,346.7z"/>
			<path class="fill-white" d="M431.9,211.3l32.9,118.4l2.8,10.2l0.1-0.2c1.5-1.5,3.1-2.9,4.8-4.1c0.3-0.2,0.6-0.4,1-0.7
				c1.6-1.1,3.4-1.9,5.2-2.5l0,0c0.4-0.1,0.7-0.2,1.1-0.2c0.3,0,0.5-0.1,0.8-0.1c0.3,0,0.7,0,1,0c2,0,3.9-0.4,5.8-1.1l0.8-0.3
				c3-1.1,5.9-2.4,8.7-3.9c1.5-0.8,2.9-1.5,4-2.1l0.7-0.4c0.2-0.1,0.4-0.2,0.6-0.3c0.9-0.5,1.4-0.8,1.4-0.8s3.2-1.6,6.6-3
				c0,0,0,0,0.1,0c1.8-0.8,3.7-1.4,5.5-2c0.4-0.1,0.8-0.2,1.3-0.2c0-0.1,0-0.3,0-0.4c0-0.3,0-0.6,0-0.8c0.1-3.3,0.2-6.5,0.2-9.7
				c0.1-5.3,0.2-10.4,0.3-15.6l0-2.7l0.1-7.7l0-2.9l0-2.2c0.1-8,0.2-15.9,0.2-23.6c0,0,0,0,0-0.1l-27.5-61.4l-3.6-4.3l-4.7-5.5
				l-4.1-0.6l-0.6-0.1l-3.3-0.5l-0.8-0.1l-0.9-0.1l-2.3-0.3l-6.5,11.9l-0.8,0.5l-0.1,0.1l-0.2,0.1l0,0l-2.4,1.4l0,0l-1,0.6l-2.7-0.1
				l0,0l-3.4-0.2l0,0l-4.9-0.3l-3.5,3.8l-0.6,0.7l-0.9,1l-0.4,0.5l-0.3,0.3L431.9,211.3z"/>
			<path class="fill-blue" d="M470.9,170.1L470.9,170.1L470.9,170.1l0.3,1.9l0,0l1.4,7.5l0.2,1.3l0.3,1.9l0,0l0.6,3.4l4.1,10.7l0.7,1.8
				l6.6,17l14.4,37.6l14.1,19.6c0,0,2.1,2.6,4.2,5.3l0-2.2c0.1-8,0.2-15.9,0.2-23.6c0,0,0,0,0-0.1c0.2-29.4-0.1-56.7-0.7-80.7
				c-0.2,0-0.4,0-0.6,0c-2.8,0.5-6,0.8-7.2,0.9l-0.5,0c-0.7,0.5-1.5,0.9-2.3,1.3c-1.2,0.6-2.6,1.1-3.5,0.7
				c-1.6-0.7-11.7,0.7-13.3,1.4c-0.7,0.2-1.5,0.4-2.3,0.4c-2.3,0.2-5.2,0.1-5.2,0.1l-6.1-1.6l-0.2-0.1l-0.1,0
				c-1.6-0.5-4.3-3.4-5.1-4.4l0,0L470.9,170.1L470.9,170.1L470.9,170.1z"/>
			<path class="fill-blue" d="M458,170.1L458,170.1L458,170.1L458,170.1l0.6,2.1l2.1,7.5l0.3,1.2l0,0l0,0.1l1.3,4.5l4.5,11.7l0.7,1.8
				l5,13.1l15.6,40.6l14.1,19.6l2.9,3.6c0.1-8,0.2-15.9,0.2-23.6c0,0,0,0,0-0.1c0.2-29.4-0.1-56.7-0.7-80.7c0-0.1,0-0.3,0-0.4
				c-3.4,0.5-7,0.8-7,0.8s-0.3,0.2-0.8,0.5c-0.9,0.5-1.8,1-2.8,1.3c-0.7,0.3-1.4,0.4-2.1,0.2c-1.6-0.7-11.7,0.7-13.3,1.4
				c-1.1,0.3-2.3,0.5-3.5,0.5c-1.9,0.1-3.9,0-3.9,0l-6.3-1.6c-1.7-0.4-5.6-3.3-6.5-4C458.2,170.1,458.1,170.1,458,170.1L458,170.1
				L458,170.1L458,170.1z"/>
		</g>
		<path class="fill-dark" d="M304.4,259.2c0,113.7,52.5,147.6,121.6,147.6s118.6-30.9,118.6-147.6c0-102.9-49.6-147.1-118.6-147.1
			S304.4,137.7,304.4,259.2z M350.7,259.3c0-84.2,26-108.9,73.8-108.9s73.8,37.6,73.8,108.9c0,80.8-25,108.8-72.8,108.8
			S350.7,338.1,350.7,259.3z"/>
		<g>
			<path class="fill-blue" d="M378.5,316.4c0,0-5-23.3,8.2-29l18.1,15.8l-4.6,7.2C400.2,310.4,386.4,316.7,378.5,316.4z"/>
			<path class="fill-blue" d="M404.8,303.2l-4.6,7.2c0,0-9.8,4.5-17.6,5.7c-1.4,0.2-2.8,0.3-4.2,0.3c0,0,0-0.1-0.1-0.4c0,0,0-0.1,0-0.1
				c-0.5-3-0.8-6-0.8-9c0-1.1,0-2.3,0.1-3.5c0.4-4.5,1.6-9.3,4.5-12.7c1.1-1.3,2.4-2.3,3.9-3c0.1-0.1,0.3-0.1,0.4-0.2
				c0.1,0,0.1-0.1,0.2-0.1l0.4,0.3l6.1,5.3L404.8,303.2z"/>
			<path class="fill-light-pink" d="M383.7,288c0,0,4.6,14-3.8,17.8c0,0-3-0.4-7.3-1.5c-9.8-2.4-26.1-8.1-27.1-19.4c-1.3-16.2,32.5,0.5,32.5,0.5
				l2.6,1.2L383.7,288z"/>
			<path class="fill-light-pink" d="M383.7,288c0,0,4.6,14-3.8,17.8c0,0-3-0.4-7.3-1.5l-1.1-0.6c1.8,0.1,3.5-0.1,5.2-0.7
				c2.1-0.8,4.2-2.6,4.5-6.4c0.2-2.1,0.2-4.2,0.1-6.4c-0.1-1.2-0.2-2.5-0.6-3.7L383.7,288z"/>
			<path class="fill-white" d="M390.4,314.1l-2.9-1.6l-9.9-5.5l-5-2.8c1.8,0.1,3.5-0.1,5.2-0.7c2.1-0.9,4.2-2.6,4.5-6.4
				c0.2-2.1,0.2-4.2,0.1-6.4c-0.2-3.4-0.9-5-1.5-5.3c-0.6-0.4,3.2,1,5,1.7l0.1,0c0.5,0.2,0.9,0.3,0.9,0.3l0.4,0.4l6,5.1l0.1,0.3
				C394.4,295.1,400.9,307.6,390.4,314.1z"/>
			<path class="fill-light-pink" d="M476.4,174.3l-9.1,24.5c0,0-24.8,0.4-23.7-3.4c0.4-1.5-1.2-4.9-3.4-8.6c-3.4-5.8-8.1-12.2-8.1-12.2
				s34.5-21.5,34-14c-0.2,2.8,1.1,5.3,2.9,7.5C471.1,170.5,473.6,172.6,476.4,174.3z"/>
			<path class="fill-blue" d="M466.1,160.6c-0.2,2.8-0.6,3.2,1.1,5.4c-2.6,7.2-6.4,15.5-14.1,18.7c-4.1,1.7-8.5,2.5-13,2.2
				c-3.4-5.8-8.1-12.2-8.1-12.2S466.6,153,466.1,160.6z"/>
			<path class="fill-light-pink" d="M468.2,146.3c6.2,14.6-0.7,31.4-15.4,37.6c-14.7,6.2-31.6-0.7-37.8-15.3l0,0l-0.2-0.4
				c-6.1-14.6,0.9-31.4,15.6-37.5C445.3,124.7,462.1,131.7,468.2,146.3L468.2,146.3z"/>
			<path class="fill-blue" d="M450.4,198.9c0,0,8.9,4.5,9.4,6c0.5,1.5,1.7,5,1.7,5l-0.6,10.9c0,0,2.3,12.3,3.3,14.6s5.6,24.2,5.6,24.2
				l8.5,33.1l11.3,43.3l10.4,7.8l4.6-9l-21.3-76.7l-4.1-15.2c0,0-8.8-26.7-10-29.3c-1.2-2.7-5.3-9.1-5.3-9.1s-1.4-7.2,4-11.4
				c5.4-4.1-0.6-0.1-0.6-0.1l-4.6-1.3l-2.5,2.5C460.3,194.1,450.9,195.1,450.4,198.9z"/>
			<path class="fill-primary" d="M449.5,198.5c0,0,8.9,4.5,9.4,6c0.5,1.5,1.7,5,1.7,5l-0.7,10.9c0,0,2.3,12.3,3.3,14.6
				c1,2.3,5.6,24.2,5.6,24.2l8.5,33.1l11.3,43.3l10.4,7.8l4.6-9l-21.2-76.7l-4.1-15.2c0,0-8.8-26.7-9.9-29.3
				c-1.1-2.6-5.3-9.1-5.3-9.1s-1.4-7.2,4-11.4s-0.6-0.1-0.6-0.1l-4.6-1.3l-2.5,2.5C459.4,193.8,450,194.7,449.5,198.5z"/>
			<path class="fill-white" d="M440.6,188.5c0,0-0.6,1,1,5.6c1.7,4.5,2.8,15.8,2.8,15.8s8.2-12.9,14.4-14.4L440.6,188.5z"/>
			<path class="fill-white" d="M440.1,187.2c0,0-0.6,1,1,5.6c1.7,4.5,2.8,15.9,2.8,15.9s8.2-12.9,14.4-14.4L440.1,187.2z"/>
			<path class="fill-blue" d="M470.8,171.7l-11.5,23.7c0,0,19.2,2.6,22.2,4s-5.2-23.5-5.2-23.5L470.8,171.7z"/>
			<path class="fill-white" d="M470.9,170.1l-11.5,23.7c0,0,19.2,2.6,22.2,4c2.9,1.4-5.2-23.5-5.2-23.5L470.9,170.1z"/>
			<path class="fill-blue" d="M441.3,188.2c0,0-2.4-0.1-3.1,3.6c-0.7,3.7-3.7,6.5-3.7,6.5S415.5,210,415.9,213l-9.2,4.5c0,0-3.2,1.8-0.5,9
				c2.6,7.1,1.1,8.5,1.1,8.5s-1,8.5,0.8,12c1.8,3.4-0.8,6.6-0.8,6.6l29.2,30.3c0,0,6.8,14.7,6.5,21.2c-0.3,6.5,5.1,32.6,5.1,32.6
				s1.8-1.3,2.3,0.1c0.5,1.4,4.3,16.9,4.3,16.9s1.8,6.1,1.5,8.5c-0.3,2.5,4,13,4,13l1.4,8.3c0,0,8.2,7.7,14.1,3.6
				c5.9-4,7-34.2,7-34.2l-4-30.4l-5.6-29.3l-6-18.9l-14.4-41.5l-7.4-28.3C445.3,205.6,443.7,189.5,441.3,188.2z"/>
			<path class="fill-blue" d="M440.1,187.2c0,0-2.4-0.2-3.1,3.5s-3.7,6.5-3.7,6.5S414.3,209,414.7,212l-9.2,4.5c0,0-3.2,1.8-0.5,9
				c2.6,7.1,1.1,8.5,1.1,8.5s-1,8.5,0.8,12c1.8,3.4-0.8,6.6-0.8,6.6l29.2,30.2c0,0,6.7,14.7,6.5,21.2c-0.3,6.5,5.1,32.6,5.1,32.6
				s1.8-1.3,2.3,0.1s4.3,16.9,4.3,16.9s1.8,6.1,1.5,8.5c-0.3,2.5,4,13,4,13l1.4,8.3c0,0,8.2,7.7,14.2,3.6c5.9-4,6.9-34.2,6.9-34.2
				l-4.1-30.4l-5.6-29.3l-6-18.9l-14.4-41.5l-7.4-28.3C444.1,204.6,442.4,188.4,440.1,187.2z"/>
			<path class="fill-blue" d="M404.8,303.2l-4.6,7.2c0,0-9.8,4.5-17.6,5.7l-4.3-0.1l-0.8,0l0.9-0.1c4.2-0.5,7.1-1.7,9-3.4
				c7.9-6.9,0.5-21.5-1.3-24.8c-0.2-0.3-0.3-0.5-0.3-0.6l0,0l0.1,0c0.2,0.1,0.4,0.3,0.6,0.4c0.2,0.1,0.4,0.2,0.6,0.3l0,0l6,5.1
				l0.1,0.3L404.8,303.2z"/>
			<path class="fill-blue" d="M408.9,250.4l-2.8,2.2l2.2,6.5c0,0-3.9,1-3.1,5.7s-0.1,7.5-0.1,7.5s-4,7.7-2.5,12.1l-2.8,4
				c0,0-9.7,1.7-13.2-1c0,0,16.1,27-8.2,29c0,0,28.4,0.4,30.1,1.4c1.7,1,10.9,2.1,16.1-4.3s4.3-12.4,4.3-12.4s2.7-11.7,2.3-13.1
				s4-5.1,4-5.1l-0.2-27.1L408.9,250.4z"/>
			<path class="fill-blue" d="M410.7,230.9c0,0,5.8,0.2,8.3,2.8C421.5,236.4,410.7,230.9,410.7,230.9z"/>
			<path class="fill-blue" d="M409.7,270.6c0,0-3.5,11.7,0.8,13.8C414.8,286.5,409.7,270.6,409.7,270.6z"/>
			<path class="fill-blue" d="M468.2,146.3c1.8,4.4,2.6,9.1,2.1,13.8l-0.2,0.1c-1.8,0.4-3.5-1.2-5.3-1.9c-2.3-0.9-4.8-0.2-6.4,1.7
				c-1.5,2-1.7,4.7-0.6,6.9c-2.4-3.2-3.7-7.1-6-10.3c-2.3-3.2-6.4-5.8-9.8-4.4c-1.5,0.6-3,1.9-4.5,1.2c-0.9-0.4-1.5-1.4-2.3-2
				c-4.1-2.9-10.7,2.2-12.9,5.5c-2.1,3.2-4.3,8-7.4,11.3c-6.1-14.6,0.9-31.4,15.6-37.5C445.3,124.7,462.2,131.7,468.2,146.3
				L468.2,146.3L468.2,146.3z"/>
			<path class="st5" d="M435,150.7c0.8,0.6,1.4,1.6,2.3,2c1.5,0.7,3-0.6,4.5-1.2c3.4-1.4,7.5,1.2,9.8,4.4c2.3,3.2,3.7,7.1,6,10.3
				c-1.2-2.2-0.9-4.9,0.6-6.9c1.5-1.9,4.1-2.5,6.4-1.7c1.8,0.7,3.5,2.3,5.3,1.9s2.8-2.6,2.6-4.7c-0.1-2-1-3.9-1.4-5.9
				c-0.7-3.8,0.4-7.6,0.2-11.4c-0.2-4.6-2.1-9-5.4-12.4c-1.7-1.7-3.8-3.1-5.5-4.8c-2.6-2.6-4.5-6.1-7.3-8.4
				c-4.8-3.9-12-3.9-16.3,0.2c-2,1.9-3.4,4.6-5.5,6.4c-2.9,2.4-6.7,3.1-10.3,4.1s-7.4,2.5-9.2,5.9c-2.1,3.9-0.9,9.1-2.7,13.2
				c-0.8,1.7-2,3.1-2.8,4.8c-0.8,1.6-1.3,3.8-0.4,5.5c1.2,2.2,4.3,3.4,4.4,5.8c0,0.7-0.2,1.5-0.5,2.1c-1.4,3.6-1.9,7.5-1.5,11.4
				c6.8-0.6,10.4-9.9,13.8-15C424.3,152.9,430.9,147.8,435,150.7z"/>
			<path class="fill-blue" d="M425.7,253.4c0,0,10.7,25.3,9.6,28.7C434.2,285.6,425.7,253.4,425.7,253.4z"/>
			<g class="st8">
				<path class="st5" d="M409.8,155.3c-0.1-2.4-3.1-3.6-4.3-5.7c0,0.7,0.1,1.5,0.5,2.2c0.9,1.6,2.8,2.7,3.8,4.1
					C409.8,155.7,409.8,155.5,409.8,155.3z"/>
				<path class="st5" d="M456.9,163.7c-2.3-3.2-3.6-7-5.9-10.1c-2.3-3.1-6.4-5.8-9.8-4.4c-1.5,0.6-3,1.9-4.5,1.2c-0.9-0.4-1.5-1.4-2.3-2
					c-4.1-2.9-10.7,2.2-12.9,5.5c-3.3,4.9-6.9,13.9-13.3,14.9c0,0.8,0,1.6,0.1,2.4c6.8-0.6,10.4-9.9,13.8-15
					c2.2-3.3,8.8-8.4,12.9-5.5c0.8,0.6,1.4,1.6,2.3,2c1.5,0.7,3-0.6,4.5-1.2c3.4-1.4,7.5,1.2,9.8,4.4c2.3,3.2,3.7,7.1,6,10.3
					C457.2,165.5,457,164.6,456.9,163.7z"/>
				<path class="st5" d="M471.9,152.5c0.1,2-0.8,4.3-2.6,4.7c-1.9,0.4-3.5-1.2-5.3-1.9c-2.3-0.9-4.8-0.2-6.4,1.7c-1.4,1.9-1.7,4.5-0.7,6.6
					c-0.1-1.5,0.3-3.1,1.3-4.3c1.5-1.9,4.1-2.5,6.4-1.7c1.8,0.7,3.5,2.3,5.3,1.9c1.8-0.4,2.8-2.6,2.6-4.7c-0.1-1.2-0.4-2.3-0.7-3.5
					C471.8,151.8,471.9,152.1,471.9,152.5z"/>
				<path d="M470.8,135.2c0.1,3.8-1,7.6-0.2,11.4c0.1,0.8,0.4,1.5,0.6,2.3c-0.7-3.8,0.4-7.6,0.2-11.4c-0.1-1.7-0.4-3.4-0.9-5
					C470.6,133.4,470.7,134.3,470.8,135.2z"/>
			</g>
		</g>
	</g>
	<path class="fill-primary" d="M263.1,317.4h-28.5v-83.7c0-9.3-7.5-16.8-16.8-16.8H211c-9.3,0-16.8,7.5-16.8,16.8l0,0v83.7h-80.5
		c-5.3,0-9.6-4.3-9.6-9.6c0-1.6,0.4-3.1,1.1-4.5l85.2-160.7c4.3-8.2,1.2-18.3-7-22.7c-0.2-0.1-0.4-0.2-0.7-0.3l-5-2.4
		c-8.1-3.8-17.8-0.6-22,7.3L51.7,318.3c-1.8,3.3-2.7,7-2.7,10.7l0,0c0,12.6,10.2,22.7,22.8,22.7c0,0,0,0,0,0h122.3v52.9
		c0,11.1,9,20.1,20.2,20.1l0,0h0c11.1,0,20.2-9,20.2-20.1l0,0v-52.9h28.5c9.5,0,17.2-7.7,17.2-17.2l0,0
		C280.3,325.1,272.6,317.4,263.1,317.4L263.1,317.4z"/>
	<path class="fill-primary" d="M791.6,317.4h-28.5v-83.7c0-9.3-7.5-16.8-16.8-16.8h-6.7c-9.3,0-16.8,7.5-16.8,16.8l0,0v83.7h-80.5
		c-5.3,0-9.6-4.3-9.6-9.6c0-1.6,0.4-3.1,1.1-4.5l85.2-160.7c4.3-8.2,1.2-18.3-7-22.7c-0.2-0.1-0.4-0.2-0.7-0.3l-5-2.4
		c-8.1-3.8-17.8-0.6-22,7.3L580.2,318.3c-1.8,3.3-2.7,7-2.7,10.7l0,0c0,12.6,10.2,22.7,22.8,22.7l0,0h122.3v52.9
		c0,11.1,9,20.1,20.2,20.1c0,0,0,0,0,0l0,0c11.1,0,20.2-9,20.2-20.1c0,0,0,0,0,0v-52.9h28.5c9.5,0,17.2-7.7,17.2-17.2l0,0l0,0
		C808.8,325.1,801.1,317.4,791.6,317.4L791.6,317.4z"/>
</g>
<g>
	<path class="fill-light-pink" d="M107.9,57.8c0.5,4.4,3.8,7.9,5.1,12.1c1.9,6.4-1.4,13.2-5.8,18.1c-7.2,8-17.2,12.8-27.9,13.3
		c-1.6,0.1-3.1,0-4.6-0.5c-1.3-0.5-2.5-1.4-3.5-2.4c-3.3-3.3-5.1-7.9-5.8-12.6c-0.7-4.6-0.4-9.4-0.2-14c0-1,0.2-1.9,0.5-2.8
		c0.5-0.9,1.1-1.6,1.8-2.2c2.4-2.2,5-4.1,7.8-5.7c1.3-0.6,2.4-1.4,3.3-2.5c0.5-0.9,0.9-1.9,1-3l0.9-4.4c0.2-1.3,0.6-2.5,1.3-3.6
		c1.5-2.1,4.4-2.3,7-2.4l9.4-0.4c2.9-0.1,6.8-1,9.6-0.4c2.7,0.5,1.8,3,1.3,5.2C108.4,52.2,108,55,107.9,57.8z"/>
	<path class="fill-light-pink" d="M107.9,57.8c0.5,4.4,3.8,7.9,5.1,12.1c1.9,6.4-1.4,13.2-5.8,18.1c-7.2,8-17.2,12.8-27.9,13.3
		c-1.6,0.1-3.1,0-4.6-0.5c-1.3-0.5-2.5-1.4-3.5-2.4c-3.3-3.3-5.1-7.9-5.8-12.6c-0.7-4.6-0.4-9.4-0.2-14c0-1,0.2-1.9,0.5-2.8
		c0.5-0.9,1.1-1.6,1.8-2.2c2.4-2.2,5-4.1,7.8-5.7c1.3-0.6,2.4-1.4,3.3-2.5c0.5-0.9,0.9-1.9,1-3l0.9-4.4c0.2-1.3,0.6-2.5,1.3-3.6
		c1.5-2.1,4.4-2.3,7-2.4l9.4-0.4c2.9-0.1,6.8-1,9.6-0.4c2.7,0.5,1.8,3,1.3,5.2C108.4,52.2,108,55,107.9,57.8z"/>
	<path class="fill-blue" d="M48.2,254.5c1.3,14.6,2.7,29.2,4,43.8c1,11.5,2.1,23,4.1,34.3c0.7,3.9,1.5,7.8,2.5,11.6
		c2.7,10.7,6.7,21.1,8,32.1c0,0.3,0.1,0.6,0.1,1c0.1,2.4,0.6,4.8,1.4,7.1c0.6,1.7,1.6,3.2,2.3,4.9c1.4,3.3,1.6,7,1.7,10.5
		c4.8-2.7,10.1-4.5,15.6-5.3c2.7-0.4,5.6-0.7,7.4-2.7c2-2.2,1.8-5.5,1.4-8.5c-1.1-9.1-2.1-18.3-3.2-27.4c-0.3-3.9-1-7.8-2-11.6
		c-0.4-1.3-0.8-2.5-1.2-3.8c-0.6-1.7-1.2-3.4-1.7-5.2c-0.7-2.9-1.1-5.8-1.4-8.7c-1.1-9.2-2.4-18.4-3.5-27.5l-0.1-0.5
		c-1.7-13.9-3-27.9-2.6-41.9c0.1-2.1,0.1-4.2,0.3-6.2c0.2-3,0.5-4.6-2-6.5c-2.8-2.1-6.4-3.5-9.6-4.9c-1.7-0.7-20.4-7.4-20.9-5.9
		c-0.9,3.1-1.3,6.3-1.4,9.6C47.6,246.5,47.8,250.5,48.2,254.5z"/>
	<path class="fill-blue" d="M124.1,234.8c-0.3,8.9-1.7,17.7-3.1,26.5l-2.9,18.2c-1.6,9.9-3.3,20.1-8,29c-3.5,6.7-8.6,12.3-13.2,18.3
		c-11.3,14.7-19.7,31.3-30.4,46.4c-3.1,4.4-7.5,9.1-12.9,8.2c-3.5-0.6-6-3.5-8.7-5.7c-3.2-2.6-7.1-4.6-9.7-7.9
		c-2.5-3.3-3-8.8,0.4-11.1c1.2-0.7,2.6-1.2,3.9-1.6c5.3-2,8.8-7.2,11-12.5c2.2-5.3,3.5-10.9,6.5-15.8c6.4-10.6,19.4-16.3,24.8-27.4
		c3.1-6.2,3.4-13.4,3.6-20.3l0.6-17.7c0.1-1.9,0.1-3.9-0.7-5.7c-2.1-4.7-8.4-5.1-13.5-5.7c-5.8-0.7-11.4-2.5-16.6-5.2
		c-2.9-1.6-5.8-3.6-7.4-6.6c-1.4-2.7-1.6-5.9-1.8-8.9l-1.8-32c-0.2-2.8-0.3-5.6,0.7-8.2c2.4-6.5,10.6-8.6,17.6-8.3
		c12.9,0.6,24.8,6.1,36.9,9.9c3,0.9,6.1,1.7,9.2,2.4c2.7,0.5,6,0.3,8.6,1.2c4.6,1.6,4.5,11.7,5.2,15.9
		C123.7,218.3,124.2,226.5,124.1,234.8z"/>
	<path class="fill-dark" d="M55.3,382.8c-1.1,1.1-1.5,2.8-1.8,4.4c-1.6,8.8-2.5,17.7-2.6,26.7c0.1,0.8-0.1,1.7-0.5,2.4
		c-0.3,0.4-0.8,0.8-1.3,1c-3.3,1.6-7.1-0.6-9.8-3c-5.1-4.4-9.4-10.4-9.7-17.1c0.1-1.7,0-3.5-0.2-5.2c-0.4-2.5-1.9-4.7-3.2-7
		c-2.2-3.8-4-7.8-5.3-12c-0.5-1.6-0.8-3.5,0.4-4.6c0.4-0.3,0.9-0.6,1.5-0.8l14.8-5.5c1.3-0.5,4.5,7.7,5,8.6c1.2,2.2,2.5,3.4,5,4
		c2.5,0.5,5.6-0.2,7.9,1C59.6,377.9,57.6,380.6,55.3,382.8z"/>
	<path class="fill-dark" d="M78.2,387.9c0.3-0.5,0.7-1,1.1-1.4c0.7-0.4,1.5-0.7,2.3-0.8c2.8-0.5,6.2-0.8,8.1,1.3c1.8,2,1.5,5.2,3,7.4
		c0.5,0.7,1.1,1.3,1.6,2c0.5,1.1,0.8,2.4,0.7,3.6c0.1,3.4,0.2,6.9-0.1,10.3c-0.2,2.9-0.7,5.9-2.5,8.1c-2.9,3.6-8.1,4.1-12.7,4.4
		l-3.7,0.2c-1,0.1-2.1,0-3.1-0.3c-1.2-0.6-2.2-1.6-2.6-2.9c-1.9-4.8,1.1-10,3-14.9C75.6,399.4,75.2,393.2,78.2,387.9z"/>
	<path class="fill-dark" d="M109,33.1c0-0.5,0-1-0.2-1.4c-0.5-1-2-0.7-3-0.4c-4.3,1.1-8.9,0.1-13.3,0.4c-4.5,0.3-9.5,2.5-10.4,6.8
		c-3.2-2.3-6-5.2-8.2-8.4c-1.2-1.8-2.3-4-2.1-6.2c0.2-3.2,2.9-5.6,5.4-7.6l7.4-6c1-0.9,2.1-1.6,3.3-2.1c1.7-0.6,3.6-0.3,5.4-0.3
		c5.4,0,11.1-2.4,15.9,0c2,1,3.5,2.8,5,4.5l6.6,7.8c0.5,0.5,0.9,1.1,1.1,1.8c0.2,1-0.3,1.9-0.5,2.9c-0.3,1.7,0.4,3.6-0.1,5.3
		c-1,2.8-4.3,3.2-6.4,4.8c-0.8,0.6-2,2.6-2.9,2.6C110.2,37.4,109.1,34.4,109,33.1z"/>
	<circle class="fill-light-pink" cx="97.8" cy="35" r="21.2"/>
	<path class="fill-dark" d="M92.9,81.4c1.5-4.2,5.5-7,10-6.9c0.6,0.1,1.3,0,1.8-0.2c0.3-0.2,0.6-0.6,0.8-0.9c1.3-2.3,2.3-4.8,3.1-7.3
		c0.3-1.1,0.8-2.4,1.9-2.7c1-0.1,1.9,0.3,2.5,1.1c0.5,0.8,1.1,1.5,1.8,2.2c2.7,2.4,7.4,0.2,10.2,2.4c0.5,0.4,0.8,0.8,1.3,1.1
		c0.5,0.3,1,0.5,1.6,0.7c5.5,1.8,10.8,3.9,16,6.3c-1.9,11.3-3.8,22.8-8.2,33.4c-2.1,5-4.5,10-6.2,15.2c-3.7,11.5-3.9,23.8-3.9,35.9
		c0,8.3,0,16.7,2.7,24.6c0.7,1.7,1.2,3.5,1.5,5.4c0.2,1.9-0.4,3.9-1.9,5c-0.9,0.6-1.9,0.9-2.9,1c-4.6,0.7-9.3-0.6-13.9-1.6
		c-12.2-2.8-24.7-4.5-37.2-6.1l-20.9-2.7c-1.5-0.1-3-0.5-4.3-1.1c-3.8-2.1-4.2-7.8-1.8-11.5c1.1-1.8,2.7-3.2,3.7-5
		c1-1.9,1-4.5-0.6-5.7c-3.3-2.6-2.3-7.5-2.5-11.7c-0.4-11.9-0.4-23.8,0.2-35.6c0.2-2.5,0.2-4.9,0.1-7.4c-0.4-4.2-1.1-8.3-2.3-12.3
		l-6.3-25c1.7-2.6,4.8-4.3,7.8-5c3-0.8,6.1-1,9.1-1.9c6.1-1.9,11.5-6.7,17.8-6.2c0.5,0,1,0.1,1.4,0.3c1.4,0.8,1.2,2.9,1.3,4.5
		c0.2,3.6,2.9,6.7,5.8,8.8c2.9,2.1,6.3,3.7,9,6.1C92.2,79,92.8,80.1,92.9,81.4z"/>
	<path class="fill-light-pink" d="M176.7,102.6c1.4,0.9,2.9,1.7,4.5,2.3c1.5,0.5,5.4,2.8,6.7,3.7c0.6,0.5,0.3,2,0.7,2.6c2.2,3.9-0.8,4.8-4.7,7
		c-1.3,0.8-2.9,1.1-4.4,1c-1.9-0.2-3.8-0.8-5.6-1.7l-14.9-2.4c-2.5-1.1-5.3-2.4-6.4-4.9c-0.1-0.2-0.2-0.5-0.1-0.8
		c0.1-0.3,0.3-0.5,0.6-0.6c3.4-2.2,6.3-5,8.7-8.2c0.6-0.8,1.4-2.8,2.2-3.3C167,95.7,174.2,101,176.7,102.6z"/>
	<path class="fill-light-pink" d="M17.1,99.8l-5.5,6.3c-1.2,1.3-2.4,2.7-3.4,4.1c-2.6,3.6-4.8,7.6-6.3,11.9c-1.2,3.1-2.2,6.5-1.8,9.8
		c0.3,1.7,0.7,3.4,1.4,5c1,3.1,2.3,6.1,3.7,9c1.2,2.2,2.7,4.3,4.2,6.3c4.3,5.6,8.9,11,14,16c1.9,1.9,2.7,4.9,3.5,7.4
		c1.5,4.6,5.1,8.3,8.6,11.7c1.1,1.2,2.4,2.2,3.7,3.2c2,1.3,4.3,2,6.7,1.9c1,0,2.1-0.2,3-0.6c2.4-1.1,3.6-3.9,3.8-6.5
		c0.2-2.4-0.2-4.8-1.2-7c-3.2-7-11.3-10-17-15.1c-3.4-3-5.9-6.8-8.5-10.5c-1.7-2.3-3.2-4.8-4.3-7.5c-1.3-3.4-0.8-7.5-1.9-10.9
		c-0.5-1.5-1.3-2.8-1.8-4.2s-0.6-3.2,0.3-4.4c0.7-0.8,1.5-1.4,2.5-1.8c3.7-1.9,7.8-4.3,8.5-8.3c0.3-2.2-0.3-4.5-1.6-6.3
		c-1.3-1.8-2.9-3.4-4.6-4.8C21.4,102.8,18.7,101.2,17.1,99.8z"/>
	<path class="fill-light-pink" d="M180.2,113.8c1-2,2.2-4,4.1-4.9c1.9-0.8,4.1-0.8,6,0c1.9,0.8,3.7,1.9,5.3,3.2l4.7,3.5c1.1,0.7,2,1.6,2.8,2.6
		c0.7,1.2,1.2,2.6,1.5,4c0.8,3.2,1.1,6.6,0.7,10c-0.8,5.3-4,10-7.5,14.1c-2.2,2.5-5,5.1-8.3,5.2c-1.5,0-3.1-0.5-3.7-1.9
		c-0.2-0.5-0.3-1.1-0.3-1.7c-0.4-6,1.8-11.8,4.3-17.2c0.8-1.4,1.3-3,1.4-4.6c0-0.3-0.1-0.5-0.2-0.8c-0.2-0.2-0.5-0.4-0.8-0.4
		c-3.2-2.5-5.6-4-11.7-5.9C177,116.6,179.1,116.1,180.2,113.8z"/>
	<path class="fill-dark" d="M110.1,26.5c0-0.5,0-1-0.2-1.4c-0.5-1-2-0.7-3-0.4c-4.3,1.1-8.9,0.1-13.3,0.4s-9.5,2.5-10.4,6.8
		c-3.2-2.3-6-5.2-8.2-8.4c-1.2-1.8-2.3-4-2.1-6.2c0.2-3.2,2.9-5.6,5.4-7.6l7.4-6c1-0.9,2.1-1.6,3.3-2.1c1.7-0.6,3.6-0.3,5.4-0.3
		c5.4,0,11.1-2.4,15.9,0c2,1,3.5,2.8,5,4.5l6.6,7.8c0.5,0.5,0.9,1.1,1.1,1.8c0.2,1-0.3,1.9-0.5,2.9c-0.3,1.7,0.4,3.6-0.1,5.3
		c-1,2.8-4.3,3.2-6.4,4.8c-0.8,0.6-2,2.6-2.9,2.6C111.3,30.7,110.2,27.8,110.1,26.5z"/>
	<path class="fill-dark" d="M155.8,114.7c-3.3,0.3-6.5-1.8-9.9-1.5c-1.2,0.1-2.5,0.5-3.7,0.2c-0.9-0.4-1.7-0.9-2.4-1.5
		c-2-1.3-4.7-1.4-6.3-3.1c-1.6-1.6-1.8-4.1-1.8-6.4c0-2,0.2-3.9,0.6-5.8c1.5-6.1,6.1-10.7,9-16.1c1.4-2.6,2.2-4.1,5.2-2.3
		c3,1.8,5.8,4.2,8.6,6.3c0.9,0.6,1.6,1.2,2.2,2.1c0.8,1.2,0.9,2.7,1.6,3.9c1.4,2.7,4.8,3.6,6.8,5.8"/>
	<path class="st9" d="M165.8,99l-10,15.8"/>
	<path class="fill-dark" d="M33.2,76.5c-1.9,1.2-3.6,2.7-5,4.4c-1.5,2-2.4,4.4-3.9,6.4c-1.4,2-3.4,3.5-5,5.3c-2.4,2.7-4.1,6.1-5.7,9.3
		c4,5.2,8.3,10.1,13,14.7c0.5,0.6,1.2,1.1,2,1.3c1.1,0.1,2.1-0.3,2.8-1.1c0.7-0.8,1.2-1.7,1.9-2.5c1.6-1.7,3.8-2.7,6.1-3
		c2.3-0.2,4.6-0.3,7-0.1c0.5,0.1,1,0,1.5-0.2c0.3-0.2,0.6-0.6,0.8-0.9c2.7-4.6,1.8-10.4,0.9-15.7l-2.2-12.1
		c-0.3-2.3-0.9-4.6-1.8-6.7c-0.8-1.8-2.7-4.8-5-4.3C38.2,71.8,35.2,75.1,33.2,76.5z"/>
</g>
</svg>
