<?xml version="1.0" encoding="utf-8"?>
<!-- Generator: Adobe Illustrator 23.0.0, SVG Export Plug-In . SVG Version: 6.00 Build 0)  -->
<svg version="1.1" id="Layer_1" xmlns="http://www.w3.org/2000/svg" xmlns:xlink="http://www.w3.org/1999/xlink" x="0px" y="0px"
	 viewBox="0 0 1920 243" style="enable-background:new 0 0 1920 243;" xml:space="preserve">
<style type="text/css">
	<!-- .st0{fill-rule:evenodd;clip-rule:evenodd;fill:#00F000;} -->
</style>
<g>
	<path class="fill-white" d="M0,0v243h1920V128c0,0-51.8,31-139,23c0,0-34.6,3.4-65,0c0,0-76.9,8.4-175-39c-109.5-52.9-138-59-138-59
		c-67.1-21-121.7-22.1-123-22c-19.9,1.3-62.3,8.4-76,11c-66.3,14.4-104.4,25-182,53c-78.1,28.2-201.4,84.6-246,99
		c-101.5,32.8-161.7,37-184,39c-28.2,2.5-83.2,3.1-128,2c-16-0.4-33,0.2-51,0c-57.5,0.4-113.8-10.2-167-30
		c-28.2-10.5-57.8-25.5-90-46c-35.4-22.5-65-46.5-90-72C43.5,64,23.4,38.9,6,12L0,0z"/>
</g>
</svg>
