<?xml version="1.0" encoding="utf-8"?>
<!-- Generator: Adobe Illustrator 23.0.0, SVG Export Plug-In . SVG Version: 6.00 Build 0)  -->
<svg version="1.1" id="Layer_1" xmlns="http://www.w3.org/2000/svg" xmlns:xlink="http://www.w3.org/1999/xlink" x="0px" y="0px" widht="220px" height="220px" viewBox="0 0 170 170" style="enable-background:new 0 0 170 170;" xml:space="preserve">
<g>
	<path class="fill-dark" d="M9.4,87.9c-0.4,0-0.7,0.3-0.7,0.7c0,0.4,0.3,0.7,0.7,0.7s0.7-0.3,0.7-0.7C10.1,88.2,9.8,87.9,9.4,87.9z"/>
	<path class="fill-dark" d="M9.4,80.2c-0.4,0-0.7,0.3-0.7,0.7c0,0.4,0.3,0.7,0.7,0.7s0.7-0.3,0.7-0.7C10.1,80.5,9.8,80.2,9.4,80.2z"/>
	<path class="fill-dark" d="M9.4,64.8c-0.2,0-0.4,0.1-0.5,0.2c-0.1,0.2-0.1,0.5-0.2,0.7c0.1,0.3,0.4,0.5,0.7,0.5c0.4,0,0.7-0.3,0.7-0.7
		C10.1,65.1,9.8,64.8,9.4,64.8z"/>
	<path class="fill-dark" d="M9.4,72.5c-0.1,0-0.1,0-0.2,0l0,0H9.1l0,0c0,0-0.1,0-0.1,0.1l0,0c-0.2,0.1-0.3,0.3-0.3,0.5s0.1,0.4,0.3,0.6
		l0,0c0.1,0,0.1,0.1,0.2,0.1l0,0c0.1,0,0.1,0,0.2,0l0,0c0.4,0,0.7-0.3,0.7-0.7C10.1,72.8,9.8,72.5,9.4,72.5z"/>
	<path class="fill-dark" d="M9.4,95.6L9.4,95.6c-0.1,0-0.2,0-0.2,0l0,0c-0.1,0-0.1,0.1-0.2,0.1l0,0c-0.2,0.1-0.3,0.3-0.3,0.6
		c0,0.2,0.1,0.4,0.3,0.5l0,0l0.1,0.1l0,0h0.1l0,0c0.1,0,0.1,0,0.2,0c0.4,0,0.7-0.3,0.7-0.7C10.1,95.9,9.8,95.6,9.4,95.6z"/>
	<path class="fill-dark" d="M19.4,49.4c-0.4,0-0.7,0.3-0.7,0.7s0.3,0.7,0.7,0.7s0.7-0.3,0.7-0.7C20.1,49.7,19.8,49.4,19.4,49.4z"/>
	<path class="fill-dark" d="M19.4,57.1c-0.4,0-0.7,0.3-0.7,0.7s0.3,0.7,0.7,0.7s0.7-0.3,0.7-0.7C20.1,57.4,19.8,57.1,19.4,57.1z"/>
	<path class="fill-dark" d="M19.4,41.7c-0.4,0-0.7,0.3-0.7,0.7s0.3,0.7,0.7,0.7s0.7-0.3,0.7-0.7C20.1,42,19.8,41.7,19.4,41.7z"/>
	<path class="fill-dark" d="M19.4,87.9c-0.4,0-0.7,0.3-0.7,0.7c0,0.4,0.3,0.7,0.7,0.7s0.7-0.3,0.7-0.7C20.1,88.2,19.8,87.9,19.4,87.9z"/>
	<path class="fill-dark" d="M19.4,95.6c-0.4,0-0.7,0.3-0.7,0.7c0,0.4,0.3,0.7,0.7,0.7s0.7-0.3,0.7-0.7C20.1,95.9,19.8,95.6,19.4,95.6z"/>
	<path class="fill-dark" d="M19.4,64.8c-0.4,0-0.7,0.3-0.7,0.7s0.3,0.7,0.7,0.7s0.7-0.3,0.7-0.7C20.1,65.1,19.8,64.8,19.4,64.8z"/>
	<path class="fill-dark" d="M19.4,80.2c-0.4,0-0.7,0.3-0.7,0.7c0,0.4,0.3,0.7,0.7,0.7s0.7-0.3,0.7-0.7C20.1,80.5,19.8,80.2,19.4,80.2z"/>
	<path class="fill-dark" d="M19.4,72.5c-0.4,0-0.7,0.3-0.7,0.7c0,0.4,0.3,0.7,0.7,0.7s0.7-0.3,0.7-0.7C20.1,72.8,19.8,72.5,19.4,72.5z"/>
	<path class="fill-dark" d="M29.4,64.8c-0.4,0-0.7,0.3-0.7,0.7s0.3,0.7,0.7,0.7s0.7-0.3,0.7-0.7C30.2,65.1,29.8,64.8,29.4,64.8z"/>
	<path class="fill-dark" d="M29.4,80.2c-0.4,0-0.7,0.3-0.7,0.7c0,0.4,0.3,0.7,0.7,0.7s0.7-0.3,0.7-0.7C30.2,80.5,29.8,80.2,29.4,80.2z"/>
	<path class="fill-dark" d="M29.4,72.5c-0.4,0-0.7,0.3-0.7,0.7c0,0.4,0.3,0.7,0.7,0.7s0.7-0.3,0.7-0.7C30.2,72.8,29.8,72.5,29.4,72.5z"/>
	<path class="fill-dark" d="M29.4,41.7c-0.4,0-0.7,0.3-0.7,0.7s0.3,0.7,0.7,0.7s0.7-0.3,0.7-0.7C30.2,42,29.8,41.7,29.4,41.7z"/>
	<path class="fill-dark" d="M29.4,57.1c-0.4,0-0.7,0.3-0.7,0.7s0.3,0.7,0.7,0.7s0.7-0.3,0.7-0.7C30.2,57.4,29.8,57.1,29.4,57.1z"/>
	<path class="fill-dark" d="M29.4,87.9c-0.4,0-0.7,0.3-0.7,0.7c0,0.4,0.3,0.7,0.7,0.7s0.7-0.3,0.7-0.7C30.2,88.2,29.8,87.9,29.4,87.9z"/>
	<path class="fill-dark" d="M29.4,49.4c-0.4,0-0.7,0.3-0.7,0.7s0.3,0.7,0.7,0.7s0.7-0.3,0.7-0.7C30.2,49.7,29.8,49.4,29.4,49.4z"/>
	<path class="fill-dark" d="M28.9,27.6c0.1,0.1,0.3,0.2,0.5,0.2c0.4,0,0.7-0.3,0.7-0.7c0-0.2-0.1-0.4-0.2-0.5
		C29.6,26.9,29.3,27.2,28.9,27.6z"/>
	<path class="fill-dark" d="M29.4,34c-0.4,0-0.7,0.3-0.7,0.7c0,0.4,0.3,0.7,0.7,0.7s0.7-0.3,0.7-0.7C30.2,34.3,29.8,34,29.4,34z"/>
	<path class="fill-dark" d="M29.4,95.6c-0.4,0-0.7,0.3-0.7,0.7c0,0.4,0.3,0.7,0.7,0.7s0.7-0.3,0.7-0.7C30.2,95.9,29.8,95.6,29.4,95.6z"/>
	<path class="fill-dark" d="M39.4,64.8c-0.4,0-0.7,0.3-0.7,0.7s0.3,0.7,0.7,0.7s0.7-0.3,0.7-0.7C40.2,65.1,39.8,64.8,39.4,64.8z"/>
	<path class="fill-dark" d="M39.4,80.2c-0.4,0-0.7,0.3-0.7,0.7c0,0.4,0.3,0.7,0.7,0.7s0.7-0.3,0.7-0.7C40.2,80.5,39.8,80.2,39.4,80.2z"/>
	<path class="fill-dark" d="M39.4,72.5c-0.4,0-0.7,0.3-0.7,0.7c0,0.4,0.3,0.7,0.7,0.7s0.7-0.3,0.7-0.7C40.2,72.8,39.8,72.5,39.4,72.5z"/>
	<path class="fill-dark" d="M39.4,49.4c-0.4,0-0.7,0.3-0.7,0.7s0.3,0.7,0.7,0.7s0.7-0.3,0.7-0.7C40.2,49.7,39.8,49.4,39.4,49.4z"/>
	<path class="fill-dark" d="M39.4,26.3c-0.4,0-0.7,0.3-0.7,0.7c0,0.4,0.3,0.7,0.7,0.7s0.7-0.3,0.7-0.7C40.2,26.6,39.8,26.3,39.4,26.3z"/>
	<path class="fill-dark" d="M39.4,34c-0.4,0-0.7,0.3-0.7,0.7c0,0.4,0.3,0.7,0.7,0.7s0.7-0.3,0.7-0.7C40.2,34.3,39.8,34,39.4,34z"/>
	<path class="fill-dark" d="M39.4,41.7c-0.4,0-0.7,0.3-0.7,0.7s0.3,0.7,0.7,0.7s0.7-0.3,0.7-0.7C40.2,42,39.8,41.7,39.4,41.7z"/>
	<path class="fill-dark" d="M39.4,57.1c-0.4,0-0.7,0.3-0.7,0.7s0.3,0.7,0.7,0.7s0.7-0.3,0.7-0.7C40.2,57.4,39.8,57.1,39.4,57.1z"/>
	<path class="fill-dark" d="M39.4,95.6c-0.4,0-0.7,0.3-0.7,0.7c0,0.4,0.3,0.7,0.7,0.7s0.7-0.3,0.7-0.7C40.2,95.9,39.8,95.6,39.4,95.6z"/>
	<path class="fill-dark" d="M39.4,87.9c-0.4,0-0.7,0.3-0.7,0.7c0,0.4,0.3,0.7,0.7,0.7s0.7-0.3,0.7-0.7C40.2,88.2,39.8,87.9,39.4,87.9z"/>
	<path class="fill-dark" d="M39.4,18.6L39.4,18.6c-0.3,0.1-0.5,0.3-0.7,0.4c0,0.1-0.1,0.2-0.1,0.3c0,0.4,0.3,0.7,0.7,0.7s0.7-0.3,0.7-0.7
		C40.2,18.9,39.8,18.6,39.4,18.6z"/>
	<path class="fill-dark" d="M49.4,95.6c-0.4,0-0.7,0.3-0.7,0.7c0,0.4,0.3,0.7,0.7,0.7s0.7-0.3,0.7-0.7C50.2,95.9,49.9,95.6,49.4,95.6z"/>
	<path class="fill-dark" d="M49.4,87.9c-0.4,0-0.7,0.3-0.7,0.7c0,0.4,0.3,0.7,0.7,0.7s0.7-0.3,0.7-0.7C50.2,88.2,49.9,87.9,49.4,87.9z"/>
	<path class="fill-dark" d="M49.4,41.7c-0.4,0-0.7,0.3-0.7,0.7s0.3,0.7,0.7,0.7s0.7-0.3,0.7-0.7C50.2,42,49.9,41.7,49.4,41.7z"/>
	<path class="fill-dark" d="M49.4,34c-0.4,0-0.7,0.3-0.7,0.7c0,0.4,0.3,0.7,0.7,0.7s0.7-0.3,0.7-0.7C50.2,34.3,49.9,34,49.4,34z"/>
	<path class="fill-dark" d="M49.4,49.4c-0.4,0-0.7,0.3-0.7,0.7s0.3,0.7,0.7,0.7s0.7-0.3,0.7-0.7C50.2,49.7,49.9,49.4,49.4,49.4z"/>
	<path class="fill-dark" d="M49.4,80.2c-0.4,0-0.7,0.3-0.7,0.7c0,0.4,0.3,0.7,0.7,0.7s0.7-0.3,0.7-0.7C50.2,80.5,49.9,80.2,49.4,80.2z"/>
	<path class="fill-dark" d="M49.4,72.5c-0.4,0-0.7,0.3-0.7,0.7c0,0.4,0.3,0.7,0.7,0.7s0.7-0.3,0.7-0.7C50.2,72.8,49.9,72.5,49.4,72.5z"/>
	<path class="fill-dark" d="M49.4,64.8c-0.4,0-0.7,0.3-0.7,0.7s0.3,0.7,0.7,0.7s0.7-0.3,0.7-0.7C50.2,65.1,49.9,64.8,49.4,64.8z"/>
	<path class="fill-dark" d="M49.4,57.1c-0.4,0-0.7,0.3-0.7,0.7s0.3,0.7,0.7,0.7s0.7-0.3,0.7-0.7C50.2,57.4,49.9,57.1,49.4,57.1z"/>
	<path class="fill-dark" d="M49.4,26.3c-0.4,0-0.7,0.3-0.7,0.7c0,0.4,0.3,0.7,0.7,0.7s0.7-0.3,0.7-0.7C50.2,26.6,49.9,26.3,49.4,26.3z"/>
	<path class="fill-dark" d="M49.4,18.6c-0.4,0-0.7,0.3-0.7,0.7c0,0.4,0.3,0.7,0.7,0.7s0.7-0.3,0.7-0.7C50.2,18.9,49.9,18.6,49.4,18.6z"/>
	<path class="fill-dark" d="M59.5,87.9c-0.4,0-0.7,0.3-0.7,0.7c0,0.4,0.3,0.7,0.7,0.7s0.7-0.3,0.7-0.7C60.2,88.2,59.9,87.9,59.5,87.9z"/>
	<path class="fill-dark" d="M59.5,80.2c-0.4,0-0.7,0.3-0.7,0.7c0,0.4,0.3,0.7,0.7,0.7s0.7-0.3,0.7-0.7S59.9,80.2,59.5,80.2z"/>
	<path class="fill-dark" d="M59.5,95.6c-0.4,0-0.7,0.3-0.7,0.7c0,0.4,0.3,0.7,0.7,0.7s0.7-0.3,0.7-0.7S59.9,95.6,59.5,95.6z"/>
	<path class="fill-dark" d="M59.5,64.8c-0.4,0-0.7,0.3-0.7,0.7s0.3,0.7,0.7,0.7s0.7-0.3,0.7-0.7S59.9,64.8,59.5,64.8z"/>
	<path class="fill-dark" d="M59.5,72.5c-0.4,0-0.7,0.3-0.7,0.7c0,0.4,0.3,0.7,0.7,0.7s0.7-0.3,0.7-0.7S59.9,72.5,59.5,72.5z"/>
	<path class="fill-dark" d="M59.5,57.1c-0.4,0-0.7,0.3-0.7,0.7s0.3,0.7,0.7,0.7s0.7-0.3,0.7-0.7C60.2,57.4,59.9,57.1,59.5,57.1z"/>
	<path class="fill-dark" d="M59.5,26.3c-0.4,0-0.7,0.3-0.7,0.7c0,0.4,0.3,0.7,0.7,0.7s0.7-0.3,0.7-0.7C60.2,26.6,59.9,26.3,59.5,26.3z"/>
	<path class="fill-dark" d="M59.5,10.9c-0.4,0-0.7,0.3-0.7,0.7s0.3,0.7,0.7,0.7s0.7-0.3,0.7-0.7C60.2,11.2,59.9,10.9,59.5,10.9z"/>
	<path class="fill-dark" d="M59.5,18.6c-0.4,0-0.7,0.3-0.7,0.7c0,0.4,0.3,0.7,0.7,0.7s0.7-0.3,0.7-0.7C60.2,18.9,59.9,18.6,59.5,18.6z"/>
	<path class="fill-dark" d="M59.5,49.4c-0.4,0-0.7,0.3-0.7,0.7s0.3,0.7,0.7,0.7s0.7-0.3,0.7-0.7S59.9,49.4,59.5,49.4z"/>
	<path class="fill-dark" d="M59.5,34c-0.4,0-0.7,0.3-0.7,0.7c0,0.4,0.3,0.7,0.7,0.7s0.7-0.3,0.7-0.7S59.9,34,59.5,34z"/>
	<path class="fill-dark" d="M59.5,41.7c-0.4,0-0.7,0.3-0.7,0.7s0.3,0.7,0.7,0.7s0.7-0.3,0.7-0.7S59.9,41.7,59.5,41.7z"/>
	<path class="fill-dark" d="M69.5,64.8c-0.4,0-0.7,0.3-0.7,0.7s0.3,0.7,0.7,0.7s0.7-0.3,0.7-0.7S69.9,64.8,69.5,64.8z"/>
	<path class="fill-dark" d="M69.5,57.1c-0.4,0-0.7,0.3-0.7,0.7s0.3,0.7,0.7,0.7s0.7-0.3,0.7-0.7C70.2,57.4,69.9,57.1,69.5,57.1z"/>
	<path class="fill-dark" d="M69.5,10.9c-0.4,0-0.7,0.3-0.7,0.7s0.3,0.7,0.7,0.7s0.7-0.3,0.7-0.7C70.2,11.2,69.9,10.9,69.5,10.9z"/>
	<path class="fill-dark" d="M69.5,49.4c-0.4,0-0.7,0.3-0.7,0.7s0.3,0.7,0.7,0.7s0.7-0.3,0.7-0.7S69.9,49.4,69.5,49.4z"/>
	<path class="fill-dark" d="M69.5,80.2c-0.4,0-0.7,0.3-0.7,0.7c0,0.4,0.3,0.7,0.7,0.7s0.7-0.3,0.7-0.7S69.9,80.2,69.5,80.2z"/>
	<path class="fill-dark" d="M69.5,34c-0.4,0-0.7,0.3-0.7,0.7c0,0.4,0.3,0.7,0.7,0.7s0.7-0.3,0.7-0.7S69.9,34,69.5,34z"/>
	<path class="fill-dark" d="M69.5,26.3c-0.4,0-0.7,0.3-0.7,0.7c0,0.4,0.3,0.7,0.7,0.7s0.7-0.3,0.7-0.7C70.2,26.6,69.9,26.3,69.5,26.3z"/>
	<path class="fill-dark" d="M69.5,41.7c-0.4,0-0.7,0.3-0.7,0.7s0.3,0.7,0.7,0.7s0.7-0.3,0.7-0.7S69.9,41.7,69.5,41.7z"/>
	<path class="fill-dark" d="M69.5,87.9c-0.4,0-0.7,0.3-0.7,0.7c0,0.4,0.3,0.7,0.7,0.7s0.7-0.3,0.7-0.7C70.2,88.2,69.9,87.9,69.5,87.9z"/>
	<path class="fill-dark" d="M69.5,72.5c-0.4,0-0.7,0.3-0.7,0.7c0,0.4,0.3,0.7,0.7,0.7s0.7-0.3,0.7-0.7S69.9,72.5,69.5,72.5z"/>
	<path class="fill-dark" d="M69.5,95.6c-0.4,0-0.7,0.3-0.7,0.7c0,0.4,0.3,0.7,0.7,0.7s0.7-0.3,0.7-0.7S69.9,95.6,69.5,95.6z"/>
	<path class="fill-dark" d="M69.5,18.6c-0.4,0-0.7,0.3-0.7,0.7c0,0.4,0.3,0.7,0.7,0.7s0.7-0.3,0.7-0.7C70.2,18.9,69.9,18.6,69.5,18.6z"/>
	<path class="fill-dark" d="M79.5,4.6c0.2,0,0.4-0.1,0.5-0.2s0.2-0.2,0.2-0.4c-0.5,0-0.9,0.1-1.4,0.1c0,0.1,0.1,0.2,0.2,0.3
		C79.1,4.6,79.3,4.6,79.5,4.6z"/>
	<path class="fill-dark" d="M79.5,80.2c-0.4,0-0.7,0.3-0.7,0.7c0,0.4,0.3,0.7,0.7,0.7s0.7-0.3,0.7-0.7S79.9,80.2,79.5,80.2z"/>
	<path class="fill-dark" d="M79.5,72.5c-0.4,0-0.7,0.3-0.7,0.7c0,0.4,0.3,0.7,0.7,0.7s0.7-0.3,0.7-0.7S79.9,72.5,79.5,72.5z"/>
	<path class="fill-dark" d="M79.5,64.8c-0.4,0-0.7,0.3-0.7,0.7s0.3,0.7,0.7,0.7s0.7-0.3,0.7-0.7S79.9,64.8,79.5,64.8z"/>
	<path class="fill-dark" d="M79.5,87.9c-0.4,0-0.7,0.3-0.7,0.7c0,0.4,0.3,0.7,0.7,0.7s0.7-0.3,0.7-0.7C80.2,88.2,79.9,87.9,79.5,87.9z"/>
	<path class="fill-dark" d="M79.5,95.6c-0.4,0-0.7,0.3-0.7,0.7c0,0.4,0.3,0.7,0.7,0.7s0.7-0.3,0.7-0.7S79.9,95.6,79.5,95.6z"/>
	<path class="fill-dark" d="M79.5,10.9c-0.4,0-0.7,0.3-0.7,0.7s0.3,0.7,0.7,0.7s0.7-0.3,0.7-0.7C80.2,11.2,79.9,10.9,79.5,10.9z"/>
	<path class="fill-dark" d="M79.5,18.6c-0.4,0-0.7,0.3-0.7,0.7c0,0.4,0.3,0.7,0.7,0.7s0.7-0.3,0.7-0.7C80.2,18.9,79.9,18.6,79.5,18.6z"/>
	<path class="fill-dark" d="M79.5,34c-0.4,0-0.7,0.3-0.7,0.7c0,0.4,0.3,0.7,0.7,0.7s0.7-0.3,0.7-0.7S79.9,34,79.5,34z"/>
	<path class="fill-dark" d="M79.5,41.7c-0.4,0-0.7,0.3-0.7,0.7s0.3,0.7,0.7,0.7s0.7-0.3,0.7-0.7S79.9,41.7,79.5,41.7z"/>
	<path class="fill-dark" d="M79.5,49.4c-0.4,0-0.7,0.3-0.7,0.7s0.3,0.7,0.7,0.7s0.7-0.3,0.7-0.7S79.9,49.4,79.5,49.4z"/>
	<path class="fill-dark" d="M79.5,57.1c-0.4,0-0.7,0.3-0.7,0.7s0.3,0.7,0.7,0.7s0.7-0.3,0.7-0.7C80.2,57.4,79.9,57.1,79.5,57.1z"/>
	<path class="fill-dark" d="M79.5,26.3c-0.4,0-0.7,0.3-0.7,0.7c0,0.4,0.3,0.7,0.7,0.7s0.7-0.3,0.7-0.7C80.2,26.6,79.9,26.3,79.5,26.3z"/>
	<path class="fill-dark" d="M89.5,4.6c0.2,0,0.4-0.1,0.5-0.2s0.2-0.2,0.2-0.3c-0.5,0-1-0.1-1.4-0.1c0,0.2,0.1,0.3,0.2,0.4
		C89.1,4.6,89.3,4.6,89.5,4.6z"/>
	<path class="fill-dark" d="M89.5,72.5c-0.4,0-0.7,0.3-0.7,0.7c0,0.4,0.3,0.7,0.7,0.7s0.7-0.3,0.7-0.7S89.9,72.5,89.5,72.5z"/>
	<path class="fill-dark" d="M89.5,64.8c-0.4,0-0.7,0.3-0.7,0.7s0.3,0.7,0.7,0.7s0.7-0.3,0.7-0.7S89.9,64.8,89.5,64.8z"/>
	<path class="fill-dark" d="M89.5,49.4c-0.4,0-0.7,0.3-0.7,0.7s0.3,0.7,0.7,0.7s0.7-0.3,0.7-0.7S89.9,49.4,89.5,49.4z"/>
	<path class="fill-dark" d="M89.5,41.7c-0.4,0-0.7,0.3-0.7,0.7s0.3,0.7,0.7,0.7s0.7-0.3,0.7-0.7S89.9,41.7,89.5,41.7z"/>
	<path class="fill-dark" d="M89.5,34c-0.4,0-0.7,0.3-0.7,0.7c0,0.4,0.3,0.7,0.7,0.7s0.7-0.3,0.7-0.7S89.9,34,89.5,34z"/>
	<path class="fill-dark" d="M89.5,87.9c-0.4,0-0.7,0.3-0.7,0.7c0,0.4,0.3,0.7,0.7,0.7s0.7-0.3,0.7-0.7C90.2,88.2,89.9,87.9,89.5,87.9z"/>
	<path class="fill-dark" d="M89.5,80.2c-0.4,0-0.7,0.3-0.7,0.7c0,0.4,0.3,0.7,0.7,0.7s0.7-0.3,0.7-0.7S89.9,80.2,89.5,80.2z"/>
	<path class="fill-dark" d="M89.5,95.6c-0.4,0-0.7,0.3-0.7,0.7c0,0.4,0.3,0.7,0.7,0.7s0.7-0.3,0.7-0.7S89.9,95.6,89.5,95.6z"/>
	<path class="fill-dark" d="M89.5,26.3c-0.4,0-0.7,0.3-0.7,0.7c0,0.4,0.3,0.7,0.7,0.7s0.7-0.3,0.7-0.7C90.2,26.6,89.9,26.3,89.5,26.3z"/>
	<path class="fill-dark" d="M89.5,57.1c-0.4,0-0.7,0.3-0.7,0.7s0.3,0.7,0.7,0.7s0.7-0.3,0.7-0.7C90.2,57.4,89.9,57.1,89.5,57.1z"/>
	<path class="fill-dark" d="M89.5,18.6c-0.4,0-0.7,0.3-0.7,0.7c0,0.4,0.3,0.7,0.7,0.7s0.7-0.3,0.7-0.7C90.2,18.9,89.9,18.6,89.5,18.6z"/>
	<path class="fill-dark" d="M89.5,10.9c-0.4,0-0.7,0.3-0.7,0.7s0.3,0.7,0.7,0.7s0.7-0.3,0.7-0.7C90.2,11.2,89.9,10.9,89.5,10.9z"/>
	<path class="fill-dark" d="M99.5,95.6c-0.4,0-0.7,0.3-0.7,0.7c0,0.4,0.3,0.7,0.7,0.7s0.7-0.3,0.7-0.7C100.3,95.9,99.9,95.6,99.5,95.6z"/>
	<path class="fill-dark" d="M99.5,64.8c-0.4,0-0.7,0.3-0.7,0.7s0.3,0.7,0.7,0.7s0.7-0.3,0.7-0.7C100.3,65.1,99.9,64.8,99.5,64.8z"/>
	<path class="fill-dark" d="M99.5,87.9c-0.4,0-0.7,0.3-0.7,0.7c0,0.4,0.3,0.7,0.7,0.7s0.7-0.3,0.7-0.7C100.3,88.2,99.9,87.9,99.5,87.9z"/>
	<path class="fill-dark" d="M99.5,72.5c-0.4,0-0.7,0.3-0.7,0.7c0,0.4,0.3,0.7,0.7,0.7s0.7-0.3,0.7-0.7C100.3,72.8,99.9,72.5,99.5,72.5z"/>
	<path class="fill-dark" d="M99.5,57.1c-0.4,0-0.7,0.3-0.7,0.7s0.3,0.7,0.7,0.7s0.7-0.3,0.7-0.7C100.3,57.4,99.9,57.1,99.5,57.1z"/>
	<path class="fill-dark" d="M99.5,80.2c-0.4,0-0.7,0.3-0.7,0.7c0,0.4,0.3,0.7,0.7,0.7s0.7-0.3,0.7-0.7C100.3,80.5,99.9,80.2,99.5,80.2z"/>
	<path class="fill-dark" d="M99.5,26.3c-0.4,0-0.7,0.3-0.7,0.7c0,0.4,0.3,0.7,0.7,0.7s0.7-0.3,0.7-0.7C100.3,26.6,99.9,26.3,99.5,26.3z"/>
	<path class="fill-dark" d="M99.5,10.9c-0.4,0-0.7,0.3-0.7,0.7s0.3,0.7,0.7,0.7s0.7-0.3,0.7-0.7C100.3,11.2,99.9,10.9,99.5,10.9z"/>
	<path class="fill-dark" d="M99.5,49.4c-0.4,0-0.7,0.3-0.7,0.7s0.3,0.7,0.7,0.7s0.7-0.3,0.7-0.7C100.3,49.7,99.9,49.4,99.5,49.4z"/>
	<path class="fill-dark" d="M99.5,18.6c-0.4,0-0.7,0.3-0.7,0.7c0,0.4,0.3,0.7,0.7,0.7s0.7-0.3,0.7-0.7C100.3,18.9,99.9,18.6,99.5,18.6z"/>
	<path class="fill-dark" d="M99.5,34c-0.4,0-0.7,0.3-0.7,0.7c0,0.4,0.3,0.7,0.7,0.7s0.7-0.3,0.7-0.7C100.3,34.3,99.9,34,99.5,34z"/>
	<path class="fill-dark" d="M99.5,41.7c-0.4,0-0.7,0.3-0.7,0.7s0.3,0.7,0.7,0.7s0.7-0.3,0.7-0.7C100.3,42,99.9,41.7,99.5,41.7z"/>
	<path class="fill-dark" d="M109.5,10.9c-0.4,0-0.7,0.3-0.7,0.7s0.3,0.7,0.7,0.7s0.7-0.3,0.7-0.7C110.3,11.2,109.9,10.9,109.5,10.9z"/>
	<path class="fill-dark" d="M109.5,34c-0.4,0-0.7,0.3-0.7,0.7c0,0.4,0.3,0.7,0.7,0.7s0.7-0.3,0.7-0.7C110.3,34.3,109.9,34,109.5,34z"/>
	<path class="fill-dark" d="M109.5,26.3c-0.4,0-0.7,0.3-0.7,0.7c0,0.4,0.3,0.7,0.7,0.7s0.7-0.3,0.7-0.7C110.3,26.6,109.9,26.3,109.5,26.3z
		"/>
	<path class="fill-dark" d="M109.5,18.6c-0.4,0-0.7,0.3-0.7,0.7c0,0.4,0.3,0.7,0.7,0.7s0.7-0.3,0.7-0.7C110.3,18.9,109.9,18.6,109.5,18.6z
		"/>
	<path class="fill-dark" d="M109.5,57.1c-0.4,0-0.7,0.3-0.7,0.7s0.3,0.7,0.7,0.7s0.7-0.3,0.7-0.7C110.3,57.4,109.9,57.1,109.5,57.1z"/>
	<path class="fill-dark" d="M109.5,95.6c-0.4,0-0.7,0.3-0.7,0.7c0,0.4,0.3,0.7,0.7,0.7s0.7-0.3,0.7-0.7C110.3,95.9,109.9,95.6,109.5,95.6z
		"/>
	<path class="fill-dark" d="M109.5,49.4c-0.4,0-0.7,0.3-0.7,0.7s0.3,0.7,0.7,0.7s0.7-0.3,0.7-0.7C110.3,49.7,109.9,49.4,109.5,49.4z"/>
	<path class="fill-dark" d="M109.5,41.7c-0.4,0-0.7,0.3-0.7,0.7s0.3,0.7,0.7,0.7s0.7-0.3,0.7-0.7C110.3,42,109.9,41.7,109.5,41.7z"/>
	<path class="fill-dark" d="M109.5,87.9c-0.4,0-0.7,0.3-0.7,0.7c0,0.4,0.3,0.7,0.7,0.7s0.7-0.3,0.7-0.7C110.3,88.2,109.9,87.9,109.5,87.9z
		"/>
	<path class="fill-dark" d="M109.5,80.2c-0.4,0-0.7,0.3-0.7,0.7c0,0.4,0.3,0.7,0.7,0.7s0.7-0.3,0.7-0.7C110.3,80.5,109.9,80.2,109.5,80.2z
		"/>
	<path class="fill-dark" d="M109.5,72.5c-0.4,0-0.7,0.3-0.7,0.7c0,0.4,0.3,0.7,0.7,0.7s0.7-0.3,0.7-0.7C110.3,72.8,109.9,72.5,109.5,72.5z
		"/>
	<path class="fill-dark" d="M109.5,64.8c-0.4,0-0.7,0.3-0.7,0.7s0.3,0.7,0.7,0.7s0.7-0.3,0.7-0.7C110.3,65.1,109.9,64.8,109.5,64.8z"/>
	<path class="fill-dark" d="M119.6,72.5c-0.4,0-0.7,0.3-0.7,0.7c0,0.4,0.3,0.7,0.7,0.7c0.4,0,0.7-0.3,0.7-0.7
		C120.3,72.8,120,72.5,119.6,72.5z"/>
	<path class="fill-dark" d="M119.6,57.1c-0.4,0-0.7,0.3-0.7,0.7s0.3,0.7,0.7,0.7c0.4,0,0.7-0.3,0.7-0.7C120.3,57.4,120,57.1,119.6,57.1z"
		/>
	<path class="fill-dark" d="M119.6,64.8c-0.4,0-0.7,0.3-0.7,0.7s0.3,0.7,0.7,0.7c0.4,0,0.7-0.3,0.7-0.7C120.3,65.1,120,64.8,119.6,64.8z"
		/>
	<path class="fill-dark" d="M119.6,41.7c-0.4,0-0.7,0.3-0.7,0.7s0.3,0.7,0.7,0.7c0.4,0,0.7-0.3,0.7-0.7C120.3,42,120,41.7,119.6,41.7z"/>
	<path class="fill-dark" d="M119.6,49.4c-0.4,0-0.7,0.3-0.7,0.7s0.3,0.7,0.7,0.7c0.4,0,0.7-0.3,0.7-0.7C120.3,49.7,120,49.4,119.6,49.4z"
		/>
	<path class="fill-dark" d="M119.6,34c-0.4,0-0.7,0.3-0.7,0.7c0,0.4,0.3,0.7,0.7,0.7c0.4,0,0.7-0.3,0.7-0.7C120.3,34.3,120,34,119.6,34z"
		/>
	<path class="fill-dark" d="M119.6,18.6c-0.4,0-0.7,0.3-0.7,0.7c0,0.4,0.3,0.7,0.7,0.7c0.4,0,0.7-0.3,0.7-0.7
		C120.3,18.9,120,18.6,119.6,18.6z"/>
	<path class="fill-dark" d="M119.6,12.3c0.2,0,0.4-0.1,0.5-0.2c-0.4-0.2-0.8-0.4-1.3-0.6v0.1C118.8,12,119.1,12.3,119.6,12.3z"/>
	<path class="fill-dark" d="M119.6,26.3c-0.4,0-0.7,0.3-0.7,0.7c0,0.4,0.3,0.7,0.7,0.7c0.4,0,0.7-0.3,0.7-0.7
		C120.3,26.6,120,26.3,119.6,26.3z"/>
	<path class="fill-dark" d="M119.6,80.2c-0.4,0-0.7,0.3-0.7,0.7c0,0.4,0.3,0.7,0.7,0.7c0.4,0,0.7-0.3,0.7-0.7
		C120.3,80.5,120,80.2,119.6,80.2z"/>
	<path class="fill-dark" d="M119.6,87.9c-0.4,0-0.7,0.3-0.7,0.7c0,0.4,0.3,0.7,0.7,0.7c0.4,0,0.7-0.3,0.7-0.7
		C120.3,88.2,120,87.9,119.6,87.9z"/>
	<path class="fill-dark" d="M119.6,95.6c-0.4,0-0.7,0.3-0.7,0.7c0,0.4,0.3,0.7,0.7,0.7c0.4,0,0.7-0.3,0.7-0.7
		C120.3,95.9,120,95.6,119.6,95.6z"/>
	<path class="fill-dark" d="M129.6,34c-0.4,0-0.7,0.3-0.7,0.7c0,0.4,0.3,0.7,0.7,0.7c0.4,0,0.7-0.3,0.7-0.7C130.3,34.3,130,34,129.6,34z"
		/>
	<path class="fill-dark" d="M129.6,95.6c-0.4,0-0.7,0.3-0.7,0.7c0,0.4,0.3,0.7,0.7,0.7c0.4,0,0.7-0.3,0.7-0.7
		C130.3,95.9,130,95.6,129.6,95.6z"/>
	<path class="fill-dark" d="M129.6,87.9c-0.4,0-0.7,0.3-0.7,0.7c0,0.4,0.3,0.7,0.7,0.7c0.4,0,0.7-0.3,0.7-0.7
		C130.3,88.2,130,87.9,129.6,87.9z"/>
	<path class="fill-dark" d="M129.6,49.4c-0.4,0-0.7,0.3-0.7,0.7s0.3,0.7,0.7,0.7c0.4,0,0.7-0.3,0.7-0.7C130.3,49.7,130,49.4,129.6,49.4z"
		/>
	<path class="fill-dark" d="M129.6,26.3c-0.4,0-0.7,0.3-0.7,0.7c0,0.4,0.3,0.7,0.7,0.7c0.4,0,0.7-0.3,0.7-0.7
		C130.3,26.6,130,26.3,129.6,26.3z"/>
	<path class="fill-dark" d="M129.6,80.2c-0.4,0-0.7,0.3-0.7,0.7c0,0.4,0.3,0.7,0.7,0.7c0.4,0,0.7-0.3,0.7-0.7
		C130.3,80.5,130,80.2,129.6,80.2z"/>
	<path class="fill-dark" d="M129.6,18.6c-0.4,0-0.7,0.3-0.7,0.7c0,0.4,0.3,0.7,0.7,0.7c0.4,0,0.7-0.3,0.7-0.7
		C130.3,18.9,130,18.6,129.6,18.6z"/>
	<path class="fill-dark" d="M129.6,41.7c-0.4,0-0.7,0.3-0.7,0.7s0.3,0.7,0.7,0.7c0.4,0,0.7-0.3,0.7-0.7C130.3,42,130,41.7,129.6,41.7z"/>
	<path class="fill-dark" d="M129.6,64.8c-0.4,0-0.7,0.3-0.7,0.7s0.3,0.7,0.7,0.7c0.4,0,0.7-0.3,0.7-0.7C130.3,65.1,130,64.8,129.6,64.8z"
		/>
	<path class="fill-dark" d="M129.6,57.1c-0.4,0-0.7,0.3-0.7,0.7s0.3,0.7,0.7,0.7c0.4,0,0.7-0.3,0.7-0.7C130.3,57.4,130,57.1,129.6,57.1z"
		/>
	<path class="fill-dark" d="M129.6,72.5c-0.4,0-0.7,0.3-0.7,0.7c0,0.4,0.3,0.7,0.7,0.7c0.4,0,0.7-0.3,0.7-0.7
		C130.3,72.8,130,72.5,129.6,72.5z"/>
	<path class="fill-dark" d="M139.6,72.5c-0.4,0-0.7,0.3-0.7,0.7c0,0.4,0.3,0.7,0.7,0.7c0.4,0,0.7-0.3,0.7-0.7
		C140.3,72.8,140,72.5,139.6,72.5z"/>
	<path class="fill-dark" d="M139.6,64.8c-0.4,0-0.7,0.3-0.7,0.7s0.3,0.7,0.7,0.7c0.4,0,0.7-0.3,0.7-0.7C140.3,65.1,140,64.8,139.6,64.8z"
		/>
	<path class="fill-dark" d="M139.6,41.7c-0.4,0-0.7,0.3-0.7,0.7s0.3,0.7,0.7,0.7c0.4,0,0.7-0.3,0.7-0.7C140.3,42,140,41.7,139.6,41.7z"/>
	<path class="fill-dark" d="M139.6,26.3c-0.4,0-0.7,0.3-0.7,0.7c0,0.4,0.3,0.7,0.7,0.7c0.4,0,0.7-0.3,0.7-0.7
		C140.3,26.6,140,26.3,139.6,26.3z"/>
	<ellipse class="fill-dark" cx="139.6" cy="34.7" rx="0.7" ry="0.7"/>
	<ellipse class="fill-dark" cx="139.6" cy="57.8" rx="0.7" ry="0.7"/>
	<path class="fill-dark" d="M139.6,95.6c-0.4,0-0.7,0.3-0.7,0.7c0,0.4,0.3,0.7,0.7,0.7c0.4,0,0.7-0.3,0.7-0.7
		C140.3,95.9,140,95.6,139.6,95.6z"/>
	<ellipse class="fill-dark" cx="139.6" cy="50.1" rx="0.7" ry="0.7"/>
	<path class="fill-dark" d="M139.6,87.9c-0.4,0-0.7,0.3-0.7,0.7c0,0.4,0.3,0.7,0.7,0.7c0.4,0,0.7-0.3,0.7-0.7
		C140.3,88.2,140,87.9,139.6,87.9z"/>
	<path class="fill-dark" d="M139.6,80.2c-0.4,0-0.7,0.3-0.7,0.7c0,0.4,0.3,0.7,0.7,0.7c0.4,0,0.7-0.3,0.7-0.7
		C140.3,80.5,140,80.2,139.6,80.2z"/>
	<path class="fill-dark" d="M149.6,57.1c-0.4,0-0.7,0.3-0.7,0.7s0.3,0.7,0.7,0.7c0.4,0,0.7-0.3,0.7-0.7C150.3,57.4,150,57.1,149.6,57.1z"
		/>
	<path class="fill-dark" d="M149.6,72.5c-0.4,0-0.7,0.3-0.7,0.7c0,0.4,0.3,0.7,0.7,0.7c0.4,0,0.7-0.3,0.7-0.7
		C150.3,72.8,150,72.5,149.6,72.5z"/>
	<path class="fill-dark" d="M149.6,95.6c-0.4,0-0.7,0.3-0.7,0.7c0,0.4,0.3,0.7,0.7,0.7c0.4,0,0.7-0.3,0.7-0.7
		C150.3,95.9,150,95.6,149.6,95.6z"/>
	<path class="fill-dark" d="M149.6,80.2c-0.4,0-0.7,0.3-0.7,0.7c0,0.4,0.3,0.7,0.7,0.7c0.4,0,0.7-0.3,0.7-0.7
		C150.3,80.5,150,80.2,149.6,80.2z"/>
	<path class="fill-dark" d="M149.6,41.7c-0.4,0-0.7,0.3-0.7,0.7s0.3,0.7,0.7,0.7c0.4,0,0.7-0.3,0.7-0.7C150.3,42,150,41.7,149.6,41.7z"/>
	<path class="fill-dark" d="M149.6,49.4c-0.4,0-0.7,0.3-0.7,0.7s0.3,0.7,0.7,0.7c0.4,0,0.7-0.3,0.7-0.7C150.3,49.7,150,49.4,149.6,49.4z"
		/>
	<path class="fill-dark" d="M149.6,64.8c-0.4,0-0.7,0.3-0.7,0.7s0.3,0.7,0.7,0.7c0.4,0,0.7-0.3,0.7-0.7C150.3,65.1,150,64.8,149.6,64.8z"
		/>
	<path class="fill-dark" d="M149.6,87.9c-0.4,0-0.7,0.3-0.7,0.7c0,0.4,0.3,0.7,0.7,0.7c0.4,0,0.7-0.3,0.7-0.7
		C150.3,88.2,150,87.9,149.6,87.9z"/>
	<path class="fill-dark" d="M159.6,72.5c-0.4,0-0.7,0.3-0.7,0.7c0,0.4,0.3,0.7,0.7,0.7c0.4,0,0.7-0.3,0.7-0.7
		C160.4,72.8,160,72.5,159.6,72.5z"/>
	<path class="fill-dark" d="M159.6,66.2c0.4,0,0.7-0.3,0.7-0.7s-0.3-0.7-0.7-0.7c-0.4,0-0.7,0.3-0.7,0.7S159.2,66.2,159.6,66.2z"/>
	<path class="fill-dark" d="M159.6,80.2c-0.4,0-0.7,0.3-0.7,0.7c0,0.4,0.3,0.7,0.7,0.7c0.4,0,0.7-0.3,0.7-0.7
		C160.4,80.5,160,80.2,159.6,80.2z"/>
	<path class="fill-dark" d="M159.6,95.6c-0.4,0-0.7,0.3-0.7,0.7c0,0.4,0.3,0.7,0.7,0.7c0.4,0,0.7-0.3,0.7-0.7
		C160.4,95.9,160,95.6,159.6,95.6z"/>
	<path class="fill-dark" d="M159.6,87.9c-0.4,0-0.7,0.3-0.7,0.7c0,0.4,0.3,0.7,0.7,0.7c0.4,0,0.7-0.3,0.7-0.7
		C160.4,88.2,160,87.9,159.6,87.9z"/>
	<path class="fill-dark" d="M159.6,58.5c-0.1-0.4-0.3-0.9-0.4-1.3c-0.2,0.1-0.3,0.3-0.3,0.6C158.9,58.2,159.2,58.5,159.6,58.5z"/>
	<path class="fill-dark" d="M9.4,103.3c-0.3,0-0.6,0.2-0.7,0.5c0,0.2,0.1,0.5,0.2,0.7c0.1,0.1,0.3,0.2,0.5,0.2c0.4,0,0.7-0.3,0.7-0.7
		C10.1,103.6,9.8,103.3,9.4,103.3z"/>
	<path class="fill-dark" d="M19.4,118.7c-0.4,0-0.7,0.3-0.7,0.7c0,0.4,0.3,0.7,0.7,0.7s0.7-0.3,0.7-0.7C20.1,119,19.8,118.7,19.4,118.7z"
		/>
	<path class="fill-dark" d="M19.4,111c-0.4,0-0.7,0.3-0.7,0.7c0,0.4,0.3,0.7,0.7,0.7s0.7-0.3,0.7-0.7C20.1,111.3,19.8,111,19.4,111z"/>
	<path class="fill-dark" d="M19.4,126.4c-0.4,0-0.7,0.3-0.7,0.7c0,0.4,0.3,0.7,0.7,0.7s0.7-0.3,0.7-0.7C20.1,126.7,19.8,126.4,19.4,126.4z
		"/>
	<path class="fill-dark" d="M19.4,103.3c-0.4,0-0.7,0.3-0.7,0.7c0,0.4,0.3,0.7,0.7,0.7s0.7-0.3,0.7-0.7C20.1,103.6,19.8,103.3,19.4,103.3z
		"/>
	<path class="fill-dark" d="M29.4,103.3c-0.4,0-0.7,0.3-0.7,0.7c0,0.4,0.3,0.7,0.7,0.7s0.7-0.3,0.7-0.7C30.2,103.6,29.8,103.3,29.4,103.3z
		"/>
	<path class="fill-dark" d="M29.4,126.4c-0.4,0-0.7,0.3-0.7,0.7c0,0.4,0.3,0.7,0.7,0.7s0.7-0.3,0.7-0.7C30.2,126.7,29.8,126.4,29.4,126.4z
		"/>
	<path class="fill-dark" d="M29.4,111c-0.4,0-0.7,0.3-0.7,0.7c0,0.4,0.3,0.7,0.7,0.7s0.7-0.3,0.7-0.7C30.2,111.3,29.8,111,29.4,111z"/>
	<path class="fill-dark" d="M29.4,118.7c-0.4,0-0.7,0.3-0.7,0.7c0,0.4,0.3,0.7,0.7,0.7s0.7-0.3,0.7-0.7C30.2,119,29.8,118.7,29.4,118.7z"
		/>
	<path class="fill-dark" d="M29.4,141.8c-0.2,0-0.4,0.1-0.5,0.2c0.3,0.3,0.7,0.7,1,1c0.1-0.1,0.2-0.3,0.2-0.5
		C30.2,142.1,29.8,141.8,29.4,141.8z"/>
	<path class="fill-dark" d="M29.4,134.1c-0.4,0-0.7,0.3-0.7,0.7s0.3,0.7,0.7,0.7s0.7-0.3,0.7-0.7C30.2,134.4,29.8,134.1,29.4,134.1z"/>
	<path class="fill-dark" d="M39.4,103.3c-0.4,0-0.7,0.3-0.7,0.7c0,0.4,0.3,0.7,0.7,0.7s0.7-0.3,0.7-0.7C40.2,103.6,39.8,103.3,39.4,103.3z
		"/>
	<path class="fill-dark" d="M39.4,118.7c-0.4,0-0.7,0.3-0.7,0.7c0,0.4,0.3,0.7,0.7,0.7s0.7-0.3,0.7-0.7C40.2,119,39.8,118.7,39.4,118.7z"
		/>
	<path class="fill-dark" d="M39.4,141.8c-0.4,0-0.7,0.3-0.7,0.7s0.3,0.7,0.7,0.7s0.7-0.3,0.7-0.7C40.2,142.1,39.8,141.8,39.4,141.8z"/>
	<path class="fill-dark" d="M39.4,134.1c-0.4,0-0.7,0.3-0.7,0.7s0.3,0.7,0.7,0.7s0.7-0.3,0.7-0.7C40.2,134.4,39.8,134.1,39.4,134.1z"/>
	<path class="fill-dark" d="M39.4,126.4c-0.4,0-0.7,0.3-0.7,0.7c0,0.4,0.3,0.7,0.7,0.7s0.7-0.3,0.7-0.7C40.2,126.7,39.8,126.4,39.4,126.4z
		"/>
	<path class="fill-dark" d="M39.4,111c-0.4,0-0.7,0.3-0.7,0.7c0,0.4,0.3,0.7,0.7,0.7s0.7-0.3,0.7-0.7C40.2,111.3,39.8,111,39.4,111z"/>
	<path class="fill-dark" d="M39.4,149.5c-0.4,0-0.7,0.3-0.7,0.7c0,0.1,0,0.2,0.1,0.3c0.2,0.1,0.4,0.3,0.6,0.4h0.1c0.4,0,0.7-0.3,0.7-0.7
		C40.2,149.8,39.8,149.5,39.4,149.5z"/>
	<path class="fill-dark" d="M49.4,126.4c-0.4,0-0.7,0.3-0.7,0.7c0,0.4,0.3,0.7,0.7,0.7s0.7-0.3,0.7-0.7C50.2,126.7,49.9,126.4,49.4,126.4z
		"/>
	<path class="fill-dark" d="M49.4,134.1c-0.4,0-0.7,0.3-0.7,0.7s0.3,0.7,0.7,0.7s0.7-0.3,0.7-0.7C50.2,134.4,49.9,134.1,49.4,134.1z"/>
	<path class="fill-dark" d="M49.4,118.7c-0.4,0-0.7,0.3-0.7,0.7c0,0.4,0.3,0.7,0.7,0.7s0.7-0.3,0.7-0.7C50.2,119,49.9,118.7,49.4,118.7z"
		/>
	<path class="fill-dark" d="M49.4,103.3c-0.4,0-0.7,0.3-0.7,0.7c0,0.4,0.3,0.7,0.7,0.7s0.7-0.3,0.7-0.7C50.2,103.6,49.9,103.3,49.4,103.3z
		"/>
	<path class="fill-dark" d="M49.4,111c-0.4,0-0.7,0.3-0.7,0.7c0,0.4,0.3,0.7,0.7,0.7s0.7-0.3,0.7-0.7C50.2,111.3,49.9,111,49.4,111z"/>
	<path class="fill-dark" d="M49.4,141.8c-0.4,0-0.7,0.3-0.7,0.7s0.3,0.7,0.7,0.7s0.7-0.3,0.7-0.7C50.2,142.1,49.9,141.8,49.4,141.8z"/>
	<path class="fill-dark" d="M49.4,149.5c-0.4,0-0.7,0.3-0.7,0.7s0.3,0.7,0.7,0.7s0.7-0.3,0.7-0.7C50.2,149.8,49.9,149.5,49.4,149.5z"/>
	<path class="fill-dark" d="M59.5,103.3c-0.4,0-0.7,0.3-0.7,0.7c0,0.4,0.3,0.7,0.7,0.7s0.7-0.3,0.7-0.7C60.2,103.6,59.9,103.3,59.5,103.3z
		"/>
	<path class="fill-dark" d="M59.5,111c-0.4,0-0.7,0.3-0.7,0.7c0,0.4,0.3,0.7,0.7,0.7s0.7-0.3,0.7-0.7S59.9,111,59.5,111z"/>
	<path class="fill-dark" d="M59.5,141.8c-0.4,0-0.7,0.3-0.7,0.7s0.3,0.7,0.7,0.7s0.7-0.3,0.7-0.7S59.9,141.8,59.5,141.8z"/>
	<path class="fill-dark" d="M59.5,157.2c-0.4,0-0.7,0.3-0.7,0.7s0.3,0.7,0.7,0.7s0.7-0.3,0.7-0.7S59.9,157.2,59.5,157.2z"/>
	<path class="fill-dark" d="M59.5,149.5c-0.4,0-0.7,0.3-0.7,0.7s0.3,0.7,0.7,0.7s0.7-0.3,0.7-0.7S59.9,149.5,59.5,149.5z"/>
	<path class="fill-dark" d="M59.5,118.7c-0.4,0-0.7,0.3-0.7,0.7c0,0.4,0.3,0.7,0.7,0.7s0.7-0.3,0.7-0.7S59.9,118.7,59.5,118.7z"/>
	<path class="fill-dark" d="M59.5,134.1c-0.4,0-0.7,0.3-0.7,0.7s0.3,0.7,0.7,0.7s0.7-0.3,0.7-0.7C60.2,134.4,59.9,134.1,59.5,134.1z"/>
	<path class="fill-dark" d="M59.5,126.4c-0.4,0-0.7,0.3-0.7,0.7c0,0.4,0.3,0.7,0.7,0.7s0.7-0.3,0.7-0.7C60.2,126.7,59.9,126.4,59.5,126.4z
		"/>
	<path class="fill-dark" d="M69.5,103.3c-0.4,0-0.7,0.3-0.7,0.7c0,0.4,0.3,0.7,0.7,0.7s0.7-0.3,0.7-0.7C70.2,103.6,69.9,103.3,69.5,103.3z
		"/>
	<path class="fill-dark" d="M69.5,111c-0.4,0-0.7,0.3-0.7,0.7c0,0.4,0.3,0.7,0.7,0.7s0.7-0.3,0.7-0.7S69.9,111,69.5,111z"/>
	<path class="fill-dark" d="M69.5,157.2c-0.4,0-0.7,0.3-0.7,0.7s0.3,0.7,0.7,0.7s0.7-0.3,0.7-0.7S69.9,157.2,69.5,157.2z"/>
	<path class="fill-dark" d="M69.5,118.7c-0.4,0-0.7,0.3-0.7,0.7c0,0.4,0.3,0.7,0.7,0.7s0.7-0.3,0.7-0.7S69.9,118.7,69.5,118.7z"/>
	<path class="fill-dark" d="M69.5,134.1c-0.4,0-0.7,0.3-0.7,0.7s0.3,0.7,0.7,0.7s0.7-0.3,0.7-0.7C70.2,134.4,69.9,134.1,69.5,134.1z"/>
	<path class="fill-dark" d="M69.5,141.8c-0.4,0-0.7,0.3-0.7,0.7s0.3,0.7,0.7,0.7s0.7-0.3,0.7-0.7S69.9,141.8,69.5,141.8z"/>
	<path class="fill-dark" d="M69.5,126.4c-0.4,0-0.7,0.3-0.7,0.7c0,0.4,0.3,0.7,0.7,0.7s0.7-0.3,0.7-0.7C70.2,126.7,69.9,126.4,69.5,126.4z
		"/>
	<path class="fill-dark" d="M69.5,149.5c-0.4,0-0.7,0.3-0.7,0.7s0.3,0.7,0.7,0.7s0.7-0.3,0.7-0.7S69.9,149.5,69.5,149.5z"/>
	<path class="fill-dark" d="M79.5,164.9c-0.2,0-0.4,0.1-0.5,0.2c-0.1,0.1-0.1,0.2-0.2,0.3c0.5,0,0.9,0.1,1.4,0.1c0-0.1-0.1-0.3-0.2-0.4
		C79.9,164.9,79.7,164.9,79.5,164.9z"/>
	<path class="fill-dark" d="M79.5,103.3c-0.4,0-0.7,0.3-0.7,0.7c0,0.4,0.3,0.7,0.7,0.7s0.7-0.3,0.7-0.7C80.2,103.6,79.9,103.3,79.5,103.3z
		"/>
	<path class="fill-dark" d="M79.5,157.2c-0.4,0-0.7,0.3-0.7,0.7s0.3,0.7,0.7,0.7s0.7-0.3,0.7-0.7S79.9,157.2,79.5,157.2z"/>
	<path class="fill-dark" d="M79.5,149.5c-0.4,0-0.7,0.3-0.7,0.7s0.3,0.7,0.7,0.7s0.7-0.3,0.7-0.7S79.9,149.5,79.5,149.5z"/>
	<path class="fill-dark" d="M79.5,134.1c-0.4,0-0.7,0.3-0.7,0.7s0.3,0.7,0.7,0.7s0.7-0.3,0.7-0.7C80.2,134.4,79.9,134.1,79.5,134.1z"/>
	<path class="fill-dark" d="M79.5,126.4c-0.4,0-0.7,0.3-0.7,0.7c0,0.4,0.3,0.7,0.7,0.7s0.7-0.3,0.7-0.7C80.2,126.7,79.9,126.4,79.5,126.4z
		"/>
	<path class="fill-dark" d="M79.5,118.7c-0.4,0-0.7,0.3-0.7,0.7c0,0.4,0.3,0.7,0.7,0.7s0.7-0.3,0.7-0.7S79.9,118.7,79.5,118.7z"/>
	<path class="fill-dark" d="M79.5,111c-0.4,0-0.7,0.3-0.7,0.7c0,0.4,0.3,0.7,0.7,0.7s0.7-0.3,0.7-0.7S79.9,111,79.5,111z"/>
	<path class="fill-dark" d="M79.5,141.8c-0.4,0-0.7,0.3-0.7,0.7s0.3,0.7,0.7,0.7s0.7-0.3,0.7-0.7S79.9,141.8,79.5,141.8z"/>
	<path class="fill-dark" d="M89.5,164.9c-0.2,0-0.4,0.1-0.5,0.2c-0.1,0.1-0.2,0.3-0.2,0.4c0.5,0,1-0.1,1.4-0.1c0-0.1-0.1-0.2-0.2-0.3
		C89.9,164.9,89.7,164.9,89.5,164.9z"/>
	<path class="fill-dark" d="M89.5,103.3c-0.4,0-0.7,0.3-0.7,0.7c0,0.4,0.3,0.7,0.7,0.7s0.7-0.3,0.7-0.7C90.2,103.6,89.9,103.3,89.5,103.3z
		"/>
	<path class="fill-dark" d="M89.5,118.7c-0.4,0-0.7,0.3-0.7,0.7c0,0.4,0.3,0.7,0.7,0.7s0.7-0.3,0.7-0.7S89.9,118.7,89.5,118.7z"/>
	<path class="fill-dark" d="M89.5,126.4c-0.4,0-0.7,0.3-0.7,0.7c0,0.4,0.3,0.7,0.7,0.7s0.7-0.3,0.7-0.7C90.2,126.7,89.9,126.4,89.5,126.4z
		"/>
	<path class="fill-dark" d="M89.5,134.1c-0.4,0-0.7,0.3-0.7,0.7s0.3,0.7,0.7,0.7s0.7-0.3,0.7-0.7C90.2,134.4,89.9,134.1,89.5,134.1z"/>
	<path class="fill-dark" d="M89.5,141.8c-0.4,0-0.7,0.3-0.7,0.7s0.3,0.7,0.7,0.7s0.7-0.3,0.7-0.7S89.9,141.8,89.5,141.8z"/>
	<path class="fill-dark" d="M89.5,111c-0.4,0-0.7,0.3-0.7,0.7c0,0.4,0.3,0.7,0.7,0.7s0.7-0.3,0.7-0.7S89.9,111,89.5,111z"/>
	<path class="fill-dark" d="M89.5,149.5c-0.4,0-0.7,0.3-0.7,0.7s0.3,0.7,0.7,0.7s0.7-0.3,0.7-0.7S89.9,149.5,89.5,149.5z"/>
	<path class="fill-dark" d="M89.5,157.2c-0.4,0-0.7,0.3-0.7,0.7s0.3,0.7,0.7,0.7s0.7-0.3,0.7-0.7S89.9,157.2,89.5,157.2z"/>
	<path class="fill-dark" d="M99.5,103.3c-0.4,0-0.7,0.3-0.7,0.7c0,0.4,0.3,0.7,0.7,0.7s0.7-0.3,0.7-0.7C100.3,103.6,99.9,103.3,99.5,103.3
		z"/>
	<path class="fill-dark" d="M99.5,111c-0.4,0-0.7,0.3-0.7,0.7c0,0.4,0.3,0.7,0.7,0.7s0.7-0.3,0.7-0.7C100.3,111.3,99.9,111,99.5,111z"/>
	<path class="fill-dark" d="M99.5,141.8c-0.4,0-0.7,0.3-0.7,0.7s0.3,0.7,0.7,0.7s0.7-0.3,0.7-0.7C100.3,142.1,99.9,141.8,99.5,141.8z"/>
	<path class="fill-dark" d="M99.5,157.2c-0.4,0-0.7,0.3-0.7,0.7s0.3,0.7,0.7,0.7s0.7-0.3,0.7-0.7C100.3,157.5,99.9,157.2,99.5,157.2z"/>
	<path class="fill-dark" d="M99.5,118.7c-0.4,0-0.7,0.3-0.7,0.7c0,0.4,0.3,0.7,0.7,0.7s0.7-0.3,0.7-0.7C100.3,119,99.9,118.7,99.5,118.7z"
		/>
	<path class="fill-dark" d="M99.5,149.5c-0.4,0-0.7,0.3-0.7,0.7s0.3,0.7,0.7,0.7s0.7-0.3,0.7-0.7C100.3,149.8,99.9,149.5,99.5,149.5z"/>
	<path class="fill-dark" d="M99.5,134.1c-0.4,0-0.7,0.3-0.7,0.7s0.3,0.7,0.7,0.7s0.7-0.3,0.7-0.7C100.3,134.4,99.9,134.1,99.5,134.1z"/>
	<path class="fill-dark" d="M99.5,126.4c-0.4,0-0.7,0.3-0.7,0.7c0,0.4,0.3,0.7,0.7,0.7s0.7-0.3,0.7-0.7C100.3,126.7,99.9,126.4,99.5,126.4
		z"/>
	<path class="fill-dark" d="M109.5,157.2c-0.4,0-0.7,0.3-0.7,0.7s0.3,0.7,0.7,0.7s0.7-0.3,0.7-0.7C110.3,157.5,109.9,157.2,109.5,157.2z"
		/>
	<path class="fill-dark" d="M109.5,134.1c-0.4,0-0.7,0.3-0.7,0.7s0.3,0.7,0.7,0.7s0.7-0.3,0.7-0.7C110.3,134.4,109.9,134.1,109.5,134.1z"
		/>
	<path class="fill-dark" d="M109.5,141.8c-0.4,0-0.7,0.3-0.7,0.7s0.3,0.7,0.7,0.7s0.7-0.3,0.7-0.7C110.3,142.1,109.9,141.8,109.5,141.8z"
		/>
	<path class="fill-dark" d="M109.5,149.5c-0.4,0-0.7,0.3-0.7,0.7s0.3,0.7,0.7,0.7s0.7-0.3,0.7-0.7C110.3,149.8,109.9,149.5,109.5,149.5z"
		/>
	<path class="fill-dark" d="M109.5,111c-0.4,0-0.7,0.3-0.7,0.7c0,0.4,0.3,0.7,0.7,0.7s0.7-0.3,0.7-0.7C110.3,111.3,109.9,111,109.5,111z"
		/>
	<path class="fill-dark" d="M109.5,118.7c-0.4,0-0.7,0.3-0.7,0.7c0,0.4,0.3,0.7,0.7,0.7s0.7-0.3,0.7-0.7
		C110.3,119,109.9,118.7,109.5,118.7z"/>
	<path class="fill-dark" d="M109.5,126.4c-0.4,0-0.7,0.3-0.7,0.7c0,0.4,0.3,0.7,0.7,0.7s0.7-0.3,0.7-0.7
		C110.3,126.7,109.9,126.4,109.5,126.4z"/>
	<path class="fill-dark" d="M109.5,103.3c-0.4,0-0.7,0.3-0.7,0.7c0,0.4,0.3,0.7,0.7,0.7s0.7-0.3,0.7-0.7
		C110.3,103.6,109.9,103.3,109.5,103.3z"/>
	<path class="fill-dark" d="M119.6,111c-0.4,0-0.7,0.3-0.7,0.7c0,0.4,0.3,0.7,0.7,0.7c0.4,0,0.7-0.3,0.7-0.7
		C120.3,111.3,120,111,119.6,111z"/>
	<path class="fill-dark" d="M119.6,103.3c-0.4,0-0.7,0.3-0.7,0.7c0,0.4,0.3,0.7,0.7,0.7c0.4,0,0.7-0.3,0.7-0.7
		C120.3,103.6,120,103.3,119.6,103.3z"/>
	<path class="fill-dark" d="M119.6,126.4c-0.4,0-0.7,0.3-0.7,0.7c0,0.4,0.3,0.7,0.7,0.7c0.4,0,0.7-0.3,0.7-0.7
		C120.3,126.7,120,126.4,119.6,126.4z"/>
	<path class="fill-dark" d="M119.6,118.7c-0.4,0-0.7,0.3-0.7,0.7c0,0.4,0.3,0.7,0.7,0.7c0.4,0,0.7-0.3,0.7-0.7
		C120.3,119,120,118.7,119.6,118.7z"/>
	<path class="fill-dark" d="M119.6,134.1c-0.4,0-0.7,0.3-0.7,0.7s0.3,0.7,0.7,0.7c0.4,0,0.7-0.3,0.7-0.7
		C120.3,134.4,120,134.1,119.6,134.1z"/>
	<path class="fill-dark" d="M119.6,149.5c-0.4,0-0.7,0.3-0.7,0.7s0.3,0.7,0.7,0.7c0.4,0,0.7-0.3,0.7-0.7
		C120.3,149.8,120,149.5,119.6,149.5z"/>
	<path class="fill-dark" d="M118.8,157.9v0.1c0.4-0.2,0.8-0.4,1.3-0.6c-0.1-0.1-0.3-0.2-0.5-0.2C119.1,157.2,118.8,157.5,118.8,157.9z"/>
	<path class="fill-dark" d="M119.6,141.8c-0.4,0-0.7,0.3-0.7,0.7s0.3,0.7,0.7,0.7c0.4,0,0.7-0.3,0.7-0.7
		C120.3,142.1,120,141.8,119.6,141.8z"/>
	<path class="fill-dark" d="M129.6,134.1c-0.4,0-0.7,0.3-0.7,0.7s0.3,0.7,0.7,0.7c0.4,0,0.7-0.3,0.7-0.7
		C130.3,134.4,130,134.1,129.6,134.1z"/>
	<path class="fill-dark" d="M129.6,118.7c-0.4,0-0.7,0.3-0.7,0.7c0,0.4,0.3,0.7,0.7,0.7c0.4,0,0.7-0.3,0.7-0.7
		C130.3,119,130,118.7,129.6,118.7z"/>
	<path class="fill-dark" d="M129.6,141.8c-0.4,0-0.7,0.3-0.7,0.7s0.3,0.7,0.7,0.7c0.4,0,0.7-0.3,0.7-0.7
		C130.3,142.1,130,141.8,129.6,141.8z"/>
	<path class="fill-dark" d="M129.6,149.5c-0.4,0-0.7,0.3-0.7,0.7s0.3,0.7,0.7,0.7c0.4,0,0.7-0.3,0.7-0.7
		C130.3,149.8,130,149.5,129.6,149.5z"/>
	<path class="fill-dark" d="M129.6,126.4c-0.4,0-0.7,0.3-0.7,0.7c0,0.4,0.3,0.7,0.7,0.7c0.4,0,0.7-0.3,0.7-0.7
		C130.3,126.7,130,126.4,129.6,126.4z"/>
	<path class="fill-dark" d="M129.6,103.3c-0.4,0-0.7,0.3-0.7,0.7c0,0.4,0.3,0.7,0.7,0.7c0.4,0,0.7-0.3,0.7-0.7
		C130.3,103.6,130,103.3,129.6,103.3z"/>
	<path class="fill-dark" d="M129.6,111c-0.4,0-0.7,0.3-0.7,0.7c0,0.4,0.3,0.7,0.7,0.7c0.4,0,0.7-0.3,0.7-0.7
		C130.3,111.3,130,111,129.6,111z"/>
	<path class="fill-dark" d="M139.6,103.3c-0.4,0-0.7,0.3-0.7,0.7c0,0.4,0.3,0.7,0.7,0.7c0.4,0,0.7-0.3,0.7-0.7
		C140.3,103.6,140,103.3,139.6,103.3z"/>
	<path class="fill-dark" d="M139.6,126.4c-0.4,0-0.7,0.3-0.7,0.7c0,0.4,0.3,0.7,0.7,0.7c0.4,0,0.7-0.3,0.7-0.7
		C140.3,126.7,140,126.4,139.6,126.4z"/>
	<path class="fill-dark" d="M139.6,141.8c-0.4,0-0.7,0.3-0.7,0.7s0.3,0.7,0.7,0.7c0.4,0,0.7-0.3,0.7-0.7
		C140.3,142.1,140,141.8,139.6,141.8z"/>
	<path class="fill-dark" d="M139.6,134.1c-0.4,0-0.7,0.3-0.7,0.7s0.3,0.7,0.7,0.7c0.4,0,0.7-0.3,0.7-0.7
		C140.3,134.4,140,134.1,139.6,134.1z"/>
	<path class="fill-dark" d="M139.6,111c-0.4,0-0.7,0.3-0.7,0.7c0,0.4,0.3,0.7,0.7,0.7c0.4,0,0.7-0.3,0.7-0.7
		C140.3,111.3,140,111,139.6,111z"/>
	<path class="fill-dark" d="M139.6,118.7c-0.4,0-0.7,0.3-0.7,0.7c0,0.4,0.3,0.7,0.7,0.7c0.4,0,0.7-0.3,0.7-0.7
		C140.3,119,140,118.7,139.6,118.7z"/>
	<path class="fill-dark" d="M149.6,111c-0.4,0-0.7,0.3-0.7,0.7c0,0.4,0.3,0.7,0.7,0.7c0.4,0,0.7-0.3,0.7-0.7
		C150.3,111.3,150,111,149.6,111z"/>
	<path class="fill-dark" d="M149.6,126.4c-0.4,0-0.7,0.3-0.7,0.7c0,0.4,0.3,0.7,0.7,0.7c0.4,0,0.7-0.3,0.7-0.7
		C150.3,126.7,150,126.4,149.6,126.4z"/>
	<path class="fill-dark" d="M149.6,118.7c-0.4,0-0.7,0.3-0.7,0.7c0,0.4,0.3,0.7,0.7,0.7c0.4,0,0.7-0.3,0.7-0.7
		C150.3,119,150,118.7,149.6,118.7z"/>
	<path class="fill-dark" d="M149.6,103.3c-0.4,0-0.7,0.3-0.7,0.7c0,0.4,0.3,0.7,0.7,0.7c0.4,0,0.7-0.3,0.7-0.7
		C150.3,103.6,150,103.3,149.6,103.3z"/>
	<path class="fill-dark" d="M159.6,103.3c-0.4,0-0.7,0.3-0.7,0.7c0,0.4,0.3,0.7,0.7,0.7c0.4,0,0.7-0.3,0.7-0.7
		C160.4,103.6,160,103.3,159.6,103.3z"/>
	<path class="fill-dark" d="M158.9,111.7c0,0.2,0.1,0.5,0.3,0.6c0.1-0.4,0.3-0.9,0.4-1.3C159.2,111,158.9,111.3,158.9,111.7z"/>
</g>
</svg>
