<?xml version="1.0" encoding="utf-8"?>
<!-- Generator: Adobe Illustrator 23.0.0, SVG Export Plug-In . SVG Version: 6.00 Build 0)  -->
<svg version="1.1" id="Capa_1" xmlns="http://www.w3.org/2000/svg" xmlns:xlink="http://www.w3.org/1999/xlink" x="0px" y="0px"
	 viewBox="0 0 382.7 382.7" height="65" width="65" style="enable-background:new 0 0 382.7 382.7;" xml:space="preserve">
<g>
	<g>
		<path class="fill-primary" d="M0,172.9c0,2,0.8,4,2.3,5.4c1.4,1.4,3.4,2.3,5.4,2.3c2,0,4-0.8,5.4-2.3c1.4-1.4,2.3-3.4,2.3-5.4
			c0-2-0.8-4-2.3-5.4s-3.4-2.3-5.4-2.3s-4,0.8-5.4,2.3C0.8,168.9,0,170.9,0,172.9z"/>
	</g>
	<g>
		<path class="fill-primary" d="M83.1,172.9c0,2,0.8,4,2.3,5.4c1.4,1.4,3.4,2.3,5.4,2.3c2,0,4-0.8,5.4-2.3c1.4-1.4,2.3-3.4,2.3-5.4
			c0-2-0.8-4-2.3-5.4c-1.4-1.4-3.4-2.3-5.4-2.3c-2,0-4,0.8-5.4,2.3C84,168.9,83.1,170.9,83.1,172.9z"/>
	</g>
	<g>
		<path class="fill-primary" d="M167.6,172.9c0,2,0.8,4,2.3,5.4c1.4,1.4,3.4,2.3,5.4,2.3c2,0,4-0.8,5.4-2.3c1.4-1.4,2.3-3.4,2.3-5.4
			c0-2-0.8-4-2.3-5.4c-1.4-1.4-3.4-2.3-5.4-2.3s-4,0.8-5.4,2.3C168.4,168.9,167.6,170.9,167.6,172.9z"/>
	</g>
	<g>
		<path class="fill-primary" d="M0,90.9c0,2,0.8,4,2.3,5.4c1.4,1.4,3.4,2.3,5.4,2.3c2,0,4-0.8,5.4-2.3c1.4-1.4,2.3-3.4,2.3-5.4
			c0-2-0.8-4-2.3-5.4s-3.4-2.3-5.4-2.3s-4,0.8-5.4,2.3C0.8,86.9,0,88.9,0,90.9z"/>
	</g>
	<g>
		<path class="fill-primary" d="M83.1,90.9c0,2,0.8,4,2.3,5.4c1.4,1.4,3.4,2.3,5.4,2.3c2,0,4-0.8,5.4-2.3c1.4-1.4,2.3-3.4,2.3-5.4
			c0-2-0.8-4-2.3-5.4c-1.4-1.4-3.4-2.3-5.4-2.3c-2,0-4,0.8-5.4,2.3C84,86.9,83.1,88.9,83.1,90.9z"/>
	</g>
	<g>
		<path class="fill-primary" d="M167.6,90.9c0,2,0.8,4,2.3,5.4c1.4,1.4,3.4,2.3,5.4,2.3c2,0,4-0.8,5.4-2.3c1.4-1.4,2.3-3.4,2.3-5.4
			c0-2-0.8-4-2.3-5.4c-1.4-1.4-3.4-2.3-5.4-2.3s-4,0.8-5.4,2.3C168.4,86.9,167.6,88.9,167.6,90.9z"/>
	</g>
	<g>
		<path class="fill-primary" d="M0,7.9c0,2,0.8,4,2.3,5.4c1.4,1.4,3.4,2.3,5.4,2.3c2,0,4-0.8,5.4-2.3c1.4-1.4,2.3-3.4,2.3-5.4
			c0-2-0.8-4-2.3-5.4S9.7,0.2,7.7,0.2S3.7,1,2.3,2.5C0.8,3.9,0,5.9,0,7.9z"/>
	</g>
	<g>
		<path class="fill-primary" d="M83.1,7.9c0,2,0.8,4,2.3,5.4c1.4,1.4,3.4,2.3,5.4,2.3c2,0,4-0.8,5.4-2.3c1.4-1.4,2.3-3.4,2.3-5.4
			c0-2-0.8-4-2.3-5.4c-1.4-1.4-3.4-2.3-5.4-2.3c-2,0-4,0.8-5.4,2.3C84,3.9,83.1,5.9,83.1,7.9z"/>
	</g>
	<g>
		<path class="fill-primary" d="M167.6,7.9c0,2,0.8,4,2.3,5.4c1.4,1.4,3.4,2.3,5.4,2.3c2,0,4-0.8,5.4-2.3c1.4-1.4,2.3-3.4,2.3-5.4
			c0-2-0.8-4-2.3-5.4c-1.4-1.4-3.4-2.3-5.4-2.3s-4,0.8-5.4,2.3C168.4,3.9,167.6,5.9,167.6,7.9z"/>
	</g>
</g>
<g>
	<g>
		<g>
			<path d="M139,22.4V160c0,12.4,10.1,22.4,22.4,22.4h66.4l27.7,27.7c1.5,1.5,3.4,2.2,5.3,2.2s3.8-0.7,5.3-2.2l27.7-27.7h66.4
				c12.4,0,22.4-10.1,22.4-22.4V22.4c0-12.4-10.1-22.4-22.4-22.4L161.4,0C149.1,0,139,10.1,139,22.4z M154,160V22.4
				c0-4.1,3.4-7.5,7.5-7.5h198.8c4.1,0,7.5,3.4,7.5,7.5V160c0,4.1-3.4,7.5-7.5,7.5h-69.5c-2,0-3.9,0.8-5.3,2.2l-24.6,24.6
				l-24.6-24.6c-1.4-1.4-3.3-2.2-5.3-2.2h-69.5C157.3,167.4,154,164.1,154,160L154,160z"/>
		</g>
	</g>
	<g>
		<g>
			<path class="fill-primary" d="M106.2,172.9c0,2,0.8,4,2.3,5.4c1.4,1.4,3.4,2.3,5.4,2.3c2,0,4-0.8,5.4-2.3c1.4-1.4,2.3-3.4,2.3-5.4
				c0-2-0.8-4-2.3-5.4c-1.4-1.4-3.4-2.3-5.4-2.3c-2,0-4,0.8-5.4,2.3C107,168.9,106.2,170.9,106.2,172.9z"/>
		</g>
	</g>
	<g>
		<g>
			<path class="fill-primary" d="M0,188.2l0,140.9c0,12.7,10.4,23,23.1,23h68.4l28.5,28.4c1.5,1.5,3.5,2.2,5.4,2.2c2,0,3.9-0.7,5.4-2.2
				l28.5-28.4h68.4c12.7,0,23.1-10.3,23.1-23v-88.3c0-4.2-3.4-7.7-7.7-7.7c-4.2,0-7.7,3.4-7.7,7.7v88.3c0,4.2-3.5,7.7-7.7,7.7h-71.5
				c-2,0-4,0.8-5.4,2.2l-25.3,25.2L100.1,339c-1.4-1.4-3.4-2.2-5.4-2.2H23.1c-4.2,0-7.7-3.4-7.7-7.7V188.2c0-4.2,3.5-7.7,7.7-7.7
				h61.2c4.2,0,7.7-3.4,7.7-7.7s-3.4-7.7-7.7-7.7H23.1C10.4,165.2,0,175.5,0,188.2z"/>
		</g>
	</g>
	<g>
		<g>
			<path d="M303.1,91.2c0,12,9.7,21.7,21.7,21.7c12,0,21.7-9.7,21.7-21.7s-9.7-21.7-21.7-21.7C312.8,69.5,303.1,79.2,303.1,91.2z
				 M318,91.2c0-3.7,3-6.7,6.7-6.7s6.7,3,6.7,6.7s-3,6.7-6.7,6.7S318,94.9,318,91.2z"/>
		</g>
	</g>
	<g>
		<g>
			<path d="M239.2,91.2c0,12,9.7,21.7,21.7,21.7c12,0,21.7-9.7,21.7-21.7s-9.7-21.7-21.7-21.7C248.9,69.5,239.2,79.2,239.2,91.2z
				 M254.1,91.2c0-3.7,3-6.7,6.7-6.7s6.7,3,6.7,6.7s-3,6.7-6.7,6.7S254.1,94.9,254.1,91.2z"/>
		</g>
	</g>
	<g>
		<g>
			<path d="M175.3,91.2c0,12,9.7,21.7,21.7,21.7c12,0,21.7-9.7,21.7-21.7s-9.7-21.7-21.7-21.7C185,69.5,175.3,79.2,175.3,91.2z
				 M190.2,91.2c0-3.7,3-6.7,6.7-6.7c3.7,0,6.7,3,6.7,6.7s-3,6.7-6.7,6.7C193.2,97.9,190.2,94.9,190.2,91.2z"/>
		</g>
	</g>
	<g>
		<g>
			<path class="fill-primary" d="M158.1,243.7l-43.7-28c-5.8-3.7-13.2-4-19.2-0.7c-6.1,3.3-9.8,9.7-9.8,16.6v56c0,6.9,3.8,13.2,9.8,16.6
				c2.8,1.5,5.9,2.3,9.1,2.3c3.5,0,7.1-1,10.2-3l43.7-28c5.4-3.5,8.7-9.4,8.7-15.9C166.8,253.1,163.5,247.2,158.1,243.7z M150,262.9
				l-43.7,28c-1.8,1.1-3.4,0.5-4,0.1c-0.6-0.3-2-1.3-2-3.4v-56c0-2.1,1.4-3.1,2-3.4c0.4-0.2,1-0.5,1.9-0.5c0.6,0,1.3,0.2,2.1,0.6
				l43.7,28c1.6,1,1.8,2.7,1.8,3.3C151.8,260.2,151.6,261.8,150,262.9z"/>
		</g>
	</g>
</g>
</svg>
