<?xml version="1.0" encoding="utf-8"?>
<!-- Generator: Adobe Illustrator 23.0.0, SVG Export Plug-In . SVG Version: 6.00 Build 0)  -->
<svg version="1.1" id="Capa_1" xmlns="http://www.w3.org/2000/svg" xmlns:xlink="http://www.w3.org/1999/xlink" x="0px" y="0px"
	 viewBox="0 0 382.7 382.7" height="65" width="65" style="enable-background:new 0 0 382.7 382.7;" xml:space="preserve">

<g>
	<g>
		<path class="fill-primary" d="M0,172.9c0,2,0.8,4,2.3,5.4c1.4,1.4,3.4,2.3,5.4,2.3c2,0,4-0.8,5.4-2.3c1.4-1.4,2.3-3.4,2.3-5.4
			c0-2-0.8-4-2.3-5.4s-3.4-2.3-5.4-2.3s-4,0.8-5.4,2.3C0.8,168.9,0,170.9,0,172.9z"/>
	</g>
	<g>
		<path class="fill-primary" d="M83.1,172.9c0,2,0.8,4,2.3,5.4c1.4,1.4,3.4,2.3,5.4,2.3c2,0,4-0.8,5.4-2.3c1.4-1.4,2.3-3.4,2.3-5.4
			c0-2-0.8-4-2.3-5.4c-1.4-1.4-3.4-2.3-5.4-2.3c-2,0-4,0.8-5.4,2.3C84,168.9,83.1,170.9,83.1,172.9z"/>
	</g>
	<g>
		<path class="fill-primary" d="M167.6,172.9c0,2,0.8,4,2.3,5.4c1.4,1.4,3.4,2.3,5.4,2.3c2,0,4-0.8,5.4-2.3c1.4-1.4,2.3-3.4,2.3-5.4
			c0-2-0.8-4-2.3-5.4c-1.4-1.4-3.4-2.3-5.4-2.3s-4,0.8-5.4,2.3C168.4,168.9,167.6,170.9,167.6,172.9z"/>
	</g>
	<g>
		<path class="fill-primary" d="M0,90.9c0,2,0.8,4,2.3,5.4c1.4,1.4,3.4,2.3,5.4,2.3c2,0,4-0.8,5.4-2.3c1.4-1.4,2.3-3.4,2.3-5.4
			c0-2-0.8-4-2.3-5.4s-3.4-2.3-5.4-2.3s-4,0.8-5.4,2.3C0.8,86.9,0,88.9,0,90.9z"/>
	</g>
	<g>
		<path class="fill-primary" d="M83.1,90.9c0,2,0.8,4,2.3,5.4c1.4,1.4,3.4,2.3,5.4,2.3c2,0,4-0.8,5.4-2.3c1.4-1.4,2.3-3.4,2.3-5.4
			c0-2-0.8-4-2.3-5.4c-1.4-1.4-3.4-2.3-5.4-2.3c-2,0-4,0.8-5.4,2.3C84,86.9,83.1,88.9,83.1,90.9z"/>
	</g>
	<g>
		<path class="fill-primary" d="M167.6,90.9c0,2,0.8,4,2.3,5.4c1.4,1.4,3.4,2.3,5.4,2.3c2,0,4-0.8,5.4-2.3c1.4-1.4,2.3-3.4,2.3-5.4
			c0-2-0.8-4-2.3-5.4c-1.4-1.4-3.4-2.3-5.4-2.3s-4,0.8-5.4,2.3C168.4,86.9,167.6,88.9,167.6,90.9z"/>
	</g>
	<g>
		<path class="fill-primary" d="M0,7.9c0,2,0.8,4,2.3,5.4c1.4,1.4,3.4,2.3,5.4,2.3c2,0,4-0.8,5.4-2.3c1.4-1.4,2.3-3.4,2.3-5.4
			c0-2-0.8-4-2.3-5.4S9.7,0.2,7.7,0.2S3.7,1,2.3,2.5C0.8,3.9,0,5.9,0,7.9z"/>
	</g>
	<g>
		<path class="fill-primary" d="M83.1,7.9c0,2,0.8,4,2.3,5.4c1.4,1.4,3.4,2.3,5.4,2.3c2,0,4-0.8,5.4-2.3c1.4-1.4,2.3-3.4,2.3-5.4
			c0-2-0.8-4-2.3-5.4c-1.4-1.4-3.4-2.3-5.4-2.3c-2,0-4,0.8-5.4,2.3C84,3.9,83.1,5.9,83.1,7.9z"/>
	</g>
	<g>
		<path class="fill-primary" d="M167.6,7.9c0,2,0.8,4,2.3,5.4c1.4,1.4,3.4,2.3,5.4,2.3c2,0,4-0.8,5.4-2.3c1.4-1.4,2.3-3.4,2.3-5.4
			c0-2-0.8-4-2.3-5.4c-1.4-1.4-3.4-2.3-5.4-2.3s-4,0.8-5.4,2.3C168.4,3.9,167.6,5.9,167.6,7.9z"/>
	</g>
</g>
<g>
	<g>
		<g>
			<path d="M375.9,0.1c-0.8-0.1-1.6-0.1-2.4,0c-74.3,14.8-142.6,50.9-196.6,104l-70.6,3.6c-2,0.1-3.9,0.9-5.3,2.3l-72.5,72.5
				c-3.1,3.1-3.2,8.2,0,11.3c1.5,1.5,3.6,2.4,5.7,2.4h0.6l81.7-5.6c-3.2,6.7-6.2,13.6-9,20.8c-1.2,2.9-0.5,6.3,1.8,8.6l53.8,53.8
				c2.3,2.2,5.6,2.9,8.6,1.8c7.4-2.9,14.5-6.1,21.4-9.4l-5.6,82.6c-0.3,4.4,3.1,8.2,7.5,8.4c2.3,0.1,4.5-0.7,6.1-2.3l72.5-72.5
				c1.4-1.4,2.2-3.3,2.3-5.3l3.7-72c52.6-53.9,88.5-121.9,103.1-195.8C383.2,4.9,380.2,0.8,375.9,0.1z M55.1,178.4l55.2-55.2
				l51.3-2.6c-14,16.4-26.2,34.2-36.6,53L55.1,178.4z M260,273l-55.2,55.2l4.8-70.9c18.9-10.4,36.7-22.7,53-36.7L260,273z
				 M170.6,258.4l-46.3-46.3c58.3-142.5,199.1-184.5,240-193.8C355.1,59.3,313.3,200,170.6,258.4z"/>
		</g>
	</g>
	<g>
		<g>
			<path class="fill-primary" d="M88.4,223.2c-3.1-3.2-8.2-3.2-11.4-0.1L2.8,297.1c-3.4,2.9-3.8,7.9-0.9,11.3c1.6,1.9,4,2.9,6.5,2.8
				c2.1,0,4.2-0.8,5.7-2.3l74.2-74.2C91.5,231.5,91.5,226.4,88.4,223.2z"/>
		</g>
	</g>
	<g>
		<g>
			<path class="fill-primary" d="M90.2,292.6C90.2,292.5,90.2,292.5,90.2,292.6c-3.2-3.2-8.2-3.2-11.3-0.1L4.6,367.1c-3.8,2.3-5.1,7.2-2.8,11
				s7.2,5.1,11,2.8c1.2-0.7,2.1-1.6,2.8-2.8l74.2-74.2C93,300.9,93.2,295.8,90.2,292.6z"/>
		</g>
	</g>
	<g>
		<g>
			<path class="fill-primary" d="M158.7,294.3c-3-2.6-7.4-2.6-10.4,0h0.2l-74.2,74.2c-3.4,2.9-3.7,7.9-0.9,11.3s7.9,3.7,11.3,0.9
				c0.3-0.3,0.6-0.6,0.9-0.9l74-74.2C162.4,302.3,162,297.2,158.7,294.3z"/>
		</g>
	</g>
	<g>
		<g>
			<path class="fill-primary" d="M277.6,69.5c-19.6,0-35.5,15.9-35.5,35.5c0,9.4,3.7,18.5,10.4,25.1c6.6,6.7,15.7,10.4,25.1,10.4
				c19.6,0,35.5-15.9,35.5-35.5S297.2,69.5,277.6,69.5z M291.5,119.1c-7.8,7.6-20.2,7.6-27.9,0c-7.6-7.6-7.6-20,0-27.6v-0.3
				c7.7-7.7,20.2-7.7,27.9,0C299.2,98.9,299.2,111.4,291.5,119.1z"/>
		</g>
	</g>
</g>
</svg>
