<?xml version="1.0" encoding="utf-8"?>
<!-- Generator: Adobe Illustrator 19.0.0, SVG Export Plug-In . SVG Version: 6.00 Build 0)  -->
<svg version="1.1" id="Layer_1" xmlns="http://www.w3.org/2000/svg" xmlns:xlink="http://www.w3.org/1999/xlink" x="0px" y="0px"
	 viewBox="0 0 367.2 479" width="50" height="50" style="enable-background:new 0 0 367.2 479;" xml:space="preserve">
<!-- <style type="text/css">
	.st0{clip-path:url(#SVGID_2_);}
	.st1{clip-path:url(#SVGID_2_);fill:#138267;}
</style> -->
<g>
	<defs>
		<rect id="SVGID_1_" width="367.2" height="479"/>
	</defs>
	<clipPath id="SVGID_2_">
		<use xlink:href="#SVGID_1_"  style="overflow:visible;"/>
	</clipPath>
	<path class="fill-primary" d="M243,133.6c1.3-1.9,2.3-3.9,3.1-6c3.3,0.6,6.4,1.8,9.2,3.7c5.6,3.8,12.1,5.8,18.8,6c2.1,0,4.2-0.2,6.3-0.6
		c8.8-1.5,16.6-6.4,21.7-13.7c2.8-4.3,7.2-7.3,12.3-8.2c5.1-0.9,10.3,0.4,14.3,3.5c7.3,5.1,16.3,7,25.1,5.4l-2.8-15.7
		c-5.1,0.9-10.3-0.4-14.3-3.5c-15.2-10.4-36-6.8-46.8,8.3c-2.8,4.3-7.2,7.3-12.3,8.2c-2.3,0.5-4.7,0.4-7-0.2
		c4.7-1.2,9.1-3.6,12.8-6.8c6.8-5.7,11.2-13.9,12-22.7c0.2-5.1,2.6-9.9,6.5-13.2c3.9-3.3,9.1-4.8,14.2-4.1c8.9,0.8,17.7-2,24.4-7.9
		l-10.3-12.2c-4,3.2-9.1,4.7-14.2,4.1c-18.4-1.4-34.6,12.2-36.4,30.6c-0.2,5.1-2.6,9.9-6.5,13.2c-3.9,3.3-9.1,4.8-14.2,4.1
		c-5-0.4-10,0.3-14.7,2c-2.2-3.8-5.4-6.9-9.3-9.1l35.7-71.3c1.2-2.5,1.1-5.4-0.4-7.8c-1.5-2.4-4.1-3.8-6.8-3.8
		c-5.6,0.1-11-2.2-14.9-6.2c-14.1-13-35.8-13-49.9,0c-4,4-9.4,6.2-15,6.2c-5.6,0-11-2.2-15-6.2c-14.1-13-35.8-13-49.9,0
		c-3.9,4-9.4,6.3-15,6.2c-2.8,0-5.3,1.4-6.8,3.8c-1.5,2.4-1.6,5.3-0.4,7.8l35.7,71.3c-6,3.2-10.4,8.9-11.9,15.6
		c-1.5,6.7-0.1,13.7,3.9,19.2C51.1,153.3,0.1,219.6,0,295.4v143.7c0,22,17.9,39.9,39.9,39.9h287.4c22,0,39.9-17.9,39.9-39.9V295.4
		C367.1,219.6,316.2,153.3,243,133.6 M128.7,22.2c4-4,9.4-6.2,15-6.2c5.6,0,11,2.2,15,6.2c14.1,13,35.8,13,49.9,0
		c4-4,9.3-6.2,15-6.2c5.6,0,11,2.2,15,6.2c3.8,3.4,8.2,6,13,7.8l-32.9,65.8h-70L115.8,30C120.5,28.2,124.9,25.6,128.7,22.2
		 M143.7,127.7c-4.4,0-8-3.6-8-8s3.6-8,8-8h79.8c4.4,0,8,3.6,8,8s-3.6,8-8,8H143.7z M351.3,439.1c0,13.2-10.7,24-24,24H39.9
		c-13.2,0-24-10.7-24-24V295.4c0.1-83.7,67.9-151.6,151.7-151.7h31.9c83.7,0.1,151.6,67.9,151.7,151.7V439.1z"/>

		<rect x="115.9" y="303.4" transform="matrix(-0.7071 0.7071 -0.7071 -0.7071 533.6053 401.6716)" class="fill-dark" width="135.5" height="16"/>
	<path class="fill-dark" d="M215.6,319.3c-13.2,0-24,10.7-24,24c0,13.2,10.7,24,24,24c13.2,0,23.9-10.7,23.9-24
		C239.5,330.1,228.8,319.3,215.6,319.3 M215.6,351.3c-4.4,0-8-3.6-8-8c0-4.4,3.6-8,8-8c4.4,0,8,3.6,8,8
		C223.5,347.7,220,351.3,215.6,351.3"/>
	<path class="fill-dark" d="M151.7,303.4c13.2,0,23.9-10.7,23.9-24c0-13.2-10.7-23.9-23.9-23.9c-13.2,0-24,10.7-24,23.9
		C127.7,292.6,138.5,303.4,151.7,303.4 M151.7,271.4c4.4,0,8,3.6,8,8c0,4.4-3.6,8-8,8c-4.4,0-8-3.6-8-8
		C143.7,275,147.3,271.4,151.7,271.4"/>
	<path class="fill-dark" d="M183.6,199.6c-61.7,0-111.8,50-111.8,111.8s50,111.8,111.8,111.8c61.7,0,111.8-50,111.8-111.8
		C295.3,249.6,245.3,199.6,183.6,199.6 M183.6,407.2c-52.9,0-95.8-42.9-95.8-95.8s42.9-95.8,95.8-95.8c52.9,0,95.8,42.9,95.8,95.8
		C279.4,364.2,236.5,407.1,183.6,407.2"/>
</g>
</svg>
