<?xml version="1.0" encoding="utf-8"?>
<!-- Generator: Adobe Illustrator 19.0.0, SVG Export Plug-In . SVG Version: 6.00 Build 0)  -->
<svg version="1.1" id="Layer_1" xmlns="http://www.w3.org/2000/svg" xmlns:xlink="http://www.w3.org/1999/xlink" x="0px" y="0px"
	 viewBox="0 0 512 504" width="50" height="50" style="enable-background:new 0 0 512 504;" xml:space="preserve">
<!-- <style type="text/css">
	.st0{clip-path:url(#SVGID_2_);fill:#138267;}
	.st1{clip-path:url(#SVGID_2_);}
</style> -->
<g>
	<defs>
		<rect id="SVGID_1_" width="512" height="504"/>
	</defs>
	<clipPath id="SVGID_2_">
		<use xlink:href="#SVGID_1_"  style="overflow:visible;"/>
	</clipPath>
	<path class="fill-primary" d="M108.5,271.9c4.1,0,7.5-3.4,7.5-7.5v-5.2c0-12-9.2-21.9-20.8-23v-8.2c0-4.2-3.4-7.5-7.5-7.5s-7.5,3.4-7.5,7.5
		v8.6c-11.9,2.3-20.8,12.8-20.8,25.3c0,14.2,11.6,25.8,25.7,25.8h5.2c5.9,0,10.7,4.8,10.7,10.7c0,5.9-4.8,10.7-10.7,10.7h-7.8
		c-4.5,0-8.1-3.6-8.1-8.1c0-4.1-3.4-7.5-7.5-7.5c-4.2,0-7.5,3.4-7.5,7.5c0,12,9.2,21.9,20.8,23v8.2c0,4.1,3.4,7.5,7.5,7.5
		s7.5-3.4,7.5-7.5v-8.6c11.9-2.3,20.8-12.8,20.8-25.3c0-14.2-11.6-25.8-25.8-25.8h-5.2c-5.9,0-10.7-4.8-10.7-10.7
		c0-5.9,4.8-10.7,10.7-10.7h7.8c4.5,0,8.1,3.6,8.1,8.1v5.2C101,268.6,104.4,271.9,108.5,271.9"/>
	<path class="fill-primary" d="M276.8,79.6c4.2,0,7.5-3.4,7.5-7.5v-5.2c0-12-9.2-21.9-20.8-23v-8.2c0-4.2-3.4-7.5-7.5-7.5
		c-4.2,0-7.5,3.4-7.5,7.5v8.6c-11.9,2.3-20.8,12.8-20.8,25.3c0,14.2,11.6,25.8,25.8,25.8h5.2c5.9,0,10.7,4.8,10.7,10.7
		s-4.8,10.7-10.7,10.7h-7.8c-4.5,0-8.1-3.6-8.1-8.1c0-4.2-3.4-7.5-7.5-7.5c-4.2,0-7.5,3.4-7.5,7.5c0,12,9.2,21.9,20.8,23v8.2
		c0,4.2,3.4,7.5,7.5,7.5c4.2,0,7.5-3.4,7.5-7.5v-8.6c11.9-2.3,20.8-12.8,20.8-25.3c0-14.2-11.6-25.8-25.8-25.8h-5.2
		c-5.9,0-10.7-4.8-10.7-10.7c0-5.9,4.8-10.7,10.7-10.7h7.8c4.5,0,8.1,3.6,8.1,8.1V72C269.3,76.2,272.7,79.6,276.8,79.6"/>
	<path class="fill-dark" d="M424.3,144.3c-21.7,0-41.6,7.9-57,21.1l-37.2-31c8.5-13.5,13.5-29.5,13.5-46.7C343.7,39.3,304.3,0,256,0
		s-87.7,39.3-87.7,87.7c0,25.4,10.8,48.2,28.1,64.3l-61.3,54.5c-13.7-8.9-30-14-47.5-14C39.3,192.4,0,231.7,0,280
		c0,48.3,39.3,87.7,87.7,87.7s87.7-39.3,87.7-87.7c0-25.4-10.8-48.2-28.1-64.3l61.3-54.5c13.7,8.9,30,14,47.5,14
		c25.8,0,49-11.2,65.1-29l35.7,29.8c-12.6,15.2-20.1,34.6-20.1,55.8c0,48.3,39.3,87.7,87.7,87.7S512,280.3,512,232
		C512,183.6,472.7,144.3,424.3,144.3 M160.3,280c0,40.1-32.6,72.6-72.6,72.6S15,320.1,15,280c0-40.1,32.6-72.6,72.6-72.6
		S160.3,240,160.3,280 M256,160.3c-40.1,0-72.6-32.6-72.6-72.6c0-40.1,32.6-72.6,72.6-72.6s72.6,32.6,72.6,72.6
		C328.6,127.7,296.1,160.3,256,160.3 M424.3,304.6c-40.1,0-72.6-32.6-72.6-72.6c0-18.9,7.3-36.1,19.1-49.1c1.2-0.4,2.3-1.2,3.2-2.2
		c0.6-0.7,1-1.4,1.3-2.2c12.9-11.9,30.2-19.1,49.1-19.1c40.1,0,72.6,32.6,72.6,72.6C497,272,464.4,304.6,424.3,304.6"/>
	<path class="fill-primary" d="M445.2,223.8c4.2,0,7.5-3.4,7.5-7.5v-5.2c0-12-9.2-21.9-20.8-23v-8.2c0-4.2-3.4-7.5-7.5-7.5s-7.5,3.4-7.5,7.5
		v8.6c-11.9,2.3-20.8,12.8-20.8,25.3c0,14.2,11.6,25.8,25.8,25.8h5.2c5.9,0,10.7,4.8,10.7,10.7s-4.8,10.7-10.7,10.7h-7.8
		c-4.5,0-8.1-3.6-8.1-8.1c0-4.2-3.4-7.5-7.5-7.5s-7.5,3.4-7.5,7.5c0,12,9.2,21.9,20.8,23v8.2c0,4.2,3.4,7.5,7.5,7.5s7.5-3.4,7.5-7.5
		v-8.6c11.9-2.3,20.8-12.8,20.8-25.3c0-14.2-11.6-25.8-25.7-25.8h-5.2c-5.9,0-10.7-4.8-10.7-10.7c0-5.9,4.8-10.7,10.7-10.7h7.8
		c4.5,0,8.1,3.6,8.1,8.1v5.2C437.7,220.5,441,223.8,445.2,223.8"/>
	<path class="fill-dark" d="M159.8,392.8H95.7c-4.1,0-7.5,3.4-7.5,7.5v96.2c0,4.2,3.4,7.5,7.5,7.5h64.1c4.2,0,7.5-3.4,7.5-7.5v-96.2
		C167.3,396.1,164,392.8,159.8,392.8 M152.3,489h-49.1v-81.2h49.1V489z"/>
	<path class="fill-dark" d="M472.4,392.8h-64.1c-4.2,0-7.5,3.4-7.5,7.5v96.2c0,4.2,3.4,7.5,7.5,7.5h64.1c4.2,0,7.5-3.4,7.5-7.5v-96.2
		C479.9,396.1,476.6,392.8,472.4,392.8 M464.9,489h-49.1v-81.2h49.1V489z"/>
	<path class="fill-dark" d="M264,424.3c4.2,0,7.5-3.4,7.5-7.5V304.1c0-4.2-3.4-7.5-7.5-7.5h-64.1c-4.2,0-7.5,3.4-7.5,7.5v192.4
		c0,4.2,3.4,7.5,7.5,7.5H264c4.2,0,7.5-3.4,7.5-7.5v-44.6c0-4.2-3.4-7.5-7.5-7.5c-4.1,0-7.5,3.4-7.5,7.5V489h-49.1V311.6h49.1v105.2
		C256.5,421,259.9,424.3,264,424.3"/>
	<path class="fill-dark" d="M368.2,344.7h-64.1c-4.2,0-7.5,3.4-7.5,7.5v144.3c0,4.2,3.4,7.5,7.5,7.5h64.1c4.2,0,7.5-3.4,7.5-7.5V352.2
		C375.7,348,372.4,344.7,368.2,344.7 M360.7,489h-49.1V359.7h49.1V489z"/>
</g>
</svg>
