<?xml version="1.0" encoding="utf-8"?>
<!-- Generator: Adobe Illustrator 19.0.0, SVG Export Plug-In . SVG Version: 6.00 Build 0)  -->
<svg version="1.1" id="Layer_1" xmlns="http://www.w3.org/2000/svg" xmlns:xlink="http://www.w3.org/1999/xlink" x="0px" y="0px"
	 viewBox="-49 141 512 512" width="50" height="50" style="enable-background:new -49 141 512 512;" xml:space="preserve">
<!-- <style type="text/css">
	.st0{fill:#138267;}
</style> -->
<g>
	<g>
		<g>
			<path d="M373.5,398.2h-14.3c-4.2,0-7.9,3-8.7,7.2c-1.5,8.1-3.7,16.2-6.4,24c-1.6,4.6,0.8,9.6,5.4,11.2s9.6-0.8,11.2-5.4
				c2.2-6.3,4.1-12.8,5.6-19.4h7.2c23.4,0,42.4-19,42.4-42.4s-19-42.4-42.4-42.4h-7.2c-4.7-20.2-12.6-39.4-23.6-57l5.1-5.1
				c16.5-16.5,16.5-43.4,0-59.9s-43.4-16.5-59.9,0l-5.1,5.1c-17.6-11-36.8-19-57-23.6v-7.2c0-23.4-19-42.4-42.4-42.4
				s-42.4,19-42.4,42.4v7.2c-20.2,4.7-39.4,12.6-57,23.6l-5.1-5.1c-16.5-16.5-43.4-16.5-59.9,0c-8,8-12.4,18.6-12.4,30
				c0,11.3,4.4,22,12.4,30l5.1,5.1c-11,17.6-19,36.8-23.6,57h-7.2c-23.3,0-42.3,19-42.3,42.4s19,42.4,42.4,42.4h7.2
				c4.7,20.2,12.6,39.4,23.6,57l-5.1,5.1c-8,8-12.4,18.6-12.4,30c0,11.3,4.4,22,12.4,30c16.5,16.5,43.4,16.5,59.9,0l5.1-5.1
				c17.6,11,36.8,19,57,23.6v7.2c0,23.4,19,42.4,42.4,42.4s42.4-19,42.4-42.4v-7.2c6.6-1.5,13-3.4,19.4-5.6c4.6-1.6,7-6.6,5.4-11.2
				c-1.6-4.6-6.6-7-11.2-5.4c-7.8,2.7-15.9,4.9-24.1,6.4c-4.2,0.8-7.2,4.4-7.2,8.7v14.3c0,13.6-11.1,24.7-24.7,24.7
				c-13.6,0-24.7-11.1-24.7-24.7v-14.3c0-4.2-3-7.9-7.2-8.7c-22.9-4.3-44.4-13.2-63.7-26.4c-3.5-2.4-8.2-1.9-11.2,1.1l-10.1,10.1
				c-9.6,9.6-25.3,9.6-35,0c-4.7-4.7-7.2-10.9-7.2-17.5c0-6.6,2.6-12.8,7.2-17.5l10.1-10.1c3-3,3.4-7.7,1.1-11.2
				c-13.2-19.3-22-40.8-26.4-63.7c-0.8-4.2-4.4-7.2-8.7-7.2H-6.6c-13.6,0-24.7-11.1-24.7-24.7c0-13.6,11.1-24.7,24.7-24.7H7.7
				c4.2,0,7.9-3,8.7-7.2c4.4-22.9,13.2-44.4,26.4-63.7c2.4-3.5,1.9-8.2-1.1-11.2l-10.1-10.1c-4.7-4.7-7.2-10.9-7.2-17.5
				c0-6.6,2.6-12.8,7.2-17.5c9.6-9.6,25.3-9.6,35,0l10.1,10.1c3,3,7.7,3.4,11.2,1.1c19.3-13.2,40.8-22,63.7-26.4
				c4.2-0.8,7.2-4.4,7.2-8.7v-14.4c0-13.6,11.1-24.7,24.7-24.7c13.6,0,24.7,11.1,24.7,24.7v14.3c0,4.2,3,7.9,7.2,8.7
				c22.9,4.3,44.4,13.2,63.7,26.4c3.5,2.4,8.2,1.9,11.2-1.1l10.1-10.1c9.6-9.6,25.3-9.6,35,0c9.6,9.6,9.6,25.3,0,35l-10.1,10.1
				c-3,3-3.4,7.7-1.1,11.2c13.2,19.3,22,40.8,26.4,63.7c0.8,4.2,4.4,7.2,8.7,7.2h14.3c13.6,0,24.7,11.1,24.7,24.7
				C398.3,387.1,387.2,398.2,373.5,398.2z"/>
			<path class="fill-primary" d="M351.9,462.6L351.9,462.6c-6.1-6.1-14.3-9.5-22.9-9.5c-5.6,0-11,1.4-15.8,4.1L297,441
				c30.4-50.8,23.7-117.8-20.1-161.5c-51.6-51.6-135.6-51.6-187.3,0c-25,25-38.8,58.3-38.8,93.6s13.8,68.6,38.8,93.6
				s58.3,38.8,93.6,38.8c24.3,0,47.6-6.5,67.9-18.7l16.1,16.1c-2.7,4.8-4.1,10.2-4.1,15.8c0,8.6,3.4,16.8,9.5,22.9l101.6,101.9
				c6.3,6.3,14.6,9.5,22.9,9.5s16.6-3.2,22.9-9.5l33.3-33.3c12.6-12.6,12.6-33.2,0-45.8L351.9,462.6z M248.1,467.9
				c-0.3,0.2-0.7,0.4-1,0.7c-18.7,12.5-40.7,19.3-63.7,19.3c-30.7,0-59.5-11.9-81.1-33.6c-21.7-21.7-33.6-50.5-33.6-81.1
				s11.9-59.5,33.6-81.1c22.4-22.4,51.8-33.6,81.1-33.6c29.4,0,58.8,11.2,81.1,33.6c39.4,39.4,44.1,100.7,14,145.3
				c0,0.1-0.1,0.1-0.1,0.2c-4,5.9-8.7,11.6-13.9,16.8C259.4,459.3,253.9,463.9,248.1,467.9z M266,476.6c3.8-3.1,7.5-6.3,11-9.8
				s6.8-7.2,9.8-11l13.1,13.1l-20.8,20.8L266,476.6z M441,597.7L407.7,631c-5.7,5.7-15.1,5.7-20.8,0L285.3,529.1
				c-2.8-2.8-4.3-6.5-4.3-10.4s1.5-7.6,4.3-10.4l33.3-33.3c2.8-2.8,6.5-4.3,10.4-4.3s7.6,1.5,10.4,4.3L441,576.9
				C446.8,582.7,446.8,592,441,597.7z"/>
		</g>
	</g>
</g>
</svg>
