<?xml version="1.0" encoding="utf-8"?>
<!-- Generator: Adobe Illustrator 23.0.0, SVG Export Plug-In . SVG Version: 6.00 Build 0)  -->
<svg version="1.1" id="Capa_1" xmlns="http://www.w3.org/2000/svg" xmlns:xlink="http://www.w3.org/1999/xlink" x="0px" y="0px"
	 viewBox="0 0 382.7 382.7" height="65" width="65" style="enable-background:new 0 0 382.7 382.7;" xml:space="preserve">
<g>
	<g>
		<path class="fill-primary" d="M0,172.9c0,2,0.8,4,2.3,5.4c1.4,1.4,3.4,2.3,5.4,2.3c2,0,4-0.8,5.4-2.3c1.4-1.4,2.3-3.4,2.3-5.4
			c0-2-0.8-4-2.3-5.4s-3.4-2.3-5.4-2.3s-4,0.8-5.4,2.3C0.8,168.9,0,170.9,0,172.9z"/>
	</g>
	<g>
		<path class="fill-primary" d="M83.1,172.9c0,2,0.8,4,2.3,5.4c1.4,1.4,3.4,2.3,5.4,2.3c2,0,4-0.8,5.4-2.3c1.4-1.4,2.3-3.4,2.3-5.4
			c0-2-0.8-4-2.3-5.4c-1.4-1.4-3.4-2.3-5.4-2.3c-2,0-4,0.8-5.4,2.3C84,168.9,83.1,170.9,83.1,172.9z"/>
	</g>
	<g>
		<path class="fill-primary" d="M167.6,172.9c0,2,0.8,4,2.3,5.4c1.4,1.4,3.4,2.3,5.4,2.3c2,0,4-0.8,5.4-2.3c1.4-1.4,2.3-3.4,2.3-5.4
			c0-2-0.8-4-2.3-5.4c-1.4-1.4-3.4-2.3-5.4-2.3s-4,0.8-5.4,2.3C168.4,168.9,167.6,170.9,167.6,172.9z"/>
	</g>
	<g>
		<path class="fill-primary" d="M0,90.9c0,2,0.8,4,2.3,5.4c1.4,1.4,3.4,2.3,5.4,2.3c2,0,4-0.8,5.4-2.3c1.4-1.4,2.3-3.4,2.3-5.4
			c0-2-0.8-4-2.3-5.4s-3.4-2.3-5.4-2.3s-4,0.8-5.4,2.3C0.8,86.9,0,88.9,0,90.9z"/>
	</g>
	<g>
		<path class="fill-primary" d="M83.1,90.9c0,2,0.8,4,2.3,5.4c1.4,1.4,3.4,2.3,5.4,2.3c2,0,4-0.8,5.4-2.3c1.4-1.4,2.3-3.4,2.3-5.4
			c0-2-0.8-4-2.3-5.4c-1.4-1.4-3.4-2.3-5.4-2.3c-2,0-4,0.8-5.4,2.3C84,86.9,83.1,88.9,83.1,90.9z"/>
	</g>
	<g>
		<path class="fill-primary" d="M167.6,90.9c0,2,0.8,4,2.3,5.4c1.4,1.4,3.4,2.3,5.4,2.3c2,0,4-0.8,5.4-2.3c1.4-1.4,2.3-3.4,2.3-5.4
			c0-2-0.8-4-2.3-5.4c-1.4-1.4-3.4-2.3-5.4-2.3s-4,0.8-5.4,2.3C168.4,86.9,167.6,88.9,167.6,90.9z"/>
	</g>
	<g>
		<path class="fill-primary" d="M0,7.9c0,2,0.8,4,2.3,5.4c1.4,1.4,3.4,2.3,5.4,2.3c2,0,4-0.8,5.4-2.3c1.4-1.4,2.3-3.4,2.3-5.4
			c0-2-0.8-4-2.3-5.4S9.7,0.2,7.7,0.2S3.7,1,2.3,2.5C0.8,3.9,0,5.9,0,7.9z"/>
	</g>
	<g>
		<path class="fill-primary" d="M83.1,7.9c0,2,0.8,4,2.3,5.4c1.4,1.4,3.4,2.3,5.4,2.3c2,0,4-0.8,5.4-2.3c1.4-1.4,2.3-3.4,2.3-5.4
			c0-2-0.8-4-2.3-5.4c-1.4-1.4-3.4-2.3-5.4-2.3c-2,0-4,0.8-5.4,2.3C84,3.9,83.1,5.9,83.1,7.9z"/>
	</g>
	<g>
		<path class="fill-primary" d="M167.6,7.9c0,2,0.8,4,2.3,5.4c1.4,1.4,3.4,2.3,5.4,2.3c2,0,4-0.8,5.4-2.3c1.4-1.4,2.3-3.4,2.3-5.4
			c0-2-0.8-4-2.3-5.4c-1.4-1.4-3.4-2.3-5.4-2.3s-4,0.8-5.4,2.3C168.4,3.9,167.6,5.9,167.6,7.9z"/>
	</g>
</g>
<g>
	<g>
		<g>
			<path d="M190.6,75.5c-42.1,0-68.3,21.6-68.3,56.5c0,4,3.2,7.2,7.2,7.2h122.2c4,0,7.2-3.2,7.2-7.2
				C258.8,97.1,232.7,75.5,190.6,75.5z M137.1,124.8c4.7-32.3,41.6-34.9,53.4-34.9c11.8,0,48.7,2.7,53.4,34.9H137.1z"/>
		</g>
	</g>
	<g>
		<g>
			<path d="M190.6,0c-18.9,0-34.1,15.3-34.1,34.1c0,18.8,15.3,34.1,34.1,34.1c18.9,0,34.1-15.3,34.1-34.1S209.4,0,190.6,0z
				 M190.6,53.9c-10.9,0-19.8-8.9-19.8-19.8s8.9-19.8,19.8-19.8s19.8,8.9,19.8,19.8S201.5,53.9,190.6,53.9z"/>
		</g>
	</g>
	<g>
		<g>
			<path d="M68.4,319c-42.1,0-68.3,21.6-68.3,56.5c0,4,3.2,7.2,7.2,7.2h122.2c4,0,7.2-3.2,7.2-7.2C136.6,340.6,110.5,319,68.4,319z
				 M15,368.3c4.7-32.3,41.5-34.9,53.4-34.9s48.7,2.7,53.4,34.9H15z"/>
		</g>
	</g>
	<g>
		<g>
			<path d="M68.4,243.5c-18.9,0-34.1,15.3-34.1,34.1c0,18.8,15.3,34.1,34.1,34.1c18.9,0,34.1-15.3,34.1-34.1
				C102.5,258.8,87.2,243.5,68.4,243.5z M68.4,297.4c-10.9,0-19.8-8.9-19.8-19.8s8.9-19.8,19.8-19.8s19.8,8.9,19.8,19.8
				S79.3,297.4,68.4,297.4z"/>
		</g>
	</g>
	<g>
		<g>
			<path d="M312.8,319c-42.1,0-68.3,21.6-68.3,56.5c0,4,3.2,7.2,7.2,7.2h122.2c4,0,7.2-3.2,7.2-7.2C381,340.6,354.9,319,312.8,319z
				 M259.3,368.3c4.7-32.3,41.5-34.9,53.4-34.9s48.7,2.7,53.4,34.9H259.3z"/>
		</g>
	</g>
	<g>
		<g>
			<path d="M312.8,243.5c-18.9,0-34.1,15.3-34.1,34.1c0,18.8,15.3,34.1,34.1,34.1c18.9,0,34.1-15.3,34.1-34.1
				C346.9,258.8,331.6,243.5,312.8,243.5z M312.8,297.4c-10.9,0-19.8-8.9-19.8-19.8s8.9-19.8,19.8-19.8s19.8,8.9,19.8,19.8
				S323.7,297.4,312.8,297.4z"/>
		</g>
	</g>
	<g>
		<g>
			<path class="fill-primary" d="M227.7,244.5l-30-30.1V172c0-4-3.2-7.2-7.2-7.2c-4,0-7.2,3.2-7.2,7.2v42.4l-30,30c-2.8,2.8-2.9,7.4-0.1,10.2
				s7.4,2.9,10.2,0.1l27-27.1l27,27.1c3,2.6,7.6,2.2,10.1-0.8C230,251.2,230,247.2,227.7,244.5z"/>
		</g>
	</g>
</g>
</svg>
