<?xml version="1.0" encoding="utf-8"?>
<!-- Generator: Adobe Illustrator 19.0.0, SVG Export Plug-In . SVG Version: 6.00 Build 0)  -->
<svg version="1.1" id="Capa_1" xmlns="http://www.w3.org/2000/svg" xmlns:xlink="http://www.w3.org/1999/xlink" x="0px" y="0px"
	 viewBox="-65 157 480 480" width="50" height="50" style="enable-background:new -65 157 480 480;" xml:space="preserve">
<!-- <style type="text/css">
	.fill-primary{fill:#138267;}
</style> -->
<g>
	<g>
		<g>
			<path class="fill-primary" d="M407,589h-24V437c0-4.4-3.6-8-8-8c-2.6,0-5,1.3-6.5,3.4l-112,160c-2.5,3.6-1.6,8.6,2,11.1
				c1.3,0.9,2.9,1.4,4.6,1.4h104v24c0,4.4,3.6,8,8,8s8-3.6,8-8v-24h24c4.4,0,8-3.6,8-8C415.1,592.5,411.4,589,407,589z M367,589
				h-88.6L367,462.4V589z"/>
			<path class="fill-primary" d="M263,621h-94.7l88.1-103.7c0.2-0.2,0.4-0.5,0.6-0.7c16.6-24.5,11-57.7-12.6-75.6
				c-28.7-20.6-68.7-14.1-89.3,14.6c-7.8,10.9-12,23.9-12,37.4c0,4.4,3.6,8,8,8s8-3.6,8-8c0-26.5,21.5-48,48-48c10,0,19.8,3.2,28,9
				c16.5,12.7,20.4,36,8.8,53.3L145,623.8c-2.9,3.4-2.4,8.4,0.9,11.3c1.4,1.2,3.3,1.9,5.2,1.9h112c4.4,0,8-3.6,8-8
				S267.4,621,263,621z"/>
			<path d="M151.2,581.2c0.2-4.4-3.3-8.1-7.7-8.3l0,0C39.1,569-44.7,485.4-48.7,381H-17c4.4,0,8-3.6,8-8s-3.6-8-8-8h-31.7
				c4-104.2,87.5-187.7,191.7-191.7V197c0,4.4,3.6,8,8,8s8-3.6,8-8v-23.7c102.8,4,185.7,85.3,191.6,188l-31.2-31.2
				c-3.2-3.1-8.2-3-11.3,0.2c-3,3.1-3,8,0,11.1l44.7,44.7c0.8,1,1.9,1.8,3.2,2.3c0.3,0.1,0.6,0.2,1,0.2c0.5,0.2,1.1,0.3,1.7,0.4
				c0.1,0,0.2,0,0.2,0h0.2c0.6,0,1.2-0.2,1.8-0.4c0.3,0,0.7-0.1,1-0.2c1.1-0.4,2.1-1,2.9-1.8l45.3-45.2c3.1-3.2,3-8.2-0.2-11.3
				c-3.1-3-8-3-11.1,0l-32,32c-5.9-114.7-100.4-204.8-215.2-205c-0.2,0-0.4-0.1-0.6-0.1s-0.4,0.1-0.6,0.1
				C31.6,157.3-64.7,253.6-64.9,372.4c0,0.2-0.1,0.4-0.1,0.6s0.1,0.4,0.1,0.6c0.2,115.9,91.9,211,207.8,215.3h0.3
				C147.5,588.8,151,585.4,151.2,581.2z"/>
			<path d="M258.5,265.5c-3.1-3.1-8.2-3.1-11.3,0l-86,86c-6.5-2.9-13.9-2.9-20.4,0l-40.7-40.7c-3.2-3.1-8.2-3-11.3,0.2
				c-3,3.1-3,8,0,11.1l40.6,40.6c-5.7,11.9-0.6,26.2,11.3,31.9c9.2,4.4,20.1,2.5,27.3-4.7c7.2-7.2,9.1-18.1,4.6-27.3l85.9-85.9
				C261.6,273.7,261.6,268.6,258.5,265.5z M156.7,378.7L156.7,378.7c-3.2,3-8.1,3-11.3,0c-3.1-3.1-3.1-8.2,0-11.3s8.2-3.1,11.3,0
				S159.8,375.5,156.7,378.7z"/>
		</g>
	</g>
</g>
</svg>
