<?xml version="1.0" encoding="utf-8"?>
<!-- Generator: Adobe Illustrator 19.0.0, SVG Export Plug-In . SVG Version: 6.00 Build 0)  -->
<svg version="1.1" id="Layer_1" xmlns="http://www.w3.org/2000/svg" xmlns:xlink="http://www.w3.org/1999/xlink" x="0px" y="0px"
	 viewBox="0 0 482 481.8" width="50" height="50" style="enable-background:new 0 0 482 481.8;" xml:space="preserve">
<!-- <style type="text/css">
	.st0{clip-path:url(#SVGID_2_);}
	.st1{clip-path:url(#SVGID_2_);fill:#138267;}
</style> -->
<g>
	<defs>
		<rect id="SVGID_1_" width="482" height="481.8"/>
	</defs>
	<clipPath id="SVGID_2_">
		<use xlink:href="#SVGID_1_"  style="overflow:visible;"/>
	</clipPath>
	<path class="fill-primary" d="M472.6,247.4c-6-6-14.1-9.4-22.6-9.4c-8.5,0-16.6,3.4-22.6,9.4L333.7,341l-0.2,0.2c4.7-9.9,4-21.5-1.8-30.8
		c-5.8-9.3-16-14.9-27-14.9H137c-2.1,0-4.1,0.8-5.6,2.3l-27.7,27.7l-19.6-34c-2.2-3.8-7.1-5.1-10.9-2.9L4,328.6
		c-3.8,2.2-5.1,7.1-2.9,10.9l79.9,138.3c2.2,3.8,7.1,5.1,10.9,2.9l69.2-39.9c3.8-2.2,5.1-7.1,2.9-10.9l-13-22.6h190.5
		c10.6,0,20.7-4.2,28.2-11.7l102.9-103c6-6,9.4-14.1,9.4-22.6C482,261.5,478.6,253.4,472.6,247.4L472.6,247.4z M90.8,462.9
		L18.9,338.4l55.3-31.9l71.9,124.5L90.8,462.9z M461.3,281.3l-102.9,103c-4.5,4.5-10.6,7-16.9,7H141.6l-3.3-5.7L112,339.8l28.4-28.4
		h164.4c8.8,0,16,7.2,16,16c0,8.8-7.2,16-16,16h-87.8v16h111.2c6.4,0,12.5-2.5,17-7.1l93.7-93.6c6.3-6.1,16.3-6.1,22.6,0
		c3,3,4.8,7,4.8,11.3C466,274.3,464.3,278.3,461.3,281.3L461.3,281.3z"/>
	<path class="fill-dark" d="M161,271.5h175.7c4.4,0,8-3.6,8-8V8c0-4.4-3.6-8-8-8H161c-22,0-39.9,17.9-39.9,39.9v191.7
		c0,10.6,4.2,20.8,11.7,28.2C140.2,267.3,150.4,271.5,161,271.5 M161,255.5c-13.2,0-24-10.7-24-24c0-13.2,10.7-24,24-24h167.7v16
		H161v16h167.7v16H161z M328.7,191.7H169V16h159.7V191.7z M137,39.9c0-10.1,6.4-19.1,16-22.5v175c-0.6,0.1-1.1,0.4-1.6,0.5
		c-1.6,0.4-3.2,0.9-4.8,1.5c-0.8,0.3-1.5,0.6-2.3,1c-1.5,0.7-2.9,1.5-4.2,2.3c-0.7,0.4-1.4,0.8-2,1.3c-0.3,0.2-0.7,0.4-1,0.6V39.9z"
		/>
	<path class="fill-dark" d="M200.9,111.8h95.8c4.4,0,8-3.6,8-8V55.9c0-4.4-3.6-8-8-8h-95.8c-4.4,0-8,3.6-8,8v47.9
		C192.9,108.2,196.5,111.8,200.9,111.8 M208.9,63.9h79.9v31.9h-79.9V63.9z"/>
</g>
</svg>
