<?xml version="1.0" encoding="utf-8"?>
<!-- Generator: Adobe Illustrator 19.0.0, SVG Export Plug-In . SVG Version: 6.00 Build 0)  -->
<svg version="1.1" xmlns="http://www.w3.org/2000/svg" xmlns:xlink="http://www.w3.org/1999/xlink" x="0px" y="0px" width="auto" height="500"
	 viewBox="0 0 453.5 452.2" style="enable-background:new 0 0 453.5 452.2;" xml:space="preserve">
<style type="text/css">
	.st1{fill:#FFBDA1;}
	.st2{fill:#CE7152;}
	.st3{fill:#524F63;}
	.st4{fill:#E0E4ED;}
	.st5{fill:#91616A;}
	.st6{fill:#4A4549;}
	.st7{fill:#FFBB22;}
	.st8{fill:#DD851B;}
	<!-- .st0{fill:#F5F5F5;} -->
	<!-- .st1{fill:#E0E0E0;}
	.st2{fill:#37474F;}
	.st3{fill:none;stroke:#37474F;stroke-width:6;stroke-miterlimit:10;}
	.st4{fill:#455A64;}
	.st5{fill:#27DEBF;}
	.st6{opacity:0.1;}
	.st7{opacity:0.15;}
	.st8{fill:#263238;}
	.st9{opacity:0.4;fill:#FFFFFF;}
	.st10{fill:#FFA8A7;}
	.st11{fill:#F28F8F;}
	.st12{opacity:5.000000e-002;}
	.st13{opacity:0.2;}
	.st14{fill:#EBEBEB;}
	.st15{fill:#FAFAFA;}
	.st16{fill:#E6E6E6;} -->
</style>
<g id="Floor">
	<path id="Floor_7_" class="fill-white" d="M68.8,415c87.3,46,228.7,46,316,0c87.3-46,87.3-120.6,0-166.6s-228.7-46-316,0
		C-18.5,294.4-18.5,369,68.8,415z"/>
	<path id="Floor_7_" class="fill-dark" opacity="0.03" d="M68.8,415c87.3,46,228.7,46,316,0c87.3-46,87.3-120.6,0-166.6s-228.7-46-316,0  C-18.5,294.4-18.5,369,68.8,415z"></path>
</g>
<g id="Shadow">
	<polygon class="fill-white" points="143.3,335.2 145.9,332.1 66.5,286.2 61.1,289.3 89.3,305.6 62.3,321.2 33.8,304.8 28.5,307.9
		109.7,354.8 110.6,353.8 111,354.1 142.1,336.1 142.4,336.2 142.8,335.7 143.5,335.3 	"/>
	<polygon class="fill-dark" opacity="0.09" points="143.3,335.2 145.9,332.1 66.5,286.2 61.1,289.3 89.3,305.6 62.3,321.2 33.8,304.8 28.5,307.9
		109.7,354.8 110.6,353.8 111,354.1 142.1,336.1 142.4,336.2 142.8,335.7 143.5,335.3 	"/>
	<path id="Shadow_8_" class="fill-white" d="M368.4,374.7c-17.3,8.2-45.3,8.2-62.5,0c-17.3-8.2-17.3-21.6,0-29.8c17.3-8.2,45.3-8.2,62.5,0
		C385.7,353.2,385.7,366.5,368.4,374.7z"/>
	<path id="Shadow_8_" class="fill-dark" opacity="0.14" d="M368.4,374.7c-17.3,8.2-45.3,8.2-62.5,0c-17.3-8.2-17.3-21.6,0-29.8c17.3-8.2,45.3-8.2,62.5,0
		C385.7,353.2,385.7,366.5,368.4,374.7z"/>
	<path id="Shadow_7_" class="fill-white" d="M234.9,418.2c-17.3,8.2-45.3,8.2-62.5,0c-17.3-8.2-17.3-21.6,0-29.8c17.3-8.2,45.3-8.2,62.5,0
		C252.1,396.6,252.1,410,234.9,418.2z"/>
	<path id="Shadow_7_" class="fill-dark" opacity="0.14" d="M234.9,418.2c-17.3,8.2-45.3,8.2-62.5,0c-17.3-8.2-17.3-21.6,0-29.8c17.3-8.2,45.3-8.2,62.5,0
		C252.1,396.6,252.1,410,234.9,418.2z"/>
	<path id="Shadow_6_" class="fill-white" d="M372.4,386.2c8.6,5,22.5,5,31.1,0s8.6-13,0-17.9c-8.6-5-22.5-5-31.1,0S363.9,381.2,372.4,386.2
		z"/>
	<path id="Shadow_6_" class="fill-dark" opacity="0.14" d="M372.4,386.2c8.6,5,22.5,5,31.1,0s8.6-13,0-17.9c-8.6-5-22.5-5-31.1,0S363.9,381.2,372.4,386.2
		z"/>
	<path id="Shadow_5_" class="fill-white" d="M54.1,391.4c8.6,5,22.5,5,31.1,0s8.6-13,0-17.9c-8.6-5-22.5-5-31.1,0S45.5,386.5,54.1,391.4z"
		/>
	<path id="Shadow_5_" class="fill-dark" opacity="0.14" d="M54.1,391.4c8.6,5,22.5,5,31.1,0s8.6-13,0-17.9c-8.6-5-22.5-5-31.1,0S45.5,386.5,54.1,391.4z"
		/>
</g>
<g id="Ladder">
	<g id="XMLID_13_">
		<path id="XMLID_1894_" class="fill-dark" d="M110.8,167.4L66.2,288.6l0,0c-0.1,0.3-0.4,0.6-0.8,0.8c-1.1,0.6-2.9,0.6-4.1,0
			c-0.5-0.3-0.8-0.6-0.8-1c0-0.1,0-0.2,0-0.3c0-0.3,0.1-0.5,0.2-0.8l44.7-121.9c0.5-1.5,2.2-2.3,3.7-1.7
			C110.6,164.2,111.4,165.9,110.8,167.4z"/>
			<path id="XMLID_1894_" class="fill-primary" opacity="0.2" d="M110.8,167.4L66.2,288.6l0,0c-0.1,0.3-0.4,0.6-0.8,0.8c-1.1,0.6-2.9,0.6-4.1,0
			c-0.5-0.3-0.8-0.6-0.8-1c0-0.1,0-0.2,0-0.3c0-0.3,0.1-0.5,0.2-0.8l44.7-121.9c0.5-1.5,2.2-2.3,3.7-1.7
			C110.6,164.2,111.4,165.9,110.8,167.4z"/>
		<line id="XMLID_1880_" class="st3" x1="51.2" y1="250.8" x2="95.9" y2="276.6"/>
		<line id="XMLID_1881_" class="st3" x1="83.7" y1="232" x2="128.4" y2="257.8"/>
		<path id="XMLID_1887_" class="fill-dark" d="M74.4,159l23.8-13.8c2-1.1,4.1-1.3,6-0.5c1.8,0.8,3.2,2.6,3.7,4.8l39.6,185.1
			c0,0.1,0.1,0.3,0.1,0.4c0,0.1,0,0.3,0,0.4c-0.1,0.4-0.3,0.7-0.8,1c-1.1,0.6-2.9,0.6-4.1,0c-0.4-0.3-0.7-0.6-0.8-0.9
			c0-0.1,0-0.1,0-0.2l-39.5-184.6c-0.1-0.4-0.3-0.6-0.4-0.7c-0.1-0.1-0.4,0-0.8,0.2L77.3,164"/>
			<path id="XMLID_1887_" class="fill-primary" opacity="0.2" d="M74.4,159l23.8-13.8c2-1.1,4.1-1.3,6-0.5c1.8,0.8,3.2,2.6,3.7,4.8l39.6,185.1
			c0,0.1,0.1,0.3,0.1,0.4c0,0.1,0,0.3,0,0.4c-0.1,0.4-0.3,0.7-0.8,1c-1.1,0.6-2.9,0.6-4.1,0c-0.4-0.3-0.7-0.6-0.8-0.9
			c0-0.1,0-0.1,0-0.2l-39.5-184.6c-0.1-0.4-0.3-0.6-0.4-0.7c-0.1-0.1-0.4,0-0.8,0.2L77.3,164"/>
		<g id="XMLID_1962_">
			<path id="XMLID_2040_" class="fill-primary " d="M113.3,335.9l-14.5-8.4c-0.5-0.3-0.9-0.9-0.9-1.5v-0.3c0-0.6,0.4-1.2,0.9-1.5l34.8-20.1
				c0.5-0.3,1.3-0.3,1.7,0l14.5,8.4c0.5,0.3,0.9,0.9,0.9,1.5v0.3c0,0.6-0.4,1.2-0.9,1.5l-34.8,20.1
				C114.6,336.2,113.8,336.2,113.3,335.9z"/>
			<path id="XMLID_1895_" class="fill-dark" opacity="0.3" d="M98.2,324.8c-0.2,0.3-0.3,0.6-0.3,0.9v0.3c0,0.6,0.4,1.2,0.9,1.5l14.5,8.4
				c0.2,0.1,0.6,0.2,0.9,0.2v-2.1L98.2,324.8z"/>
			<path id="XMLID_1893_" class="fill-dark" opacity="0.3" d="M114.2,334.1v2.1c0.3,0,0.6-0.1,0.9-0.2l17.4-10.1l17.4-10.1c0.5-0.3,0.9-0.9,0.9-1.5V314
				c0-0.3-0.1-0.6-0.3-0.9L114.2,334.1z"/>
		</g>
		<g id="XMLID_1955_">
			<path id="XMLID_1960_" class="fill-primary " d="M107,306.5l-14.5-8.4c-0.5-0.3-0.9-0.9-0.9-1.5v-0.3c0-0.6,0.4-1.2,0.9-1.5l34.8-20.1
				c0.5-0.3,1.3-0.3,1.7,0l14.5,8.4c0.5,0.3,0.9,0.9,0.9,1.5v0.3c0,0.6-0.4,1.2-0.9,1.5l-34.8,20.1
				C108.3,306.8,107.5,306.8,107,306.5z"/>
			<path id="XMLID_1892_" class="fill-dark" opacity="0.3" d="M91.9,295.4c-0.2,0.3-0.3,0.6-0.3,0.9v0.3c0,0.6,0.4,1.2,0.9,1.5l14.5,8.4
				c0.2,0.1,0.6,0.2,0.9,0.2v-2.1L91.9,295.4z"/>
			<path id="XMLID_1890_" class="fill-dark" opacity="0.3" d="M107.9,304.6v2.1c0.3,0,0.6-0.1,0.9-0.2l17.4-10.1l17.4-10.1c0.5-0.3,0.9-0.9,0.9-1.5v-0.3
				c0-0.3-0.1-0.6-0.3-0.9L107.9,304.6z"/>
		</g>
		<g id="XMLID_1948_">
			<path id="XMLID_1954_" class="fill-primary " d="M100.7,277l-14.5-8.4c-0.5-0.3-0.9-0.9-0.9-1.5v-0.3c0-0.6,0.4-1.2,0.9-1.5l34.8-20.1
				c0.5-0.3,1.3-0.3,1.7,0l14.5,8.4c0.5,0.3,0.9,0.9,0.9,1.5v0.3c0,0.6-0.4,1.2-0.9,1.5L102.5,277C102,277.3,101.2,277.3,100.7,277z
				"/>
			<path id="XMLID_1889_" class="fill-dark" opacity="0.3" d="M85.6,266c-0.2,0.3-0.3,0.6-0.3,0.9v0.3c0,0.6,0.4,1.2,0.9,1.5l7.3,4.2l7.3,4.2
				c0.2,0.1,0.6,0.2,0.9,0.2v-2.1L85.6,266z"/>
			<path id="XMLID_1888_" class="fill-dark" opacity="0.3" d="M101.6,275.2v2.1c0.3,0,0.6-0.1,0.9-0.2l17.4-10.1l17.4-10.1c0.5-0.3,0.9-0.9,0.9-1.5v-0.3
				c0-0.3-0.1-0.6-0.3-0.9L101.6,275.2z"/>
		</g>
		<g id="XMLID_1942_">
			<path id="XMLID_1946_" class="fill-primary " d="M94.5,247.6l-14.5-8.4c-0.5-0.3-0.9-0.9-0.9-1.5v-0.3c0-0.6,0.4-1.2,0.9-1.5l34.8-20.1
				c0.5-0.3,1.3-0.3,1.7,0l14.5,8.4c0.5,0.3,0.9,0.9,0.9,1.5v0.3c0,0.6-0.4,1.2-0.9,1.5l-34.8,20.1
				C95.7,247.9,94.9,247.9,94.5,247.6z"/>
			<path id="XMLID_1885_" class="fill-dark" opacity="0.3" d="M95.3,245.8v2.1c0.3,0,0.6-0.1,0.9-0.2l17.4-10.1l17.4-10.1c0.5-0.3,0.9-0.9,0.9-1.5v-0.3
				c0-0.3-0.1-0.6-0.3-0.9L95.3,245.8z"/>
			<path id="XMLID_1886_" class="fill-dark" opacity="0.3" d="M79.3,236.5c-0.2,0.3-0.3,0.6-0.3,0.9v0.3c0,0.6,0.4,1.2,0.9,1.5l14.5,8.4
				c0.2,0.1,0.6,0.2,0.9,0.2v-2.1L79.3,236.5z"/>
		</g>
		<g id="XMLID_1667_">
			<path id="XMLID_1683_" class="fill-primary " d="M88.2,218.2L64,204.3c-0.5-0.3-0.9-0.9-0.9-1.5v-0.3c0-0.6,0.4-1.2,0.9-1.5l34.8-20.1
				c0.5-0.3,1.3-0.3,1.7,0l24.1,13.9c0.5,0.3,0.9,0.9,0.9,1.5v0.3c0,0.6-0.4,1.2-0.9,1.5l-34.8,20.1
				C89.4,218.5,88.6,218.5,88.2,218.2z"/>
			<path id="XMLID_1676_" class="fill-dark" opacity="0.3" d="M89,216.3v2.1c0.3,0,0.6-0.1,0.9-0.2l17.4-10.1l17.4-10.1c0.5-0.3,0.9-0.9,0.9-1.5v-0.3
				c0-0.3-0.1-0.6-0.3-0.9L89,216.3z"/>
			<path id="XMLID_1675_" class="fill-dark" opacity="0.3" d="M63.4,201.6c-0.2,0.3-0.3,0.6-0.3,0.9v0.3c0,0.6,0.4,1.2,0.9,1.5l24.1,13.9
				c0.2,0.1,0.6,0.2,0.9,0.2v-2.1L63.4,201.6z"/>
		</g>
		<path id="XMLID_1896_" class="fill-dark" d="M78.3,186.1L33.8,307.3l0,0l-0.1,0.3c-0.1,0.3-0.4,0.5-0.7,0.7c-1.1,0.6-2.9,0.6-4.1,0
			c-0.5-0.3-0.8-0.6-0.8-1c0-0.1,0-0.2,0-0.3c0-0.3,0.1-0.6,0.2-0.8l44.7-122c0.5-1.5,2.2-2.3,3.7-1.7
			C78.1,183,78.9,184.6,78.3,186.1z"/>
			<path id="XMLID_1896_" class="fill-primary" opacity="0.2" d="M78.3,186.1L33.8,307.3l0,0l-0.1,0.3c-0.1,0.3-0.4,0.5-0.7,0.7c-1.1,0.6-2.9,0.6-4.1,0
			c-0.5-0.3-0.8-0.6-0.8-1c0-0.1,0-0.2,0-0.3c0-0.3,0.1-0.6,0.2-0.8l44.7-122c0.5-1.5,2.2-2.3,3.7-1.7
			C78.1,183,78.9,184.6,78.3,186.1z"/>
		<path id="XMLID_1891_" class="fill-dark" d="M77.3,164c-1.3,0.8-2.2,2.8-1.9,4.3L115,353.4c0,0.2,0.1,0.3,0.1,0.5c0,0.1,0,0.2,0,0.3
			c-0.1,0.4-0.3,0.7-0.8,1c-1.1,0.7-2.9,0.7-4.1,0c-0.4-0.2-0.7-0.5-0.8-0.8c0,0,0,0,0,0l0-0.2L69.8,169.5C69,165.6,71,161,74.4,159
			"/>
			<path id="XMLID_1891_" class="fill-primary" opacity="0.2" d="M77.3,164c-1.3,0.8-2.2,2.8-1.9,4.3L115,353.4c0,0.2,0.1,0.3,0.1,0.5c0,0.1,0,0.2,0,0.3
			c-0.1,0.4-0.3,0.7-0.8,1c-1.1,0.7-2.9,0.7-4.1,0c-0.4-0.2-0.7-0.5-0.8-0.8c0,0,0,0,0,0l0-0.2L69.8,169.5C69,165.6,71,161,74.4,159
			"/>
	</g>
</g>
<g id="Paint_Pot">
	<g id="Paint_Pot_2_">
		<path id="XMLID_205_" class="fill-dark" d="M88.4,350.9l-36.7-0.5l-0.3,30l0,0c0,2.7,1.7,5.4,5.3,7.6c7.1,4.2,18.7,4.3,26,0.3
			c3.6-2,5.5-4.8,5.5-7.5L88.4,350.9z"/>
			<path id="XMLID_205_" class="fill-primary" opacity="0.2" d="M88.4,350.9l-36.7-0.5l-0.3,30l0,0c0,2.7,1.7,5.4,5.3,7.6c7.1,4.2,18.7,4.3,26,0.3
			c3.6-2,5.5-4.8,5.5-7.5L88.4,350.9z"/>
		<path id="XMLID_204_" class="fill-dark" d="M57.1,343c-7.2,4.1-7.3,10.8-0.2,15c7.1,4.2,18.7,4.3,26,0.3c7.2-4.1,7.3-10.8,0.2-15
			C75.9,339.1,64.3,339,57.1,343z"/>
			<path id="XMLID_204_" class="fill-primary" opacity="0.2" d="M57.1,343c-7.2,4.1-7.3,10.8-0.2,15c7.1,4.2,18.7,4.3,26,0.3c7.2-4.1,7.3-10.8,0.2-15
			C75.9,339.1,64.3,339,57.1,343z"/>
		<path id="XMLID_203_" class="fill-dark" d="M86.8,350.8c0,0.5-0.1,1-0.3,1.4c-0.6,1.7-2.1,3.3-4.4,4.6c-3.3,1.8-7.6,2.8-12.2,2.8
			c-4.6-0.1-8.9-1.1-12.1-3c-2.3-1.3-3.7-3-4.3-4.6c-0.2-0.5-0.3-1-0.3-1.5c0-2.2,1.7-4.4,4.7-6.1c3.2-1.8,7.6-2.8,12.2-2.8
			c4.6,0,8.9,1.1,12.2,3C85.2,346.4,86.8,348.6,86.8,350.8z"/>
		<path id="XMLID_202_" class="fill-primary " d="M86.5,352.3c-0.6,1.7-2.1,3.3-4.4,4.6c-3.3,1.8-7.6,2.8-12.2,2.8c-4.6-0.1-8.9-1.1-12.1-3
			c-2.3-1.3-3.7-3-4.3-4.6c0.6-1.7,2.1-3.3,4.4-4.6c3.2-1.8,7.6-2.8,12.2-2.8c4.6,0.1,8.9,1.1,12.2,3C84.5,349,86,350.6,86.5,352.3z
			"/>
		<path id="XMLID_201_" class="fill-dark" d="M77.8,362.2c0.8-0.5,1.4-0.1,1.4,0.9s-0.7,2-1.5,2.5s-1.4,0.1-1.4-0.9
			C76.4,363.7,77,362.6,77.8,362.2z"/>
		<g id="XMLID_198_">
			<path id="XMLID_200_" class="st4" d="M51.6,355.7c-2,4-6,13.4-0.8,17.3c0.2,0.2,0.4,0.3,0.6,0.4l0,1.9c-0.5-0.3-1.1-0.7-1.6-1.1
				c-7.8-5.8,1-20.6,1.4-21.2c0.1-0.2,0.3-0.3,0.4-0.3L51.6,355.7z"/>
			<path id="XMLID_199_" class="st4" d="M78.5,364.2c-0.2,0.5-5.9,11.3-15.2,13.5c-1.1,0.3-2.1,0.4-3.2,0.4c-2.9,0-5.8-0.9-8.7-2.7
				l0-1.9c3.9,2.7,7.7,3.6,11.5,2.7c8.6-2,14.1-12.6,14.2-12.7c0.2-0.4,0.7-0.5,1.1-0.3C78.6,363.3,78.7,363.8,78.5,364.2z"/>
		</g>
	</g>
</g>
<g id="Gear">
	<g id="XMLID_2229_">
		<g id="XMLID_1692_">
			<path id="XMLID_1719_" class="fill-primary " d="M154.7,258.9l-3.8-2.2c-1.2-0.7-2.2-2.4-2.2-3.8l0-173.2c0-1.4,1-3.1,2.2-3.8L276.5,3.5
				c1.2-0.7,3.1-0.7,4.3,0l3.8,2.2c1.2,0.7,2.2,2.4,2.2,3.7l0,173.2c0,1.4-1,3.1-2.2,3.8L159,258.9
				C157.8,259.6,155.9,259.6,154.7,258.9z"/>
			<path id="XMLID_1818_" class="fill-white" opacity="0.4" d="M286.8,9c-0.1-1.1-1.1-1.5-2.1-0.9L159,80.7c-0.6,0.3-1.1,0.9-1.5,1.6l-8.1-4.7
				c0.4-0.7,0.9-1.3,1.5-1.6L276.5,3.5c1.2-0.7,3.1-0.7,4.3,0l3.8,2.2C285.8,6.3,286.7,7.7,286.8,9z"/>
			<path id="XMLID_1820_" class="fill-dark" d="M158.5,259.2c-1.2,0.5-2.8,0.4-3.8-0.2l-3.8-2.2c-1.2-0.7-2.2-2.4-2.2-3.8V79.8
				c0-0.7,0.3-1.4,0.6-2.1l8.1,4.7c-0.4,0.7-0.6,1.4-0.6,2.1v173.2C156.9,258.9,157.6,259.4,158.5,259.2z"/>
			<path id="XMLID_1820_" class="fill-primary" opacity="0.8" d="M158.5,259.2c-1.2,0.5-2.8,0.4-3.8-0.2l-3.8-2.2c-1.2-0.7-2.2-2.4-2.2-3.8V79.8     c0-0.7,0.3-1.4,0.6-2.1l8.1,4.7c-0.4,0.7-0.6,1.4-0.6,2.1v173.2C156.9,258.9,157.6,259.4,158.5,259.2z" style="
    /* opacity: 0.02; */
"></path>
		</g>
		<g id="XMLID_1693_">
			<path id="XMLID_1902_" class="fill-dark" d="M296.7,145.4L296.7,145.4c-0.3-0.2-0.7-0.1-1,0.1l-5.1,3.3c-0.7,0.5-1.6,0.2-2-0.5
				c-0.3-0.4-0.6-0.8-1-1.2c-0.6-0.6-0.9-1.6-0.6-2.4l8-5.1l-6-3.5l0,0c-0.1-0.1-0.2-0.1-0.4-0.2l-3.8-0.9c-0.8-0.2-1.8,0.3-2.2,1
				L279,143c-0.4,0.7-1.4,1.4-2.2,1.6c-0.1,0-0.1,0-0.2,0.1c0.2-0.6,0.3-1.6,0.3-1.6l-6-3.5l0,0c-0.3-0.2-0.7-0.2-1.1,0.2l-5.7,4.5
				c-0.7,0.5-1.1,1.6-1.1,2.4l0.3,5.4c0.1,0.8-0.4,2-0.9,2.6c-0.9,1.1-1.8,2.3-2.7,3.5c-0.5,0.7-1.5,1.2-2.3,1.2l-3.7-0.2
				c-0.8,0-1.8,0.5-2.1,1.3l-3.5,7.7c-0.3,0.7,0,1.5,0.6,1.9l0,0l4.1,2.3c0.1,0.3,0.2,0.7,0.1,1.1c-0.3,1.2-0.5,2.5-0.6,3.7
				c-0.1,0.8-0.6,1.9-1.2,2.5l-5.1,4.7c-0.6,0.6-1,1.7-0.8,2.5l1,5.5c0.1,0.4,0.2,0.6,0.5,0.7l0,0l6,3.5l0.1-6.9
				c0.7-0.5,1.6-0.2,2,0.5c0.3,0.4,0.6,0.8,1,1.2c0.6,0.6,0.9,1.6,0.6,2.4l-2.6,7c-0.2,0.6,0,1.2,0.5,1.5l0,0l6,3.5l1.6-4.5l2.3-5.8
				c0.4-0.7,1.4-1.4,2.2-1.6c0.8-0.2,1.6-0.5,2.3-0.8c0.8-0.3,1.6,0,1.8,0.8l1.3,4.3c0.1,0.3,0.3,0.5,0.5,0.7l0,0l6,3.5l-1.1-6.7
				l1.9-1.5c0.7-0.5,1.1-1.6,1.1-2.4l-0.3-5.4c-0.1-0.8,0.4-2,0.9-2.6c0.9-1.1,2.4-1.7,3.2-2.9c0.5-0.7,1-1.8,1.8-1.8l3.7,0.2
				c0.8,0,1.8-0.5,2.1-1.3l3.5-7.7c0.3-0.8,0-1.6-0.8-2l-3-1.3c-0.8-0.3-1.2-1.2-1-2c0.3-1.2,0.5-2.5,0.6-3.7
				c0.1-0.8,0.6-1.9,1.2-2.5l5.1-4.7c0.4-0.4,0.7-1.1,0.8-1.7l4.6-3.6L296.7,145.4z M273.7,181.1c-6.2,4.9-12.1,3.5-13.2-3
				c-1.1-6.5,3.9-14.8,10.1-19.6c6.2-4.9,11.2-4.5,12.3,2C284,167,279.9,176.2,273.7,181.1z"/>
			<path id="XMLID_1915_" class="fill-primary" opacity="0.4" d="M251.1,179.9l-5,4.6c-0.4,0.3-0.6,0.9-0.8,1.4l7.4,4.3l0-0.4c0.7-0.5,1.6-0.2,2,0.5
				c0,0,0,0,0,0l7.2-4.1L251.1,179.9z"/>
			<path id="XMLID_1914_" class="fill-primary" opacity="0.4" d="M263.8,165.9c0.6-0.9,1.2-1.7,1.8-2.5l-7.1-4.1c-0.4,0.1-0.7,0.2-1,0.2l-3.7-0.2
				c-0.5,0-1.1,0.2-1.5,0.6l11,6.3L263.8,165.9z"/>
			<path id="XMLID_1943_" class="fill-primary" opacity="0.4" d="M302.7,148.9c-0.3-0.2-0.6-0.1-1,0.1l-5.1,3.3c-0.7,0.4-1.6,0.2-2-0.5
				c-0.3-0.4-0.6-0.8-1-1.2c-0.6-0.6-0.9-1.6-0.6-2.4l0.5-1.3l2.2-1.4c0.4-0.3,0.8-0.3,1-0.1v0L302.7,148.9z"/>
			<path id="XMLID_1912_" class="fill-primary" opacity="0.4" d="M287.7,147.4c-0.1-0.1-0.1-0.1-0.2-0.2c-0.6-0.6-0.9-1.6-0.6-2.4l8-5.1l-6-3.5l0,0
				c-0.1-0.1-0.2-0.1-0.4-0.2l-3.8-0.9c-0.8-0.2-1.8,0.3-2.2,1L279,143c-0.2,0.3-0.5,0.6-0.8,0.9l8.1,4.7L287.7,147.4z"/>
			<path id="XMLID_1911_" class="fill-primary" opacity="0.4" d="M263.1,145.8l7.4,4.3l6.1-5.6c0.2-0.6,0.2-1.4,0.2-1.4l-6-3.5l0,0
				c-0.3-0.2-0.7-0.2-1.1,0.2l-5.7,4.5C263.7,144.7,263.3,145.2,263.1,145.8z"/>
			<path id="XMLID_1843_" class="fill-dark" d="M304.1,155.2l-1-5.5c-0.1-0.8-0.8-1.1-1.5-0.7l-5.1,3.3c-0.7,0.5-1.6,0.2-2-0.5
				c-0.3-0.4-0.6-0.8-1-1.2c-0.6-0.6-0.9-1.6-0.6-2.4l2.6-7c0.3-0.8-0.1-1.6-0.9-1.7l-3.8-0.9c-0.8-0.2-1.8,0.3-2.2,1l-3.6,6.8
				c-0.4,0.7-1.4,1.4-2.2,1.6c-0.8,0.2-1.6,0.5-2.3,0.8c-0.8,0.3-1.6,0-1.8-0.8l-1.3-4.3c-0.2-0.8-1-1-1.6-0.5l-5.7,4.5
				c-0.7,0.5-1.1,1.6-1.1,2.4l0.3,5.4c0.1,0.8-0.4,2-0.9,2.6c-0.9,1.1-1.8,2.3-2.7,3.5c-0.5,0.7-1.5,1.2-2.3,1.2l-3.7-0.2
				c-0.8,0-1.8,0.5-2.1,1.3l-3.5,7.7c-0.3,0.8,0,1.6,0.8,2l3,1.3c0.8,0.3,1.2,1.2,1,2c-0.3,1.2-0.5,2.5-0.6,3.7
				c-0.1,0.8-0.6,1.9-1.2,2.5l-5.1,4.7c-0.6,0.6-1,1.7-0.8,2.5l1,5.5c0.1,0.8,0.8,1.1,1.5,0.7l5.1-3.3c0.7-0.5,1.6-0.2,2,0.5
				c0.3,0.4,0.6,0.8,1,1.2c0.6,0.6,0.9,1.6,0.6,2.4l-2.6,7c-0.3,0.8,0.1,1.6,0.9,1.7l3.8,0.9c0.8,0.2,1.8-0.3,2.2-1l3.6-6.8
				c0.4-0.7,1.4-1.4,2.2-1.6c0.8-0.2,1.6-0.5,2.3-0.8c0.8-0.3,1.6,0,1.8,0.8l1.3,4.3c0.2,0.8,1,1,1.6,0.5l5.7-4.5
				c0.7-0.5,1.1-1.6,1.1-2.4l-0.3-5.4c-0.1-0.8,0.4-2,0.9-2.6c0.9-1.1,1.8-2.3,2.7-3.5c0.5-0.7,1.5-1.2,2.3-1.2l3.7,0.2
				c0.8,0,1.8-0.5,2.1-1.3l3.5-7.7c0.3-0.8,0-1.6-0.8-2l-3-1.3c-0.8-0.3-1.2-1.2-1-2c0.3-1.2,0.5-2.5,0.6-3.7
				c0.1-0.8,0.6-1.9,1.2-2.5l5.1-4.7C303.8,157.1,304.2,156,304.1,155.2z M279.7,184.6c-6.2,4.9-12.1,3.5-13.2-3
				c-1.1-6.5,3-15.7,9.2-20.6c6.2-4.9,12.1-3.5,13.2,3C290,170.5,285.9,179.7,279.7,184.6z"/>
			<path id="XMLID_1843_" class="fill-primary" opacity="0.1" d="M304.1,155.2l-1-5.5c-0.1-0.8-0.8-1.1-1.5-0.7l-5.1,3.3c-0.7,0.5-1.6,0.2-2-0.5
				c-0.3-0.4-0.6-0.8-1-1.2c-0.6-0.6-0.9-1.6-0.6-2.4l2.6-7c0.3-0.8-0.1-1.6-0.9-1.7l-3.8-0.9c-0.8-0.2-1.8,0.3-2.2,1l-3.6,6.8
				c-0.4,0.7-1.4,1.4-2.2,1.6c-0.8,0.2-1.6,0.5-2.3,0.8c-0.8,0.3-1.6,0-1.8-0.8l-1.3-4.3c-0.2-0.8-1-1-1.6-0.5l-5.7,4.5
				c-0.7,0.5-1.1,1.6-1.1,2.4l0.3,5.4c0.1,0.8-0.4,2-0.9,2.6c-0.9,1.1-1.8,2.3-2.7,3.5c-0.5,0.7-1.5,1.2-2.3,1.2l-3.7-0.2
				c-0.8,0-1.8,0.5-2.1,1.3l-3.5,7.7c-0.3,0.8,0,1.6,0.8,2l3,1.3c0.8,0.3,1.2,1.2,1,2c-0.3,1.2-0.5,2.5-0.6,3.7
				c-0.1,0.8-0.6,1.9-1.2,2.5l-5.1,4.7c-0.6,0.6-1,1.7-0.8,2.5l1,5.5c0.1,0.8,0.8,1.1,1.5,0.7l5.1-3.3c0.7-0.5,1.6-0.2,2,0.5
				c0.3,0.4,0.6,0.8,1,1.2c0.6,0.6,0.9,1.6,0.6,2.4l-2.6,7c-0.3,0.8,0.1,1.6,0.9,1.7l3.8,0.9c0.8,0.2,1.8-0.3,2.2-1l3.6-6.8
				c0.4-0.7,1.4-1.4,2.2-1.6c0.8-0.2,1.6-0.5,2.3-0.8c0.8-0.3,1.6,0,1.8,0.8l1.3,4.3c0.2,0.8,1,1,1.6,0.5l5.7-4.5
				c0.7-0.5,1.1-1.6,1.1-2.4l-0.3-5.4c-0.1-0.8,0.4-2,0.9-2.6c0.9-1.1,1.8-2.3,2.7-3.5c0.5-0.7,1.5-1.2,2.3-1.2l3.7,0.2
				c0.8,0,1.8-0.5,2.1-1.3l3.5-7.7c0.3-0.8,0-1.6-0.8-2l-3-1.3c-0.8-0.3-1.2-1.2-1-2c0.3-1.2,0.5-2.5,0.6-3.7
				c0.1-0.8,0.6-1.9,1.2-2.5l5.1-4.7C303.8,157.1,304.2,156,304.1,155.2z M279.7,184.6c-6.2,4.9-12.1,3.5-13.2-3
				c-1.1-6.5,3-15.7,9.2-20.6c6.2-4.9,12.1-3.5,13.2,3C290,170.5,285.9,179.7,279.7,184.6z"/>
		</g>
		<g id="XMLID_1694_">
			<path id="XMLID_1813_" class="fill-dark" d="M268.1,92l-5.9-3.4c0,0,0,0,0,0c-0.2-0.1-0.6-0.1-0.9,0l-10.7,4.8c-0.8,0.3-1.5,0-1.8-0.8
				c-0.6-2-1.4-3.7-2.4-5.3c-0.4-0.7-0.5-1.9-0.2-2.6l7.1-14.4c0.4-0.7,0.1-1.7-0.6-2.1l-7.7-4.5c-0.7-0.4-1.7-0.2-2.1,0.5
				l-8.9,13.4c-0.5,0.7-1.5,1.2-2.3,1.2c-1,0-2,0-3.1,0.1v-9.8l-5.9-3.4v0c-0.3-0.1-0.6-0.1-1,0.1l-12,6.9c-0.7,0.4-1.4,1.4-1.4,2.2
				l-1.2,13.4c-0.1,0.8-0.6,1.9-1.3,2.5c-2.3,2.2-4.6,4.5-6.7,7.1c-0.5,0.6-1.6,0.9-2.4,0.7l-7.7-2.7c-0.8-0.3-1.8,0.1-2.2,0.8
				l-8.8,15.3c-0.4,0.7-0.2,1.7,0.4,2.3l6.2,5.3c0.6,0.5,0.9,1.6,0.6,2.4c-1.1,3.1-2.1,6.2-2.8,9.3c-0.2,0.8-0.9,1.9-1.5,2.3
				l-11,7.7c-0.7,0.5-1.2,1.5-1.2,2.4v13.9c0,0.4,0.2,0.7,0.4,0.9c0,0,0,0,0,0l5.9,3.4l8.8-4.2c0.3,0.7,0.7,1.4,1.1,2
				c0.4,0.7,0.5,1.9,0.2,2.6l-7.1,14.4c-0.4,0.7-0.1,1.7,0.6,2.1l7.7,4.5c0.7,0.4,1.7,0.2,2.1-0.5l8.9-13.4c0.5-0.7,1.5-1.2,2.3-1.2
				c1.8,0,3.8-0.1,5.8-0.6c0.8-0.2,1.5,0.3,1.6,1.1l1.2,11.7c0,0.4,0.2,0.7,0.5,0.8l0,0l5.9,3.4l7.1-10.4c0.7-0.4,1.4-1.4,1.4-2.2
				l1.2-13.4c0.1-0.8,0.8-1.7,1.5-2c3.4-1.4,6.9-3.9,9.3-6.6c0.6-0.6,1.6-0.9,2.4-0.6l4.7,1.7c0.8,0.3,1.8-0.1,2.2-0.8l8.8-15.3
				c0.4-0.7,0.2-1.7-0.4-2.3l-4.1-3.5c-0.6-0.5-0.9-1.6-0.7-2.4c1-3.4,1.2-7.9,1.1-11.1c0-0.8,0.5-1.9,1.2-2.4l11-7.7
				c0.7-0.5,1.2-1.5,1.2-2.4l5.2-6.3L268.1,92z M215.6,147c-11.2,6.5-18.2,1.9-18.2-11.1c0-13,9.3-28.8,20.5-35.3
				c11.2-6.5,18-1.8,18,11.2C235.9,124.8,226.8,140.5,215.6,147z"/>
			<path id="XMLID_1910_" class="fill-primary" opacity="0.4" d="M251,75l2.4-4.8c0.4-0.7,0.1-1.7-0.6-2.1l-7.7-4.5c-0.7-0.4-1.7-0.2-2.1,0.5l-8.9,13.4
				c-0.1,0.2-0.4,0.4-0.6,0.6l9.9,5.7L251,75z"/>
			<path id="XMLID_1909_" class="fill-primary" opacity="0.4" d="M181.6,132.7c-0.3,0.4-0.5,0.7-0.8,0.9l-11,7.7c-0.3,0.2-0.5,0.5-0.7,0.8l6.7,3.9l14.6-8.3
				L181.6,132.7z"/>
			<path id="XMLID_1907_" class="fill-primary" opacity="0.4" d="M188.3,95.8c-0.6,0-1.2,0.4-1.5,0.9l-8.8,15.3c-0.2,0.3-0.2,0.7-0.2,1.1l7.6,4.4l12.1-16.4
				L188.3,95.8z"/>
			<path id="XMLID_1906_" class="fill-primary" opacity="0.4" d="M208.4,74.2l9.4,5.4l10.7-6.2v-4.3l-5.9-3.4v0c-0.3-0.1-0.6-0.1-1,0.1l-12,6.9
				C209.1,73,208.6,73.6,208.4,74.2z"/>
			<path id="XMLID_1808_" class="fill-dark" d="M268.5,106.7V92.9c0-0.8-0.6-1.2-1.4-0.9l-10.7,4.8c-0.8,0.3-1.5,0-1.8-0.8
				c-0.6-2-1.4-3.7-2.4-5.3c-0.4-0.7-0.5-1.9-0.2-2.6l7.1-14.4c0.4-0.7,0.1-1.7-0.6-2.1l-7.7-4.5c-0.7-0.4-1.7-0.2-2.1,0.5L239.8,81
				c-0.5,0.7-1.5,1.2-2.3,1.2c-1.8,0-3.8,0.1-5.8,0.6c-0.8,0.2-1.5-0.3-1.6-1.1l-1.2-11.7c-0.1-0.8-0.7-1.2-1.4-0.7l-12,6.9
				c-0.7,0.4-1.4,1.4-1.4,2.2l-1.2,13.4c-0.1,0.8-0.6,1.9-1.3,2.5c-2.3,2.2-4.6,4.5-6.7,7.1c-0.5,0.6-1.6,0.9-2.4,0.7l-7.7-2.7
				c-0.8-0.3-1.8,0.1-2.2,0.8l-8.8,15.3c-0.4,0.7-0.2,1.7,0.4,2.3l6.2,5.3c0.6,0.5,0.9,1.6,0.6,2.4c-1.1,3.1-2.1,6.2-2.8,9.3
				c-0.2,0.8-0.9,1.9-1.5,2.3l-11,7.7c-0.7,0.5-1.2,1.5-1.2,2.4V161c0,0.8,0.6,1.2,1.4,0.9l10.7-4.8c0.8-0.3,1.5,0,1.8,0.8
				c0.6,2,1.4,3.7,2.4,5.3c0.4,0.7,0.5,1.9,0.2,2.6l-7.1,14.4c-0.4,0.7-0.1,1.7,0.6,2.1l7.7,4.5c0.7,0.4,1.7,0.2,2.1-0.5l8.9-13.4
				c0.5-0.7,1.5-1.2,2.3-1.2c1.8,0,3.8-0.1,5.8-0.6c0.8-0.2,1.5,0.3,1.6,1.1l1.2,11.7c0.1,0.8,0.7,1.2,1.4,0.7l12-6.9
				c0.7-0.4,1.4-1.4,1.4-2.2l1.2-13.4c0.1-0.8,0.6-1.9,1.3-2.5c2.3-2.2,4.6-4.5,6.7-7.1c0.5-0.6,1.6-0.9,2.4-0.7l7.7,2.7
				c0.8,0.3,1.8-0.1,2.2-0.8l8.8-15.3c0.4-0.7,0.2-1.7-0.4-2.3l-6.2-5.3c-0.6-0.5-0.9-1.6-0.6-2.4c1.1-3.1,2.1-6.2,2.8-9.3
				c0.2-0.8,0.9-1.9,1.5-2.3l11-7.7C267.9,108.6,268.5,107.6,268.5,106.7z M221.5,150.4c-11.2,6.5-20.3,1.2-20.3-11.7
				s9.1-28.7,20.3-35.2c11.2-6.5,20.3-1.2,20.3,11.7C241.8,128.2,232.7,143.9,221.5,150.4z"/>
			<path id="XMLID_1813_" class="fill-primary" opacity="0.1" d="M268.1,92l-5.9-3.4c0,0,0,0,0,0c-0.2-0.1-0.6-0.1-0.9,0l-10.7,4.8c-0.8,0.3-1.5,0-1.8-0.8     c-0.6-2-1.4-3.7-2.4-5.3c-0.4-0.7-0.5-1.9-0.2-2.6l7.1-14.4c0.4-0.7,0.1-1.7-0.6-2.1l-7.7-4.5c-0.7-0.4-1.7-0.2-2.1,0.5     l-8.9,13.4c-0.5,0.7-1.5,1.2-2.3,1.2c-1,0-2,0-3.1,0.1v-9.8l-5.9-3.4v0c-0.3-0.1-0.6-0.1-1,0.1l-12,6.9c-0.7,0.4-1.4,1.4-1.4,2.2     l-1.2,13.4c-0.1,0.8-0.6,1.9-1.3,2.5c-2.3,2.2-4.6,4.5-6.7,7.1c-0.5,0.6-1.6,0.9-2.4,0.7l-7.7-2.7c-0.8-0.3-1.8,0.1-2.2,0.8     l-8.8,15.3c-0.4,0.7-0.2,1.7,0.4,2.3l6.2,5.3c0.6,0.5,0.9,1.6,0.6,2.4c-1.1,3.1-2.1,6.2-2.8,9.3c-0.2,0.8-0.9,1.9-1.5,2.3     l-11,7.7c-0.7,0.5-1.2,1.5-1.2,2.4v13.9c0,0.4,0.2,0.7,0.4,0.9c0,0,0,0,0,0l5.9,3.4l8.8-4.2c0.3,0.7,0.7,1.4,1.1,2     c0.4,0.7,0.5,1.9,0.2,2.6l-7.1,14.4c-0.4,0.7-0.1,1.7,0.6,2.1l7.7,4.5c0.7,0.4,1.7,0.2,2.1-0.5l8.9-13.4c0.5-0.7,1.5-1.2,2.3-1.2     c1.8,0,3.8-0.1,5.8-0.6c0.8-0.2,1.5,0.3,1.6,1.1l1.2,11.7c0,0.4,0.2,0.7,0.5,0.8l0,0l5.9,3.4l7.1-10.4c0.7-0.4,1.4-1.4,1.4-2.2     l1.2-13.4c0.1-0.8,0.8-1.7,1.5-2c3.4-1.4,6.9-3.9,9.3-6.6c0.6-0.6,1.6-0.9,2.4-0.6l4.7,1.7c0.8,0.3,1.8-0.1,2.2-0.8l8.8-15.3     c0.4-0.7,0.2-1.7-0.4-2.3l-4.1-3.5c-0.6-0.5-0.9-1.6-0.7-2.4c1-3.4,1.2-7.9,1.1-11.1c0-0.8,0.5-1.9,1.2-2.4l11-7.7     c0.7-0.5,1.2-1.5,1.2-2.4l5.2-6.3L268.1,92z M215.6,147c-11.2,6.5-18.2,1.9-18.2-11.1c0-13,9.3-28.8,20.5-35.3     c11.2-6.5,18-1.8,18,11.2C235.9,124.8,226.8,140.5,215.6,147z"></path>
			<path id="XMLID_1922_" class="fill-primary" opacity="0.4" d="M268.1,92L268.1,92c-0.2-0.2-0.6-0.2-1,0l-10.7,4.8c-0.8,0.3-1.5,0-1.8-0.8
				c-0.4-1.3-0.9-2.6-1.5-3.8l8.1-3.7c0.4-0.2,0.7-0.2,0.9,0v0L268.1,92z"/>
		</g>
	</g>
</g>
<g id="Character_2">
	<g id="XMLID_106_">
		<g id="XMLID_125_">
			<g id="XMLID_154_">
				<path id="XMLID_160_" class="fill-dark" d="M352.3,352.6v-1.1c-0.4,1.3-2.5,7.1-5.7,10c-2.5,2.3-5.9,4.9-6.8,7.5
					c-0.9,2.7,4.8,3.5,7.1,3.1c2.7-0.5,6.2-2,8.2-4.4c1.3-1.7,2.2-3.6,3.2-4.9c1-1.3,3.2-2.8,3.7-4.3c0.3-0.8-0.1-2.6-0.5-4.2
					c-0.4-1.4-0.8-3-1.2-2.8c0,0.2,0,0.9,0,0.9c-0.6,0.6-2.2,1.3-4,1.3C355.1,353.7,352.3,353.4,352.3,352.6z"/>
				<path id="XMLID_159_" class="fill-light-pink" d="M344.3,363.4c0.8-0.7,1.6-1.4,2.3-2c2.2-2,3.9-5.4,4.9-7.8c0.6-1.3,0.8-2.7,0.8-4.2v-4.5
					h8v7.4v0v0v0.2l0,0c-0.4,1.7-4,6.1-6.1,8.9c-1.4,1.9-4,4.4-7.2,4.8C343.9,366.6,342.4,365.7,344.3,363.4z"/>
				<path id="XMLID_158_" class="fill-dark" d="M321.3,344.7v-1.1c-0.4,1.3-2.5,7.1-5.7,10c-2.5,2.3-5.9,4.9-6.8,7.5
					c-0.9,2.7,4.8,3.5,7.1,3.1c2.7-0.5,6.2-2,8.2-4.4c1.3-1.7,2.2-3.6,3.2-4.9c1-1.3,3.2-2.8,3.7-4.3c0.3-0.8-0.1-2.6-0.5-4.2
					c-0.4-1.4-0.8-3-1.2-2.8c0,0.2,0,0.9,0,0.9c-0.6,0.6-2.2,1.3-4,1.3C324.1,345.8,321.3,345.6,321.3,344.7z"/>
				<path id="XMLID_157_" class="fill-light-pink" d="M313.3,355.5c0.8-0.7,1.6-1.4,2.3-2c2.2-2,3.9-5.4,4.9-7.8c0.6-1.3,0.8-2.7,0.8-4.2v-4.5
					h8v7.4v0v0v0.2l0,0c-0.4,1.7-4,6.1-6.1,8.9c-1.4,1.9-4,4.4-7.2,4.8C312.9,358.8,311.4,357.8,313.3,355.5z"/>
				<path id="XMLID_156_" class="fill-dark" d="M358.7,228.9c6.2,13.5-0.2,60.9-0.2,60.9c0.2,2.2,2.7,6.5,3.6,16.1
					c1.1,11.4-1.7,39.9-1.7,39.9s-3.7,2.4-8,0.3c0,0-7.6-43-9-54.3c-1.2-9.9-3.6-31.6-3.6-31.6l-6.8,31.5c0,0,1.7,5.5,2.2,9.7
					c0.6,6.6-5.8,37.6-5.8,37.6s-2.7,1-8,0.2c0,0-2.3-41.1-2.9-49.1c-1-13.5,2.6-55.4,5-63.4L358.7,228.9z"/>
					<path id="XMLID_156_" class="fill-primary" opacity="0.2" d="M358.7,228.9c6.2,13.5-0.2,60.9-0.2,60.9c0.2,2.2,2.7,6.5,3.6,16.1      c1.1,11.4-1.7,39.9-1.7,39.9s-3.7,2.4-8,0.3c0,0-7.6-43-9-54.3c-1.2-9.9-3.6-31.6-3.6-31.6l-6.8,31.5c0,0,1.7,5.5,2.2,9.7      c0.6,6.6-5.8,37.6-5.8,37.6s-2.7,1-8,0.2c0,0-2.3-41.1-2.9-49.1c-1-13.5,2.6-55.4,5-63.4L358.7,228.9z"></path>
				<path id="XMLID_155_" class="fill-dark" d="M339.7,260.3l-2-12.5c0,0-8.5-1.8-12.3-5.4c0,0,4,5,10,6.7l2.2,9.6l-3.9,29.2L339.7,260.3z
					"/>
			</g>
			<g id="XMLID_129_">
				<g id="XMLID_152_">
					<path id="XMLID_153_" class="fill-light-pink" d="M326.6,220.4c4.7-15.5,10.6-38.7,8.4-38.7s-5.7-0.2-8.2,2.3c-5,5-5.9,14.3-6.9,19.6
						c-1,5.3-1.8,9.5-3.5,17.3c-1.3,6-2.8,13.2-5.1,17.8c-0.4,0.8-1.1,1.4-1.9,1.8c-2.3,0.9-3.3,2.1-5.1,3.4c-1.4,1-2.5,1.2-2.4,1.6
						c0.1,0.5,0.8,1.5,2.4,1.3c0.8-0.1,1.8-0.5,3.2-1.1c0,0-1.3,2.4-3.8,4.6c-3.5,3-4,5.1,1.8,6.2c3.6,0.7,6.9-1.1,11-8.6
						c1.2-2.2,3-5.6,4.1-8.5C323.1,231.9,325.2,225.1,326.6,220.4z"/>
				</g>
				<path id="XMLID_151_" class="fill-primary " d="M347.8,182.1L347.8,182.1c7.9,0.5,8.5,4.4,10.4,8.5c1.5,3.2,1.5,6.9,0.4,10.2l-5.5,15.9
					c0,0,2.6,6.2,5.6,12.1c-13.8,7.7-31.1,3.7-35.3-2c-0.2-1.2,0.9-10.5,1.6-16.6c-2.4-6.1-3.1-10-2.1-14
					c1.9-7.5,9.3-14.8,12.6-14.5L347.8,182.1z"/>
				<g id="XMLID_132_">
					<g id="XMLID_149_">
						<path id="XMLID_150_" class="fill-dark" d="M340.2,175.5h3.1c8.9,0,16.2-7.2,16.2-16.2v0c0-9-7.3-16.3-16.3-16.3h-2.9
							c-9,0-16.3,7.3-16.3,16.3l0,0C324,168.3,331.3,175.5,340.2,175.5z"/>
					</g>
					<path id="XMLID_148_" class="fill-dark" d="M368.1,184L368.1,184c-5.3,0-9.6-4.3-9.6-9.6V154l0,0c5.3,0,9.6,4.3,9.6,9.6V184z"/>
					<path id="XMLID_147_" class="fill-dark" d="M360.3,150.4l-2.4,3.8c1.1,0.7,2.5,0.4,3.1-0.6C361.7,152.6,361.3,151.1,360.3,150.4z"/>
					<g id="XMLID_145_">
						<path id="XMLID_146_" class="fill-light-pink" d="M329.8,150.3c-1.9,1.1-4.2,5.8-4,15.7c0.2,8.4,2.9,10.4,4.3,11c1.4,0.6,4,0.2,6.5-0.2v5
							c0,0-3.5,4.1-3.3,6.4c0.2,2.3,5.1,2.8,8.4,0.6c3.3-2.2,5.4-5.7,5.4-5.7V171c0,0,1.7,2.3,4.5,0.4c2.8-1.9,2.9-6.5,1.3-8.2
							c-1.6-1.7-5.2-1.1-5.8,1.2c0,0-4.1,0.1-9.5-2.8C332.3,158.6,330.2,153.5,329.8,150.3z"/>
					</g>
					<g id="XMLID_143_">

							<ellipse id="XMLID_144_" transform="matrix(-0.9989 -4.740685e-002 4.740685e-002 -0.9989 666.2488 343.5646)" class="fill-dark" cx="337.2" cy="163.9" rx="1.1" ry="1.1"/>
					</g>
					<g id="XMLID_141_">
						<path id="XMLID_142_" class="fill-light-pink" d="M334.9,170.9l-2.4,0.8c0.2,0.7,0.9,1.1,1.6,0.9C334.8,172.4,335.1,171.6,334.9,170.9z"
							/>
					</g>
					<g id="XMLID_139_">
						<path id="XMLID_140_" class="fill-dark" d="M327.5,160.6l2.1-1.5c-0.4-0.6-1.2-0.8-1.8-0.4C327.3,159.2,327.1,160,327.5,160.6z"/>
					</g>
					<g id="XMLID_137_">

							<ellipse id="XMLID_138_" transform="matrix(-0.9989 -4.735711e-002 4.735711e-002 -0.9989 650.0547 341.6454)" class="fill-dark" cx="329.1" cy="163.1" rx="1.1" ry="1.1"/>
					</g>
					<g id="XMLID_135_">
						<polygon id="XMLID_136_" class="fill-light-pink" points="333.2,162.5 333,168.8 329.7,167.8 						"/>
					</g>
					<g id="XMLID_133_">
						<path id="XMLID_134_" class="fill-light-pink" d="M336.7,176.8c2.7-0.4,8.2-1.9,9.1-4.1c0,0-0.3,1.4-1.9,2.8c-1.7,1.4-7.1,3-7.1,3V176.8z
							"/>
					</g>
				</g>
				<path id="XMLID_131_" class="fill-dark" opacity="0.3" d="M344.3,230.4c4.5-1.1,7.4-5.7,6.2-10.2c0-0.2-0.1-0.3-0.1-0.4c-0.9-2.1-2.8-1.9-2.8-1.9
					l0,0c1.8-1.2,3-3,3.5-5.2l1.7-8.4c0,0-3.1-9.9-2.8-13.3l7.9,0.5c0,0,0.4,0.3,1,0.7c0.9,2.8,0.7,5.8-0.2,8.6l-5.5,15.9
					c0,0,2.6,6.2,5.6,12.1c-10.2,5.7-22.2,5-29.6,2C334.9,231.7,340.2,231.3,344.3,230.4z"/>
				<path id="XMLID_130_" class="fill-dark" d="M355.7,222.7c-2.9,0.8-11.8,1.8-12.5-4.4c-0.4-4.1-0.2-10.3,0-14.9
					c0.4-7.4,3-14.5,7.6-20.3c0.2-0.3,0.4-0.4,0.4-0.4s-1.3-1-4-0.6c0,0-6,5.7-7.8,14c-4-0.6-9-1-12.3-1.3c2.8-9.2,9.7-13,9.7-13
					c-1.5-0.8-3.5-0.1-3.5-0.1c-5.5,3.2-8.4,8.5-9.8,12.8c-3.2,8.8-3.1,41.6-3,53.3l5.5-8.7l35,0
					C360.5,226.5,355.7,222.7,355.7,222.7z"/>
				<path id="XMLID_130_" class="fill-primary" opacity="0.2" d="M355.7,222.7c-2.9,0.8-11.8,1.8-12.5-4.4c-0.4-4.1-0.2-10.3,0-14.9
					c0.4-7.4,3-14.5,7.6-20.3c0.2-0.3,0.4-0.4,0.4-0.4s-1.3-1-4-0.6c0,0-6,5.7-7.8,14c-4-0.6-9-1-12.3-1.3c2.8-9.2,9.7-13,9.7-13
					c-1.5-0.8-3.5-0.1-3.5-0.1c-5.5,3.2-8.4,8.5-9.8,12.8c-3.2,8.8-3.1,41.6-3,53.3l5.5-8.7l35,0
					C360.5,226.5,355.7,222.7,355.7,222.7z"/>
			</g>
			<g id="XMLID_127_">
				<path id="XMLID_128_" class="fill-light-pink" d="M372.8,214.1c0,0-3.7-8-8.9-19.8c-3.7-8.5-4.6-10.5-10.5-11.4l-2.1-0.3
					c-2.8,9.3-0.9,13.5,2.8,19.9l7.4,14.3C364.3,216.2,372.9,215,372.8,214.1z"/>
			</g>
			<path id="XMLID_126_" class="fill-light-pink" d="M361.4,216.7c2.2,4.4,4.1,7.1,6.7,7.8c2.6,0.7,24.5,0.5,24.5,0.5v-8.3l-20.8-3.2
				L361.4,216.7z"/>
		</g>
		<g id="XMLID_108_">
			<path id="XMLID_124_" class="fill-primary " d="M405.2,307.6h-34.4v67.1c-0.2,2.7,1.5,5.4,5,7.4c6.7,3.9,17.6,3.9,24.4,0
				c3.4-1.9,5.1-4.5,5-7h0V307.6z"/>
			<path id="XMLID_123_" class="fill-primary " d="M401.6,301.5L401.6,301.5c-3.8-2.5-1.4-8.5-1.4-8.5h-24.4c0,0,2.3,6-1.4,8.5h0
				c-5.3,3.9-4.8,9.5,1.4,13.1c6.7,3.9,17.6,3.9,24.4,0C406.4,311.1,406.8,305.5,401.6,301.5z"/>
			<path id="XMLID_122_" class="fill-dark" opacity="0.2" d="M401.6,301.5L401.6,301.5c-3.8-2.5-1.4-8.5-1.4-8.5h-24.4c0,0,2.3,6-1.4,8.5h0
				c-5.3,3.9-4.8,9.5,1.4,13.1c6.7,3.9,17.6,3.9,24.4,0C406.4,311.1,406.8,305.5,401.6,301.5z"/>
			<path id="XMLID_121_" class="fill-dark" opacity="0.2" d="M399.5,296c0.2-1.7,0.7-3,0.7-3h-24.4c0,0,0.5,1.3,0.7,3C383,299.4,392.9,299.4,399.5,296z
				"/>
			<path id="XMLID_120_" class="fill-primary " d="M405.2,281.3h-2c-0.8-0.8-1.8-1.6-3-2.3c-6.7-3.9-17.6-3.9-24.4,0c-1.2,0.7-2.2,1.5-3,2.3
				h-2v4.7l0,0c0,2.5,1.7,5.1,5,7c6.7,3.9,17.6,3.9,24.4,0c3.4-1.9,5-4.5,5-7l0,0V281.3z"/>
			<g id="XMLID_117_">
				<path id="XMLID_119_" class="fill-primary " d="M375.8,288.3c6.7,3.9,17.6,3.9,24.4,0c6.7-3.9,6.7-10.2,0-14.1c-6.7-3.9-17.6-3.9-24.4,0
					C369,278.1,369,284.4,375.8,288.3z"/>
				<path id="XMLID_118_" class="fill-white" opacity="0.4" d="M375.8,288.3c6.7,3.9,17.6,3.9,24.4,0c6.7-3.9,6.7-10.2,0-14.1c-6.7-3.9-17.6-3.9-24.4,0
					C369,278.1,369,284.4,375.8,288.3z"/>
			</g>
			<path id="XMLID_116_" class="fill-dark" opacity="0.2" d="M388,377.7L388,377.7c-1.9,0-3.4-1.5-3.4-3.4v-47.9c0-1.9,1.5-3.4,3.4-3.4l0,0
				c1.9,0,3.4,1.5,3.4,3.4v47.9C391.3,376.2,389.8,377.7,388,377.7z"/>
			<path id="XMLID_115_" class="fill-dark" opacity="0.2" d="M399.4,375.7L399.4,375.7c-1.6,0.6-2.9-0.2-2.9-1.9V325c0-1.6,1.3-3.4,2.9-4l0,0
				c1.6-0.6,2.9,0.2,2.9,1.9v48.8C402.4,373.3,401,375.1,399.4,375.7z"/>
			<path id="XMLID_114_" class="fill-dark" opacity="0.2" d="M376.5,375.7L376.5,375.7c1.6,0.6,2.9-0.2,2.9-1.9V325c0-1.6-1.3-3.4-2.9-4l0,0
				c-1.6-0.6-2.9,0.2-2.9,1.9v48.8C373.6,373.3,374.9,375.1,376.5,375.7z"/>
			<g id="XMLID_109_">
				<path id="XMLID_113_" class="st4" d="M392.7,160.6l-7-4.1l-4.4,20.9c0,0,4.4,7.3,4.4,11.9v89.1l4.7,5.4l2.4-1.4v-89.1
					c0-4.7,4.4-6.8,4.4-6.8L392.7,160.6z"/>
				<path id="XMLID_112_" class="fill-light" d="M390.3,162l-7-4.1l-4.4,20.9c0,0,4.4,7.3,4.4,11.9v89.1l7,4.1v-89.1
					c0-4.7,4.4-6.8,4.4-6.8L390.3,162z"/>
				<polygon id="XMLID_111_" class="fill-light" points="383.2,157.9 385.6,156.5 392.7,160.6 390.3,162 				"/>
				<polygon id="XMLID_110_" class="fill-light" points="392.7,160.6 390.3,162 394.7,188 397.1,186.6 				"/>
			</g>
		</g>
		<path id="XMLID_107_" class="fill-light-pink" d="M392.7,210.2c0.4-1.6,2.8-2.5,2.6,0.2c-0.2,2.6,1,4.5,1.4,5.7c0.7,2.6,0.6,7.4-0.4,8.4
			c-1,1-2.3,2.1-4.2,1.9c-1.9-0.1-3.3-0.6-5.3-2.1c-1.6-1.3-3.4-8.5,0.4-7.5c5.6,1.5,5.6-2.5,5.6-2.5V210.2z"/>
	</g>
</g>
<g id="Character_1">
	<g id="XMLID_2067_">
		<g id="XMLID_1884_">
			<g id="XMLID_1918_">
				<g id="XMLID_2047_">
					<path id="XMLID_1916_" class="fill-light-pink" d="M208.8,233.9c3.9,0.8,6.3,3.7,11,11c4.7,7.4,12.1,19.9,12.1,19.9l18.4,7l-0.8,8.3
						c0,0-20.1-3.6-22.8-5.6c-2.7-2-13.4-17.4-13.4-17.4L208.8,233.9z"/>
					<path id="XMLID_2059_" class="fill-white" d="M205.5,232.4c4.1,0.7,8.1,1.7,10.6,5.6c2.5,3.9,11.7,18.7,11.7,18.7s-3.3,7.8-9.4,9
						l-8.7-12.6L205.5,232.4z"/>
					<path id="XMLID_2049_" class="fill-light" d="M190.6,232.7c-1.4,0.3-2.8,0.4-4,0.7c-6.1,1.2-7.2,4.4-7.3,11.7c-0.2,12.3,0,40.7,0,40.7
						c5.4,3.9,25.4,6.3,36.8-2c0,0-0.6-32.7-0.6-38.5c0-5.8-3.2-12.7-12.1-13.3L190.6,232.7z"/>
				</g>
				<g id="XMLID_2071_">
					<rect id="XMLID_2078_" x="177.7" y="385.9" class="fill-light-pink" width="7.9" height="13.4"/>
					<polygon id="XMLID_2077_" class="fill-light-pink" points="209.9,389.2 217.7,389.4 218.1,375.2 209.9,374.9 					"/>
					<path id="XMLID_1898_" class="fill-dark" d="M217.1,283.8L217.1,283.8l-1.4-31.9l-24.7,4c0,0,0.2,5.8-0.9,15.1
						c-0.5,3.9-4.2,9.3-10.9,11.1c0,0-0.4,4.8-0.1,15.5c0.1,3.7-1.6,44.9-1.6,44.9c-0.2,2.2-2.3,6-2.4,13.8
						c-0.2,11.3,2.4,36.4,2.4,36.4s3.8,2.2,8.7,0.2c0,0,5.3-36.2,6.7-47.3c1.2-9.7,6.4-37.1,6.4-37.1l6,32.9c0,0-1.4,5.8-1,12.5
						c0.4,5.2,5.1,31,5.1,31s3.7,2.5,9.1,0.7c0,0,0.5-40.6,0.6-45.3C219.1,334.8,217.1,283.8,217.1,283.8z"/>
						<path id="XMLID_1898_" class="fill-primary" opacity="0.2" d="M217.1,283.8L217.1,283.8l-1.4-31.9l-24.7,4c0,0,0.2,5.8-0.9,15.1
						c-0.5,3.9-4.2,9.3-10.9,11.1c0,0-0.4,4.8-0.1,15.5c0.1,3.7-1.6,44.9-1.6,44.9c-0.2,2.2-2.3,6-2.4,13.8
						c-0.2,11.3,2.4,36.4,2.4,36.4s3.8,2.2,8.7,0.2c0,0,5.3-36.2,6.7-47.3c1.2-9.7,6.4-37.1,6.4-37.1l6,32.9c0,0-1.4,5.8-1,12.5
						c0.4,5.2,5.1,31,5.1,31s3.7,2.5,9.1,0.7c0,0,0.5-40.6,0.6-45.3C219.1,334.8,217.1,283.8,217.1,283.8z"/>
					<path id="XMLID_1904_" class="fill-dark" d="M215.7,251.9c-0.3-6.3-1.1-12.1-6.6-17.6c-1.5-1.5-3.5-2.3-5.6-2.3h-1.2
						c0,0,5.5,4.3,7.6,10.6c1.9,5.4,1.7,12.2,1.7,12.2L215.7,251.9z"/>
						<path id="XMLID_1904_" class="fill-primary" opacity="0.2" d="M215.7,251.9c-0.3-6.3-1.1-12.1-6.6-17.6c-1.5-1.5-3.5-2.3-5.6-2.3h-1.2
						c0,0,5.5,4.3,7.6,10.6c1.9,5.4,1.7,12.2,1.7,12.2L215.7,251.9z"/>
					<path id="XMLID_2075_" class="fill-dark" d="M185.6,395.5c0,0,0-1.1,0-1.1c0.4,0,0.7,0.4,0.8,1.4c0.1,0.7,0.2,1.3,0.5,2.2
						c0.4,1.5,0.7,2.3,1.4,4c1.1,2.7,2,3.8,4.6,7c0.6,0.8,2,2,2.4,2.8c0.5,0.8,0.6,3.2-0.2,3.7c-3,2-7.5,2-10.6,1.1
						c-2.4-0.7-4.2-2.7-4.6-5.2c-0.1-0.7-0.1-1.5-0.2-2.2c-0.2-1.7-1-3.2-2-4.6c-0.5-0.8-1.1-1.6-1.5-2.5c-0.7-1.6-0.1-3.4,0.3-5
						c0.4-1.4,0.8-2.9,1.2-2.8c0,0.2,0,0.9,0,0.9c0.6,0.6,2.1,1.3,3.9,1.3C182.8,396.6,185.6,396.3,185.6,395.5z"/>
					<path id="XMLID_2074_" class="fill-dark" d="M217.8,387c0.4,0,0.7,0.6,1.6,1.6c1.1,1.2,2.9,2.4,4.6,3.3c2.9,1.5,8.7,3.7,11.2,4.9
						c1.6,0.7,1.5,2.7-0.1,3.8c-1.7,1.1-5.7,1.9-10.5,0.8c-2.6-0.6-6.1-3-8.2-2.9c-2.2,0.1-6.2,0.1-7.8-1c-1.6-1.1-1-3.5-0.5-5.5
						c0.5-2.2,1.1-5.7,1.8-5.5v0.8c0.9,1.4,5.8,2,7.9,1L217.8,387z"/>
					<path id="XMLID_2073_" class="fill-dark" d="M199.2,308.4c0,0,6.3-1.8,10.9-6.3c0,0-2.1,3.9-8.4,7.6l3,29.3L199.2,308.4z"/>
				</g>
				<g id="XMLID_1932_">
					<g id="XMLID_1958_">
						<circle id="XMLID_2046_" class="fill-dark" cx="204.5" cy="206.6" r="10.8"/>
						<path id="XMLID_2044_" class="fill-dark" d="M185.8,214.3c0,0,1.7,8.2,2.4,9.6c0.7,1.3,2.2,1.7,2.2,1.7l-0.1-5.8L185.8,214.3z"/>
						<path id="XMLID_2042_" class="fill-dark" d="M188,202.5c0,0-1.9-0.3-3.4,1.2c-1.4,1.5-0.6,6.1,1.2,10.6l3.3,0.4L188,202.5z"/>
						<path id="XMLID_2038_" class="fill-light-pink" d="M190.1,214.7c-0.7,0.4-1.6-0.9-2.4-1.7c-0.8-0.9-3.5-2-4.8,0.8
							c-1.4,2.8,1.2,6.6,3.3,7.3c3.6,1.1,4.1-1.2,4.1-1.2l0.3,13.4l0,0c4.5,5.7,16.9,5.3,11.7-0.7l0-4c0,0,3.3,0.5,4.9,0.2
							c2.7-0.4,4.3-2.5,5.1-5.4c1.3-4.6,1.8-8.3,0.7-17.4c-1.2-9.9-12.8-10-19-6.1C187.7,203.8,190.1,214.7,190.1,214.7z"/>
						<path id="XMLID_1721_" class="fill-dark" d="M190.9,257.8c0.2-8.2-1.7-20.3-4.4-24.4c0,0,1.9-1,4-0.7c0,0,5.1,8,4.9,25.1
							L190.9,257.8z"/>
							<path id="XMLID_1721_" class="fill-primary" opacity="0.2" d="M190.9,257.8c0.2-8.2-1.7-20.3-4.4-24.4c0,0,1.9-1,4-0.7c0,0,5.1,8,4.9,25.1
							L190.9,257.8z"/>
						<path id="XMLID_2036_" class="fill-dark" d="M190.1,215.8c-0.3,0-1.6-2.1-2.4-2.8c-1.1-1,0.3-10.4,0.3-10.4s-1.4-2.7,0.8-5.1
							c1.6-1.7,3.7-3.8,10.8-3c5,0.6,10.5,2.2,15,0c0.7,2.8,0.1,5.8-2.6,8c0,0-1.6,1-5.8,1.6c-4.2,0.5-10.8-0.1-11.7-0.2
							c-1.2-0.2-1.5,1-2.1,4.3C191.7,210.9,191.2,215.8,190.1,215.8z"/>
						<path id="XMLID_1965_" class="fill-dark" d="M188,203.3l-4-2.1c0.6-1.1,1.9-1.6,3-1C188.2,200.7,188.6,202.1,188,203.3z"/>
						<path id="XMLID_1959_" class="fill-light-pink" d="M202.3,228.5c0,0-5.9-1.2-8-2.3c-1.4-0.7-2.5-2-2.9-2.8c0,0,0.4,1.8,1.6,3.3
							c1.5,1.9,9.2,3.4,9.2,3.4L202.3,228.5z"/>
					</g>
					<g id="XMLID_1935_">
						<ellipse id="XMLID_1957_" class="fill-dark" cx="200.9" cy="213.9" rx="1.2" ry="1.2"/>
						<path id="XMLID_1953_" class="fill-dark" d="M200.8,209.5l-2.5,1.4c-0.4-0.7-0.1-1.6,0.6-2C199.6,208.5,200.5,208.7,200.8,209.5z"/>
						<path id="XMLID_1952_" class="fill-light-pink" d="M201.8,221.4l2.7,1c-0.3,0.8-1.1,1.2-1.8,0.9C201.9,223,201.5,222.2,201.8,221.4z"/>
						<path id="XMLID_1950_" class="fill-dark" d="M212.7,210.5l-2.3-1.8c0.5-0.7,1.4-0.8,2-0.3C213,208.9,213.1,209.8,212.7,210.5z"/>
						<path id="XMLID_1945_" class="fill-dark" d="M212,213.6c0,0.7-0.5,1.2-1.2,1.2c-0.7,0-1.2-0.6-1.2-1.2c0-0.7,0.5-1.2,1.2-1.2
							C211.4,212.4,212,212.9,212,213.6z"/>
						<polygon id="XMLID_1944_" class="fill-light-pink" points="205.6,212.7 206,219.9 209.7,218.6 						"/>
					</g>
				</g>
			</g>
		</g>
		<g id="XMLID_1903_">
			<path id="XMLID_1900_" class="fill-dark"  d="M262.2,226c0-2.2,1.8-5.3,1.3-6.9l-4.1-2.3l-8.1,20.5l-8.3,4.7l-4.1-6l12.3-18.3l-4.1-2.3
				c-0.5,0.2-1,0.5-1.6,0.8c-9.3,5.3-16.8,18.3-16.9,29c0,5.4,1.8,9.2,4.9,11l0,0l4,2.3l0.5-1.2c0.1,0,0.2,0,0.3,0v95.2
				c-5.7,6.3-9.7,15.3-9.7,23c0,4,1,7.2,2.8,9.2l4.1,2.3l4.1-22.8l8.3-4.7l4.1,6l-8.2,20.7l4.1,2.3c0,0,14.3-21.4,14.4-32.1
				c0-3.2-0.6-5.8-1.7-7.7l1-0.9l-4-2.3l0,0c-1.4-0.9-3.1-1.3-5-1.2V249C258.2,242.7,262.2,233.7,262.2,226z"/>
				<path id="XMLID_1900_" class="fill-primary" opacity="0.4" d="M262.2,226c0-2.2,1.8-5.3,1.3-6.9l-4.1-2.3l-8.1,20.5l-8.3,4.7l-4.1-6l12.3-18.3l-4.1-2.3
				c-0.5,0.2-1,0.5-1.6,0.8c-9.3,5.3-16.8,18.3-16.9,29c0,5.4,1.8,9.2,4.9,11l0,0l4,2.3l0.5-1.2c0.1,0,0.2,0,0.3,0v95.2
				c-5.7,6.3-9.7,15.3-9.7,23c0,4,1,7.2,2.8,9.2l4.1,2.3l4.1-22.8l8.3-4.7l4.1,6l-8.2,20.7l4.1,2.3c0,0,14.3-21.4,14.4-32.1
				c0-3.2-0.6-5.8-1.7-7.7l1-0.9l-4-2.3l0,0c-1.4-0.9-3.1-1.3-5-1.2V249C258.2,242.7,262.2,233.7,262.2,226z"/>
			<polygon id="XMLID_1899_" class="fill-dark" points="238.4,352.3 242.4,354.7 242.4,259.5 238.4,257.2 			"/>
			<path id="XMLID_1905_" class="fill-dark" d="M256.6,346.5v-95.2c5.7-6.3,9.7-15.3,9.7-23c0-4-1-7.2-2.8-9.2l-8.1,20.5l-8.3,4.7l-4.1-6
				l8.2-20.7c-0.5,0.2-1,0.5-1.6,0.8c-9.3,5.3-16.8,18.3-16.9,29c-0.1,7.9,3.9,12.3,9.7,12.1v95.2c-5.7,6.3-9.7,15.3-9.7,23
				c0,4,1,7.2,2.8,9.2l8.1-20.5l8.3-4.7l4.1,6l-8.2,20.7c0.5-0.2,1-0.5,1.6-0.8c9.3-5.3,16.8-18.3,16.9-29
				C266.3,350.7,262.3,346.3,256.6,346.5z"/>
				<path id="XMLID_1905_" class="fill-primary" opacity="0.2" d="M256.6,346.5v-95.2c5.7-6.3,9.7-15.3,9.7-23c0-4-1-7.2-2.8-9.2l-8.1,20.5l-8.3,4.7l-4.1-6
				l8.2-20.7c-0.5,0.2-1,0.5-1.6,0.8c-9.3,5.3-16.8,18.3-16.9,29c-0.1,7.9,3.9,12.3,9.7,12.1v95.2c-5.7,6.3-9.7,15.3-9.7,23
				c0,4,1,7.2,2.8,9.2l8.1-20.5l8.3-4.7l4.1,6l-8.2,20.7c0.5-0.2,1-0.5,1.6-0.8c9.3-5.3,16.8-18.3,16.9-29
				C266.3,350.7,262.3,346.3,256.6,346.5z"/>
			<polygon id="XMLID_1897_" class="fill-dark" points="250.2,362.8 251.9,361.8 256,367.8 247.8,388.4 243.8,386.1 252,365.4 			"/>
		</g>
		<path id="XMLID_1917_" class="fill-light-pink" d="M256.6,268.3c0,1.5-2.3,3.2-4,4.3c-1.7,1.1-3.9,2.6-3,5.6c0.8,3.1,4.1,3.9,5.8,3.1
			c1.7-0.8,3.4-2.2,3.8-5.1c0.4-2.8,1.4-9.7-2.5-10.5V268.3z"/>
		<g id="XMLID_1754_">
			<path id="XMLID_1765_" class="fill-light-pink" d="M163.4,276.5c6.8-30.3,11-37,20.4-40.5l-1.3,18.2c0,0-8.8,19.7-10.2,26.6
				c-1.2,6.1-2.5,13.8-2.3,19c0,0.9,0.4,1.8,1.1,2.5c1.7,1.8,2.2,3.3,3.4,5.3c0.9,1.6,1.8,2.1,1.6,2.5c-0.3,0.5-1.4,1.1-2.8,0.3
				c-0.7-0.4-1.5-1.2-2.5-2.3c0,0,0.2,2.7,1.7,5.8c2,4.2,1.6,6.4-4.2,5c-3.6-0.9-6-3.8-6.7-12.5c-0.2-2.5-0.5-6.4-0.3-9.6
				C161.9,288.6,162.3,281.3,163.4,276.5z"/>
		</g>
		<path id="XMLID_2076_" class="fill-white" d="M184.6,233.9c0,0-3.7,0-6.8,2.1c-2.4,1.6-6.3,8-8.8,15.9c-2.5,7.9-3.8,12.3-3.8,12.3
			s4.1,6.2,12.9,3.8c0,0,5-12.4,4.7-11.6C182.8,256.4,189.3,244.2,184.6,233.9z"/>
	</g>
</g>
</svg>
