<?xml version="1.0" encoding="utf-8"?>
<!-- Generator: Adobe Illustrator 23.0.0, SVG Export Plug-In . SVG Version: 6.00 Build 0)  -->
<svg version="1.1" id="Layer_1" xmlns="http://www.w3.org/2000/svg" xmlns:xlink="http://www.w3.org/1999/xlink" x="0px" y="0px"
	 viewBox="0 0 1920 268.2" style="enable-background:new 0 0 1920 268.2;" xml:space="preserve">
<style type="text/css">
	.st0{fill-rule:evenodd;clip-rule:evenodd;fill:#FFFFFF;}
	.st1{fill:#F9FAFF;enable-background:new    ;}
	.st2{fill:#E7EAFF;enable-background:new    ;}
</style>
<g>
	<path id="white-bg" class="st0" d="M-0.6,24.8l0.3,243.5l1920.3-0.1V148.6c0,0-5.2,3.8-13.5,7.4c-20.8,8.9-68.2,27.4-128.7,20.6
		c0,0-29.4,4-64.7-0.7c0,0-74.3,8.3-172.4-39.1c-109.5-52.9-138-59-138-59c-43-13.5-121.5-20.7-122.8-20.6
		c-19.9,1.3-71,5.7-84.7,8.3c-14.9,3.2-42.6,6.9-77,16.8c-14.4,4.1-32.6,10.2-46.3,14.6c-22.8,7.4-52.5,18.7-65.9,23.5
		c-29.6,10.7-63.2,25.4-99.1,40.3C848,185,804.6,205.2,777,214.2c-8.4,2.7-43,16.1-72.5,23.3c-25.9,6.4-51.7,11.3-74.9,14.7
		c-21.1,3.1-36.6,5-41.8,5.5c-4.7,0.4-19.5,3-41.9,3.3c-3.3,0-11.2,0-14.4,0c-4.9,0-11.4,0.1-15.6,0c-8.1-0.2-11.2,0-15.1-0.1
		c-0.3,0-4,0.1-4,0.1s-2.6-0.1-2.7-0.1c-1.3,0-4.4,0.2-5.7,0.2c-4.2,0.1-6.4-0.2-9.8-0.2c-6.8,0.1-11.5,0.5-15,0.4
		c-1.6,0-4.9,0-5.7,0c-10.7-0.3-8-0.1-11.8-0.2c-1.2,0-2.7,0-5.1-0.1c-1.1,0-2.6-0.1-4.3-0.2c-0.7,0-1.3-0.1-2-0.1
		c-57.5,0.4-135.8-11.3-189-31.1c-28.2-10.5-57.8-25.5-90-46c-35.4-22.5-65-46.5-90-72c-22.5-23-42.6-48.1-60-75L-0.6,24.8z"/>
	<path id="_x30_1" class="st1" d="M1745.6,172.5c21.3,5.2,55.8,10.8,97.9,4.6c32.9-4.9,59-15.3,76.5-24c0-48.9,0-97.9,0-146.8
		c-1.9,5.2-4.3,11.8-7.7,19.3c-6.7,15.1-16.4,34.3-30.4,53.6c-20.7,28.5-49.5,58.3-90.4,77.6
		C1775.6,164.2,1760.2,169.3,1745.6,172.5z"/>
	<path id="_x30_2" class="st2" d="M1712.7,177.4c26.1,3.6,90.9,8.8,154.7-28.5c22.9-13.4,40.2-29,52.6-42.6c0-33.4,0-66.7,0-100.1
		c-8.4,23.6-43.7,114.3-135.8,153.8C1758.1,171.3,1733.3,175.8,1712.7,177.4z"/>
	<path id="_x30_2-2" class="st1" d="M1281.4,57.5c-51.9,5.8-94.3,14.4-124.3,21.6c-69.3,16.5-122.9,37.1-163.5,52.6
		c-47.1,18.1-99.4,40.3-99.4,40.3c-24.9,10.6-40.7,17.7-68.7,28.8c-31.1,12.3-56.9,21.5-66.4,24.7c-63.7,21.7-139.5,31.1-184.1,35.3
		c-18.2,1.3-33.7,1.6-45.8,1.5c-14.5-0.1-25-0.6-27.7-0.7c-12.6-0.7-24.2-1.5-32.9-2.5c2.3-0.2,4.1-0.4,6.4-0.6
		c9.6-0.9,18.8-2,27.6-3.1c18.5-2.4,35.1-5.3,49-8c5.6-1.1,13-2.7,21.7-4.6c9.6-2.2,20.8-5,33.2-8.3c18.2-4.9,32-9.3,37.5-11
		c24.2-7.8,42.3-15.1,63.4-23.7c59.6-24.4,65.8-28.2,112.7-47.2c5.6-2.3,24.1-10.1,42.3-17.2c18.1-7.1,35.7-13.4,38.7-14.5
		c16.2-6,28.3-9.9,35.8-12.6c6.6-2.4,78.9-28,156.3-42c7.1-1.3,14.2-2.6,21.4-3.7c15.3-2.3,41.8-6.6,77-8c7.2-0.3,14.8-0.5,22.7-0.5
		c14,0,27.2,0.4,38.1,1c9.6,0.6,17.4,1.2,22.6,1.7C1278.5,57.1,1280.8,57.4,1281.4,57.5z"/>
	<path id="_x30_1-1" class="st2" d="M1280.5,57.4c-18.5-1.1-44.1-1.5-74.4,1.2c-11.3,1-36.2,3.6-85.4,15
		c-21.7,5-65.2,15.6-122.5,34.7c-33.3,11.1-74.8,26.2-122,46.6c-17.8,7.6-43.8,18.6-75.5,31.6c-78.6,32.3-98.2,38.7-106.5,41.3
		c-9.6,3.1-48.9,15.3-101.7,24c-40.1,6.6-93.9,12.2-157.8,9.5c42.9-1.9,79-6.9,106.2-11.9c20.9-3.8,74-14.4,138.4-38.6
		c9.7-3.6,9.1-3.6,85.8-35.6c31.5-13.1,57.4-23.9,75-31.1c34.1-13.9,63.6-24.6,86.5-32.5c31.9-11,66.1-22.7,111.7-33.7
		c30.7-7.4,56.8-12.2,75.9-15.3c24.6-4.2,53.2-7.4,84.9-8.3C1229.4,53.4,1256.7,54.9,1280.5,57.4z"/>
</g>
</svg>
