<svg xmlns="http://www.w3.org/2000/svg" width="202" height="202" viewBox="0 0 202 202">
  <path class="fill-primary" d="M1896.19,253.232l-52.63-62.916c-1.2-.59-2.42-1.161-3.65-1.705l57.31,68.51C1896.9,255.815,1896.56,254.519,1896.19,253.232Zm3.33,17.249-72.35-86.5q-1.425-.412-2.88-0.783l75.5,90.248Q1899.67,271.96,1899.52,270.481Zm0.49,13.839-86.38-103.258c-0.83-.121-1.66-0.231-2.5-0.331l88.76,106.1Q1899.965,285.576,1900.01,284.32Zm-1.11,11.941-97.22-116.222q-1.125-.031-2.25-0.038l99.11,118.481Q1898.735,297.375,1898.9,296.261Zm-2.75,12.628c0.19-.663.37-1.328,0.55-2L1790.82,180.323c-0.1.008-.21,0.015-0.31,0.024l-1.11.925ZM1782.87,186.73l110.07,131.584c0.24-.6.48-1.206,0.7-1.814L1784.18,185.639Zm-6.53,5.459,112.71,134.733c0.28-.551.56-1.106,0.83-1.663L1777.65,191.1Zm-6.52,5.458L1884.56,334.82c0.32-.5.63-1.018,0.94-1.53L1771.12,196.556Zm-6.53,5.459,116.24,138.96q0.525-.7,1.05-1.4L1764.6,202.015Zm-6.53,5.458,117.25,140.161c0.38-.425.76-0.856,1.14-1.288L1758.07,207.472Zm-6.53,5.459,117.78,140.793c0.41-.388.83-0.775,1.24-1.17L1751.54,212.931Zm-6.52,5.458,117.84,140.878c0.45-.352.89-0.708,1.33-1.067l-117.87-140.9Zm-6.53,5.458,117.46,140.414c0.47-.315.95-0.63,1.42-0.952L1738.49,223.848Zm-6.53,5.459,116.6,139.39c0.51-.277,1.01-0.558,1.51-0.844l-116.8-139.638Zm-6.53,5.458L1839.38,373.64c0.54-.235,1.08-0.477,1.62-0.722L1725.43,234.765Zm-6.52,5.458,113.38,135.549c0.58-.192,1.16-0.387,1.73-0.59L1718.9,240.223Zm-6.53,5.459L1822.01,379.4c0.62-.144,1.23-0.294,1.85-0.449L1712.37,245.681Zm-6.53,5.459,107.85,128.927c0.66-.088,1.32-0.184,1.98-0.284L1705.85,251.14Zm-4.39,8.012,101.84,121.745c0.72-.02,1.43-0.049,2.15-0.084L1700.61,258.146C1700.45,258.843,1700.3,259.542,1700.15,260.244Zm-1.7,11.232,92.18,110.2c0.79,0.066,1.58.125,2.37,0.172L1698.7,269.12C1698.61,269.9,1698.53,270.688,1698.45,271.476Zm-0.41,12.773,79.95,95.57c0.88,0.187,1.77.361,2.66,0.524l-82.65-98.8C1698,282.446,1698.02,283.348,1698.04,284.249Zm1.63,15.208,63.63,76.07c1.05,0.394,2.1.769,3.17,1.13l-67.35-80.513C1699.29,297.253,1699.47,298.358,1699.67,299.457Zm6.18,20.654,38.22,45.68c1.48,0.966,3,1.895,4.54,2.784l-44.69-53.433C1704.52,316.818,1705.17,318.475,1705.85,320.111Z" transform="translate(-1698 -180)"/>
</svg>
