<?xml version="1.0" encoding="utf-8"?>
<!-- Generator: Adobe Illustrator 23.0.0, SVG Export Plug-In . SVG Version: 6.00 Build 0)  -->
<svg version="1.1" id="Layer_1" xmlns="http://www.w3.org/2000/svg" xmlns:xlink="http://www.w3.org/1999/xlink" x="0px" y="0px"
	 viewBox="0 0 64.47 64.49" height="264" width="164" style="enable-background:new 0 0 64.47 90.49;" xml:space="preserve">
<style type="text/css">
	<!-- .st0{fill:#303756;} -->
</style>
<path class="fill-dark" d="M24.95,90.95c0.32-0.02,1.1-0.04,1.74-0.03c0.64,0,1.29-0.03,1.47-0.06c0.17-0.04,0.43-0.08,0.58-0.1
	c1.6-0.15,2.33-0.3,3.8-0.74c0.98-0.29,1.46-0.48,2.22-0.88c0.34-0.18,0.8-0.4,1.01-0.5c0.52-0.24,1.33-0.86,2.7-2.05
	c1.32-1.16,1.92-1.8,2.83-3.02c0.19-0.25,0.42-0.53,0.5-0.62c0.08-0.08,0.31-0.43,0.51-0.76c0.2-0.33,0.5-0.83,0.66-1.11
	c0.17-0.28,0.37-0.67,0.45-0.87c0.08-0.2,0.26-0.58,0.4-0.85c0.14-0.27,0.26-0.52,0.26-0.57c0-0.13,0.56-1.32,0.96-2.06
	c0.19-0.36,0.49-0.97,0.66-1.37c0.17-0.4,0.4-0.91,0.51-1.14c0.11-0.23,0.26-0.63,0.33-0.89c0.12-0.45,0.34-0.81,0.94-1.53
	c0.15-0.18,0.4-0.53,0.55-0.76c0.46-0.71,2-2.32,2.73-2.84c0.23-0.16,0.43-0.34,0.45-0.39c0.02-0.05,0.35-0.23,0.72-0.4
	c0.37-0.16,0.95-0.46,1.27-0.66c0.32-0.2,0.81-0.43,1.1-0.52c0.28-0.09,0.71-0.3,0.94-0.47c0.24-0.17,0.6-0.34,0.82-0.4
	c0.42-0.1,1.58-0.76,2.24-1.27c0.24-0.18,0.56-0.4,0.71-0.49c0.15-0.09,0.67-0.55,1.15-1.03c0.48-0.48,1.01-1.01,1.18-1.17
	c0.17-0.16,0.43-0.53,0.59-0.83c0.16-0.3,0.34-0.62,0.41-0.72c0.19-0.29,0.74-1.3,0.98-1.81c0.2-0.44,0.43-1.3,0.55-2.11
	c0.03-0.18,0.14-0.65,0.26-1.05c0.17-0.58,0.22-0.96,0.27-1.89c0.13-2.56,0.11-4-0.09-4.93c-0.04-0.18-0.09-0.59-0.1-0.91
	c-0.04-0.74-0.21-1.48-0.76-3.4c-0.13-0.47-0.26-0.96-0.29-1.1c-0.02-0.14-0.1-0.4-0.17-0.59c-0.07-0.18-0.23-0.67-0.36-1.09
	c-0.13-0.42-0.32-0.91-0.43-1.08c-0.11-0.18-0.22-0.42-0.24-0.53c-0.07-0.37-0.25-0.78-0.44-1.04c-0.21-0.28-0.67-1.3-0.66-1.49
	c0-0.07-0.11-0.29-0.26-0.51c-0.14-0.21-0.36-0.61-0.48-0.87c-0.12-0.26-0.35-0.61-0.49-0.77c-0.28-0.31-0.58-0.77-0.92-1.41
	c-0.11-0.2-0.38-0.59-0.61-0.87c-0.23-0.28-0.49-0.61-0.58-0.74c-0.09-0.13-0.36-0.43-0.61-0.68c-0.25-0.25-0.53-0.56-0.65-0.71
	c-0.25-0.33-1.77-1.7-2.34-2.12c-0.23-0.17-0.6-0.4-0.82-0.51c-0.22-0.11-0.58-0.37-0.79-0.56c-0.45-0.41-0.76-0.63-1.02-0.71
	c-0.1-0.03-0.32-0.17-0.49-0.3c-0.44-0.35-1.61-1.1-1.97-1.27c-0.31-0.14-0.98-0.61-1.59-1.12c-0.19-0.16-0.47-0.36-0.62-0.46
	c-0.15-0.09-0.52-0.41-0.83-0.7c-0.31-0.29-0.58-0.56-0.61-0.58c-0.33-0.29-2.1-2.17-2.18-2.32c-0.06-0.11-0.2-0.31-0.33-0.44
	c-0.12-0.13-0.28-0.35-0.34-0.48c-0.06-0.13-0.28-0.44-0.48-0.68c-0.2-0.24-0.48-0.6-0.62-0.81c-0.13-0.2-0.5-0.68-0.81-1.07
	c-0.32-0.39-0.67-0.9-0.79-1.14c-0.27-0.54-0.7-1.2-0.93-1.4c-0.09-0.08-0.26-0.35-0.38-0.59s-0.32-0.56-0.46-0.7
	c-0.31-0.32-0.66-0.83-0.94-1.38c-0.12-0.23-0.29-0.5-0.39-0.6c-0.17-0.18-0.42-0.54-0.74-1.07c-0.08-0.13-0.26-0.39-0.39-0.56
	c-0.13-0.18-0.4-0.58-0.59-0.89c-0.19-0.31-0.44-0.68-0.56-0.83c-0.27-0.32-0.61-0.8-0.82-1.15c-0.09-0.15-0.3-0.42-0.46-0.6
	c-0.16-0.18-0.42-0.49-0.56-0.67c-0.14-0.18-0.39-0.5-0.55-0.7c-0.49-0.63-1.75-1.73-2.44-2.13C29.25,1.65,29,1.49,28.87,1.39
	c-0.31-0.23-1.72-0.75-2.9-1.07c-0.83-0.23-1.5-0.29-3.5-0.31c-1.86-0.02-2.65,0.05-3.58,0.33c-0.25,0.07-0.75,0.22-1.13,0.33
	c-0.38,0.11-0.82,0.28-0.98,0.37c-0.16,0.09-0.38,0.2-0.47,0.23c-0.1,0.03-0.34,0.14-0.54,0.25c-0.2,0.11-0.48,0.26-0.64,0.34
	c-0.43,0.21-1.9,1.5-2.09,1.83c-0.09,0.16-0.28,0.42-0.42,0.58c-0.39,0.44-0.91,1.2-0.98,1.44c-0.03,0.12-0.16,0.4-0.29,0.62
	c-0.12,0.22-0.27,0.59-0.33,0.83c-0.06,0.24-0.24,0.76-0.4,1.16c-0.44,1.1-0.64,2.14-0.69,3.65l-0.04,1.27l0.29,0.93
	c0.16,0.51,0.33,1,0.37,1.08c0.05,0.08,0.13,0.29,0.17,0.48c0.13,0.48,0.61,1.3,1.27,2.16c1.09,1.43,1.44,1.86,1.74,2.15
	c0.17,0.16,0.39,0.47,0.48,0.68c0.09,0.21,0.3,0.53,0.47,0.71c0.4,0.44,0.78,0.98,0.99,1.43c0.09,0.2,0.3,0.52,0.46,0.71
	c0.16,0.19,0.36,0.55,0.46,0.81c0.09,0.26,0.26,0.61,0.37,0.79c0.11,0.18,0.22,0.41,0.25,0.51c0.03,0.1,0.13,0.31,0.23,0.47
	c0.19,0.31,0.4,0.66,0.64,1.12c0.09,0.16,0.2,0.49,0.24,0.73c0.05,0.24,0.17,0.62,0.28,0.85c0.11,0.22,0.24,0.52,0.29,0.66
	c0.05,0.14,0.19,0.4,0.3,0.56c0.11,0.17,0.2,0.34,0.2,0.39c0,0.07,0.51,1.13,0.85,1.77c0.08,0.14,0.2,0.41,0.27,0.59
	c0.07,0.18,0.21,0.44,0.3,0.58c0.23,0.34,0.69,1.2,1.1,2.07c0.43,0.91,0.76,1.42,1.47,2.31c0.31,0.39,0.62,0.81,0.68,0.93
	c0.06,0.12,0.41,0.48,0.78,0.8c2.12,1.85,2.23,1.93,3.66,2.5c0.42,0.17,0.93,0.39,1.14,0.48c0.21,0.1,0.64,0.25,0.95,0.34
	c0.76,0.22,1.06,0.32,1.78,0.61c0.33,0.13,0.75,0.26,0.91,0.29c0.17,0.03,0.48,0.11,0.69,0.19c0.21,0.08,0.62,0.22,0.91,0.31
	c1.07,0.33,1.97,0.86,2.27,1.33c0.11,0.18,0.31,0.41,0.45,0.52c0.14,0.11,0.36,0.41,0.48,0.64c0.12,0.24,0.29,0.56,0.36,0.7
	c0.26,0.5,0.49,1.68,0.47,2.38c-0.05,1.53-0.14,2.06-0.46,2.68c-0.16,0.32-0.38,0.68-0.49,0.82c-0.11,0.14-0.2,0.3-0.2,0.35
	c0,0.05-0.09,0.15-0.19,0.21c-0.18,0.11-0.23,0.1-0.63-0.02c-1.39-0.42-2.22-0.69-2.41-0.79c-0.12-0.06-0.38-0.16-0.57-0.21
	c-0.39-0.11-1.27-0.47-1.87-0.76c-0.21-0.1-0.69-0.31-1.07-0.46c-0.38-0.15-0.82-0.34-0.99-0.42c-0.17-0.08-0.53-0.23-0.81-0.33
	c-0.28-0.11-0.59-0.24-0.69-0.31c-0.1-0.06-0.49-0.22-0.86-0.35c-0.37-0.13-0.75-0.27-0.83-0.32c-0.09-0.05-0.38-0.14-0.65-0.22
	c-0.28-0.08-0.68-0.21-0.92-0.29c-0.48-0.18-1.73-0.58-2.44-0.8c-1.21-0.36-3.23-0.48-4.6-0.28c-0.96,0.15-1.56,0.36-2.27,0.82
	c-0.28,0.18-0.64,0.4-0.79,0.48c-0.59,0.32-1.9,1.95-2.44,3.04c-0.13,0.25-0.4,0.67-0.59,0.92c-0.19,0.24-0.46,0.66-0.59,0.9
	c-0.29,0.56-0.67,1.13-1.12,1.64c-0.19,0.22-0.56,0.66-0.83,0.97c-0.91,1.08-1.36,1.58-2.07,2.29c-0.39,0.39-0.76,0.79-0.81,0.88
	c-0.06,0.09-0.33,0.38-0.59,0.63c-0.73,0.7-1.04,1.04-1.29,1.45c-0.13,0.21-0.39,0.53-0.59,0.72c-0.48,0.46-1.09,1.22-1.29,1.59
	c-0.09,0.16-0.29,0.45-0.44,0.63c-0.36,0.42-1.51,2.54-1.51,2.8c0,0.07-0.09,0.34-0.21,0.61c-0.37,0.9-0.55,1.63-0.58,2.27
	c-0.01,0.34-0.07,0.79-0.12,1c-0.14,0.53-0.14,2.93-0.01,3.42c0.06,0.2,0.12,0.51,0.14,0.69c0.15,1.3,1.46,4.8,2.13,5.65
	c0.05,0.06,0.14,0.27,0.21,0.46c0.07,0.19,0.28,0.52,0.47,0.75c0.19,0.22,0.5,0.6,0.68,0.83C4.53,84.8,5.24,85.5,6,86.04
	c0.57,0.4,1.48,0.94,1.86,1.11c0.18,0.08,0.52,0.27,0.72,0.41c0.21,0.14,0.56,0.35,0.79,0.45c0.48,0.23,1.86,0.7,2.33,0.81
	c0.19,0.04,0.76,0.2,1.26,0.36c1.23,0.38,1.87,0.54,2.56,0.66c0.31,0.06,0.82,0.15,1.11,0.21c0.29,0.06,0.79,0.14,1.11,0.17
	c0.31,0.03,0.78,0.1,1.03,0.16c0.25,0.06,0.7,0.11,1,0.12c0.29,0.01,0.7,0.07,0.88,0.13c0.2,0.07,0.7,0.14,1.19,0.17
	c0.47,0.03,1.03,0.08,1.26,0.12C23.55,91,24.03,91.01,24.95,90.95L24.95,90.95z"/>
<path class="fill-blue" opacity="0.3" d="M24.95,90.95c0.32-0.02,1.1-0.04,1.74-0.03c0.64,0,1.29-0.03,1.47-0.06c0.17-0.04,0.43-0.08,0.58-0.1
	c1.6-0.15,2.33-0.3,3.8-0.74c0.98-0.29,1.46-0.48,2.22-0.88c0.34-0.18,0.8-0.4,1.01-0.5c0.52-0.24,1.33-0.86,2.7-2.05
	c1.32-1.16,1.92-1.8,2.83-3.02c0.19-0.25,0.42-0.53,0.5-0.62c0.08-0.08,0.31-0.43,0.51-0.76c0.2-0.33,0.5-0.83,0.66-1.11
	c0.17-0.28,0.37-0.67,0.45-0.87c0.08-0.2,0.26-0.58,0.4-0.85c0.14-0.27,0.26-0.52,0.26-0.57c0-0.13,0.56-1.32,0.96-2.06
	c0.19-0.36,0.49-0.97,0.66-1.37c0.17-0.4,0.4-0.91,0.51-1.14c0.11-0.23,0.26-0.63,0.33-0.89c0.12-0.45,0.34-0.81,0.94-1.53
	c0.15-0.18,0.4-0.53,0.55-0.76c0.46-0.71,2-2.32,2.73-2.84c0.23-0.16,0.43-0.34,0.45-0.39c0.02-0.05,0.35-0.23,0.72-0.4
	c0.37-0.16,0.95-0.46,1.27-0.66c0.32-0.2,0.81-0.43,1.1-0.52c0.28-0.09,0.71-0.3,0.94-0.47c0.24-0.17,0.6-0.34,0.82-0.4
	c0.42-0.1,1.58-0.76,2.24-1.27c0.24-0.18,0.56-0.4,0.71-0.49c0.15-0.09,0.67-0.55,1.15-1.03c0.48-0.48,1.01-1.01,1.18-1.17
	c0.17-0.16,0.43-0.53,0.59-0.83c0.16-0.3,0.34-0.62,0.41-0.72c0.19-0.29,0.74-1.3,0.98-1.81c0.2-0.44,0.43-1.3,0.55-2.11
	c0.03-0.18,0.14-0.65,0.26-1.05c0.17-0.58,0.22-0.96,0.27-1.89c0.13-2.56,0.11-4-0.09-4.93c-0.04-0.18-0.09-0.59-0.1-0.91
	c-0.04-0.74-0.21-1.48-0.76-3.4c-0.13-0.47-0.26-0.96-0.29-1.1c-0.02-0.14-0.1-0.4-0.17-0.59c-0.07-0.18-0.23-0.67-0.36-1.09
	c-0.13-0.42-0.32-0.91-0.43-1.08c-0.11-0.18-0.22-0.42-0.24-0.53c-0.07-0.37-0.25-0.78-0.44-1.04c-0.21-0.28-0.67-1.3-0.66-1.49
	c0-0.07-0.11-0.29-0.26-0.51c-0.14-0.21-0.36-0.61-0.48-0.87c-0.12-0.26-0.35-0.61-0.49-0.77c-0.28-0.31-0.58-0.77-0.92-1.41
	c-0.11-0.2-0.38-0.59-0.61-0.87c-0.23-0.28-0.49-0.61-0.58-0.74c-0.09-0.13-0.36-0.43-0.61-0.68c-0.25-0.25-0.53-0.56-0.65-0.71
	c-0.25-0.33-1.77-1.7-2.34-2.12c-0.23-0.17-0.6-0.4-0.82-0.51c-0.22-0.11-0.58-0.37-0.79-0.56c-0.45-0.41-0.76-0.63-1.02-0.71
	c-0.1-0.03-0.32-0.17-0.49-0.3c-0.44-0.35-1.61-1.1-1.97-1.27c-0.31-0.14-0.98-0.61-1.59-1.12c-0.19-0.16-0.47-0.36-0.62-0.46
	c-0.15-0.09-0.52-0.41-0.83-0.7c-0.31-0.29-0.58-0.56-0.61-0.58c-0.33-0.29-2.1-2.17-2.18-2.32c-0.06-0.11-0.2-0.31-0.33-0.44
	c-0.12-0.13-0.28-0.35-0.34-0.48c-0.06-0.13-0.28-0.44-0.48-0.68c-0.2-0.24-0.48-0.6-0.62-0.81c-0.13-0.2-0.5-0.68-0.81-1.07
	c-0.32-0.39-0.67-0.9-0.79-1.14c-0.27-0.54-0.7-1.2-0.93-1.4c-0.09-0.08-0.26-0.35-0.38-0.59s-0.32-0.56-0.46-0.7
	c-0.31-0.32-0.66-0.83-0.94-1.38c-0.12-0.23-0.29-0.5-0.39-0.6c-0.17-0.18-0.42-0.54-0.74-1.07c-0.08-0.13-0.26-0.39-0.39-0.56
	c-0.13-0.18-0.4-0.58-0.59-0.89c-0.19-0.31-0.44-0.68-0.56-0.83c-0.27-0.32-0.61-0.8-0.82-1.15c-0.09-0.15-0.3-0.42-0.46-0.6
	c-0.16-0.18-0.42-0.49-0.56-0.67c-0.14-0.18-0.39-0.5-0.55-0.7c-0.49-0.63-1.75-1.73-2.44-2.13C29.25,1.65,29,1.49,28.87,1.39
	c-0.31-0.23-1.72-0.75-2.9-1.07c-0.83-0.23-1.5-0.29-3.5-0.31c-1.86-0.02-2.65,0.05-3.58,0.33c-0.25,0.07-0.75,0.22-1.13,0.33
	c-0.38,0.11-0.82,0.28-0.98,0.37c-0.16,0.09-0.38,0.2-0.47,0.23c-0.1,0.03-0.34,0.14-0.54,0.25c-0.2,0.11-0.48,0.26-0.64,0.34
	c-0.43,0.21-1.9,1.5-2.09,1.83c-0.09,0.16-0.28,0.42-0.42,0.58c-0.39,0.44-0.91,1.2-0.98,1.44c-0.03,0.12-0.16,0.4-0.29,0.62
	c-0.12,0.22-0.27,0.59-0.33,0.83c-0.06,0.24-0.24,0.76-0.4,1.16c-0.44,1.1-0.64,2.14-0.69,3.65l-0.04,1.27l0.29,0.93
	c0.16,0.51,0.33,1,0.37,1.08c0.05,0.08,0.13,0.29,0.17,0.48c0.13,0.48,0.61,1.3,1.27,2.16c1.09,1.43,1.44,1.86,1.74,2.15
	c0.17,0.16,0.39,0.47,0.48,0.68c0.09,0.21,0.3,0.53,0.47,0.71c0.4,0.44,0.78,0.98,0.99,1.43c0.09,0.2,0.3,0.52,0.46,0.71
	c0.16,0.19,0.36,0.55,0.46,0.81c0.09,0.26,0.26,0.61,0.37,0.79c0.11,0.18,0.22,0.41,0.25,0.51c0.03,0.1,0.13,0.31,0.23,0.47
	c0.19,0.31,0.4,0.66,0.64,1.12c0.09,0.16,0.2,0.49,0.24,0.73c0.05,0.24,0.17,0.62,0.28,0.85c0.11,0.22,0.24,0.52,0.29,0.66
	c0.05,0.14,0.19,0.4,0.3,0.56c0.11,0.17,0.2,0.34,0.2,0.39c0,0.07,0.51,1.13,0.85,1.77c0.08,0.14,0.2,0.41,0.27,0.59
	c0.07,0.18,0.21,0.44,0.3,0.58c0.23,0.34,0.69,1.2,1.1,2.07c0.43,0.91,0.76,1.42,1.47,2.31c0.31,0.39,0.62,0.81,0.68,0.93
	c0.06,0.12,0.41,0.48,0.78,0.8c2.12,1.85,2.23,1.93,3.66,2.5c0.42,0.17,0.93,0.39,1.14,0.48c0.21,0.1,0.64,0.25,0.95,0.34
	c0.76,0.22,1.06,0.32,1.78,0.61c0.33,0.13,0.75,0.26,0.91,0.29c0.17,0.03,0.48,0.11,0.69,0.19c0.21,0.08,0.62,0.22,0.91,0.31
	c1.07,0.33,1.97,0.86,2.27,1.33c0.11,0.18,0.31,0.41,0.45,0.52c0.14,0.11,0.36,0.41,0.48,0.64c0.12,0.24,0.29,0.56,0.36,0.7
	c0.26,0.5,0.49,1.68,0.47,2.38c-0.05,1.53-0.14,2.06-0.46,2.68c-0.16,0.32-0.38,0.68-0.49,0.82c-0.11,0.14-0.2,0.3-0.2,0.35
	c0,0.05-0.09,0.15-0.19,0.21c-0.18,0.11-0.23,0.1-0.63-0.02c-1.39-0.42-2.22-0.69-2.41-0.79c-0.12-0.06-0.38-0.16-0.57-0.21
	c-0.39-0.11-1.27-0.47-1.87-0.76c-0.21-0.1-0.69-0.31-1.07-0.46c-0.38-0.15-0.82-0.34-0.99-0.42c-0.17-0.08-0.53-0.23-0.81-0.33
	c-0.28-0.11-0.59-0.24-0.69-0.31c-0.1-0.06-0.49-0.22-0.86-0.35c-0.37-0.13-0.75-0.27-0.83-0.32c-0.09-0.05-0.38-0.14-0.65-0.22
	c-0.28-0.08-0.68-0.21-0.92-0.29c-0.48-0.18-1.73-0.58-2.44-0.8c-1.21-0.36-3.23-0.48-4.6-0.28c-0.96,0.15-1.56,0.36-2.27,0.82
	c-0.28,0.18-0.64,0.4-0.79,0.48c-0.59,0.32-1.9,1.95-2.44,3.04c-0.13,0.25-0.4,0.67-0.59,0.92c-0.19,0.24-0.46,0.66-0.59,0.9
	c-0.29,0.56-0.67,1.13-1.12,1.64c-0.19,0.22-0.56,0.66-0.83,0.97c-0.91,1.08-1.36,1.58-2.07,2.29c-0.39,0.39-0.76,0.79-0.81,0.88
	c-0.06,0.09-0.33,0.38-0.59,0.63c-0.73,0.7-1.04,1.04-1.29,1.45c-0.13,0.21-0.39,0.53-0.59,0.72c-0.48,0.46-1.09,1.22-1.29,1.59
	c-0.09,0.16-0.29,0.45-0.44,0.63c-0.36,0.42-1.51,2.54-1.51,2.8c0,0.07-0.09,0.34-0.21,0.61c-0.37,0.9-0.55,1.63-0.58,2.27
	c-0.01,0.34-0.07,0.79-0.12,1c-0.14,0.53-0.14,2.93-0.01,3.42c0.06,0.2,0.12,0.51,0.14,0.69c0.15,1.3,1.46,4.8,2.13,5.65
	c0.05,0.06,0.14,0.27,0.21,0.46c0.07,0.19,0.28,0.52,0.47,0.75c0.19,0.22,0.5,0.6,0.68,0.83C4.53,84.8,5.24,85.5,6,86.04
	c0.57,0.4,1.48,0.94,1.86,1.11c0.18,0.08,0.52,0.27,0.72,0.41c0.21,0.14,0.56,0.35,0.79,0.45c0.48,0.23,1.86,0.7,2.33,0.81
	c0.19,0.04,0.76,0.2,1.26,0.36c1.23,0.38,1.87,0.54,2.56,0.66c0.31,0.06,0.82,0.15,1.11,0.21c0.29,0.06,0.79,0.14,1.11,0.17
	c0.31,0.03,0.78,0.1,1.03,0.16c0.25,0.06,0.7,0.11,1,0.12c0.29,0.01,0.7,0.07,0.88,0.13c0.2,0.07,0.7,0.14,1.19,0.17
	c0.47,0.03,1.03,0.08,1.26,0.12C23.55,91,24.03,91.01,24.95,90.95L24.95,90.95z"/>
</svg>
