<?xml version="1.0" encoding="utf-8"?>
<!-- Generator: Adobe Illustrator 23.0.0, SVG Export Plug-In . SVG Version: 6.00 Build 0)  -->
<svg version="1.1" id="Layer_1" xmlns="http://www.w3.org/2000/svg" xmlns:xlink="http://www.w3.org/1999/xlink" x="0px" y="0px"
	 viewBox="0 0 156.18 103.02" height="400" width="350" style="enable-background:new 0 0 156.18 103.02;" xml:space="preserve">
<style type="text/css">
	<!-- .st0{fill:#f00;} -->
</style>
<g id="XMLID_3_">
	<path id="XMLID_9424_" class="fill-dark" d="M64.41,25.25c0.43,0.66,0.03,1.97,1.47,1.71c0.19-0.03,0.47,0.51,0.72,0.78
		c0.25,0.27,0.57,0.65,0.9,0.28c0.3-0.34,0.58-0.84,0.08-1.29c-0.63-0.58-1.29-1.14-1.91-1.73c-1.14-1.09-1.2-1.29-0.53-2.71
		c0.49-1.05,1.11-2.04,1.45-3.17c0.15-0.51,0.32-1.04-0.37-1.16c-0.49-0.09-0.73,0.3-0.79,0.81c-0.16,1.44-1.11,2.54-1.62,3.94
		c-1.49-1.12-2.05-2.76-3.13-4c-0.83,1.22-0.84,1.47-0.04,2.59c0.55,0.77,0.89,1.74,2.05,1.94c0.49,0.08,0.55,0.56,0.33,1.04
		c-0.26,0.56-0.46,1.13-0.9,1.59c-0.29,0.31-0.55,0.66-0.74,1.04c-0.16,0.32,0.05,0.59,0.34,0.75c0.34,0.18,0.57,0.05,0.71-0.3
		c0.11-0.28,0.29-0.55,0.36-0.84C63,25.65,63.67,25.45,64.41,25.25z"/>
	<path id="XMLID_9422_" class="fill-dark" d="M52.3,18.12c-0.86-0.62-0.98-1.81-1.83-2.45c-0.44,0.76-1.16,1.48-0.02,2.2
		c-0.73,0.92,0.17,1.23,0.64,1.68c0.31,0.3,0.42,0.74,0.26,1.01c-0.62,1.02-0.4,2.39-1.37,3.24c-0.53,0.46-0.39,0.86,0.07,1.2
		c0.44,0.33,0.58-0.13,0.84-0.36c0.98-0.88,0.79-2.26,1.42-3.28c0.73-0.11,1,0.47,1.28,0.88c0.86,1.25,2.25,2.11,2.73,3.65
		c0.06,0.18,0.32,0.41,0.6,0.25c0.23-0.14,0.3-0.38,0.22-0.64c-0.11-0.35-0.14-0.79-0.38-1.02c-1.25-1.2-1.79-2.92-3.06-4.09
		c-0.67-0.62-0.72-1.35-0.28-2.17c0.5-0.91,0.93-1.86,1.4-2.79c0.11-0.23,0.21-0.45-0.02-0.65c-0.3-0.27-0.57-0.11-0.81,0.09
		c-0.43,0.37-0.66,0.86-0.88,1.38C52.85,16.86,52.85,17.59,52.3,18.12z"/>
	<path id="XMLID_9378_" class="fill-dark" d="M75.15,81.23c-1.23,1.21-1.65,2.74-2.94,3.61c-1.26-0.98-2.08-2.36-3.24-3.49
		c-0.46,0.71-0.22,1.14,0.19,1.58c0.61,0.68,1.15,1.43,1.77,2.11c0.52,0.58,0.53,1.07-0.08,1.55c-0.63,0.5-1.29,0.92-0.67,1.92
		c0.23,0.37-0.45,0.86-0.16,1.54c0.73-1.05,2.1-1.03,2.8-2.07c0.88,0.46,1.12,1.34,1.68,1.96c0.21,0.23,0.52,0.35,0.81,0.12
		c0.23-0.19,0.16-0.46,0.05-0.67c-0.31-0.6-0.59-1.21-0.97-1.76c-1.15-1.68-1.2-2.07,0.16-3.45C75.36,83.34,75.53,82.49,75.15,81.23
		z"/>
	<path id="XMLID_9367_" class="fill-dark" d="M151.26,99.87c0.62,0.36,0.87,0.99,1.14,1.6c0.1,0.22,0.1,0.49,0.22,0.7
		c0.31,0.52,0.78,0.89,1.36,0.52c0.5-0.32,0.37-0.82,0.08-1.29c-0.45-0.72-0.81-1.51-1.31-2.19c-0.47-0.63-0.41-1.08,0.18-1.55
		c0.48-0.38,0.94-0.79,1.55-1.3c-0.76-0.39-1.35-0.95-1.79-0.85c-0.56,0.13-1,0.8-1.49,1.24c-2.35-2.97-2.35-2.97-3.81-2.47
		c0.77,1.03,1.51,2.06,2.29,3.05c0.88,1.11,0.91,1.35,0.14,2.55c-0.16,0.26-0.33,0.51-0.51,0.75c-0.25,0.33-0.36,0.72,0.03,0.95
		c0.4,0.22,0.88,0.13,1.09-0.33C150.67,100.76,150.72,100.18,151.26,99.87z"/>
	<path id="XMLID_9362_" class="fill-dark" d="M82.84,31.47c-0.9,0.4-1.29,1.54-2.3,0.73c-0.24-0.19-0.8,0.31-0.76,0.81
		c0.05,0.71-0.2,1.32-0.5,1.97c-0.96-0.3-1.34-1.39-2.48-1.87c0.29,1.13,0.98,1.83,1.4,2.61c0.44,0.83,0.48,1.44,0.1,2.21
		c-0.38,0.77-0.75,1.54-1.12,2.32c-0.14,0.29-0.23,0.61,0.14,0.78c0.28,0.12,0.65,0.13,0.83-0.16c0.25-0.41,0.39-0.9,0.63-1.32
		c0.3-0.53,0.07-1.25,0.76-1.78c0.87,0.56,1.29,1.49,1.78,2.36c0.33,0.59,0.6,1.23,1.21,1.58c0.31,0.18,0.73,0.31,1-0.05
		c0.22-0.28,0.01-0.58-0.17-0.83c-0.87-1.19-1.71-2.4-2.63-3.54c-0.5-0.62-0.54-1.09-0.08-1.78C81.45,34.31,82.24,33.1,82.84,31.47z
		"/>
	<path id="XMLID_9345_" class="fill-dark" d="M51.17,33.39c1.4,1.27,2.1,3.1,4.07,4.16c-0.44-2.1-1.4-3.51-2.6-4.75
		c-0.72-0.74-0.7-1.34-0.29-2.26c0.59-1.31,1.71-2.37,1.99-3.94c-0.53-0.04-0.63,0.29-0.8,0.58c-0.49,0.85-0.95,1.72-1.53,2.51
		c-0.91,1.26-1.12,1.24-2.12-0.03c-0.34-0.43-0.64-0.9-0.97-1.34c-0.31-0.42-0.44-0.98-1.12-1.36c0.09,1.67,1.09,2.75,1.86,3.82
		c0.72,1,0.7,1.73,0.06,2.63c-0.25,0.35-0.46,0.72-0.7,1.08c-0.71,1.07-0.71,1.07,0.46,2.18C50.03,35.63,50.55,34.61,51.17,33.39z"
		/>
	<path id="XMLID_9325_" class="fill-dark" d="M87.1,44.11c-0.4,1.17-1.19,2.14-1.83,3.33c-0.71-0.26-0.98-0.93-1.48-1.32
		c-0.43-0.34-0.71-0.84-1.24-1.07c-0.37-0.16-0.73-0.23-1,0.11c-0.27,0.34,0.08,0.52,0.27,0.74c0.78,0.94,1.54,1.89,2.34,2.82
		c0.36,0.42,0.5,0.85,0.23,1.34c-0.68,1.21-0.53,2.5-0.45,4.13c0.84-1.31,1.37-2.39,1.49-3.77c0.82,0.51,1.24,1.18,1.73,1.79
		c0.46,0.57,0.97,1.11,1.67,1.4c0.3,0.12,0.66,0.14,0.84-0.14c0.19-0.3,0-0.59-0.31-0.74c-1.44-0.73-2.23-2.02-2.98-3.38
		c-0.33-0.6-0.36-1.08-0.06-1.71c0.47-0.98,0.81-2.02,1.18-3.05C87.58,44.4,87.47,44.23,87.1,44.11z"/>
	<path id="XMLID_9322_" class="fill-dark" d="M23.04,93.79c-0.13,0.11-0.31,0.19-0.38,0.33c-0.99,1.88-1.33,1.94-2.79,0.42
		c-0.21-0.22-0.35-0.51-0.69-0.56c-0.05-0.01-0.11,0.02-0.35,0.08c0.68,0.88,0.75,2.08,1.82,2.64c0.7,0.37,0.76,0.82,0.44,1.51
		c-0.39,0.82-0.7,1.69-1.01,2.55c-0.09,0.24-0.01,0.5,0.24,0.62c0.25,0.11,0.56,0.01,0.66-0.18c0.27-0.47,0.47-0.99,0.69-1.49
		c0.59-1.37,0.73-1.38,1.81-0.28c0.73,0.74,1.5,1.43,2.24,2.17c0.28,0.28,0.58,0.42,0.98,0.35c0.35-0.06,0.8,0.02,0.93-0.41
		c0.1-0.34-0.21-0.52-0.44-0.72c-1.13-1.03-2.21-2.12-3.4-3.08c-0.8-0.65-1-1.29-0.59-2.23C23.43,94.95,23.72,94.33,23.04,93.79z"/>
	<path id="XMLID_9309_" class="fill-dark" d="M29.37,47.59c0.11,1.4,1.09,2.31,1.96,3.23c0.71,0.75,0.84,1.42,0.34,2.28
		c-0.54,0.92-0.65,2.04-1.43,2.89c0.97-0.09,1.87-0.11,1.96-1.37c0.04-0.61,0.31-1.18,0.85-1.55c0.59,0.2,0.8,0.77,1.12,1.19
		c0.64,0.84,1.93,0.81,2.36,1.9c0.06,0.16,0.46,0.16,0.64-0.07c0.12-0.15,0.08-0.33-0.05-0.49c-0.83-1.05-1.6-2.16-2.51-3.15
		c-0.75-0.82-1.01-1.53-0.43-2.6c0.31-0.57,0.77-1.26,0.4-2.11c-0.92,0.28-0.87,1.17-1.22,1.75c-0.34,0.58-0.61,0.64-1.12,0.19
		c-0.9-0.79-1.52-1.98-2.92-2.06L29.37,47.59z"/>
	<path id="XMLID_9277_" class="fill-dark" d="M94.22,74.48c0.72,1.02,1.32,1.85,1.9,2.69c0.19,0.28,0.44,0.5,0.75,0.36
		c0.42-0.19,0.38-0.62,0.21-0.94c-0.31-0.59-0.66-1.17-1.07-1.7c-0.38-0.5-0.42-0.91-0.15-1.5c0.62-1.36,1.01-2.82,2.16-4.36
		c-1.19,0.35-1.75,1.29-2.76,0.94c-0.24-0.08-0.6,0.36-0.74,0.73c-0.16,0.44-0.14,0.96-0.64,1.38c-0.82-1.05-1.62-2.1-2.56-3.31
		c-0.31,0.91,0.19,1.4,0.49,1.91c0.25,0.41,0.65,0.73,0.92,1.13c0.93,1.33,0.9,1.46,0.01,2.75c-0.34,0.5-1.27,1.11-0.44,1.65
		c1.01,0.65,0.97-0.66,1.39-1.12C93.83,74.97,93.93,74.82,94.22,74.48z"/>
	<path id="XMLID_9276_" class="fill-dark" d="M92.89,82.99c-0.96-0.35-1.3-1.4-2.04-1.94c-0.58,0.03-0.2,1.01-0.95,0.66
		c0.09,0.55,0.46,0.67,0.74,0.88c1.87,1.33,1.94,1.54,1.1,3.76c-0.2,0.53-0.25,0.93,0.35,1.22c0.48,0.22,0.9,0.4,1.2-0.25
		c0.09-0.2,0.24-0.44,0.72-0.38c0.49,0.91,1.17,1.8,2.39,2.09c0.32,0.08,0.61,0.55,0.93,0.11c0.27-0.37-0.04-0.7-0.26-0.98
		c-0.61-0.77-1.22-1.54-1.87-2.28c-0.64-0.72-1.14-1.41-0.51-2.43c0.3-0.49,0.59-1.07-0.32-1.49c-1.15-0.53-0.97,0.5-1.3,0.95
		C93.03,82.94,92.97,82.95,92.89,82.99z"/>
	<path id="XMLID_9274_" class="fill-dark" d="M67.13,41.27c1.23-1.01,1.05-2.7,2.17-3.71c0.74,0.82,1.44,1.67,2.22,2.45
		c0.8,0.8,0.41,2.13,1.44,3.11c0.23-1.29,0.3-2.26-0.44-3.21c-0.64-0.82-1.07-1.82-1.78-2.56c-1.14-1.19-0.75-2.29-0.1-3.46
		c0.09-0.15,0.29-0.23,0.39-0.38c0.27-0.42,0.5-0.97,0-1.27c-0.43-0.26-0.76,0.17-0.96,0.59c-0.29,0.59-0.6,1.18-0.99,1.95
		c-0.85-1.31-2.45-0.69-3.28-1.92c-0.07,0.12-0.13,0.24-0.2,0.36c0.55,0.5,1.1,1.01,1.66,1.5c1.38,1.2,1.6,1.81,0.54,3.26
		C67.02,39,66.81,39.96,67.13,41.27z"/>
	<path id="XMLID_9269_" class="fill-dark" d="M10.39,2.39c-1.15,0.7-1.33,1.91-2,2.94C7.55,4.76,6.74,4.26,6.11,3.5
		c-0.17-0.2-0.48-0.48-0.76-0.12C5.18,3.59,5.27,3.84,5.46,4.03c0.29,0.31,0.57,0.64,0.87,0.95c1.7,1.82,1.73,2.79,0.03,4.79
		c0.78,0.17,0.61,1.24,1.61,1.42c0.19-0.62,0.36-1.24,0.57-1.85c0.37-1.06,0.72-1.15,1.5-0.33c0.55,0.58,0.98,1.26,1.51,1.85
		c0.27,0.3,0.66,0.71,1.09,0.29c0.34-0.34,0-0.7-0.26-0.93c-0.93-0.83-1.47-1.97-2.31-2.86c-0.59-0.62-0.64-1.22-0.38-2
		C9.99,4.4,10.16,3.38,10.39,2.39z"/>
	<path id="XMLID_9251_" class="fill-dark" d="M78.14,55.89c0.25-0.45,0.17-0.67,0-0.86c-0.46-0.5-0.91-1-1.39-1.47
		c-2.49-2.42-2.54-2.77-0.75-5.79c0.15-0.26,0.44-0.44,0.36-0.8c-0.01-0.05-0.05-0.1-0.14-0.25c-0.85,0.21-1.67,0.3-1.63,1.6
		c0.02,0.7-0.29,1.44-0.82,2.02c-1.46-0.48-2.02-2.27-3.8-2.61c0.29,1.47,0.64,2.56,2.18,3.05c1.18,0.38,1.31,1.02,0.82,2.18
		c-0.19,0.45-0.44,0.88-0.66,1.32c-0.26,0.5,0.14,0.66,0.46,0.8c0.32,0.15,0.59,0.03,0.7-0.34c0.02-0.06,0.01-0.13,0.05-0.18
		c0.41-0.57-0.03-1.72,0.89-1.81c0.74-0.07,1.04,0.95,1.62,1.39C76.73,54.68,77.18,55.57,78.14,55.89z"/>
	<path id="XMLID_9243_" class="fill-dark" d="M4,47.34c2.31,0.12,2.15-1.71,2.86-2.88c1.31,0.92,2.46,1.93,3.53,3.21
		c0.74-0.74,0.37-1.4-0.06-1.95c-0.6-0.77-1.25-1.52-2-2.14c-0.82-0.67-0.72-1.31-0.23-2.06c0.34-0.51,0.7-1,1.03-1.51
		c0.2-0.32,0.32-0.66-0.05-1.07c-1.19,0.62-1.35,2.09-2.22,2.9c-1.39-0.15-1.63-2.21-3.52-1.91c0.68,1.15,1.42,1.92,2.15,2.69
		c0.53,0.56,0.7,1.09,0.29,1.8C5.27,45.34,5.02,46.41,4,47.34z"/>
	<path id="XMLID_9223_" class="fill-dark" d="M33.46,11.32c-1.14,0.58-1.11,1.94-2.11,2.76c-0.64-1.56-2.48-0.86-3.4-2.02
		c0.49,1.09,1.39,1.79,2.07,2.66c0.55,0.7,0.73,1.29,0.23,1.97c-0.57,0.78-0.52,1.91-1.44,2.5c-0.21,0.13-0.21,0.44,0,0.64
		c0.31,0.28,0.59,0.08,0.79-0.14c0.72-0.83,1.31-1.74,1.7-2.98c0.86,0.81,1.42,1.6,1.8,2.57c0.25,0.65,0.5,1.46,1.37,1.52
		c0.51,0.04,0.49-0.97-0.14-2.09c-0.48-0.85-0.99-1.7-1.55-2.49c-0.56-0.79-0.73-1.49-0.05-2.31C33.31,13.18,33.48,12.3,33.46,11.32
		z"/>
	<path id="XMLID_9205_" class="fill-dark" d="M9.34,86.34c-0.4,0.91-0.09,1.52,0.49,2.07c0.48,0.47,0.86,1.05,1.37,1.47
		c1.09,0.89,0.99,1.85,0.35,2.92c-0.28,0.47-0.56,0.95-0.78,1.45c-0.13,0.3-0.02,0.61,0.29,0.78c0.34,0.19,0.6,0.01,0.73-0.29
		c0.38-0.88,0.72-1.78,1.15-2.86c0.96,0.68,1.58,1.42,1.79,2.48c0.07,0.38,0.16,0.83,0.6,0.75c0.67-0.11,0.29-0.67,0.28-1.05
		c-0.04-1.15-0.78-1.9-1.6-2.53c-0.65-0.5-0.83-0.99-0.44-1.72c0.47-0.88,0.47-1.89,0.75-2.83c0.06-0.2-0.08-0.37-0.25-0.43
		c-0.25-0.09-0.52-0.04-0.59,0.24c-0.2,0.76-0.13,1.59-0.68,2.3c-0.95-0.07-1-1.11-1.61-1.57C10.57,87.07,10.03,86.53,9.34,86.34z"
		/>
	<path id="XMLID_9194_" class="fill-dark" d="M69.24,68.91c0.5,0.54,0.92,1.2,1.52,1.59c1.47,0.97,1.71,2.8,2.89,3.95
		c0.4,0.4,0.05,0.8-0.18,1.15c-0.34,0.51-0.71,1.01-0.69,1.67c0.01,0.33,0.09,0.62,0.47,0.68c0.26,0.04,0.47-0.09,0.57-0.35
		c0.19-0.51,0.35-1.04,0.88-1.41c1.45,0.77,1.34,2.42,1.95,3.71c1.34-1.58,1.35-1.59,0.46-3.05c-0.51-0.83-1.34-1.58-1.53-2.47
		c-0.16-0.77,0.39-1.69,0.67-2.71c-1.06,0.31-0.97,1.46-1.8,1.74C72.78,71.85,71.41,69.95,69.24,68.91z"/>
	<path id="XMLID_9176_" class="fill-dark" d="M91.91,93.42c0.81,1.01,1.52,2.03,2.37,2.92c0.61,0.64,0.75,1.19,0.31,1.94
		c-0.57,0.96-0.58,2.06-0.88,3.42c1.29-0.88,1.58-2.03,2.17-3.02c1.44,1.2,2.12,3.37,4.57,3.56c-0.81-1.59-1.93-2.74-3.12-3.82
		c-1.14-1.03-1.16-1.01-0.62-2.46c0.19-0.52,0.34-1.05,0.55-1.56c0.12-0.29,0.29-0.6-0.04-0.8c-0.31-0.19-0.54,0.09-0.79,0.28
		c-0.51,0.38-1.23,0.61-0.82,1.51c0.09,0.2-0.05,0.48-0.31,0.6c-0.3,0.13-0.46-0.11-0.61-0.28c-0.58-0.63-1.13-1.29-1.72-1.91
		C92.73,93.55,92.55,93.16,91.91,93.42z"/>
	<path id="XMLID_9168_" class="fill-dark" d="M74.02,96.91c-1.02-1.24-1.86-2.28-2.71-3.31c-0.19-0.22-0.44-0.51-0.75-0.21
		c-0.32,0.31-0.02,0.56,0.19,0.76c0.98,0.9,1.06,2.41,2.26,3.2c0.42,0.28,0.07,0.89-0.17,1.34c-0.67,1.25-1.66,2.26-2.48,3.45
		c1.1-0.11,1.86-0.79,3.7-3.3c1.04,0.51,1.39,1.64,2.13,2.41c0.25,0.26,0.38,0.63,0.61,0.91c0.21,0.25,0.5,0.36,0.81,0.15
		c0.29-0.19,0.13-0.46,0.03-0.65c-0.24-0.42-0.52-0.82-0.82-1.21c-0.33-0.44-0.71-0.84-1.05-1.27c-1.07-1.37-1.04-1.36-0.09-2.91
		c0.48-0.78,0.85-1.62,1.29-2.42c0.14-0.25,0.17-0.48-0.09-0.61c-0.26-0.13-0.46,0.06-0.6,0.27C75.57,94.57,74.86,95.63,74.02,96.91
		z"/>
	<path id="XMLID_9166_" class="fill-dark" d="M128.3,84.45c-1,0.47-0.75,1.65-1.62,2.26c-0.7-0.35-1.08-1.22-1.88-1.54
		c-0.22-0.09-0.48-0.21-0.64,0.08c-0.07,0.14-0.11,0.38-0.04,0.51c0.37,0.63,0.69,1.33,1.2,1.83c0.62,0.6,0.57,1.06,0.18,1.74
		c-0.3,0.53-1.32,1.26-0.21,1.78c0.81,0.37,0.62-0.82,1.03-1.19c0.13-0.12,0.24-0.27,0.42-0.47c1.25,0.6,1.78,1.68,1.98,2.95
		c0.71,0.05,1-0.61,1.69-0.57c-0.35-1.2-1.17-2.02-1.88-2.88c-0.62-0.75-1.22-1.38-0.29-2.34C128.85,85.98,128.23,85.19,128.3,84.45
		z"/>
	<path id="XMLID_9149_" class="fill-dark" d="M94.54,63.78c-0.83-1.06-1.57-2.21-2.6-3.08c-0.85-0.72-1.05-1.45-0.58-2.55
		c0.43-1,0.51-2.15,0.81-3.53c-1.55,0.95-1.33,2.53-2.16,3.43c-0.81-0.07-0.86-0.87-1.35-1.21c-0.14-0.1-0.38-0.19-0.5-0.13
		c-0.24,0.12-0.3,0.42-0.1,0.61c1.6,1.48,1.32,3.06,0.34,4.72c-0.19,0.32-0.18,0.74,0.19,0.99c0.56,0.38,0.69-0.17,0.98-0.45
		c0.46-0.45,0.9-0.92,1.17-1.64c0.8,0.67,1.55,1.29,1.75,2.05c0.34,1.3,1.4,1.45,2.22,2.03C95.14,64.44,94.79,64.11,94.54,63.78"/>
	<path id="XMLID_9143_" class="fill-dark" d="M35.11,0.65c-1.01,0.4-1.04,1.39-1.76,1.85C32.62,2,32.32,1.13,31.68,0.58
		c-0.28-0.24-0.52-0.87-1.02-0.42c-0.35,0.31-0.01,0.69,0.21,0.96c0.35,0.43,0.64,0.88,0.83,1.39c-0.34,0.52-0.77-0.32-1.12,0.09
		c0.29,0.87,1.74,0.86,1.66,1.77c-0.07,0.78-0.75,1.5-1.16,2.25c-0.12,0.21-0.21,0.44-0.36,0.75c0.8,0.29,1.29-0.01,1.64-0.65
		c0.18-0.32,0.29-0.67,0.47-0.99c0.37-0.66,0.81-0.69,1.27-0.09c0.6,0.78,1.13,1.6,1.44,2.55c0.15,0.46,0.3,0.95,0.71,1.26
		c0.08,0.06,0.22,0.1,0.32,0.08c0.19-0.05,0.37-0.24,0.27-0.4c-0.6-0.98-0.39-2.3-1.36-3.13C35.16,5.72,34.94,5.34,34.67,5
		c-0.57-0.73-0.76-1.47-0.23-2.35C34.77,2.09,35.17,1.52,35.11,0.65z"/>
	<path id="XMLID_9130_" class="fill-dark" d="M19.43,47.55c-1.06-0.36-1.68-1.63-3.2-1.55c0.75,0.63,1.29,1.24,1.97,1.63
		c1.01,0.58,1.05,1.39,0.88,2.36c-0.21,1.19-0.75,2.31-0.76,3.57c1.34-0.54,1.34-0.54,1.74-3.74c0.59-0.22,0.7,0.36,0.94,0.63
		c1.34,1.52,3.05,2.63,4.5,4.03c0.23,0.22,0.56,0.38,0.8,0.08c0.23-0.29-0.01-0.57-0.22-0.79c-1.48-1.55-3.36-2.65-4.86-4.2
		c-1.03-1.06-1.09-1.13-0.56-2.55c0.28-0.74,0.55-1.49,0.78-2.25c0.04-0.14-0.06-0.41-0.18-0.48c-0.23-0.14-0.52-0.03-0.63,0.18
		c-0.25,0.48-0.46,0.99-0.63,1.51C19.83,46.49,19.83,47.07,19.43,47.55z"/>
	<path id="XMLID_9117_" class="fill-dark" d="M15.8,19c-0.21,0.76,0.19,1.18,0.47,1.61c-0.45,0.52-0.87-0.46-1.33,0.02
		c0.53,0.52,1.12,0.92,1.75,1.31c1.51,0.93,1.69,1.86,0.77,3.37c-0.37,0.61-0.82,1.16-1.47,2.06c1.66-0.44,2.94-0.69,2.92-2.62
		c1.38,0.79,1.53,2.54,2.96,2.96c0.44-0.39,0.08-0.71-0.08-0.99c-0.2-0.37-0.45-0.74-0.74-1.05c-1.45-1.51-2.21-3.09-0.63-4.99
		c0.22-0.26,0.23-0.61-0.09-0.8c-0.32-0.18-0.57,0.01-0.73,0.33c-0.3,0.6-0.61,1.2-0.95,1.86C17.54,21.27,17.14,19.77,15.8,19z"/>
	<path id="XMLID_9111_" class="fill-dark" d="M21.75,10.86c0.95,0.72,1.33,1.63,1.76,2.49c0.16,0.33,0.3,0.67,0.5,0.97
		c0.08,0.11,0.34,0.18,0.48,0.14c0.27-0.09,0.33-0.34,0.18-0.58c-0.54-0.89-1-1.84-1.65-2.64c-0.74-0.9-0.97-1.74-0.42-2.82
		c0.41-0.82,0.45-1.75,0.45-2.74c-1.54,0.4-1.06,2.18-2.13,2.82c-0.87-0.5-1.43-1.31-2.04-2.07c-0.2-0.24-0.45-0.48-0.76-0.21
		c-0.34,0.3-0.02,0.57,0.18,0.76c0.49,0.47,0.86,1.01,1.22,1.59c0.89,1.44,0.88,2.76-0.24,4.03c-0.32,0.36-0.64,0.7-0.14,1.03
		c0.45,0.3,1.01,0.21,1.24-0.33C20.72,12.44,21.73,11.98,21.75,10.86z"/>
	<path id="XMLID_9095_" class="fill-dark" d="M23.76,77.18c0.43-0.85,0.54-1.73,1.16-2.45c1.01,0.76,1.59,1.87,2.44,2.72
		c0.13,0.13,0.2,0.31,0.29,0.47c0.2,0.32,0.43,0.68,0.85,0.38c0.36-0.25,0.04-0.56-0.1-0.79c-0.32-0.52-0.64-1.05-1.04-1.51
		c-1.58-1.79-3.17-3.56-1.6-6.32c-1.17,0.39-0.78,1.47-1.43,1.94c-0.57-0.16-0.76-0.73-1.13-1.1c-0.38-0.39-0.59-1.12-1.06,0.01
		c-0.25,0.6-0.82-0.19-1.47-0.14c0.55,0.77,1.27,1.17,1.9,1.67c1.25,1,1.36,1.39,0.7,2.79c-0.1,0.22-0.23,0.43-0.35,0.65
		C22.33,76.58,22.32,76.58,23.76,77.18z"/>
	<path id="XMLID_9091_" class="fill-dark" d="M52.76,44.58c0.28-0.3,0.77,0.24,0.99-0.41c-0.8-0.91-1.63-1.9-2.73-2.58
		c-0.6-0.37-0.97-0.74-0.63-1.47c0.13-0.29,0.18-0.6-0.03-0.87c-0.2-0.26-0.48-0.46-0.71-0.07c-0.23,0.39-0.01,1.1-0.69,1.13
		c-0.48,0.02-0.93-0.26-1.34-0.55c-0.24-0.17-0.53-0.33-0.92-0.04c0.03,0.67,0.64,0.97,1.06,1.33c0.69,0.59,0.78,1.11,0.28,1.88
		c-0.32,0.49-1.06,1.26-0.19,1.69c0.71,0.36,0.8-0.7,1.17-1.12c0.15-0.18,0.26-0.4,0.49-0.75c1.06,0.84,1.91,1.75,2.58,2.85
		c0.19,0.31,0.47,0.74,0.84,0.56c0.62-0.3,0.08-0.71-0.03-1.07C52.84,44.92,52.8,44.74,52.76,44.58z"/>
	<path id="XMLID_9086_" class="fill-dark" d="M153.78,79.46c-0.64-0.62-0.46-1.63-1.32-2.08c-0.92,0.78-0.87,1.63-0.16,2.5
		c0.73,0.91,0.77,1.7-0.08,2.59c-0.45,0.47-0.8,1.1-0.83,1.8c-0.02,0.34,0.2,0.6,0.51,0.68c0.25,0.06,0.44-0.11,0.54-0.38
		c0.25-0.68,0.46-1.4,1.19-1.97c0.64,1.13,1.28,2.23,2.19,3.11c0.51-0.36,0.37-0.74,0.26-1.07c-0.14-0.4-0.36-0.78-0.53-1.17
		c-0.36-0.78-0.88-1.53-1.02-2.35c-0.14-0.78,1.04-1.09,1.07-1.97c0.01-0.28,0.28-0.54,0.37-0.83c0.04-0.15,0-0.39-0.1-0.49
		c-0.22-0.21-0.42-0.04-0.63,0.11C154.67,78.32,154.51,79.08,153.78,79.46z"/>
	<path id="XMLID_9084_" class="fill-dark" d="M19.38,37.05c1.07,1.31,2.59,2.08,2.96,3.79c0.05,0.26,0.36,0.32,0.61,0.21
		c0.17-0.08,0.27-0.25,0.24-0.45c-0.17-0.92-0.47-1.78-1.17-2.45c-0.71-0.68-1.73-1.26-2.01-2.09c-0.27-0.8,0.25-1.86,0.4-2.81
		c0.03-0.17-0.05-0.35-0.1-0.63c-1.12,0.4-0.66,1.84-1.67,2.3c-1-1.06-2.44-1.45-3.8-2.06c0.74,0.65,1.49,1.3,2.21,1.97
		c1.41,1.29,1.46,1.59,0.63,3.33c-0.34,0.7-0.74,1.36-1.56,1.94c1.22,0.36,1.87,0.18,2.24-0.84C18.62,38.55,18.76,37.74,19.38,37.05
		z"/>
	<path id="XMLID_9061_" class="fill-dark" d="M35.72,75.54c0.65,0.79,1.2,1.52,1.82,2.18c0.25,0.27,0.61,0.8,1.05,0.39
		c0.44-0.41,0.03-0.75-0.33-1.02c-0.19-0.15-0.36-0.33-0.53-0.51c-1.1-1.21-2.1-2.42-1.08-4.2c0.27-0.47,0.29-1.05,0.23-1.7
		c-1.15,0.37-1.07,1.68-1.93,2.34c-0.73-0.32-1.12-1.03-1.52-1.67c-0.53-0.85-1.33-0.69-2.37-0.8c0.96,0.98,1.72,1.87,2.6,2.62
		c0.72,0.63,0.92,1.23,0.44,2.07c-0.24,0.42-0.42,0.88-0.61,1.33c-0.18,0.43-0.47,0.82,0.3,1.11c0.7,0.26,0.99,0.18,1.16-0.54
		C35.07,76.62,35.15,76.05,35.72,75.54z"/>
	<path id="XMLID_9055_" class="fill-dark" d="M80.78,59.77c-0.76,0.07-0.9,0.75-1.21,1.24c-0.3,0.46-0.55,0.94-0.91,1.56
		c-0.55-0.42-1.06-0.82-1.57-1.21c-0.24-0.18-0.51-0.46-0.79-0.18c-0.38,0.38,0,0.66,0.25,0.9c0.35,0.34,0.71,0.65,1.02,1.04
		c0.61,0.78,0.73,1.63,0.14,2.34c-0.58,0.7-0.4,1.5-0.58,2.24c-0.07,0.28,0.19,0.56,0.55,0.61c0.33,0.04,0.44-0.21,0.49-0.44
		c0.2-0.83,0.34-1.68,0.54-2.51c0.17-0.7,0.61-0.74,1.05-0.26c0.88,0.94,1.71,1.91,2.55,2.88c0.16,0.18,0.24,0.43,0.41,0.6
		c0.23,0.25,0.54,0.31,0.81,0.08c0.25-0.21,0.07-0.46-0.07-0.63c-0.85-1.04-1.68-2.1-2.58-3.1c-1.26-1.41-1.35-1.79-0.45-3.49
		C80.71,60.9,81.19,60.45,80.78,59.77z"/>
	<path class="fill-dark" d="M100.77,55.09c0.96,0.94,1.93,1.87,2.87,2.79c1.04-0.41,1.36-1.62,2.67-2.11c0.02,0.02,0.03,0.03,0.05,0.05
		c-0.47,0.89-0.71,1.56-1.14,2.08c-0.61,0.72-0.55,1.36,0.03,1.95c0.8,0.81,1.09,1.9,1.68,2.83c0.18,0.28,0.31,0.59,0.01,0.81
		c-0.3,0.21-0.57-0.01-0.77-0.26c-0.68-0.85-1.36-1.71-2.13-2.67c-0.73,1.1-0.88,2.66-2.69,2.35c0.01-0.42,0.26-0.53,0.41-0.7
		c1.54-1.72,1.58-2.65,0.23-4.45C101.42,56.99,100.83,56.23,100.77,55.09z"/>
	<path id="XMLID_9035_" class="fill-dark" d="M142.08,98.81c-0.7,0.77-0.57,1.37,0.05,2.06c0.24,0.27,0.45,0.6,0.58,0.94
		c0.22,0.57-0.07,0.88-0.58,1.08c-0.53-0.76-0.71-1.63-1.39-2.19c-1.7,2.1-1.7,2.1-2.54,2.2c0.33-0.81,0.56-1.65,0.99-2.37
		c0.47-0.79,0.39-1.35-0.01-2.19c-0.49-1.02-1.49-1.73-1.87-3.16c1.55,0.65,2.61,1.39,3.14,2.94c0.61-1.12,1.01-2.25,2.73-1.93
		C142.89,97.19,142.7,98.12,142.08,98.81z M141.41,98.07c0.49-0.3,0.61-0.65,0.64-1.16C141.46,97.11,141.34,97.46,141.41,98.07z"/>
	<path id="XMLID_9018_" class="fill-dark" d="M53.95,54.03c0.99,0.52,1.25,1.32,1.68,1.97c0.34,0.51,0.64,1.06,1.17,1.39
		c0.23,0.14,0.5,0.09,0.65-0.12c0.07-0.11,0.03-0.39-0.06-0.49c-0.95-1.03-1.26-2.52-2.46-3.37c-0.74-0.53-0.58-1.3-0.46-2.01
		c0.17-1.01,0.45-2,0.65-3.01c0.04-0.2,0.03-0.51-0.33-0.52c-0.22-0.01-0.35,0.14-0.38,0.32c-0.21,1.05-1.01,1.91-0.89,3.11
		c-1.34-0.34-1.97-1.51-3.07-2.03c0.09,1,0.79,1.66,1.44,2.14c1.32,0.99,1.27,2.1,0.74,3.4c-0.27,0.67-0.65,1.32-0.54,2.1
		c0.05,0.35,0.28,0.6,0.57,0.65c0.34,0.05,0.53-0.26,0.57-0.58C53.34,56.01,53.59,55.07,53.95,54.03z"/>
	<path id="XMLID_8979_" class="fill-dark" d="M50.43,62.2c-0.97-0.11-0.96,0.83-1.63,1.1c-1.27-1.29-2.43-2.82-4.26-3.56
		c0.51,1.64,1.68,2.79,2.86,3.91c0.67,0.64,0.68,1.21,0.08,1.88c-0.56,0.62-1.08,1.28-1.54,2.03c1.05-0.38,2.37-0.24,2.73-1.7
		c1.38,0.35,1.21,2.2,2.63,2.48c0.28-1.2-0.18-2.17-0.92-2.88c-0.89-0.85-0.96-1.55-0.19-2.46C50.37,62.82,50.36,62.48,50.43,62.2z"
		/>
	<path id="XMLID_8974_" class="fill-dark" d="M40.81,86.94c0.67,0.43,0.97,1.08,1.16,1.79c0.1,0.36,0.17,0.72,0.64,0.77
		c0.31,0.03,0.66,0.07,0.85-0.2c0.14-0.19,0.06-0.48-0.12-0.67c-0.56-0.58-0.9-1.3-1.32-1.98c-0.42-0.67-0.4-1.23,0.1-1.84
		c0.5-0.62,0.95-1.27,1.42-1.92c0.44-0.6,0.67-1.23,0.31-1.94c-0.69,0-0.53,0.51-0.68,0.8c-0.28,0.54-0.47,1.14-0.8,1.65
		c-0.99,1.56-1.36,1.54-2.38-0.04c-0.47-0.72-0.94-1.43-1.42-2.14c-0.15-0.22-0.4-0.31-0.64-0.16c-0.25,0.16-0.23,0.47-0.13,0.65
		c0.53,0.96,1.11,1.89,1.67,2.83c0.8,1.35,0.79,1.36-0.15,2.58c-0.34,0.44-0.64,0.89-0.97,1.34c-0.21,0.29-0.22,0.57,0.08,0.79
		c0.42,0.32,0.65,0.04,0.85-0.31c0.34-0.58,0.57-1.23,1.09-1.69C40.5,87.15,40.65,87.06,40.81,86.94z"/>
	<path id="XMLID_8971_" class="fill-dark" d="M62.69,85.12c-0.71-1.06-1.32-1.98-1.95-2.94c-0.78,0.44-1.19,0.89-0.36,1.62
		c0.14,0.12,0.29,0.23,0.4,0.38c1.79,2.26,1.7,2.34,0.31,4.46c-0.33,0.51-0.79,0.95-0.82,1.61c-0.01,0.34,0.1,0.63,0.44,0.71
		c0.25,0.06,0.44-0.1,0.56-0.35c0.44-0.93,0.89-1.86,1.35-2.83c0.75,0.31,0.86,1.06,1.27,1.56c0.35,0.43,0.49,1.37,1.28,0.86
		c0.66-0.42,0.03-0.98-0.23-1.42c-0.37-0.64-0.74-1.28-1.19-1.85c-0.59-0.73-0.57-1.4-0.08-2.16c0.43-0.67,0.82-1.37,1.18-2.07
		c0.2-0.37,0.38-0.79-0.03-1.27C63.63,82.31,63.88,84.03,62.69,85.12z"/>
	<path id="XMLID_8966_" class="fill-dark" d="M8.12,20.82c0.75,0.65,0.9,1.56,1.14,2.43c0.06,0.24,0.12,0.49,0.44,0.47
		c0.43-0.03,0.41-0.38,0.43-0.67c0.04-0.6-0.29-1.1-0.64-1.49c-1.09-1.24-1.29-2.43-0.12-3.73c0.23-0.26,0.31-0.66,0.44-1
		c0.24-0.59-0.12-0.9-0.59-1.21c-0.58,0.23-0.61,0.85-0.89,1.28c-0.29,0.45-0.4,1.01-0.98,1.33c-0.85-0.61-1.09-1.73-2.01-2.29
		c0.28,0.98,0.5,1.94,0.71,2.9c0.1,0.48,0.9,0.72,0.67,1.4c-0.19,0.57-0.3,1.2-0.81,1.61c-0.29,0.23-0.72,0.41-0.53,0.84
		c0.21,0.46,0.67,0.73,1.18,0.72c0.44-0.01,0.52-0.43,0.66-0.77C7.45,22.03,7.45,21.31,8.12,20.82z"/>
	<path id="XMLID_8965_" class="fill-dark" d="M108.95,99.43c1.09,0.85,1.86,2.03,2.71,3.14c0.21,0.27,0.48,0.66,0.88,0.31
		c0.28-0.25,0.07-0.56-0.12-0.81c-0.72-0.98-1.2-2.13-2.12-2.98c-0.67-0.62-0.81-1.3-0.21-2.1c0.36-0.48,0.66-1.02,0.59-1.72
		c-1.1-0.07-1.38,0.79-1.71,1.62c-0.87-0.27-1.29-0.87-1.76-1.41c-0.4-0.46-0.83-0.9-1.27-1.32c-0.1-0.1-0.38-0.15-0.49-0.08
		c-0.24,0.14-0.27,0.44-0.1,0.64c0.43,0.52,0.91,1,1.37,1.49c1.39,1.47,1.49,2.01,0.56,3.71c-0.28,0.51-0.99,1.12-0.26,1.48
		c0.59,0.29,0.93-0.58,1.16-1.16C108.33,99.89,108.48,99.55,108.95,99.43z"/>
	<path id="XMLID_8964_" class="fill-dark" d="M132.77,78.23c1,0.9,1.42,1.92,1.88,2.92c0.13,0.29,0.35,0.59,0.69,0.44
		c0.32-0.14,0.32-0.54,0.19-0.81c-0.49-0.99-1.01-1.96-1.55-2.91c-0.24-0.42-0.28-0.64,0.16-1.05c0.97-0.93,0.91-0.99,0.08-2.38
		c-0.64,0.19-0.68,0.99-1.38,1.33c-0.62-1.6-2.32-1.96-3.58-3.44c0.24,1.44,1.01,2.07,1.69,2.7c1.67,1.56,1.69,1.54,0.15,3.32
		c-0.44,0.51-0.89,1.01-1.33,1.52c-0.13,0.15-0.12,0.34-0.01,0.5c0.13,0.18,0.32,0.16,0.5,0.1
		C131.38,80.13,131.97,79.14,132.77,78.23z"/>
	<path id="XMLID_8953_" class="fill-dark" d="M54.04,96.8c-0.77-0.48-1.08-1.17-1.52-1.74c-0.3-0.39-0.72-0.74-0.98-0.21
		c-0.18,0.36-1.1,0.81-0.21,1.42c0.5,0.34,0.9,0.82,1.39,1.2c0.69,0.53,0.68,1.1,0.21,1.75c-0.39,0.54-0.82,1.07-1.14,1.66
		c-0.19,0.34-0.06,0.75,0.33,0.93c0.4,0.19,0.5-0.18,0.66-0.43c0.46-0.72,0.57-1.63,1.31-2.33c1.34,0.81,1.72,2.66,3.26,3.24
		c0.34-0.41,0.31-0.73,0.02-1.05c-0.33-0.37-0.61-0.79-0.98-1.09c-1.7-1.38-1.91-2.94-0.72-4.75c0.16-0.25,0.23-0.57,0.26-0.87
		c0.01-0.14-0.15-0.34-0.29-0.43c-0.26-0.16-0.51-0.01-0.58,0.24C54.82,95.15,54.69,96.02,54.04,96.8z"/>
	<path id="XMLID_8947_" class="fill-dark" d="M43.57,12.1c-0.5,1.18-0.09,2.16,0.66,3.01c0.86,0.96,0.98,2.22,1.52,3.3
		c0.11,0.22,0.08,0.53-0.14,0.67c-0.34,0.22-0.57-0.05-0.74-0.3c-0.39-0.55-0.75-1.12-1.13-1.68c-0.37-0.56-0.75-1.1-1.52-1.28
		c-0.22,0.44-0.43,0.88-0.66,1.3c-0.17,0.3-0.31,0.76-0.78,0.57c-0.5-0.2-0.48-0.67-0.36-1.1c0.06-0.22,0.21-0.44,0.37-0.61
		c0.82-0.86,0.6-1.6-0.18-2.35c-0.29-0.28-0.77-0.6-0.45-1.2c0.75,0.2,0.94,1.03,1.69,1.25c0.39-1.08-0.82-1.27-0.96-2
		c0.72-0.27,0.79,0.74,1.41,0.66c0.61-0.22,0.36-1.18,1.2-1.35C43.89,11.41,43.69,11.81,43.57,12.1z M43.33,15.01
		c-0.05-0.16-0.11-0.36-0.23-0.43c-0.13-0.08-0.36-0.02-0.29,0.22c0.04,0.15,0.19,0.26,0.28,0.4
		C43.19,15.12,43.34,15.04,43.33,15.01z"/>
	<path id="XMLID_8935_" class="fill-dark" d="M19.06,83.5c0.74,0.6,1.24,1.19,1.57,1.93c0.15,0.33,0.24,0.77,0.69,0.74
		c0.39-0.03,0.86,0.47,1.15-0.07c0.22-0.39-0.14-0.67-0.41-0.92c-0.59-0.54-1.02-1.27-1.62-1.73c-1.23-0.94-1.19-1.94-0.61-3.16
		c0.2-0.42,0.42-0.9,0.09-1.5c-0.58,0.46-0.73,1.13-0.95,1.72c-0.27,0.71-0.64,0.63-1.09,0.24c-0.66-0.59-1.28-1.24-2.1-1.59
		c-0.43,0.47-0.13,0.76,0.11,1.02c0.37,0.41,0.78,0.78,1.15,1.19c1.1,1.22,1.19,1.37,0.14,2.61c-0.61,0.72-0.45,1.12,0.09,1.66
		c0.27,0.27,0.52,0.55,0.93,0.4c0.36-0.13,0.31-0.49,0.32-0.78C18.54,84.7,18.73,84.19,19.06,83.5z"/>
	<path id="XMLID_8934_" class="fill-dark" d="M44.12,55.37c1.51,0.97,2.28,2.79,4.2,3.62c-0.02-0.92-0.59-1.22-0.91-1.62
		c-0.6-0.53-1.21-1.07-1.66-1.74c-1.1-0.82-1.66-1.61-0.96-2.81c0.18-0.31,0.26-0.69,0.29-1.05c0.05-0.46,0.27-1.21-0.24-1.31
		c-0.83-0.15-0.39,0.67-0.5,1.06c-0.17,0.59-0.29,1.18-0.82,1.7c-0.99-0.66-1.59-1.69-2.41-2.48c-0.22-0.21-0.49-0.46-0.79-0.24
		c-0.34,0.25-0.13,0.59,0.09,0.78c0.57,0.46,0.72,1.2,1.39,1.65c1.54,1.04,1.56,1.25,0.56,2.79c-0.49,0.74-0.54,1.33-0.04,1.98
		c0.27,0.35,0.63,0.4,0.84-0.09C43.49,56.88,43.41,56.01,44.12,55.37z"/>
	<path id="XMLID_8929_" class="fill-dark" d="M7.99,29.71c-1.07-0.27-1.36-1.34-2.25-1.75c-0.37,0.79,0.32,1.13,0.68,1.5
		c1,1.03,1.18,2.03,0.35,3.26c-0.44,0.64-0.66,1.43-0.96,2.16c-0.11,0.25-0.08,0.47,0.21,0.58c0.21,0.08,0.36-0.04,0.48-0.18
		c0.4-0.47,0.78-0.94,0.96-1.55c0.15-0.52,0.2-1.08,0.61-1.48c0.4-0.1,0.63,0.17,0.72,0.43c0.48,1.41,1.66,2.13,2.77,2.93
		c0.19,0.14,0.39,0.33,0.63,0.11c0.22-0.2,0.15-0.46,0-0.66c-0.85-1.12-1.62-2.32-2.6-3.32c-0.78-0.79-0.95-1.49-0.41-2.42
		c0.12-0.21,0.22-0.44,0.3-0.67c0.14-0.39,0.38-0.9-0.15-1.11c-0.46-0.18-0.55,0.37-0.7,0.67C8.39,28.71,8.21,29.21,7.99,29.71z"/>
	<path id="XMLID_8891_" class="fill-dark" d="M30.28,83.57c-0.88-0.47-1.28-1.32-1.83-2.03c-0.22-0.29-0.45-0.58-0.73-0.8
		c-0.22-0.17-0.46,0.02-0.66,0.15c-0.3,0.2-0.1,0.32,0.02,0.55c0.61,1.13,1.67,1.92,2.25,3.08c0.27,0.55,0.46,1.01,0.09,1.51
		c-0.7,0.92-0.74,2.19-1.56,3.09c1.33-0.39,1.99-1.44,2.55-2.73c0.64,0.67,1.18,1.24,1.73,1.79c0.14,0.14,0.34,0.09,0.49-0.03
		c0.17-0.13,0.18-0.33,0.07-0.49c-0.28-0.4-0.59-0.78-0.89-1.16c-0.81-1-1.05-2.03-0.35-3.21c0.34-0.57,0.58-1.21,0.84-1.83
		c0.2-0.47,0.36-1.05-0.28-1.22c-0.67-0.18-0.46,0.51-0.6,0.86C31.1,81.94,31.04,82.9,30.28,83.57z"/>
	<path id="XMLID_8861_" class="fill-dark" d="M13.62,68.67c-0.57,0.71-1.05,1.31-1.58,1.97c-0.99-0.45-1.4-1.61-2.45-2.17
		c-0.35,0.89,0.53,1.08,0.68,1.6c0.11,0.37,1.37,0.51,0.22,1.14c-0.01,0,0.05,0.25,0.13,0.29c1.41,0.86,0.69,1.83,0.16,2.8
		c-0.12,0.21-0.32,0.4-0.37,0.63c-0.09,0.41,0.15,0.71,0.53,0.84c0.36,0.12,0.53-0.14,0.67-0.43c0.35-0.71,0.29-1.56,0.85-2.27
		c1.03,0.51,1.35,1.52,1.79,2.44c0.18,0.38,0.26,0.82,0.5,1.16c0.2,0.29,0.56,0.26,0.74-0.07c0.33-0.62,0.07-1.91-0.45-2.47
		c-0.13-0.13-0.25-0.27-0.39-0.39c-1.21-1.06-2.15-2.16-1.04-3.87C13.78,69.6,13.87,69.18,13.62,68.67z"/>
	<path id="XMLID_8860_" class="fill-dark" d="M5.91,93.9c-0.67,0.51-0.73,1.26-1.26,1.88C3.47,95.15,2.69,94,1.49,93.27
		c0.28,0.98,0.48,1.25,1.48,2.11c1.4,1.21,1.43,1.24,0.7,2.94c-0.41,0.96-0.72,1.93-0.64,2.99c0.02,0.28,0.13,0.49,0.4,0.51
		c0.25,0.01,0.48-0.16,0.54-0.4c0.31-1.18,0.6-2.36,0.93-3.7c1.44,0.66,2.14,1.85,2.95,2.94c0.34,0.45,0.42,1.56,1.07,1.21
		c0.87-0.46-0.11-1.12-0.34-1.66c-0.44-1.04-1.35-1.72-2.17-2.43c-0.8-0.69-1.15-1.34-0.57-2.37C6.08,95.03,6.3,94.51,5.91,93.9z"/>
	<path id="XMLID_8854_" class="fill-dark" d="M32.39,60.42c-0.36,0.4-0.31,0.75-0.11,1.08c0.09,0.15,0.27,0.24,0.41,0.35
		c2.62,2.19,2.64,2.42,0.64,5.27c-0.06,0.09-0.07,0.22-0.1,0.34c0.39,0.37,0.68,0.1,0.93-0.16c0.47-0.49,0.84-1.04,1.15-1.65
		c0.38-0.75,0.86-0.74,1.43-0.15c0.81,0.83,1.64,1.64,2.47,2.45c0.25,0.24,0.55,0.64,0.91,0.32c0.37-0.32,0.08-0.68-0.23-0.9
		c-0.86-0.61-1.33-1.58-2.19-2.21c-1.32-0.97-1.25-1.01-0.79-2.56c0.15-0.49,0.49-0.84,0.66-1.29c0.1-0.26,0.04-0.49-0.21-0.61
		c-0.24-0.12-0.51-0.05-0.65,0.17c-0.43,0.66-0.65,1.45-1.36,2.06C34.18,62.34,33.5,61.09,32.39,60.42z"/>
	<path id="XMLID_8852_" class="fill-dark" d="M52.67,84.23c-0.78-0.5-0.92-1.61-2-1.91c0.02,0.92,0.61,1.53,0.89,2.24
		c0.3,0.76,0.29,1.35-0.06,2.08c-0.58,1.2-1.32,2.34-1.66,3.7c0.95-0.09,1.37-0.56,1.65-1.39c0.24-0.71,0.32-1.56,1.11-2.23
		c0.36,0.64,0.68,1.2,0.98,1.77c0.11,0.21,0.16,0.47,0.3,0.66c0.24,0.33,0.58,0.47,0.97,0.27c0.45-0.23,0.32-0.6,0.17-0.95
		c-0.32-0.73-0.84-1.35-1.23-2.04c-0.54-0.95-0.46-1.7,0.2-2.5c0.46-0.57,0.86-1.19,1.26-1.81c0.16-0.25,0.01-0.49-0.21-0.62
		c-0.23-0.14-0.5-0.09-0.62,0.17C53.99,82.63,53.41,83.48,52.67,84.23z"/>
	<path id="XMLID_8831_" class="fill-dark" d="M35.65,95.46c-0.87,0.33-0.85,1.27-1.45,1.69c-0.5-0.2-0.74-0.65-1.04-1.03
		c-0.26-0.32-0.34-0.81-0.91-0.98c-0.3,0.38-0.29,1.1-1.06,1.12c0.68,0.83,2.01,0.89,2.17,1.98c0.13,0.91-0.68,1.65-0.83,2.55
		c-0.08,0.5-0.59,0.93-0.27,1.58c1.16-0.5,1.3-1.73,2.02-2.61c0.75,0.36,1.13,1.05,1.56,1.7c0.24,0.35,0.44,0.74,0.73,1.05
		c0.26,0.29,0.66,0.39,0.98,0.08c0.27-0.26,0.1-0.58-0.07-0.82c-0.25-0.35-0.49-0.73-0.81-1c-1.52-1.26-1.8-2.78-1.08-4.56
		C35.67,96.01,35.82,95.8,35.65,95.46z"/>
	<path id="XMLID_8816_" class="fill-dark" d="M40.74,36.5c1.01,1.07,1.84,1.96,2.69,2.84c0.21,0.22,0.54,0.4,0.81,0.15
		c0.31-0.28,0.06-0.54-0.16-0.76c-0.74-0.73-1.51-1.44-2.23-2.19c-0.32-0.34-0.79-0.68-0.6-1.26c0.38-1.19,0.08-2.42,0.29-3.78
		c-0.91,0.43-0.94,1.31-1.32,1.93c-0.58,0.95-0.6,0.98-1.5,0.37c-0.05-0.03-0.1-0.08-0.15-0.1c-0.46-0.18-0.9-1.11-1.32-0.51
		c-0.46,0.64,0.49,0.79,0.9,0.99c1,0.51,1.32,1.34,1.02,2.3c-0.32,1.03-0.11,2.21-0.93,3.09c-0.21,0.22-0.09,0.49,0.14,0.61
		c0.25,0.13,0.52-0.02,0.63-0.22C39.55,38.94,40.05,37.9,40.74,36.5z"/>
	<path id="XMLID_8814_" class="fill-dark" d="M103.11,78.13c-1.06-0.71-1.39-1.94-2.51-2.71c-0.07,1.3,0.6,2.11,1.12,2.93
		c0.8,1.26,0.84,1.26-0.15,2.29c-0.3,0.31-0.61,0.6-0.87,0.94c-0.25,0.33,0.01,0.57,0.25,0.75c0.23,0.17,0.46,0.1,0.65-0.09
		c0.04-0.04,0.07-0.1,0.11-0.15c1.65-1.79,1.65-1.8,2.93,0.28c0.16,0.26,0.25,0.56,0.39,0.83c0.21,0.4,0.48,0.79,0.99,0.45
		c0.52-0.35,0.2-0.75-0.04-1.1c-0.45-0.66-0.88-1.34-1.37-1.96c-0.54-0.68-0.66-1.25,0.11-1.87c0.54-0.44,0.88-0.95,0.36-1.73
		c-0.4-0.6-0.75-0.57-1.15-0.14C103.61,77.21,103.64,77.8,103.11,78.13z"/>
	<path id="XMLID_8794_" class="fill-dark" d="M22.15,59.23c-0.1,0.74,0.49,1.12,0.9,1.51c0.63,0.58,0.55,1.09,0.23,1.78
		c-0.5,1.05-1.07,2.03-2.16,2.79c1.68,0.18,1.78,0.1,3.44-2.74c0.99,0.92,1.98,1.78,2.2,3.22c0.06,0.41,0.26,0.99,0.8,0.75
		c0.48-0.22,0.22-0.76,0.04-1.14c-0.29-0.6-0.62-1.19-0.97-1.77c-0.19-0.31-0.45-0.58-0.69-0.86c-0.96-1.15-0.94-1.14-0.13-2.52
		c0.27-0.46,0.62-0.95,0.23-1.53c-0.2-0.3-0.34-0.72-0.77-0.68c-0.34,0.04-0.43,0.38-0.49,0.7c-0.12,0.58-0.18,1.19-0.65,1.63
		c-0.88-0.04-1.04-1.33-2.02-1.08L22.15,59.23z"/>
	<path id="XMLID_8778_" class="fill-dark" d="M64.39,48.67c-1,0.42-0.98,1.24-1.23,1.9c-0.23,0.61-0.49,0.7-1.09,0.36
		c-0.77-0.45-1.15-1.39-2.27-1.77c0.26,1.08,0.97,1.55,1.52,2.14c1.18,1.28,1.26,1.53,0.39,3.03c-0.36,0.62-0.29,1.47-1.05,1.87
		c-0.28,0.15-0.21,0.42,0.01,0.58c0.21,0.16,0.49,0.15,0.68-0.02c0.49-0.47,0.86-1.02,1.15-1.63c0.26-0.54,0.34-1.19,0.94-1.64
		c0.87,1.01,1.85,1.92,2.37,3.2c0.1,0.26,0.32,0.59,0.69,0.42c0.38-0.16,0.15-0.48,0.14-0.77c-0.04-1.32-0.95-2.03-1.81-2.81
		c-1.4-1.27-1.36-1.27-0.68-3.06C64.34,49.96,64.79,49.41,64.39,48.67z"/>
	<path id="XMLID_8768_" class="fill-dark" d="M57.86,72.95c-0.52-0.13-1.03-0.26-1.52-0.39c-0.08,0.15-0.17,0.24-0.2,0.36
		c-0.36,1.34-0.43,1.38-1.37,0.53c-0.4-0.35-0.87-1.09-1.29-0.65c-0.65,0.69,0.37,0.97,0.73,1.33c1.45,1.46,1.49,1.44,0.67,3.23
		c-0.17,0.38-0.31,0.7,0.13,0.91c0.35,0.16,0.72,0.07,0.97-0.28c0.07-0.1,0.08-0.23,0.13-0.34c0.63-1.51,0.62-1.51,1.71-0.21
		c0.62,0.73,1.27,1.44,2,2.27c0.46-0.8,0.31-1.38-0.11-1.93c-0.18-0.24-0.45-0.41-0.67-0.62c-0.62-0.59-1.41-1.08-1.8-1.79
		C56.82,74.58,57.89,73.87,57.86,72.95z"/>
	<path id="XMLID_8767_" class="fill-dark" d="M87.57,71.22c-1.34,1.07-1.58,2.61-2.68,3.55c-0.59-0.37-0.93-0.94-1.35-1.44
		c-0.19-0.23-0.46-0.54-0.76-0.33c-0.41,0.28-0.11,0.65,0.06,0.96c0.09,0.16,0.21,0.3,0.34,0.43c1.18,1.2,1.04,1.34-0.16,2.72
		c-0.57,0.66-1.34,1.17-1.96,2.32c1.15-0.51,1.65-1.5,2.78-1.26c0.39,0.08,0.43-0.96,1.06-1.3c0.69,0.17,0.99,0.89,1.42,1.44
		c0.3,0.38,0.5,0.85,0.96,1.09c0.23,0.12,0.47,0.12,0.68-0.06c0.24-0.21,0.16-0.44-0.01-0.64c-0.63-0.75-1.23-1.53-1.93-2.21
		c-0.63-0.62-0.54-1.14,0.01-1.71c0.3-0.31,0.57-0.64,0.88-0.93C87.57,73.19,87.79,72.41,87.57,71.22z"/>
	<path id="XMLID_8763_" class="fill-dark" d="M32.12,35.84c-1.81,0.15-1.08,2.09-2.21,2.74c-0.74-0.49-1.33-1.19-1.95-1.84
		c-0.21-0.22-0.47-0.52-0.76-0.28c-0.38,0.31-0.11,0.66,0.13,0.95c0.4,0.46,0.83,0.91,1.24,1.36c1.07,1.19,1.08,1.37,0.28,2.69
		c-0.23,0.38-0.57,0.61-0.86,0.91c-0.42,0.44-0.2,0.95,0.27,1.23c0.48,0.28,0.59-0.2,0.75-0.52c0.4-0.75,0.8-1.49,1.24-2.29
		c1.2,0.72,1.95,1.65,2.63,2.66c0.21,0.32,0.45,0.93,0.95,0.54c0.45-0.36-0.02-0.8-0.26-1.11c-0.61-0.77-1.21-1.56-1.94-2.21
		c-0.9-0.8-0.87-1.63-0.45-2.61C31.49,37.37,31.99,36.73,32.12,35.84z"/>
	<path id="XMLID_8755_" class="fill-dark" d="M65.6,95.38c-0.89,0.34-0.92,1.27-1.65,1.71c-0.71-0.8-1.43-1.62-2.17-2.42
		c-0.2-0.21-0.46-0.47-0.75-0.12c-0.17,0.21-0.14,0.51,0.05,0.66c0.68,0.54,0.73,1.48,1.46,2.05c1.03,0.81,0.97,1.18,0.29,2.32
		c-0.34,0.58-0.66,1.17-0.98,1.76c-0.09,0.17-0.07,0.35,0.09,0.49c0.24,0.21,0.43,0.1,0.63-0.07c0.33-0.28,0.59-0.58,0.74-1.01
		c0.16-0.44,0.19-0.99,0.78-1.23c1.22,0.75,1.47,2.48,2.94,3.21c0.2-0.97-0.19-1.65-0.61-2.3c-0.36-0.56-0.74-1.14-1.2-1.62
		c-0.58-0.59-0.62-1.09-0.11-1.75C65.44,96.64,65.62,96.11,65.6,95.38z"/>
	<path id="XMLID_8745_" class="fill-dark" d="M126.41,95.14c0.11,1.11,0.93,1.91,1.4,2.86c0.25,0.49,0.37,0.79-0.03,1.28
		c-0.49,0.6-0.82,1.34-1.23,2.02c-0.24,0.39-0.15,0.71,0.22,0.93c0.36,0.22,0.52-0.04,0.69-0.33c0.18-0.32,0.41-0.6,0.64-0.89
		c0.85-1.1,0.96-1.1,1.73,0.14c0.26,0.41,0.45,0.87,0.71,1.28c0.24,0.37,0.63,0.74,1.06,0.5c0.46-0.26,0.26-0.75,0-1.12
		c-0.28-0.4-0.54-0.82-0.85-1.2c-0.75-0.93-0.97-1.9-0.39-3.02c0.27-0.52,0.42-1.11,0.67-1.79c-0.77,0.1-0.92,0.68-1.22,1.06
		c-0.86,1.06-0.88,1.07-1.66,0.01c-0.46-0.63-0.92-1.25-1.38-1.88C126.64,95.04,126.53,95.09,126.41,95.14z"/>
	<path id="XMLID_8738_" class="fill-dark" d="M149.07,92.34c0.17-1.38-0.72-2.18-1.32-3c-0.61-0.84-0.84-1.42,0.09-2.12
		c0.5-0.38,0.69-0.93,0.64-1.67c-0.9,0.33-1.3,1.1-2.07,1.56c-0.64-0.62-1.1-1.38-1.57-2.14c-0.21-0.34-0.57-0.52-0.93-0.22
		c-0.32,0.27,0.04,0.54,0.11,0.8c0.02,0.06,0.05,0.12,0.1,0.15c1.72,1.55,1.38,3.08,0.05,4.69c-0.33,0.4-0.93,0.91-0.35,1.62
		c1.37-0.39,1.55-1.91,2.56-2.79C147.21,90.32,147.85,91.49,149.07,92.34z"/>
	<path id="XMLID_8725_" class="fill-dark" d="M67.07,73.16c-0.67,0.29-0.7,1.03-1.42,1.19c-0.74-0.39-0.94-1.49-1.99-1.85
		c-0.35,0.77-0.22,1.51,0.35,1.94c1.29,0.98,1.72,1.99,0.55,3.34c-0.14,0.17-0.19,0.45-0.2,0.69c-0.01,0.25,0.14,0.47,0.4,0.56
		c0.27,0.09,0.48-0.01,0.6-0.25c0.3-0.6,0.47-1.27,0.95-1.78c0.65,0.35,0.93,0.93,1.06,1.62c0.16,0.88,0.47,1.52,1.57,1.01
		c0.2-0.09,0.52,0.34,0.88-0.05c-0.15-0.95-0.98-1.46-1.63-2.02c-1.07-0.92-1.83-1.8-1-3.28C67.35,73.99,67.33,73.56,67.07,73.16z"
		/>
	<path id="XMLID_8724_" class="fill-dark" d="M119.87,97.09c-0.5-0.41-0.98-0.82-1.63-1.36c0.01,1.03,0.55,1.57,0.85,2.21
		c0.28,0.59,0.41,1.13-0.35,1.55c-0.35,0.2-0.66,0.57-0.86,0.94c-0.27,0.48-0.11,0.96,0.32,1.3c0.51,0.41,0.76-0.13,1.08-0.34
		c0.54-0.35,0.13-1.29,1.02-1.49c0.65,0.54,0.92,1.46,1.47,2.19c0.21,0.28,0.32,0.78,0.77,0.59c0.66-0.28,0.05-0.74,0.01-1.09
		c-0.07-0.7-0.65-1.16-1.05-1.69c-0.64-0.85-0.8-1.62-0.11-2.49c0.08-0.09,0.14-0.21,0.18-0.32c0.19-0.49,0.7-1.12,0.11-1.46
		c-0.57-0.34-0.91,0.38-1.26,0.79C120.25,96.64,120.05,96.87,119.87,97.09z"/>
	<path id="XMLID_8723_" class="fill-dark" d="M137.83,85.6c-0.94,0.4-0.94,0.4-1.74,1.42c-0.53-0.25-0.72-0.81-1.1-1.19
		c-0.34-0.33-0.44-0.89-1.03-1.03c-0.4,0.48-0.44,0.95,0.01,1.42c0.34,0.35,0.73,0.66,1.02,1.05c0.33,0.45,0.53,0.94,0.1,1.5
		c-0.37,0.48-0.61,1.06-1,1.52c-0.34,0.4-0.31,0.76-0.17,1.18c0.1,0.3,0.27,0.58,0.62,0.57c0.27-0.01,0.38-0.27,0.47-0.49
		c0.25-0.56,0.44-1.14,0.72-1.68c0.32-0.6,0.79-0.6,1.08,0c0.32,0.68,0.76,1.25,1.27,1.78c0.16,0.17,0.37,0.37,0.63,0.21
		c0.28-0.18,0.42-0.53,0.31-0.79c-0.19-0.44-0.49-0.84-0.77-1.24c-0.24-0.35-0.48-0.72-0.79-1.01c-0.68-0.63-0.65-1.22-0.07-1.89
		C137.67,86.61,137.93,86.25,137.83,85.6z"/>
	<path id="XMLID_8717_" class="fill-dark" d="M103.08,87.79c-0.83,0.48-1.67,0.81-2.35,1.52c-0.83-0.77-1.12-1.9-2.14-2.72
		c-0.06,0.98,0.34,1.57,0.82,2.17c1.26,1.6,1.24,1.61,0.16,3.31c-0.13,0.21-0.27,0.41-0.39,0.62c-0.35,0.58-0.26,1.11,0.38,1.35
		c0.6,0.22,0.64-0.38,0.8-0.74c0.19-0.43,0.33-0.9,0.86-1.2c0.69,0.74,0.95,1.65,1.22,2.58c0.09,0.29,0.33,0.56,0.67,0.53
		c0.36-0.03,0.39-0.4,0.5-0.67c0.22-0.54,0.03-1.01-0.35-1.33c-1.71-1.5-1.58-3.03-0.19-4.64
		C103.22,88.39,103.37,88.16,103.08,87.79z"/>
	<path id="XMLID_8710_" class="fill-dark" d="M9.23,84.22c0.04-1.41-0.57-2.32-1.37-3.18c-0.99-1.07-0.97-1.09-0.2-2.27
		c0.13-0.21,0.29-0.4,0.4-0.61c0.18-0.34,0.28-0.72-0.05-1.01c-0.44-0.39-0.8-0.07-1.11,0.23c-0.38,0.38-0.51,0.99-1.09,1.25
		c-0.91-0.24-1.12-1.39-2.18-1.73c0.01,0.8,0.72,1.09,1,1.6c0.74,1.34,0.82,1.3-0.07,2.54c-0.25,0.35-0.54,0.66-0.79,1.01
		c-0.27,0.38-0.11,0.73,0.21,0.94c0.38,0.26,0.7,0.09,0.86-0.33c0.27-0.69,0.72-1.26,1.25-1.99C7.07,81.9,7.81,83.27,9.23,84.22z"/>
	<path id="XMLID_8706_" class="fill-dark" d="M25.83,22.83c0.38,0.98,0.51,1.78,1.2,2.27c0.86,0.61,0.66,1.34,0.34,2.11
		c-0.19,0.45-0.43,0.88-0.59,1.35c-0.13,0.37,0.14,0.57,0.45,0.67c0.27,0.09,0.46-0.04,0.55-0.31c0.24-0.69,0.49-1.38,0.77-2.15
		c1.96,1.06,3.22,2.84,4.91,4.15c0.5-0.92-0.08-1.27-0.52-1.66c-0.96-0.86-1.95-1.69-2.89-2.57c-1.14-1.06-1.12-1.08-0.52-2.5
		c0.4-0.95,0.4-0.95,0.27-2.36c-1.19,0.57-0.67,2.07-1.57,2.79C27.23,24.46,27.05,23.24,25.83,22.83z"/>
	<path id="XMLID_8704_" class="fill-dark" d="M84.7,97.01c-0.8-0.95-1.54-1.84-2.29-2.71c-0.24-0.29-0.41-0.97-0.9-0.55
		c-0.41,0.35,0.21,0.58,0.43,0.81c0.81,0.85,1.1,2.05,1.95,2.87c0.44,0.43,0.15,0.91-0.07,1.35c-0.48,0.97-1.15,1.82-1.72,2.76
		c1.48-0.23,2.07-1.43,2.74-2.64c1.49,1.1,1.89,3.12,3.63,3.82c0.48-0.45,0.15-0.8-0.11-1.12c-0.76-0.96-1.49-1.95-2.32-2.85
		c-0.61-0.66-0.57-1.19-0.19-1.95c0.43-0.84,0.97-1.69,0.89-2.9C85.61,94.69,85.68,96.05,84.7,97.01z"/>
	<path id="XMLID_8679_" class="fill-dark" d="M113,71.66c1.23,0.86,0.95,2.61,2.41,3.36c0.3-1.12,0.26-2.05-0.52-2.76
		c-1.33-1.21-1.17-2.51-0.47-3.94c0.19-0.4,0.72-0.73,0.31-1.43c-0.74,0.76-1.05,1.8-1.88,2.42c-0.83-0.33-0.88-1.47-1.77-1.74
		c-0.38,0.33-0.24,0.63,0,0.94c1.47,1.91,1.48,1.91-0.03,3.96c-0.3,0.41-0.49,0.85-0.59,1.33c-0.07,0.33,0.13,0.59,0.43,0.73
		c0.37,0.17,0.54-0.08,0.7-0.37C112.05,73.33,112.53,72.5,113,71.66z"/>
	<path id="XMLID_8636_" class="fill-dark" d="M111.35,91.65c1.39,0.02,1.57-1.13,2.17-1.86c0.88,0.27,1.33,1.04,1.93,1.61
		c0.26,0.25,0.47,0.56,0.73,0.82c0.18,0.18,0.43,0.24,0.66,0.07c0.26-0.2,0.17-0.46,0.01-0.64c-0.52-0.6-1.09-1.15-1.63-1.74
		c-1.12-1.23-1.12-1.23-0.4-2.79c0.1-0.22,0.21-0.45,0.23-0.69c0.01-0.16-0.09-0.36-0.21-0.48c-0.16-0.15-0.32,0.03-0.48,0.08
		c-0.58,0.21-0.59,0.91-1.16,1.25c-0.91-0.54-1.62-1.35-2.36-2.13c-0.21-0.23-0.47-0.44-0.78-0.18c-0.35,0.29-0.06,0.57,0.12,0.78
		c0.5,0.61,0.99,1.25,1.57,1.79c0.71,0.67,1,1.29,0.39,2.21C111.78,90.28,111.63,90.94,111.35,91.65z"/>
	<path id="XMLID_8631_" class="fill-dark" d="M75.02,23.13c-0.84-0.94-1.6-1.79-2.36-2.63c-0.48,0.37-0.24,0.67-0.02,0.95
		c0.15,0.2,0.32,0.37,0.46,0.57c1.36,1.95,1.37,2.26,0.08,4.26c-0.1,0.15-0.22,0.3-0.28,0.47c-0.12,0.34,0.02,0.59,0.32,0.76
		c0.39,0.22,0.5-0.01,0.63-0.34c0.3-0.8,0.62-1.59,1.3-2.31c1.25,0.93,2.14,2.1,2.71,3.51c0.15,0.38,0.24,0.72,0.71,0.57
		c0.65-0.21,0.37-0.64,0.18-1.02c-0.55-1.04-1.36-1.88-2.17-2.71c-0.69-0.71-1.01-1.44-0.26-2.38c0.37-0.46,0.54-1.09,0.78-1.65
		c0.1-0.23,0.11-0.54-0.14-0.65c-0.32-0.15-0.64,0.04-0.75,0.33C75.93,21.6,75.81,22.41,75.02,23.13z"/>
	<path id="XMLID_8629_" class="fill-dark" d="M85.34,82.15c-0.67,0.93-1.35,1.87-2.03,2.81c-1.13-0.15-1.2-1.91-2.67-1.73
		c0.22,0.9,0.87,1.4,1.34,1.99c0.56,0.69,0.6,1.27,0.03,1.96c-0.65,0.79-1.24,1.63-2.11,2.77c1.78-0.53,2.67-1.49,3.32-2.8
		c0.83,0.54,1.35,1.19,1.67,2.01c0.13,0.35,0.25,0.7,0.57,0.93c0.27,0.19,0.57,0.24,0.84,0c0.23-0.19,0.19-0.46,0.06-0.66
		c-0.19-0.31-0.45-0.58-0.67-0.87c-0.34-0.43-0.71-0.85-1.03-1.3c-0.89-1.23-0.93-1.27-0.03-2.55
		C85.13,83.97,85.41,83.21,85.34,82.15z"/>
	<path id="XMLID_8554_" class="fill-dark" d="M68.52,64.5c1.12,0.87,2,1.8,2.89,2.72c0.2,0.2,0.48,0.48,0.77,0.14
		c0.27-0.32,0.01-0.55-0.22-0.76c-0.77-0.7-1.25-1.7-2.16-2.24c-0.86-0.51-0.83-1.09-0.38-1.84c0.19-0.31,0.32-0.66,0.43-1.01
		c0.08-0.26-0.04-0.47-0.31-0.57c-0.22-0.08-0.36,0.05-0.44,0.21c-0.27,0.55-0.47,1.13-0.96,1.66c-0.88-0.12-1.29-1.02-2.05-1.36
		c-0.31-0.14-0.68-0.51-0.95-0.07c-0.24,0.38,0.14,0.69,0.42,0.9c0.44,0.33,0.92,0.61,1.39,0.89c0.69,0.42,0.68,0.91,0.25,1.53
		c-0.44,0.65-1.09,1.18-1.21,2.03c-0.03,0.26-0.06,0.49,0.2,0.63c0.27,0.14,0.51-0.02,0.64-0.21C67.38,66.35,67.89,65.52,68.52,64.5
		z"/>
	<path id="XMLID_8525_" class="fill-dark" d="M43.41,97.97c-0.98-0.31-1.19-1.58-2.41-1.53c-0.1,0.87,0.6,1.13,1.04,1.55
		c1.07,1.02,1.1,1.18,0.47,2.53c-0.18,0.39-0.4,0.76-0.57,1.15c-0.29,0.69-0.08,1.16,0.73,1.42c0.41-0.99,0.6-2.02,1.18-2.88
		c1.24,0.32,1.57,1.4,2.16,2.22c0.3,0.41,0.53,1.25,1.14,0.82c0.64-0.45-0.03-0.94-0.39-1.34c-0.61-0.69-1.15-1.45-1.82-2.07
		c-0.64-0.6-0.79-1.18-0.39-1.95c0.22-0.43,0.38-0.9,0.56-1.36c0.13-0.33,0.4-0.79-0.03-0.97c-0.53-0.22-0.66,0.31-0.85,0.71
		C43.98,96.82,43.95,97.48,43.41,97.97z"/>
	<path id="XMLID_8476_" class="fill-dark" d="M59.84,37.42c0.01,0.18,0.09,0.4,0.02,0.54c-0.8,1.66-0.76,3.63-1.85,5.18
		c-0.22,0.32-0.22,0.58,0.05,0.79c0.28,0.21,0.57,0.09,0.8-0.17c0.33-0.38,0.47-0.85,0.61-1.32c0.13-0.47,0.22-0.96,0.41-1.41
		c0.23-0.56,0.55-1.09,0.88-1.74c1.28,1.32,2.27,2.78,3.1,4.4c0.63-0.58,0.34-0.95,0.13-1.31c-0.52-0.91-1.11-1.77-1.83-2.52
		c-0.91-0.94-1.21-1.9-0.53-3.12c0.23-0.43,0.84-1.18,0.22-1.43c-0.74-0.3-0.84,0.66-1.06,1.19c-0.18,0.45-0.22,0.99-0.92,0.89
		L59.84,37.42z"/>
	<path id="XMLID_8460_" class="fill-dark" d="M9.63,65.13c2.07-0.37,2.14-1.9,2.52-3.41c1.17,0.9,2.33,1.52,3.09,2.66
		c0.2,0.3,0.42,0.69,0.85,0.31c0.28-0.25,0.12-0.55-0.06-0.82c-0.69-1.05-1.61-1.87-2.68-2.48c-0.73-0.42-1.13-0.82-0.83-1.74
		c0.19-0.59,0.21-1.28-0.1-2.02c-0.91,0.54-0.53,1.56-1.09,2.09c-0.73-0.1-0.91-0.97-1.63-1.22c-0.2,0.57,0.23,0.82,0.52,1.02
		c1.13,0.81,1.07,1.85,0.63,2.96C10.52,63.3,10.1,64.1,9.63,65.13z"/>
	<path id="XMLID_8433_" class="fill-dark" d="M123.17,75.11c-0.73-0.02-0.5,0.95-1.21,1.05c-0.9-0.57-1.23-1.81-2.46-2.69
		c0.35,1.35,1,2.17,1.49,3.04c0.39,0.7,0.37,1.26-0.09,1.85c-0.64,0.82-1.18,1.7-1.62,2.75c0.97,0.4,1.53,0.23,1.79-0.78
		c0.18-0.69,0.45-1.37,0.99-1.96c0.7,0.67,1.08,1.41,1.2,2.29c0.07,0.53,0.35,0.82,0.87,0.6c0.52-0.22,0.46-0.69,0.24-1.09
		c-0.3-0.53-0.62-1.06-1.01-1.53c-0.7-0.85-0.83-1.73-0.27-2.69C123.26,75.67,123.42,75.41,123.17,75.11z"/>
	<path id="XMLID_8381_" class="fill-dark" d="M60.44,61.49c-0.43,0.57-0.78,1.05-1.1,1.48c-0.67-0.02-0.85-0.81-1.49-0.73
		c-0.02,0.12-0.09,0.29-0.05,0.33c1.06,1.02,0.85,2.13,0.24,3.27c-0.23,0.43-0.45,0.87-0.64,1.32c-0.18,0.43-0.17,0.86,0.32,1.09
		c0.64,0.31,0.69-0.27,0.85-0.62c0.29-0.66,0.36-1.41,0.96-2.09c0.6,0.46,0.97,1.05,1.27,1.7c0.21,0.44,0.42,0.88,0.81,1.21
		c0.19,0.17,0.46,0.31,0.66,0.17c0.27-0.18,0.34-0.52,0.13-0.81c-0.57-0.79-1.2-1.53-1.7-2.37c-0.62-1.04-0.72-2.02-0.26-3.1
		C60.52,62.11,60.7,61.91,60.44,61.49z"/>
	<path id="XMLID_8314_" class="fill-dark" d="M46.43,75.81c1.17,0.45,1.45,1.4,2.05,2.08c0.2,0.23,0.45,0.49,0.77,0.27
		c0.32-0.22,0.23-0.56,0.02-0.8c-0.56-0.64-1.12-1.3-1.76-1.87c-0.55-0.5-0.85-0.98-0.63-1.76c0.1-0.34,0.48-0.87-0.12-1.12
		c-0.8-0.33-0.81,0.46-1.08,0.87c-0.52-0.27-0.8-0.77-1.19-1.15c-0.19-0.18-0.42-0.27-0.63-0.03c-0.22,0.26-0.02,0.42,0.15,0.6
		c0.21,0.22,0.4,0.46,0.61,0.69c1.08,1.19,1.18,1.81,0.48,3.27c-0.13,0.27-0.3,0.53-0.38,0.81c-0.07,0.25,0.05,0.51,0.28,0.62
		c0.33,0.17,0.61,0,0.73-0.32C45.96,77.31,46.17,76.62,46.43,75.81z"/>
	<path id="XMLID_8306_" class="fill-dark" d="M6.2,67.06c-0.6-0.44-0.57-0.94-0.31-1.6c0.3-0.76,0.87-1.51,0.46-2.49
		C5.2,63.23,5.5,64.46,4.9,65.22C3.4,63.6,2.12,61.87,0,61.19c1.44,1.35,2.91,2.65,4.2,4.14c0.4,0.46,0.49,0.81,0.32,1.26
		c-0.47,1.24-0.58,2.61-1.6,3.72c0.85,0.32,1.24,0,1.46-0.55c0.2-0.51,0.41-1.03,0.47-1.57c0.1-0.87,0.7-1.04,1.39-1.14L6.2,67.06z"
		/>
	<path id="XMLID_8231_" class="fill-dark" d="M6.52,52.83C5.77,52.88,5.5,52,4.81,51.91c-0.26,0.57,0.23,0.66,0.46,0.86
		c1.37,1.17,1.47,2.21,0.29,3.54c-0.15,0.17-0.42,0.23-0.61,0.37c-0.25,0.19-0.17,0.44-0.03,0.64c0.21,0.28,0.52,0.37,0.78,0.1
		c0.47-0.48,0.79-1.07,1.12-1.66c0.5-0.91,0.7-0.9,1.51-0.21c0.38,0.32,0.75,1.28,1.17,0.83c0.62-0.67-0.38-1.24-0.81-1.49
		c-1.15-0.65-1.34-1.47-0.93-2.6c0.04-0.11,0.05-0.24,0.04-0.36c-0.05-0.57,0.4-1.52-0.28-1.62c-0.93-0.13-0.37,0.91-0.59,1.4
		C6.77,52.07,6.92,52.56,6.52,52.83z"/>
	<path id="XMLID_8178_" class="fill-dark" d="M42.04,24.26c0.95,0.64,1.3,1.49,1.67,2.32c0.13,0.28,0.2,0.58,0.34,0.85
		c0.12,0.24,0.33,0.37,0.6,0.27c0.37-0.14,0.45-0.44,0.26-0.73c-0.54-0.81-0.74-1.84-1.55-2.47c-0.96-0.75-1.09-1.69-0.81-2.79
		c0.16-0.63,0.3-1.29,0.14-1.93c-0.66-0.1-0.59,0.35-0.68,0.68c-0.34,1.37-0.91,2.67-0.99,4.1c-0.03,0.57-0.3,1.03-0.68,1.47
		c-0.36,0.42-0.24,0.81,0.28,1c0.45,0.16,0.67-0.08,0.76-0.52C41.52,25.8,41.58,25.06,42.04,24.26z"/>
	<path id="XMLID_7411_" class="fill-dark" d="M6.23,67.05c-0.06,0.1-0.2,0.22-0.18,0.31c0.19,1.39,0.87,2.52,1.91,3.44
		c0.05-1.56-1.17-2.49-1.76-3.73C6.2,67.06,6.23,67.05,6.23,67.05z"/>
	<path id="XMLID_7400_" class="fill-dark" d="M29.33,47.64c-0.55-0.37-1.03-0.89-1.77-0.93c0.87,0.79,0.87,0.79,1.81,0.9
		C29.37,47.59,29.33,47.64,29.33,47.64z"/>
	<path id="XMLID_7397_" class="fill-dark" d="M39.47,20.39c-0.13-0.03-0.23,0.05-0.17,0.17c0.07,0.14,0.23,0.23,0.35,0.33
		c0.12,0.1,0.23,0.08,0.24-0.05C39.89,20.58,39.68,20.47,39.47,20.39z"/>
	<path id="XMLID_7396_" class="fill-dark" d="M59.87,37.39c-0.14-0.58-0.54-0.87-1.26-1.21c0.12,0.96,0.65,1.13,1.23,1.24L59.87,37.39z"/>
	<path id="XMLID_7395_" class="fill-dark" d="M49.58,81.65c-0.01,0.24,0.14,0.34,0.33,0.25c0.14-0.06,0.31-0.22,0.33-0.35
		c0.03-0.2-0.17-0.31-0.37-0.28C49.68,81.3,49.6,81.46,49.58,81.65z"/>
	<path id="XMLID_7392_" class="fill-dark" d="M22.1,59.27c0.32-0.69-0.2-0.89-0.74-1.35c-0.04,0.81,0.31,1.1,0.79,1.3
		C22.15,59.23,22.1,59.27,22.1,59.27z"/>
</g>
</svg>
