<?xml version="1.0" encoding="utf-8"?>
<!-- Generator: Adobe Illustrator 23.0.0, SVG Export Plug-In . SVG Version: 6.00 Build 0)  -->
<svg version="1.1" id="Layer_1" xmlns="http://www.w3.org/2000/svg" xmlns:xlink="http://www.w3.org/1999/xlink" x="0px" y="0px"
	 viewBox="0 0 170 10"  height="auto" width="100%" style="enable-background:new 0 0 170 10;" xml:space="preserve">
<path class="fill-white" d="M167.6,4.3c-0.4-0.3-0.8-0.5-1.3-0.5c-0.5,0-1-0.2-1.6-0.3c-0.3,0-0.6-0.2-0.8-0.3c-0.3-0.2-0.7-0.4-1.1-0.5
	c-0.5-0.2-1-0.2-1.5-0.1c-0.3,0.1-0.6,2.1-1,2c-0.5-0.2-1.1,0-1.7-0.2c-0.5-0.2-1-0.3-1.5-0.4c-0.2,0-0.3-0.1-0.5-0.3
	c-0.7-0.7-1.5-0.8-2.4-0.9c-0.4-0.1-0.6,0.1-0.8,0.5c-0.3,0.6-0.7,0.8-1.3,0.7c-0.7-0.1-1.5-0.1-2.2-0.3c-0.5-0.1-1,0-1.5,0
	c-0.2,0-0.3,0.1-0.4,0.1c-0.3,0.3-0.7,0.4-1.1,0.4c-0.4,0-0.7,0.3-0.9,0.5c-0.2,0.2-0.5,0.4-0.8,0.4c-0.5,0.1-0.9,0.3-1.2,0.6
	c-0.4,0.4-0.8-1.6-1.3-1.6c0-0.1,0-0.2,0-0.4c0,0-0.1,0-0.1,0.1c-0.2,0.2-0.4,0.7-0.6,1.1l0,0c-0.1,0.2-0.3,0.4-0.4,0.5l0,0
	c0.1,0,0.3-0.2,0.4-0.5c-0.6,0-1.2,0-1.8,0l0,0c-0.2-0.3-0.5-0.5-0.9-0.5c0,0.2,0,0.5-0.2,0.4c-0.1,0-0.1,0-0.2,0c0.1,0,0.1,0,0.2,0
	c0.2,0,0.2-0.3,0.2-0.4c-0.5,0-1.1-0.1-1.6-0.3c-0.3-0.1-0.6-0.1-1-0.1c-0.2,0-0.3,0.1-0.4,0.2h-1c-0.1-0.1-0.3-0.1-0.4-0.3
	c-0.3-0.3-0.8-0.5-1.2-0.5c-0.2,0-0.4-0.1-0.5-0.2c-0.6-0.6-1.2-0.4-1.9-0.3c-0.5,0.2-1,0.3-1.5,0.6c-0.4,0.2-0.8,0.3-1.2,0
	c-0.2-0.1-0.4-0.1-0.5,0c-0.1,0-0.2,0.4-0.3,0.8c0.7,0,1.4,0,2.1,0c0.2,0,0.5-0.1,0.7-0.2c0.3-0.2,0.6-0.3,1-0.5
	c0.2-0.1,0.4-0.2,0.6-0.2c0.3,0,0.7,0,0.9,0.4c0.1,0.2,0.4,0.4,0.7,0.4c0.2,0,0.4,0.1,0.6,0.1l0,0c-0.2,0-0.4-0.1-0.6-0.1
	c-0.3,0-0.5-0.1-0.7-0.4c-0.2-0.3-0.5-0.4-0.9-0.4c-0.2,0-0.4,0.1-0.6,0.2c-0.3,0.2-0.6,0.3-1,0.5c-0.2,0.1-0.4,0.2-0.7,0.2
	c-0.7,0-1.4,0-2.1,0l0,0c-0.5,0-1.1,0-1.6,0c-0.1,0-0.2,0.1-0.3,0.2l-4.4,0.1c-0.1-0.1-0.2-0.2-0.3-0.2c-0.2,0-0.3,0.1-0.5,0.2
	L117,4.8V4.7c-0.2-0.1-0.3,0-0.5,0.2L113.4,5c-0.6-0.4-1.2-0.3-1.9-0.6c-0.1,0.1-0.5-0.2-0.7-0.2c-0.5,0.1-0.6-0.2-1.1-0.4
	c-0.3-0.2-1-0.1-1.3,0.1c-0.4,0.3-0.5-0.3-0.9-0.6c-0.1-0.1-1-0.5-1.2-0.5c-0.3-0.1-0.7,1.1-0.9,0.9l-7.3,0.5c-0.2,0-0.4-0.1-0.6,0
	c-0.4,0.2-0.9-0.1-1.3-0.2c-0.8-0.1-1.6-0.2-2.4-0.5c-0.2-0.1-0.4,0-0.6,0c-0.3,0.1-0.7,0.1-1,0.1C92,4,91.5,4.1,91.1,4.3
	c-0.6,0.3-1.4,0.3-2.1,0.6c-0.1,0-0.2-0.1-0.3-0.4l0,0c-0.2-0.5-0.4-1.3-0.6-1.2H88l0,0c-0.1,0.1-0.3,0.1-0.4,0.1
	c-0.3,0-0.7,0.1-1,0.2c-0.1,0.1-0.3,0.1-0.4,0.1c-0.7,0-1.4,0.3-2.1,0.1c-0.4-0.1-0.8-0.1-1.2,0c-0.8,0.1-1.5,0.4-2.2,0.6
	c-0.6,0.2-1.1,0.1-1.6,0.3c-0.1,0.1-0.3,0.1-0.4,0c-0.2-0.2-0.4-0.1-0.7-0.1c-0.7,0.1-1.2,0.4-1.6,0.9c-0.2,0.2-0.4,0.3-0.5,0.5l0,0
	l-2.3,0.2c-0.1,0-0.3,0.1-0.4,0.1c-0.3,0-0.4,0.2-0.4,0.5c0,0.1,0,0.2,0,0.3h-1.6c-0.4-0.6-0.9-1.4-1.4-1.2h-0.1
	c-0.5,0.7-1.4-1.9-1.9-1.3c0,0,0,0-0.1,0.1c-0.3,0.2-0.6,0.6-0.9,0.9c0.3,0.5,0.7,0.9,1,0.7c0.1,0,0.1,0.4,0.1,0.7l0,0l0,0l-8.6-0.5
	c-0.3,0.1-0.5,0.1-0.8-0.1c-0.3-0.2-0.6-0.4-0.6-0.8c0-0.2-0.2-0.3-0.4-0.3c-0.3,0-0.6-0.1-0.8-0.3c-0.5-0.3-1,1.1-1.6,0.9
	c-1-0.4-2.1,1.4-3.2,1.2c-0.2,0-0.4-0.1-0.6-0.2c-0.4-0.4-0.8-0.4-1.3-0.2c-0.5,0.2-1,0.1-1.5-0.1l0,0c-0.2-0.4-0.7-0.4-1.1-0.5l0,0
	l0,0c-0.2-0.3-0.5-0.5-0.9-0.5c-1-0.1-2-0.2-2.9-0.4c-0.1,0-0.2-0.1-0.3-0.1c-0.6,0.2-0.9-0.2-1.3-0.5c-0.5-0.4-1.2-0.7-1.9-0.7
	c-0.2,0-0.5,0-0.7-0.1c-0.5-0.1-1-0.2-1.4-0.3c-0.6-0.2-1,0-1.5,0.2c-0.4,0.2-0.7,0.4-1.2,0.3c-0.4-0.1-0.8-0.1-1.1-0.5
	C34,3.2,33.5,3.1,33,3.1c-0.3,0-0.6-0.1-0.9-0.1c-0.5-0.1-1-0.2-1.4,0.1c-0.2,0.1-0.4,0.1-0.5,0C30,3,29.9,2.9,29.7,2.8
	c-0.3-0.3-0.8-0.5-1.2-0.5c-0.1,0-0.2,0-0.3-0.1c-0.4-0.3-0.9-0.2-1.3-0.3c-0.7-0.1-1.4-0.1-2.1,0c-0.7,0-1.4,0.1-2.1-0.1
	c-0.7,0.2-1.4,0-2-0.2c-0.2,0-0.4,0-0.5,0c-0.4,0.1-0.8,0.1-1.3,0.1c-0.9,0-1.8,0.1-2.6,0c-1-0.1-1.7,0.4-2.4,1
	c-0.1,0.1-0.2,0.2-0.3,0.3c-0.3,0.3-0.4,0.3-0.8,0.1c-0.2-0.1-0.3-0.2-0.5-0.3c-0.2-0.1-0.5-0.2-0.7-0.2c-0.5,0-1.1-0.1-1.6-0.2
	C9.8,2.3,9.6,2.3,9.4,2.2C8.8,2,8.1,1.8,7.7,1.4C7.4,1,6.8,0.9,6.4,0.6C6.2,0.4,5.9,0.4,5.6,0.5C5.2,0.6,4.8,0.6,4.5,0.4
	C3.7,0,2.8-0.1,1.9,0.1C1.3,0.3,0.6,0.4,0,0.5V10h170V4.7C169.2,5,168.3,4.8,167.6,4.3z"/>
</svg>
