<?xml version="1.0" encoding="utf-8"?>
<!-- Generator: Adobe Illustrator 19.0.0, SVG Export Plug-In . SVG Version: 6.00 Build 0)  -->
<svg version="1.1" id="Layer_1" xmlns="http://www.w3.org/2000/svg" xmlns:xlink="http://www.w3.org/1999/xlink" x="0px" y="0px"
	 viewBox="0 0 62.1 67" width="300" height="300" style="enable-background:new 0 0 62.1 67;" xml:space="preserve">
<path class="fill-primary" d="M0.1,17.8c0.1,0.2,0.1,0.4,0.1,0.5c0,0.3,0.2,0.8,0.6,1.5c0.5,0.7,1,1.3,1.8,1.9c0.8,0.6,1.2,1,1.4,1.3
	c0.1,0.1,0.3,0.5,0.5,0.7C4.8,24,5,24.3,5,24.4c0.1,0.2,0.2,0.5,0.6,1.3c0.1,0.2,0.2,0.4,0.2,0.5c0,0.1,0.1,0.4,0.2,0.7
	C6.4,27.7,6.5,28,6.7,29c0.4,1.3,0.4,1.5,0.4,2c0,0.5,0.2,1.4,0.4,1.8c0.2,0.4,0.2,0.6,0.2,1.3c0,0.4,0,0.9,0.1,1
	C7.9,35.3,8,35.7,8,35.9s0.1,0.6,0.1,0.8c0.1,0.2,0.1,0.6,0.2,1c0,0.4,0.1,0.7,0.1,0.7c0,0,0.1,0.3,0.1,0.6c0.2,0.9,0.3,1.3,0.4,1.7
	c0.1,0.2,0.1,0.5,0.1,0.6c0,0.1,0,0.4,0.1,0.5c0,0.1,0.2,0.4,0.3,0.7s0.2,0.7,0.2,0.8c0,0.2,0.1,0.5,0.1,0.7
	c0.1,0.2,0.1,0.5,0.1,0.6c0,0.1,0.1,0.3,0.1,0.4c0.1,0.2,0.2,0.5,0.2,0.7c0,0.2,0.1,0.4,0.1,0.4c0,0,0.1,0.2,0.1,0.5
	c0.2,1,0.2,1.3,0.4,1.7c0.1,0.2,0.2,0.6,0.2,0.7c0,0.2,0,0.4,0.1,0.5c0,0.1,0.1,0.5,0.2,0.9c0.1,0.4,0.2,0.8,0.2,0.9
	c0.1,0.1,0.1,0.4,0.1,0.6c0,0.2,0,0.5,0.1,0.6c0.1,0.2,0.1,0.4,0.2,0.6s0.1,0.4,0.2,0.6c0.1,0.2,0.1,0.4,0.1,0.7
	c0,0.3,0.1,0.5,0.3,1c0.1,0.3,0.3,0.8,0.4,1c0.1,0.2,0.2,0.6,0.3,0.7c0.1,0.2,0.2,0.4,0.2,0.5c0,0.5,0.6,1.8,1,2.2
	c0.1,0.1,0.3,0.3,0.3,0.3c0.5,0.8,1.6,1.7,2.4,2.1c1.9,0.9,2,0.9,3.2,1.2c1.3,0.3,1.4,0.3,2.9,0.4c2.7,0.1,3.3,0.1,3.4,0.2
	c0,0,0.4,0.1,0.7,0.1c0.3,0,0.8,0.1,1.1,0.1c0.2,0,0.6,0.1,0.9,0.1c0.4,0.1,1.6,0.5,2.3,0.8c0.5,0.2,1.3,0.5,2.3,0.7
	c0.5,0.1,1.1,0.3,1.4,0.3c0.3,0.1,0.7,0.2,0.9,0.2c0.2,0,0.7,0.1,1.1,0.2c0.4,0.1,0.9,0.2,1.5,0.2c1.6,0.1,5,0,5.6-0.1
	c0.3-0.1,0.9-0.2,2-0.3c0.2,0,0.5-0.1,0.7-0.2c0.2-0.1,0.7-0.2,1.1-0.3c0.9-0.3,1.5-0.5,1.8-0.7c0.1-0.1,0.4-0.2,0.6-0.3
	c0.6-0.2,1.5-0.6,2-1c0.6-0.5,1.5-1.1,2-1.4c0.2-0.1,0.5-0.4,0.7-0.6c0.2-0.2,0.5-0.5,0.7-0.6c0.6-0.6,1-0.9,1.2-1.3
	c0.1-0.2,0.5-0.6,0.7-0.9c0.5-0.5,1.1-1.2,1.1-1.3c0,0,0.1-0.2,0.3-0.4c0.2-0.2,0.3-0.4,0.3-0.4c0,0,0.1-0.2,0.2-0.4
	c0.1-0.2,0.3-0.6,0.4-0.8c0.1-0.2,0.2-0.5,0.3-0.6c0.1-0.1,0.2-0.4,0.3-0.6c0.1-0.2,0.2-0.5,0.3-0.8c0.7-1.4,0.8-1.9,0.9-2.9
	c0.1-0.6,0.1-1.5,0.2-2.1c0-0.9,0-1.1-0.1-1.4c-0.1-0.2-0.2-0.4-0.2-0.6c0-0.1-0.1-0.4-0.2-0.6c-0.1-0.2-0.2-0.5-0.2-0.6
	c-0.1-0.2-0.2-0.4-0.7-1.2c-0.6-0.9-0.6-0.9-0.6-1.2c0-0.2,0-0.7,0-1.1c0-0.4-0.1-1-0.1-1.3c0-0.4-0.1-0.7-0.2-1
	c-0.2-0.4-0.8-1.2-1.2-1.5c-0.3-0.3-1.2-0.8-1.6-0.9c-0.2-0.1-0.5-0.2-0.6-0.3c-0.2-0.1-0.4-0.2-0.4-0.2c-0.1,0-0.1-0.1-0.1-0.7
	c0-0.4,0.1-0.8,0.1-1c0.3-1,0.4-1.4,0.4-2c0-0.3,0.1-0.9,0.2-1.1c0.2-0.7,0.2-2.4,0.1-3.4c-0.1-0.7-0.1-0.8-0.3-1.2
	c-0.1-0.2-0.3-0.5-0.4-0.7c-0.1-0.2-0.3-0.4-0.4-0.6c-0.2-0.1-0.4-0.4-0.6-0.6c-0.6-0.6-1.7-1.4-2.2-1.6c-0.5-0.2-0.9-0.4-1.4-0.8
	c-0.3-0.2-0.4-0.3-0.5-0.6c-0.2-0.5-0.3-2.5-0.2-3.1c0.1-0.4,0.1-0.7,0-1.3c0-0.4-0.1-1.1-0.1-1.5c0-0.4,0-0.8-0.1-0.9
	c0-0.1-0.1-0.4-0.2-0.7c0-0.2-0.1-0.5-0.2-0.6c0-0.1-0.1-0.2-0.1-0.3c0-0.2-0.4-1.1-0.6-1.3c-0.1-0.1-0.3-0.3-0.3-0.5
	c-0.3-0.5-1.5-1.4-2.2-1.7c-0.2-0.1-0.4-0.2-0.5-0.3c-0.1-0.1-0.4-0.2-0.6-0.2c-0.2,0-0.5-0.1-0.6-0.2c-0.1-0.1-0.4-0.2-0.6-0.2
	c-0.2,0-0.5-0.1-0.7-0.2c-0.2-0.1-0.5-0.2-0.8-0.3c-0.5-0.2-0.7-0.3-1.3-1C41.2,8,41,7.8,40.6,7.6C40,7.3,39.7,7.2,38.7,7
	c-2.4-0.6-2.8-0.8-3.9-1.4c-0.3-0.2-0.7-0.4-0.9-0.5c-0.2-0.1-0.5-0.2-0.7-0.3c-0.2-0.1-0.4-0.2-0.5-0.2c-0.1,0-0.4-0.1-0.6-0.2
	c-0.2-0.1-0.7-0.3-1-0.3c-0.3-0.1-0.8-0.2-1-0.3c-0.2-0.1-0.5-0.1-0.6-0.1c-0.1,0-0.4,0-0.6-0.1c-0.3-0.1-0.9-0.1-2.2-0.2
	c-0.3,0-0.6-0.1-0.7-0.2C25.7,3.1,25.5,3,25.4,3c-0.1,0-0.6-0.2-1-0.5c-1.1-0.6-3.2-1.3-3.9-1.4C20.2,1,20,1,19.9,1
	c-0.2-0.1-0.9-0.3-1.2-0.3c-0.4,0-1.3-0.2-2-0.4C16.1,0,16,0,15,0c-0.9,0-1.1,0-1.5,0.1c-0.2,0.1-0.5,0.1-0.7,0.2
	c-0.9,0.3-1.4,0.4-2.1,0.8C10,1.5,8.3,2.7,8,3C7.9,3.1,7.7,3.3,7.5,3.4c-0.9,0.7-1.4,1.3-1.8,2c-0.5,0.9-1,1.6-1.1,2
	C4.6,7.5,4.4,7.8,4.4,7.8C4.2,7.9,3.5,9,3.5,9.1c0,0-0.3,0.6-0.7,1.2c-0.4,0.6-0.8,1.2-0.8,1.3c0,0.1-0.1,0.3-0.2,0.4
	c-0.1,0.1-0.2,0.3-0.3,0.5c-0.1,0.2-0.2,0.4-0.2,0.6c-0.1,0.1-0.2,0.5-0.3,0.8c-0.1,0.3-0.3,0.7-0.4,0.8c-0.1,0.2-0.2,0.5-0.3,0.8
	s-0.1,0.6-0.2,0.9C0,17,0,17.5,0.1,17.8L0.1,17.8z"/>
</svg>
