<svg
xmlns="http://www.w3.org/2000/svg"
xmlns:xlink="http://www.w3.org/1999/xlink"
width="155px" height="49px">
<path fill-rule="evenodd" class="fill-primary"
  d="M121.772,19.497 C117.958,13.447 111.184,4.906 108.061,4.868 C106.208,4.843 103.700,8.630 101.684,11.674 C98.893,15.889 96.258,19.872 92.760,19.827 C89.267,19.786 86.720,15.741 84.021,11.458 C82.075,8.366 79.649,4.518 77.794,4.496 C75.939,4.473 73.430,8.260 71.415,11.303 C68.624,15.518 65.985,19.500 62.493,19.456 C58.999,19.415 56.450,15.370 53.753,11.085 C51.806,7.994 49.382,4.147 47.527,4.124 C45.668,4.102 43.162,7.890 41.148,10.931 C38.356,15.148 35.719,19.130 32.226,19.086 C28.732,19.042 26.184,14.998 23.486,10.715 C21.539,7.623 19.116,3.775 17.260,3.751 C14.142,3.715 7.177,12.085 3.231,18.042 L0.722,16.374 C2.459,13.751 11.423,0.667 17.293,0.740 C20.788,0.782 23.335,4.827 26.031,9.109 C27.980,12.203 30.403,16.050 32.259,16.074 C34.117,16.098 36.623,12.307 38.638,9.266 C41.429,5.050 44.066,1.066 47.560,1.111 C51.054,1.155 53.603,5.199 56.299,9.482 C58.246,12.574 60.671,16.422 62.526,16.445 C64.377,16.469 66.889,12.681 68.905,9.638 C71.696,5.422 74.334,1.439 77.828,1.484 C81.322,1.525 83.870,5.570 86.568,9.855 C88.515,12.946 90.938,16.793 92.794,16.816 C94.647,16.840 97.158,13.051 99.175,10.008 C101.965,5.792 104.599,1.810 108.095,1.855 C113.966,1.926 122.639,15.227 124.317,17.892 L121.772,19.497 Z"/>
  <path fill-rule="evenodd" class="fill-primary"
    d="M151.772,48.497 C147.958,42.446 141.184,33.906 138.061,33.867 C136.208,33.843 133.700,37.630 131.684,40.674 C128.893,44.889 126.258,48.872 122.760,48.828 C119.267,48.786 116.720,44.741 114.021,40.458 C112.075,37.366 109.649,33.518 107.794,33.495 C105.939,33.473 103.430,37.260 101.415,40.303 C98.624,44.519 95.985,48.501 92.493,48.457 C88.999,48.415 86.450,44.370 83.753,40.085 C81.806,36.994 79.382,33.147 77.527,33.125 C75.668,33.102 73.162,36.889 71.148,39.931 C68.356,44.148 65.719,48.130 62.226,48.086 C58.732,48.042 56.184,43.998 53.486,39.714 C51.539,36.623 49.116,32.775 47.260,32.751 C44.142,32.715 37.177,41.085 33.231,47.042 L30.722,45.374 C32.459,42.751 41.423,29.667 47.293,29.739 C50.788,29.782 53.335,33.827 56.031,38.109 C57.980,41.203 60.403,45.050 62.259,45.074 C64.117,45.098 66.623,41.307 68.638,38.266 C71.429,34.050 74.066,30.067 77.560,30.111 C81.054,30.155 83.603,34.199 86.299,38.482 C88.246,41.574 90.671,45.422 92.526,45.445 C94.377,45.469 96.889,41.680 98.905,38.637 C101.696,34.422 104.334,30.439 107.828,30.483 C111.322,30.525 113.870,34.570 116.568,38.854 C118.515,41.946 120.938,45.793 122.794,45.815 C124.647,45.840 127.158,42.051 129.175,39.008 C131.965,34.792 134.599,30.811 138.095,30.854 C143.966,30.926 152.639,44.227 154.317,46.892 L151.772,48.497 Z"/>
  </svg>
