<?xml version="1.0" encoding="utf-8"?>
<!-- Generator: Adobe Illustrator 19.0.0, SVG Export Plug-In . SVG Version: 6.00 Build 0)  -->
<svg version="1.1" id="Layer_1" xmlns="http://www.w3.org/2000/svg" xmlns:xlink="http://www.w3.org/1999/xlink" x="0px" y="0px"
	 viewBox="0 0 79.6 31.3" width="200" height="200" style="enable-background:new 0 0 79.6 31.3;" xml:space="preserve">
<style type="text/css">
	<!-- .st1{fill:#303856;} -->
</style>
<g>
 <path class="fill-dark" d="M0,30.1c0.2,0.7,0.8,1.2,1.5,1.2c1.3,0,1.9-1.5,1.1-2.4c-0.3-0.3-0.8-0.5-1.2-0.5c-0.3,0-1,0.4-1.2,0.7
		C0,29.4,0,29.8,0,30.1L0,30.1z"/>
	<path class="fill-dark" d="M5.3,20.8c0.2,0.5,0.4,0.9,0.8,1.2c0.6,0.6,1,0.7,2,0.7c0.8,0,0.9,0,1.3-0.2c1.9-1,2.2-3.4,0.7-4.8
		C9.3,17,8,16.8,7,17.3c-1.1,0.5-1.7,1.4-1.7,2.5C5.2,20.2,5.3,20.6,5.3,20.8L5.3,20.8z"/>
	<path class="fill-dark" d="M12.5,27.8c0.3,0.4,0.7,0.6,1.3,0.5c0.7,0,1.1-0.3,1.3-0.7c0.3-0.6,0.2-1.3-0.4-1.7c-0.6-0.4-1.3-0.4-1.9,0.2
		C12.3,26.7,12.1,27.3,12.5,27.8L12.5,27.8z"/>
	<path class="fill-dark" d="M18,19.5c0.1,0.4,0.7,1,1.1,1.2c0.2,0.1,0.6,0.2,0.9,0.2c0.3,0,0.8,0.1,1.1,0.2c0.6,0.2,1.7,0.2,2.4-0.1
		c0.6-0.2,1.3-0.9,1.5-1.5c0.2-0.4,0.2-0.5,0.2-1.3c0-0.8,0-0.9-0.2-1.3c-0.3-0.5-1-1.2-1.5-1.5c-0.9-0.4-2.1-0.3-3,0.3
		c-1.6,1-2.1,1.4-2.4,2C17.9,18.2,17.8,19,18,19.5L18,19.5z"/>
	<path class="fill-dark" d="M30.7,14.6c0.2,0.4,0.6,0.7,1.1,0.7c0.7,0,1.2-0.5,1.2-1.1c0-0.7-0.5-1.1-1.2-1.1C30.8,13,30.3,13.8,30.7,14.6
		L30.7,14.6z"/>
	<path class="fill-dark" d="M31.8,25.7c0.1,0.8,0.7,1.5,1.8,2c0.4,0.2,0.6,0.2,1.1,0.2c0.6,0,0.7,0,1.2-0.3c0.6-0.3,1.1-0.8,1.4-1.4
		c0.3-0.7,0.3-1.6,0-2.3c-0.1-0.3-0.4-0.6-0.6-0.8c-0.8-0.8-2.1-1-3.2-0.6c-0.6,0.3-1.2,0.8-1.4,1.3c-0.2,0.3-0.4,1.1-0.3,1.3
		C31.7,25.2,31.7,25.4,31.8,25.7L31.8,25.7z"/>
	<path class="fill-dark" d="M35.5,4.7C35.7,5,36,5.1,36.4,5c0.2-0.1,0.3-0.1,0.4-0.2c0.1-0.1,0.3-0.2,0.5-0.3c0.4-0.2,0.6-0.5,0.6-1
		c0-0.6-0.5-1.1-1.1-1.1c-0.6,0-1.1,0.4-1.1,1.1c0,0.2-0.1,0.4-0.1,0.5C35.4,4.1,35.4,4.4,35.5,4.7L35.5,4.7z"/>
	<path class="fill-dark" d="M38.3,10.9c0.3,0.6,0.7,0.9,1.5,0.9c0.5,0,0.6,0,0.9-0.2c1-0.7,1-2.1,0-2.7c-0.5-0.3-1.2-0.4-1.7-0.1
		c-0.5,0.2-0.8,0.8-0.9,1.3C38.1,10.4,38.1,10.6,38.3,10.9L38.3,10.9z"/>
	<path class="fill-dark" d="M40.3,17.2c0.4,1.3,1.5,2.2,2.9,2.4c0.6,0.1,1.4,0,2-0.3c0.5-0.2,1.9-1.3,2.3-1.7c0.7-0.7,1-1.8,0.8-2.8
		c-0.2-1.2-1-2.2-2.1-2.7c-0.5-0.2-0.7-0.3-1.5-0.3c-1.4,0-2.1,0.2-3.3,1.3C40.3,14.1,39.8,15.9,40.3,17.2L40.3,17.2z"/>
	<path class="fill-dark" d="M45.6,25.9c0.4,1.2,1.4,1.9,2.6,1.9c0.5,0,0.7,0,1.1-0.2c1.7-0.8,2.2-2.9,0.9-4.3c-0.4-0.4-1.2-0.8-1.9-0.9
		c-1.5-0.1-2.7,1-2.8,2.5C45.5,25.3,45.5,25.7,45.6,25.9L45.6,25.9z"/>
	<path class="fill-dark" d="M45.8,4.7c0.3,0.7,1,1.3,1.7,1.6c1.1,0.4,2.1,0.3,3-0.4c1-0.8,1.5-2.6,0.9-3.8c-0.2-0.4-0.8-1.1-1-1.1
		c0,0-0.1-0.1-0.1-0.2c0-0.4-0.4-0.7-0.9-0.8c-0.4,0-0.4,0-0.7,0.2c-0.2,0.2-0.4,0.3-0.7,0.3c-0.9,0.1-1.8,0.8-2.2,1.6
		c-0.2,0.4-0.2,0.6-0.3,1.3C45.6,4.2,45.6,4.4,45.8,4.7L45.8,4.7z"/>
	<path class="fill-dark" d="M56.2,26.7c1.1,2.8,5,3,6.4,0.4c0.3-0.5,0.3-0.7,0.3-1.3c0-0.6,0-0.8-0.1-1.2c-0.3-1-1-1.6-1.9-2.1
		c-0.5-0.2-0.6-0.3-1.4-0.3c-0.8,0-0.9,0-1.4,0.3c-0.8,0.4-1.4,1-1.8,1.7c-0.2,0.5-0.3,0.6-0.3,1.4C56.1,26.1,56.1,26.4,56.2,26.7
		L56.2,26.7z"/>
	<path class="fill-dark" d="M56.6,15.6c0.3,0.8,1.1,1.2,1.9,1.2c0.6,0,1-0.2,1.5-0.6c1-1,0.6-2.8-0.7-3.4c-1-0.4-2.3,0.1-2.7,1
		C56.4,14.2,56.4,15.3,56.6,15.6L56.6,15.6z"/>
	<path class="fill-dark" d="M63.8,14.2c0.2,1,0.8,1.7,1.9,2.2c0.6,0.3,0.7,0.3,1.4,0.3c0.7,0,0.9,0,1.3-0.2c0.6-0.3,1.2-0.9,1.5-1.5
		c0.2-0.4,0.2-0.6,0.2-1.3c0-0.8,0-0.9-0.2-1.4c-0.4-0.9-1.5-1.7-2.6-1.9c-0.9-0.2-1.9,0.2-2.6,0.8C63.9,12,63.5,13.2,63.8,14.2
		L63.8,14.2z"/>
	<path class="fill-dark" d="M71.7,27.2c0.1,0.5,0.3,0.8,0.6,1.2c0.4,0.5,1,0.7,1.8,0.8c0.4,0,0.8,0.1,1.1,0.1c0.5,0.1,1.5-0.1,2-0.4
		c1.4-0.8,2.1-2.3,1.8-3.8c-0.2-0.8-0.5-1.4-1-2c-1.8-1.7-4.7-1.2-5.7,1c-0.2,0.4-0.3,0.8-0.4,1.2c0,0.3-0.1,0.8-0.2,1
		c0,0.2-0.1,0.4-0.1,0.4C71.7,26.8,71.7,27,71.7,27.2L71.7,27.2z"/>
	<path class="fill-dark" d="M74.6,15.5c0.1,0.4,0.8,1.2,1.2,1.5c0.4,0.3,1,0.4,1.6,0.2c1-0.2,1.5-0.5,1.8-1.2c0.5-0.9,0.3-1.8-0.4-2.5
		c-0.7-0.7-1.7-0.7-3-0.1c-0.4,0.2-0.9,0.5-1,0.5C74.6,14.3,74.4,15,74.6,15.5L74.6,15.5z"/>
</g>
<g>
 <path class="fill-blue" opacity="0.5" d="M0,30.1c0.2,0.7,0.8,1.2,1.5,1.2c1.3,0,1.9-1.5,1.1-2.4c-0.3-0.3-0.8-0.5-1.2-0.5c-0.3,0-1,0.4-1.2,0.7
		C0,29.4,0,29.8,0,30.1L0,30.1z"/>
	<path class="fill-blue" opacity="0.5" d="M5.3,20.8c0.2,0.5,0.4,0.9,0.8,1.2c0.6,0.6,1,0.7,2,0.7c0.8,0,0.9,0,1.3-0.2c1.9-1,2.2-3.4,0.7-4.8
		C9.3,17,8,16.8,7,17.3c-1.1,0.5-1.7,1.4-1.7,2.5C5.2,20.2,5.3,20.6,5.3,20.8L5.3,20.8z"/>
	<path class="fill-blue" opacity="0.5" d="M12.5,27.8c0.3,0.4,0.7,0.6,1.3,0.5c0.7,0,1.1-0.3,1.3-0.7c0.3-0.6,0.2-1.3-0.4-1.7c-0.6-0.4-1.3-0.4-1.9,0.2
		C12.3,26.7,12.1,27.3,12.5,27.8L12.5,27.8z"/>
	<path class="fill-blue" opacity="0.5" d="M18,19.5c0.1,0.4,0.7,1,1.1,1.2c0.2,0.1,0.6,0.2,0.9,0.2c0.3,0,0.8,0.1,1.1,0.2c0.6,0.2,1.7,0.2,2.4-0.1
		c0.6-0.2,1.3-0.9,1.5-1.5c0.2-0.4,0.2-0.5,0.2-1.3c0-0.8,0-0.9-0.2-1.3c-0.3-0.5-1-1.2-1.5-1.5c-0.9-0.4-2.1-0.3-3,0.3
		c-1.6,1-2.1,1.4-2.4,2C17.9,18.2,17.8,19,18,19.5L18,19.5z"/>
	<path class="fill-blue" opacity="0.5" d="M30.7,14.6c0.2,0.4,0.6,0.7,1.1,0.7c0.7,0,1.2-0.5,1.2-1.1c0-0.7-0.5-1.1-1.2-1.1C30.8,13,30.3,13.8,30.7,14.6
		L30.7,14.6z"/>
	<path class="fill-blue" opacity="0.5" d="M31.8,25.7c0.1,0.8,0.7,1.5,1.8,2c0.4,0.2,0.6,0.2,1.1,0.2c0.6,0,0.7,0,1.2-0.3c0.6-0.3,1.1-0.8,1.4-1.4
		c0.3-0.7,0.3-1.6,0-2.3c-0.1-0.3-0.4-0.6-0.6-0.8c-0.8-0.8-2.1-1-3.2-0.6c-0.6,0.3-1.2,0.8-1.4,1.3c-0.2,0.3-0.4,1.1-0.3,1.3
		C31.7,25.2,31.7,25.4,31.8,25.7L31.8,25.7z"/>
	<path class="fill-blue" opacity="0.5" d="M35.5,4.7C35.7,5,36,5.1,36.4,5c0.2-0.1,0.3-0.1,0.4-0.2c0.1-0.1,0.3-0.2,0.5-0.3c0.4-0.2,0.6-0.5,0.6-1
		c0-0.6-0.5-1.1-1.1-1.1c-0.6,0-1.1,0.4-1.1,1.1c0,0.2-0.1,0.4-0.1,0.5C35.4,4.1,35.4,4.4,35.5,4.7L35.5,4.7z"/>
	<path class="fill-blue" opacity="0.5" d="M38.3,10.9c0.3,0.6,0.7,0.9,1.5,0.9c0.5,0,0.6,0,0.9-0.2c1-0.7,1-2.1,0-2.7c-0.5-0.3-1.2-0.4-1.7-0.1
		c-0.5,0.2-0.8,0.8-0.9,1.3C38.1,10.4,38.1,10.6,38.3,10.9L38.3,10.9z"/>
	<path class="fill-blue" opacity="0.5" d="M40.3,17.2c0.4,1.3,1.5,2.2,2.9,2.4c0.6,0.1,1.4,0,2-0.3c0.5-0.2,1.9-1.3,2.3-1.7c0.7-0.7,1-1.8,0.8-2.8
		c-0.2-1.2-1-2.2-2.1-2.7c-0.5-0.2-0.7-0.3-1.5-0.3c-1.4,0-2.1,0.2-3.3,1.3C40.3,14.1,39.8,15.9,40.3,17.2L40.3,17.2z"/>
	<path class="fill-blue" opacity="0.5" d="M45.6,25.9c0.4,1.2,1.4,1.9,2.6,1.9c0.5,0,0.7,0,1.1-0.2c1.7-0.8,2.2-2.9,0.9-4.3c-0.4-0.4-1.2-0.8-1.9-0.9
		c-1.5-0.1-2.7,1-2.8,2.5C45.5,25.3,45.5,25.7,45.6,25.9L45.6,25.9z"/>
	<path class="fill-blue" opacity="0.5" d="M45.8,4.7c0.3,0.7,1,1.3,1.7,1.6c1.1,0.4,2.1,0.3,3-0.4c1-0.8,1.5-2.6,0.9-3.8c-0.2-0.4-0.8-1.1-1-1.1
		c0,0-0.1-0.1-0.1-0.2c0-0.4-0.4-0.7-0.9-0.8c-0.4,0-0.4,0-0.7,0.2c-0.2,0.2-0.4,0.3-0.7,0.3c-0.9,0.1-1.8,0.8-2.2,1.6
		c-0.2,0.4-0.2,0.6-0.3,1.3C45.6,4.2,45.6,4.4,45.8,4.7L45.8,4.7z"/>
	<path class="fill-blue" opacity="0.5" d="M56.2,26.7c1.1,2.8,5,3,6.4,0.4c0.3-0.5,0.3-0.7,0.3-1.3c0-0.6,0-0.8-0.1-1.2c-0.3-1-1-1.6-1.9-2.1
		c-0.5-0.2-0.6-0.3-1.4-0.3c-0.8,0-0.9,0-1.4,0.3c-0.8,0.4-1.4,1-1.8,1.7c-0.2,0.5-0.3,0.6-0.3,1.4C56.1,26.1,56.1,26.4,56.2,26.7
		L56.2,26.7z"/>
	<path class="fill-blue" opacity="0.5" d="M56.6,15.6c0.3,0.8,1.1,1.2,1.9,1.2c0.6,0,1-0.2,1.5-0.6c1-1,0.6-2.8-0.7-3.4c-1-0.4-2.3,0.1-2.7,1
		C56.4,14.2,56.4,15.3,56.6,15.6L56.6,15.6z"/>
	<path class="fill-blue" opacity="0.5" d="M63.8,14.2c0.2,1,0.8,1.7,1.9,2.2c0.6,0.3,0.7,0.3,1.4,0.3c0.7,0,0.9,0,1.3-0.2c0.6-0.3,1.2-0.9,1.5-1.5
		c0.2-0.4,0.2-0.6,0.2-1.3c0-0.8,0-0.9-0.2-1.4c-0.4-0.9-1.5-1.7-2.6-1.9c-0.9-0.2-1.9,0.2-2.6,0.8C63.9,12,63.5,13.2,63.8,14.2
		L63.8,14.2z"/>
	<path class="fill-blue" opacity="0.5" d="M71.7,27.2c0.1,0.5,0.3,0.8,0.6,1.2c0.4,0.5,1,0.7,1.8,0.8c0.4,0,0.8,0.1,1.1,0.1c0.5,0.1,1.5-0.1,2-0.4
		c1.4-0.8,2.1-2.3,1.8-3.8c-0.2-0.8-0.5-1.4-1-2c-1.8-1.7-4.7-1.2-5.7,1c-0.2,0.4-0.3,0.8-0.4,1.2c0,0.3-0.1,0.8-0.2,1
		c0,0.2-0.1,0.4-0.1,0.4C71.7,26.8,71.7,27,71.7,27.2L71.7,27.2z"/>
	<path class="fill-blue" opacity="0.5" d="M74.6,15.5c0.1,0.4,0.8,1.2,1.2,1.5c0.4,0.3,1,0.4,1.6,0.2c1-0.2,1.5-0.5,1.8-1.2c0.5-0.9,0.3-1.8-0.4-2.5
		c-0.7-0.7-1.7-0.7-3-0.1c-0.4,0.2-0.9,0.5-1,0.5C74.6,14.3,74.4,15,74.6,15.5L74.6,15.5z"/>
</g>
</svg>
