<svg xmlns="http://www.w3.org/2000/svg" width="100%" height="40" viewBox="0 0 866 40">
  <defs>
  </defs>
  <path class="fill-white" d="M101.425,735.753a1.679,1.679,0,0,0-2.749.2m-4.006-5.124c1-2.8,1.661-5.961,4.474-7.8a3.1,3.1,0,0,0,.96-0.982,1.793,1.793,0,0,0,.312-1.252,0.792,0.792,0,0,0-1.181-.234c-0.554.261-1.043,0.674-1.611,0.888a1.518,1.518,0,0,1-2.158-1.553c-0.006-.154-0.03-0.308-0.023-0.461,0.089-1.732,1.047-3.367,2.315-3.649a2.938,2.938,0,0,1,3.138,1.489,7.244,7.244,0,0,0,4.432,3.072c2.213,0.578,2.659.641,3.784-1.336,0.719-1.262,1.534-1.908,2.891-1.782a15.362,15.362,0,0,0,9.3-1.968,5.7,5.7,0,0,1,2.2-.675c1.532-.156,3.161.124,4.6-0.287,4.566-1.3,9.2-.627,13.8-0.774a10.508,10.508,0,0,1,7.657,2.654c1.14,1.021,2.481,1.814,3.679,2.776a2.952,2.952,0,0,0,3,.663,10.89,10.89,0,0,1,8.925.867,21.5,21.5,0,0,0,3.936,1.333c1.025,0.293,2.045,1.087,3.106.7,2.281-.843,3.756.214,5.321,1.664a5.236,5.236,0,0,0,5.637.927,8.413,8.413,0,0,0,3.416-2.31,13.338,13.338,0,0,1,4.2-2.814,5.987,5.987,0,0,1,3.988-.46,37.786,37.786,0,0,0,13.322.011,6.013,6.013,0,0,1,4.4.637q2.977,1.765,5.877,3.661a2.391,2.391,0,0,0,3,.13c1.353-1.071,2.761-.707,4.3-0.759,2.788-.1,5.468.671,8.244,0.5,2.922-.177,5.863-0.045,8.8-0.048a5.015,5.015,0,0,0-4.416-2.8,118.025,118.025,0,0,1-14.987-2.232,3.368,3.368,0,0,0-1.322-.335c-2.932,1.028-4.811-.788-6.818-2.36a15.5,15.5,0,0,0-9.849-3.362,19.617,19.617,0,0,1-3.631-.519,40.726,40.726,0,0,1-7.195-1.551c-2.874-1.128-5.17-.165-7.39,1.257-1.884,1.207-3.769,2.264-6.014,1.627-2-.568-4.085-0.694-5.8-2.467-1.577-1.632-4.173-1.79-6.468-1.967a37.221,37.221,0,0,1-4.549-.623c-2.394-.482-4.9-0.91-7.175.536a2.455,2.455,0,0,1-2.611-.062,14.066,14.066,0,0,1-2.434-1.309,9.285,9.285,0,0,0-6.347-2.337,2.729,2.729,0,0,1-1.761-.406c-1.991-1.633-4.338-1.223-6.622-1.42a67.818,67.818,0,0,0-10.465-.071c-3.494.237-7.087,0.486-10.57-.479-3.594,1.081-6.955-.132-10.371-0.98a5.258,5.258,0,0,0-2.717.056,20.856,20.856,0,0,1-6.414.56c-4.469.007-8.955,0.26-13.4-.042-5.115-.346-8.783,2.133-12.255,5.283-0.564.512-.987,1.176-1.5,1.743-1.351,1.486-2.189,1.61-4.007.566a20.308,20.308,0,0,1-2.329-1.494,5.438,5.438,0,0,0-3.814-.9,25.172,25.172,0,0,1-8.124-1.212c-1.026-.33-2.034-0.731-3.077-0.993-3.293-.828-6.4-1.929-8.693-4.655-1.719-2.039-4.566-2.42-6.532-4.218-1.027-.938-2.71-0.809-4.011-0.4a7.472,7.472,0,0,1-5.768-.7A19.59,19.59,0,0,0,9.878,693.7c-3.285.784-6.585,1.51-9.878,2.261V797H867V718.119a20.953,20.953,0,0,1-12.36-4.372,11.274,11.274,0,0,0-6.551-2.636c-2.674-.18-5.334-1.233-8.093-1.583a9.373,9.373,0,0,1-4.238-1.717,21.616,21.616,0,0,0-5.355-2.661,11.742,11.742,0,0,0-7.684-.454c-1.69.534-3.3,11.017-4.977,10.493-2.8-.875-5.814-0.157-8.646-1.229a69.529,69.529,0,0,0-7.549-2.062,5.112,5.112,0,0,1-2.329-1.42c-3.394-3.319-7.838-4.031-12.218-4.837-1.967-.361-3.215.515-4.283,2.6-1.5,2.935-3.466,4.172-6.655,3.6-3.736-.668-7.547-0.446-11.284-1.454-2.446-.66-5.2-0.234-7.815-0.18a3.617,3.617,0,0,0-2.132.714,7.92,7.92,0,0,1-5.441,2.067c-1.981-.017-3.432,1.383-4.742,2.606a6.643,6.643,0,0,1-3.882,2.08,9.773,9.773,0,0,0-6.075,3.053c-1.851,2.1-4.055-7.9-6.633-8.153-0.1,4.289,2.588,16.2,6.42,14.233a9.414,9.414,0,0,1,1.7-.7,7.589,7.589,0,0,1,3.656-.089,2.356,2.356,0,0,1,1.9,1.784,2.07,2.07,0,0,1-.178,1.761,1.126,1.126,0,0,1-1.628.273,4.887,4.887,0,0,0-5.962.233c-1.014.728-2.381,0.443-3.587,0.086-0.881-.261-1.731-11.106-2.694-10.965a1.462,1.462,0,0,0-1.241,1.635,11.185,11.185,0,0,0,2.445,4.891m0,0a11.185,11.185,0,0,1-2.445-4.891,1.462,1.462,0,0,1,1.241-1.635c0.963-.141,1.813,10.7,2.694,10.965,1.206,0.357,2.573.642,3.587-.086a4.887,4.887,0,0,1,5.962-.233,1.126,1.126,0,0,0,1.628-.273,2.07,2.07,0,0,0,.178-1.761,2.356,2.356,0,0,0-1.9-1.784,7.589,7.589,0,0,0-3.656.089,9.414,9.414,0,0,0-1.7.7c-3.832,1.968-6.515-9.944-6.42-14.233q-0.016-.93-0.031-1.859c-1.969.076-3.914,7.553-5.888,8.017-2.244.528-4.438-.412-6.545-1.2a2.522,2.522,0,0,1-.489-1.226,5.718,5.718,0,0,0-4.673-2.635c-0.072.861,0.092,2.319-.946,2.18-2.627-.354-5.188-1.209-7.9-0.8-2.027-1.76-4.509-1.387-6.895-1.46l0,0a1.8,1.8,0,0,1-1.3,1.7,5.367,5.367,0,0,1-4.035-.352,16.976,16.976,0,0,0-7.856-2.222,3.821,3.821,0,0,1-3.453-1.856c-0.971-1.775-2.609-1.9-4.368-1.835a7.253,7.253,0,0,0-3.058.918c-1.634.842-3.3,1.633-4.858,2.607a6.258,6.258,0,0,1-3.442,1.069c-6.293-.015-12.587.045-18.878-0.046-2.471-.036-4.361,7.8-5.223,5.33l0.011,0.01a10.189,10.189,0,0,1-7.69-3.46c-0.911-1.042-2,5.62-3.3,5.073-0.881-.369-1.853-0.7-2.617-0.076-1.989,1.617-4.3-6.216-6.579-6.13-3.5.133-7.032,7.033-10.472,8.215a3.246,3.246,0,0,1-3.362-.954c-2.23-2.106-4.543-4.057-7.691-4.7a1.61,1.61,0,0,1-.9-1.485c-2.526-1.224-5.146,5.606-8,5.552a13.921,13.921,0,0,1-9.23-3.627c-3.121-2.756-6.816-1.707-10.592-3.465a3.2,3.2,0,0,1-2.052.9c-2.763.367-5.144-.667-7.455-1.955a3.388,3.388,0,0,0-4.223.387c-1.941,1.553-2.053,1.474-3.865.167a5.088,5.088,0,0,0-2.4-1.291,11.318,11.318,0,0,1-4.641-1.919c-1.172-.7-2.489,6.228-3.816,5.939a43.965,43.965,0,0,1-7.871-2.6c-1.947-.828-3.955-1.71-6.223-0.731-0.592.256-1.477-.235-2.232-0.273-2.754-.138-5.425-1.51-8.15-0.99-1.892.361-3.377,9.084-4.691,7.917a16.236,16.236,0,0,0-7.695-3.961,1.772,1.772,0,0,1-1.342-1.666c-1.479-.2-2.824-0.9-4.479-0.338-2.282.768-4.5-.559-6.738-0.92-4.059-.656-8.195-1-12.139-2.32a4.684,4.684,0,0,0-3.171.186,13.7,13.7,0,0,1-5,.568c-1.225,2.284-3.81,2.57-5.79,3.475-3.287,1.5-7.05,1.776-10.543,2.889-1.419.453-2.992-8.481-4.42-7.837a7.233,7.233,0,0,1-2.647.711,11.7,11.7,0,0,0-4.895,1.2,5.23,5.23,0,0,1-2.2.632c-3.532-.013-7.089,1.535-10.586.535a14.5,14.5,0,0,0-5.946-.032c-3.842.493-7.44,1.82-11.122,2.852-2.81.788-5.569,0.761-8.339,1.687a2.151,2.151,0,0,1-2.188-.139c-1.088-.882-2.194-0.568-3.461-0.462-3.474.289-5.987,2.093-8.4,4.341a62.362,62.362,0,0,1-14.1,10.3c-1.721.874-3.055-5.468-3.866-3.7a6.889,6.889,0,0,1-2.409,3.325c-4.272,2.57-7.141-4.283-11.173-1.378-3.965,2.856-7.344-2.478-10.981.831-0.342.311-.647-5.3-1.044-5.092-4.3,2.288-7.442-11.582-10.963-8.368a16.6,16.6,0,0,1-7.462,4.42c-4.905,1.1-8.431,4.141-11.223,8.212-2.3,3.357-4.95,6.307-9.417,6.787-1.364.146-2.727-10.452-4.02-9.976a4.463,4.463,0,0,1-3.985-.263c-1.54-.864-2.839-1.878-2.949-3.823a1.844,1.844,0,0,0-1.824-1.738,7.033,7.033,0,0,1-4.135-1.712c-2.481-1.781-5.171,5.767-8.007,4.532-5.24-2.282-10.635,7.035-16.254,6.06A5.031,5.031,0,0,1,262.36,728c-1.877-1.882-4.127-1.87-6.44-1.193a9.94,9.94,0,0,1-7.621-.394,20.664,20.664,0,0,1-3.2-.31,2.774,2.774,0,0,1-2.4-2.465l0.012,0.009c-2.933,0-5.874-.129-8.8.048-2.776.168-5.456-.6-8.244-0.5-1.541.052-2.949-.312-4.3,0.759a2.391,2.391,0,0,1-3-.13q-2.9-1.89-5.877-3.661a6.013,6.013,0,0,0-4.4-.637,37.786,37.786,0,0,1-13.322-.011,5.987,5.987,0,0,0-3.988.46,13.338,13.338,0,0,0-4.2,2.814,8.413,8.413,0,0,1-3.416,2.31,5.236,5.236,0,0,1-5.637-.927c-1.565-1.45-3.04-2.507-5.321-1.664-1.061.392-2.081-.4-3.106-0.7a21.5,21.5,0,0,1-3.936-1.333,10.89,10.89,0,0,0-8.925-.867,2.952,2.952,0,0,1-3-.663c-1.2-.962-2.539-1.755-3.679-2.776a10.508,10.508,0,0,0-7.657-2.654c-4.6.147-9.239-.526-13.8,0.774-1.443.411-3.072,0.131-4.6,0.287a5.7,5.7,0,0,0-2.2.675,15.362,15.362,0,0,1-9.3,1.968c-1.357-.126-2.172.52-2.891,1.782-1.125,1.977-1.571,1.914-3.784,1.336a7.244,7.244,0,0,1-4.432-3.072,2.938,2.938,0,0,0-3.138-1.489c-1.268.282-2.226,1.917-2.315,3.649-0.008.153,0.017,0.307,0.023,0.461a1.518,1.518,0,0,0,2.158,1.553c0.568-.214,1.057-0.627,1.611-0.888a0.792,0.792,0,0,1,1.181.234,1.793,1.793,0,0,1-.312,1.252,3.1,3.1,0,0,1-.96.982c-2.814,1.84-3.476,5-4.474,7.8m4.006,5.124a1.679,1.679,0,0,1,2.749-.2m618.667-8.067c0.48-1.406,1.668-2.665.909-4.284-0.047-.192-0.1-0.338-0.119-0.489-0.087-.618-0.114-1.268.677-1.4a0.987,0.987,0,0,1,.929.817c0.721,1.343,1.551,2.632,2.221,4m-622.871,4.251a4.08,4.08,0,0,1-.435-0.606,0.539,0.539,0,0,1,.245-0.308,4.912,4.912,0,0,1,.678.353C102.164,730.205,102,730.392,101.838,730.579Zm193.656-8.506c0.11,1.945,1.409,2.959,2.949,3.823a4.463,4.463,0,0,0,3.985.263c1.293-.476,2.656,10.122,4.02,9.976,4.467-.48,7.115-3.43,9.417-6.787,2.792-4.071,6.318-7.108,11.223-8.212a16.6,16.6,0,0,0,7.462-4.42c3.521-3.214,6.667,10.656,10.963,8.368,0.4-.212.7,5.4,1.044,5.092,3.637-3.309,7.016,2.025,10.981-.831,4.032-2.9,6.9,3.948,11.173,1.378a6.889,6.889,0,0,0,2.409-3.325c0.811-1.766,2.145,4.576,3.866,3.7a62.362,62.362,0,0,0,14.1-10.3c2.416-2.248,4.929-4.052,8.4-4.341,1.267-.106,2.373-0.42,3.461.462a2.151,2.151,0,0,0,2.188.139c2.77-.926,5.529-0.9,8.339-1.687,3.682-1.032,7.28-2.359,11.122-2.852a14.5,14.5,0,0,1,5.946.032c3.5,1,7.054-.548,10.586-0.535a5.23,5.23,0,0,0,2.2-.632,11.7,11.7,0,0,1,4.895-1.2,7.233,7.233,0,0,0,2.647-.711c1.428-.644,3,8.29,4.42,7.837,3.493-1.113,7.256-1.386,10.543-2.889,1.98-.9,4.565-1.191,5.79-3.475-1.843,0-3.72-.216-5.314,1.07a2.369,2.369,0,0,1-1.237.582c-4.54.213-8.543,2.423-12.876,3.391-0.9.2-1.814-8.528-2.716-8.549a13.426,13.426,0,0,0-5.4,1.055,14.059,14.059,0,0,1-7.734.626c-1.072-.178-2.083.538-3.169,0.911a3.359,3.359,0,0,1-2.68-.35,11.638,11.638,0,0,0-10.723-.051c-4.733,2.292-9.857,2.2-14.788,3.239a2.983,2.983,0,0,1-1.365-.078,12.2,12.2,0,0,0-10.069,1c-1.806,1.07-4.078,1.57-4.993,3.811-3.923,2.067-7.378,4.958-11.581,6.525a22.992,22.992,0,0,1-2.213.645,2.523,2.523,0,0,0-2.211,2.543c-0.05,2.185-1.369,3.525-2.914,4.959-3.738,3.47-7.551-11.737-12.3-9.706a0.871,0.871,0,0,0-.392.234c-2.407,3.737-6.979-9.986-9.652-6.554a1.706,1.706,0,0,1-.329.323c-4.244,3.131-7.873,8.793-10.638,13.344-1.017,1.673-2.7-16.565-4.571-15.7-2.1.967-4.106,2.169-6.266,2.964a16.041,16.041,0,0,0-8.228,7.033c-0.162.262-.294,0.541-0.431,0.817-3.093,6.227-9.249-3.33-15.105-1.459a2.461,2.461,0,0,1-1.7-.448A6.066,6.066,0,0,0,295.494,722.073Zm205.655-8.3a1.772,1.772,0,0,0,1.342,1.666,16.236,16.236,0,0,1,7.695,3.961c1.314,1.167,2.8-7.556,4.691-7.917,2.725-.52,5.4.852,8.15,0.99,0.755,0.038,1.64.529,2.232,0.273,2.268-.979,4.276-0.1,6.223.731a43.965,43.965,0,0,0,7.871,2.6c1.327,0.289,2.644-6.635,3.816-5.939a11.318,11.318,0,0,0,4.641,1.919,5.088,5.088,0,0,1,2.4,1.291c1.812,1.307,1.924,1.386,3.865-.167a3.388,3.388,0,0,1,4.223-.387c2.311,1.288,4.692,2.322,7.455,1.955a3.2,3.2,0,0,0,2.052-.9,3.8,3.8,0,0,0-2.47-1.052,12.659,12.659,0,0,1-3.977-1.053,8.832,8.832,0,0,0-8.311-.892,1.773,1.773,0,0,1-2.069-.649c-0.958-1.367-2.346-1.75-3.845-2.2a22.62,22.62,0,0,1-4.576-2.135c-2.13-1.218-4.168,5.045-6.807,5.153-1.377.057-2.585-.87-3.694-1.715a6.472,6.472,0,0,0-6.434-1.254,8.751,8.751,0,0,1-6.723-.446,3.632,3.632,0,0,0-3.075-.473c-2.2.87-4.326,9.213-6.241,8.317A20.728,20.728,0,0,0,501.149,713.777ZM638.22,718.9c0.862,2.466,2.752-5.366,5.223-5.33,6.291,0.091,12.585.031,18.878,0.046a6.258,6.258,0,0,0,3.442-1.069c1.553-.974,3.224-1.765,4.858-2.607a7.253,7.253,0,0,1,3.058-.918c1.759-.07,3.4.06,4.368,1.835a3.821,3.821,0,0,0,3.453,1.856,16.976,16.976,0,0,1,7.856,2.222,5.367,5.367,0,0,0,4.035.352,1.8,1.8,0,0,0,1.3-1.7c-2.344.076-4.454-.127-6.389-1.929a9.917,9.917,0,0,0-6.266-2.683,3.738,3.738,0,0,1-2.559-.91c-2.858-2.809-6.3-2.12-9.572-1.356a61.252,61.252,0,0,0-7.812,2.828c-2.05.785-4.053,1.46-6.15,0.076a3.253,3.253,0,0,0-2.681-.242c-1.035.262-2.193,9.712-3.155,9.484C646.116,717.911,642.177,719.045,638.22,718.9Zm-42.6-3.511a1.61,1.61,0,0,0,.9,1.485c3.148,0.647,5.461,2.6,7.691,4.7a3.246,3.246,0,0,0,3.362.954c3.44-1.182,6.977-8.082,10.472-8.215,2.276-.086,4.59,7.747,6.579,6.13,0.764-.621,1.736-0.293,2.617.076,1.3,0.547,2.385-6.115,3.3-5.073a10.189,10.189,0,0,0,7.69,3.46,4.106,4.106,0,0,0-3.1-3.6c-1.97-.6-3.429,5.82-4.776,4.182a5.84,5.84,0,0,0-6.222-1.982c-2.585.76-5.17,0.546-7.764,0.62a25.708,25.708,0,0,0-6.83.667c-2.807.837-5.5-.071-7.868-1.626A9.259,9.259,0,0,0,595.625,715.389Zm99.07-1.8c2.386,0.073,4.868-.3,6.895,1.46,2.708-.4,5.269.45,7.9,0.8,1.038,0.139.874-1.319,0.946-2.18a18.912,18.912,0,0,1-7.95-1.289,11.547,11.547,0,0,0-4.882-.6A3.217,3.217,0,0,0,694.7,713.593Zm20.41,2.719a2.522,2.522,0,0,0,.489,1.226c2.107,0.785,4.3,1.725,6.545,1.2,1.974-.464,3.919-7.941,5.888-8.017-0.681-1.416-1.887,5.662-3.364,5.661C721.477,716.377,718.291,716.337,715.105,716.312Zm-472.412,7.329a2.774,2.774,0,0,0,2.4,2.465,20.664,20.664,0,0,0,3.2.31C247.054,724.239,244.663,724.363,242.693,723.641Zm482.016,2.687c-0.67-1.367-1.5-2.656-2.221-4a0.987,0.987,0,0,0-.929-0.817c-0.791.133-.764,0.783-0.677,1.4,0.022,0.151.072,0.3,0.119,0.489,0.759,1.619-.429,2.878-0.909,4.284M101.84,730.579c0.163-.187.324-0.374,0.486-0.561a4.912,4.912,0,0,0-.678-0.353,0.539,0.539,0,0,0-.245.308A3.954,3.954,0,0,0,101.84,730.579Z" transform="translate(0 -693.188)"/>
</svg>
