<?xml version="1.0" encoding="utf-8"?>
<!-- Generator: Adobe Illustrator 19.0.0, SVG Export Plug-In . SVG Version: 6.00 Build 0)  -->
<svg version="1.1" id="OBJECTS" xmlns="http://www.w3.org/2000/svg" xmlns:xlink="http://www.w3.org/1999/xlink" x="0px" y="0px"
	 viewBox="0 0 500 205.1" style="enable-background:new 0 0 500 205.1;" xml:space="preserve">
<style type="text/css">
	.st1{fill:#FFBDA1;}
	.st2{fill:#CE7152;}
	.st3{fill:#524F63;}
	.st4{fill:#E0E4ED;}
	.st5{fill:#91616A;}
	.st6{fill:#4A4549;}
	.st11{fill:#EAD18C;}
	.st12{opacity:0.5;fill:url(#SVGID_1_);}
	.st15{fill:url(#SVGID_1_);}
	.st17{fill:#EFF2F7;}
	.st18{fill:url(#SVGID_4_);}
	.st20{fill:#D98E9D;}
	.st21{fill:url(#SVGID_5_);}
	.st22{opacity:0.7;fill:#4A4549;}
	.st23{fill:#75454F;}
	.st25{fill:url(#SVGID_6_);}
	.st26{fill:none;stroke:#524F63;stroke-miterlimit:10;}
	.st27{fill:#BCBACE;}
	.st28{fill:url(#SVGID_7_);}
</style>
<ellipse class="fill-dark" opacity="0.04" cx="30.7" cy="186.1" rx="20.9" ry="2.9"/>
<ellipse class="fill-dark" opacity="0.04" cx="468.7" cy="187.6" rx="20.9" ry="3.8"/>
<g>
	<path class="fill-primary" opacity="0.7" d="M14.4,94.5c0,0-6.5,28.6,3.8,48.1S28.4,162,28.4,162S31.1,113.4,14.4,94.5z"/>
	<path class="st2" d="M14.8,169.2c0.6,3.5,1.4,7.1,3.2,10.2c1.7,3.1,4.5,5.8,8,6.6c1.6,0.4,3.2,0.4,4.8,0.3c1.8,0,3.6-0.2,5.2-1.1
		c2-1.2,3-3.4,3.8-5.6c1.4-3.7,2.4-7.5,3.1-11.3c0.4-2.2,0.7-4.6-0.4-6.6c-1.4-2.7-4.7-3.8-7.7-4.3c-5-0.8-11.9-1.2-16.7,0.8
		C13.9,160,14.2,165.3,14.8,169.2z"/>
	<path class="fill-dark" d="M26.2,162c4,0.2,8.3-0.4,10.8-1.7c0.5-0.3,0.9-0.6,0.7-0.9c-0.3-0.4-1.3-0.6-2.3-0.6
		c-4.8-0.5-10.1-0.7-14.8,0.1C13.8,160,22.6,161.8,26.2,162z"/>
	<path class="fill-primary" d="M24.1,87.4c0,0-3.2,54.5,4.3,74.5C28.4,162,33.3,113.4,24.1,87.4z"/>
	<path class="fill-primary" opacity="0.7" d="M27.5,161.6h1.8c2.6-10.8,10.3-45.8,6.2-62.1c0,0-13,45.9-9.7,56.2C26.5,158.3,27.1,160.2,27.5,161.6z"/>
</g>
<g>
	<path class="fill-primary" opacity="0.7" d="M453.4,96.3c0,0-6.5,28.6,3.8,48.1c10.3,19.4,10.3,19.4,10.3,19.4S470.1,115.2,453.4,96.3z"/>
	<path class="st2" d="M453.8,171c0.6,3.5,1.4,7.1,3.2,10.2c1.7,3.1,4.5,5.8,8,6.6c1.6,0.4,3.2,0.4,4.8,0.3c1.8,0,3.6-0.2,5.2-1.1
		c2-1.2,3-3.4,3.8-5.6c1.4-3.7,2.4-7.5,3.1-11.3c0.4-2.2,0.7-4.6-0.4-6.6c-1.4-2.7-4.7-3.8-7.7-4.3c-5-0.8-11.9-1.2-16.7,0.8
		C452.9,161.8,453.2,167.2,453.8,171z"/>
	<path class="fill-dark" d="M465.2,163.9c4,0.2,8.3-0.4,10.8-1.7c0.5-0.3,0.9-0.6,0.7-0.9c-0.3-0.4-1.3-0.6-2.3-0.6
		c-4.8-0.5-10.1-0.7-14.8,0.1C452.8,161.8,461.6,163.7,465.2,163.9z"/>
	<path class="fill-primary" d="M463.1,89.3c0,0-3.2,54.5,4.3,74.5C467.4,163.8,472.3,115.2,463.1,89.3z"/>
	<path class="fill-primary" opacity="0.7" d="M466.5,163.4h1.8c2.6-10.8,10.3-45.8,6.2-62.1c0,0-13,45.9-9.7,56.2C465.5,160.2,466.1,162.1,466.5,163.4z"/>
</g>
<ellipse class="fill-dark" opacity="0.04" cx="96.4" cy="193.7" rx="47.1" ry="6.1"/>
<ellipse class="fill-dark" opacity="0.04" cx="403.7" cy="197.8" rx="40" ry="7.3"/>
<ellipse class="fill-dark" opacity="0.04" cx="204.6" cy="192.3" rx="47.1" ry="6.1"/>
<ellipse class="fill-dark" opacity="0.04" cx="328.6" cy="190.4" rx="47.1" ry="6.1"/>
<ellipse class="fill-dark" opacity="0.04" cx="254.4" cy="180.3" rx="28.1" ry="6.1"/>
<g>
	<path class="st4" d="M104.7,31.5l17.8,2.9l-8.5-7.7l4-4.5l15.4,13.7c2.1,2.2,0.6,5.9-2.5,6l-21.5,0.7L104.7,31.5z"/>
	<polygon class="fill-blue" points="112.2,77 111.8,193 105.7,193.4 101.5,95.1 95.8,95.5 90,192.6 83.9,192.1 84.7,74.9 	"/>
	<path class="st4" d="M104.7,31.5l-20.5-0.9c-2.1-0.1-4.2,0.8-5.5,2.4l6,47l28,0.6l-2.6-43.1C110.2,37.6,105.5,31.5,104.7,31.5z"/>
	<path class="fill-white" d="M114,22.5c-1.1,0.9-2.6,1.7-2.8,3.1c-0.2,1.2,0.7,2.5,1.9,2.9s2.5,0.2,3.6-0.3c1.8-0.8,3.3-2.5,3.7-4.5
		c0.2-1.4-0.4-4.2-2.1-4.7C116.4,18.5,115.4,21.4,114,22.5z"/>
	<polygon class="fill-dark" points="83.9,192.1 72,195.7 72.5,196.7 89.7,194.8 90,192.6 	"/>
	<path class="st1" d="M45.5,31.9l-1.9-3.2l2.1-4.3c0,0,1.1-3,1.1-4c0-0.9-0.9-2.3-1.9-0.6c-0.9,1.7-1.9,3-1.9,3l-5.6-8.3
		c-0.2-0.2-0.4-0.4-0.7-0.4l0,0c-0.6,0-1.1,0.7-0.8,1.3l1.3,2.4c0.4,0.8-0.5,1.6-1.2,1.1l-0.3-0.2c-1.4-1-3.3-0.6-4.3,0.8l-0.1,0.1
		l0.1,2.8c0.1,1.8,0.9,3.5,2.3,4.6c3.3,2.7,9.1,7.4,9.3,7C43.3,33.6,45.5,31.9,45.5,31.9z"/>
	<path class="st1" d="M109.2,13.4c-0.8-0.4-1.8,0-2.3,0.7c-0.5,0.7-0.5,1.7-0.2,2.5c0.5,1.5,2.2,2.6,3.8,2.3
		c1.6-0.2,2.9-1.9,2.6-3.4c-0.2-1.1-1-2.1-2.1-2.5c-1.1-0.4-2.3-0.3-3.4,0.1"/>
	<path class="st1" d="M108.8,15.2l9.2,7.3c0,0,0.2,4-2,4.4c-0.7,0.4-9.2-8.6-9.2-8.6L108.8,15.2z"/>
	<path class="fill-dark" d="M105.7,193.4l0.3,1.9l14.9,2.5c0,0,0.7-1.2,0.3-1.3c-0.4-0.1-9.4-3.5-9.4-3.5L105.7,193.4z"/>
	<path class="st1" d="M91.1,21.6l0.5,12.8c0,1.5,1.1,2.7,2.5,3l0,0c1.7,0.3,3.2-0.9,3.5-2.6l0.6-11.1L91.1,21.6z"/>
	<g>

			<rect x="102.2" y="10.3" transform="matrix(0.9831 0.1829 -0.1829 0.9831 4.9255 -19.0124)" class="st3" width="6.6" height="13.9"/>

			<rect x="102.3" y="10.2" transform="matrix(0.9831 0.1829 -0.1829 0.9831 4.9071 -18.9474)" class="st3" width="5.9" height="13.9"/>
	</g>
	<path class="fill-white" d="M90.4,32.5c0,0-0.9,0.8-1,1.1c-0.1,0.3,3.6,6,3.6,6l2.5-3.9l3.1,3.9l1.3-7.1L97.7,32l-2.3,2.7l-4.1-3.3
		L90.4,32.5z"/>
	<polygon class="fill-primary" points="95.4,35.6 93.9,38.2 95,40.1 94.4,41.6 95,60.4 97.1,62.8 99.1,60.6 97.1,41.5 95.9,40 97.3,38 	"/>
	<path class="st1" d="M85.8,7.9c-1.3,3-1.2,6.4-0.5,9.6c0.7,3.5,2.2,6.9,4.9,9.2s7,2.9,9.8,0.7c1.7-1.3,2.6-3.3,3.3-5.3
		c1.3-4,1.5-8.5-0.1-12.3C100.2,2.8,89.4-0.5,85.8,7.9z"/>
	<polygon class="st4" points="81.2,46.6 59.2,53.7 43.2,36.3 47.2,33 61.9,45.1 78.7,33.1 81.5,38.1 	"/>
	<polygon class="fill-white" points="40.7,35.1 42.3,37.7 49.9,33.4 46.9,30.4 	"/>
	<path class="st1" d="M82,13.6c-1,0.4-1.4,1.6-1.3,2.6c0.1,1,0.7,2,1.3,2.8c0.4,0.5,0.7,0.9,1.2,1.2c0.5,0.3,1,0.4,1.6,0.5
		c0.7,0.1,1.5,0,1.9-0.5c0.2-0.3,0.3-0.7,0.3-1c0.2-1.7-0.2-2.4-1.2-3.6C84.9,14.4,83.7,12.9,82,13.6z"/>
	<path class="st3" d="M88.3,13.7c-0.1,1.8-1,3.6-2.5,4.5c-1.2-1.5-1.8-3.4-2-5.2c-0.3-2.3,0.1-4.8,1.5-6.7c1.6-2.2,4.2-3.4,6.9-3.6
		c2.7-0.2,5.3,0.5,7.8,1.5c1.1,0.4,2.4,0.9,3.3,0.1c0.4,0.8,0.7,1.7,0.7,2.6c0,0.7-0.1,1.4-0.5,2c-0.7,1-1.7,2.1-2.9,2.3
		c-8.7,1.9-12.7-2.8-12.8-2.6c-0.1,0.5,0.1,1,0.2,1.5C88.2,11.3,88.4,12.5,88.3,13.7z"/>
</g>
<g>
	<path class="st11" d="M216.1,111.2l-2.5-48.1c0,0-12.4-0.7-16-0.7c-2,0-5.4,1-8.1,1.8c-2.5,0.8-4.6,0.7-5.9,3.1l-20.3,38.9
		l12.5,1.2l4.2-4.7l-2.1-3.2l7.6-17.9l-0.1,30.3L216.1,111.2z"/>
	<linearGradient id="SVGID_1_" gradientUnits="userSpaceOnUse" x1="171.678" y1="89.0652" x2="185.3835" y2="89.0652">
		<stop  offset="0" style="stop-color:#EAD18C;stop-opacity:0"/>
		<stop  offset="1" style="stop-color:#524F63;stop-opacity:0.7"/>
	</linearGradient>
	<path class="st12" d="M185.1,74.4l-13.4,24.3l4.2,4.9c0,0,1.7,0.3,3.3-0.2l0.7-0.8l-2.1-3.2l7.6-17.9L185.1,74.4z"/>
	<path class="st5" d="M195.8,101.4c-0.5-0.2-4.7-2.6-7.8-2.6c-3.1,0-6.9,3.3-6.9,3.3s-0.5,1.7,1.6,1.4c2.1-0.3,3.5-0.5,3.5-0.5
		s-3.6,1.9-1.2,2.3s12.7,0,12.7,0L195.8,101.4z"/>
	<path class="fill-primary" opacity="0.5" d="M195.1,108.5h-40v-2.9h40c0.8,0,1.5,0.7,1.5,1.5l0,0C196.5,107.8,195.9,108.5,195.1,108.5z"/>
	<path class="fill-primary" d="M184.1,108.5h-38.6c-1.7,0-3.2-1.1-3.6-2.8L135,80c-0.6-2.4,1.2-4.7,3.6-4.7h33.7c1.7,0,3.2,1.1,3.6,2.8
		L184.1,108.5z"/>
	<linearGradient id="SVGID_2_" gradientUnits="userSpaceOnUse" x1="134.8693" y1="91.4669" x2="166.5617" y2="91.4669">
		<stop  offset="0" style="stop-color:#CC4662;stop-opacity:0"/>
		<stop  offset="1" style="stop-color:#138267;stop-opacity:0.5018"/>
	</linearGradient>
	<path class="fill-dark" opacity="0.2" d="M138.6,75.3c-2.5,0-4.3,2.3-3.6,4.7l6.8,25.7c0.2,0.8,0.7,1.5,1.3,2l23.5-32.4H138.6z"/>
	<path class="fill-white" d="M161.3,94.2c0.4,1.7-0.6,3-2.4,3c-1.7,0-3.5-1.4-3.9-3c-0.4-1.7,0.6-3,2.4-3C159.2,91.1,160.9,92.5,161.3,94.2
		z"/>
	<path class="st5" d="M196.3,56.4c0.3,0.7,2.8,10.2,2.8,10.2s0.9,1.6,2.9,1.4c2.1-0.2,2.9-3.1,2.9-3.1l-3.6-12L196.3,56.4z"/>
	<path class="st5" d="M209.2,50.5c0,6.6-7,13.8-13.5,13.8c-6.6,0-10.2-7.3-10.2-13.8s5.3-11.9,11.9-11.9
		C203.9,38.6,209.2,43.9,209.2,50.5z"/>
	<path class="fill-white" d="M198.3,63.7l-1.4,3.6l0.9,3.8l2.8-4l2.8,4.5l3.1-5.5l-2.1-3.6c0,0-1,2.4-3.3,2.9
		C198.8,65.9,198.3,63.7,198.3,63.7z"/>
	<polygon class="fill-primary" points="200.5,67.1 198.4,69.7 199.5,71.3 197.9,74.6 198.3,96.2 200.3,100.6 203.3,95.7 202.6,75.1 201,71.1
		202.2,69.4 	"/>
	<linearGradient id="SVGID_3_" gradientUnits="userSpaceOnUse" x1="179.0091" y1="106.5507" x2="246.5614" y2="79.8309">
		<stop  offset="0" style="stop-color:#EAD18C;stop-opacity:0"/>
		<stop  offset="1" style="stop-color:#524F63;stop-opacity:0.7"/>
	</linearGradient>
	<polygon class="st15" points="215.1,73.1 215.9,111.1 198,110.9 	"/>
	<path class="st11" d="M213.6,63.1l1.6,35.8l-16.6,3.4l2.3,4.3l23.7,1.4l-3.2-35.4c-0.3-3.7-2.5-6.9-5.8-8.5L213.6,63.1z"/>
	<polygon class="fill-white" points="195.8,101.4 199.1,101.8 202.1,106.6 196.5,107 	"/>
	<path class="fill-blue" d="M179.3,117.7l-29.3,7.5l14.9,58.6l5.1-2.6l-4.4-50.4l26.2-8.2l-15.2,8.7l0.3,47.8h4.6c0,0,12.9-46.8,14.1-46.8
		c1.3,0,22.9-14.4,22.9-14.4L179.3,117.7z"/>
	<polygon class="fill-dark" points="149.2,188.3 169.5,186.9 170.1,180.5 148.3,185.4 	"/>
	<polygon class="fill-dark" points="165.7,191.9 169.8,192.5 181.4,188.1 181.6,179.1 177,179.1 175,184.7 168.7,188.5 	"/>
	<path class="st6" d="M185,46.3c-0.5,0.9-0.9,1.9-0.6,2.8c0.4,1.1,1.8,1.5,3,1.6c2,0.2,4.1,0.3,6.1,0.3c1.4,0,2.7-0.1,4.1-0.4
		c2.2-0.5,4.1-1.6,6.1-2.7c1.4-0.8,2.9-1.8,3.2-3.3c0.2-1.6-0.9-3-1.9-4.1c-0.6-0.7-1.2-1.3-1.9-1.9c-1.8-1.3-4.1-1.6-6.3-1.3
		C191.4,38.1,187.5,41.7,185,46.3z"/>
	<path class="st6" d="M204.4,50.1c0.2-0.6,1-1,1.6-0.7c0.6,0.2,1,0.8,1.1,1.5c0.1,0.6-0.1,1.3-0.4,1.9c-0.1,0.3-0.3,0.6-0.4,0.9
		c-0.1,0.3-0.1,0.5-0.1,0.8c0,1.2,0,2.3,0.1,3.5c1-0.4,1.5-1.3,2-2.2c1.1-2,2.2-4.1,2-6.4c-0.1-1.9-1-3.6-2-5.2
		c-0.2-0.3-0.4-0.7-0.7-0.9c-0.5-0.3-1.1-0.3-1.6-0.2c-0.5,0.2-1,0.5-1.5,0.8c-0.5,0.3-0.9,0.6-1.4,0.9c-0.4,0.3-0.9,0.6-1.2,1.1
		c-0.4,0.9,0.2,1.3,0.7,1.8C203,47.9,202.5,53.7,204.4,50.1z"/>
	<g>
		<path class="st17" d="M187,60.1c-1.6,0-3.3-1.3-3.9-3c-0.3-0.9-0.2-1.7,0.2-2.3c0.4-0.5,1-0.8,1.7-0.8c1.6,0,3.3,1.3,3.9,3
			c0.3,0.9,0.2,1.7-0.2,2.3C188.3,59.8,187.7,60.1,187,60.1z M184.9,54.4c-0.6,0-1.1,0.2-1.3,0.6c-0.3,0.5-0.4,1.2-0.1,1.9
			c0.5,1.5,2.1,2.7,3.5,2.7c0.6,0,1.1-0.2,1.3-0.6c0.3-0.5,0.4-1.2,0.1-1.9C187.9,55.6,186.3,54.4,184.9,54.4z"/>
	</g>
	<g>
		<path class="st17" d="M194.8,60.1c-1.6,0-3.3-1.3-3.9-3c-0.3-0.9-0.2-1.7,0.2-2.3c0.4-0.5,1-0.8,1.7-0.8c1.6,0,3.3,1.3,3.9,3
			c0.3,0.9,0.2,1.7-0.2,2.3C196.2,59.8,195.6,60.1,194.8,60.1z M192.8,54.4c-0.6,0-1.1,0.2-1.3,0.6c-0.3,0.5-0.4,1.2-0.1,1.9
			c0.5,1.5,2.1,2.7,3.5,2.7c0.6,0,1.1-0.2,1.3-0.6c0.3-0.5,0.4-1.2,0.1-1.9C195.8,55.6,194.2,54.4,192.8,54.4z"/>
	</g>
</g>
<g>
	<path class="st3" d="M238.3,31.9c0.1,1.9,1.1,3.7,0.6,5.5c-0.4,1.5-1.8,2.5-2.2,4c-0.5,1.7,0.4,3.4,1.2,4.9
		c0.7,1.3,1.7,2.7,3.1,2.7c0.6,0,1.2-0.3,1.8-0.6c1.4-0.7,2.8-1.4,4.2-2.1c0.6-0.3,1.2-0.6,1.7-1.1c0.7-0.7,1.1-1.7,1.4-2.6
		c1.1-2.9,2-6,1.8-9.1c-0.2-3.1-1.9-6.3-4.9-7.5c-1.6-0.6-6.4-1.2-7.8,0.2c-0.6,0.6-0.3,1.3-0.4,2.1
		C238.7,29.7,238.2,30.7,238.3,31.9z"/>
	<path class="st1" d="M241.7,41.3l-1.4,0.4c-5.9,3.8-9.3,9.2-10.1,16.1l-3,48.6l4.5-2L241.7,41.3z"/>
	<path class="fill-primary" d="M271.4,40.9l-24-1c-2-0.1-5.6,0.6-7.6,1.2l-3.1,1.4l5.4,25.7h0c-4.9,8.3-7.4,17.9-7.1,27.5l2.9,35.1h26.9
		l3.4-37c0.3-7.6-1.1-15.1-4.1-22.1l-1.5-3.4L271.4,40.9z"/>
	<linearGradient id="SVGID_4_" gradientUnits="userSpaceOnUse" x1="245.9988" y1="63.774" x2="258.6563" y2="30.293">
		<stop  offset="0" style="stop-color:#336699;stop-opacity:0"/>
		<stop  offset="1" style="stop-color:#136F67"/>
	</linearGradient>
	<path class="st18" d="M242.6,51.2c0.7,1.2,1.6,2.3,2.8,3.1c1.6,0.9,3.6,1.1,5.4,0.7c1.8-0.4,3.5-1.2,5.1-2.2
		c2.9-1.7,5.6-3.7,7.8-6.3c1.5-1.8,2.6-4.5,1.4-6.5c-0.8-1.3-2.3-1.9-3.8-2.3C253.5,35.5,236.6,40,242.6,51.2z"/>
	<path class="st1" d="M261.1,28.3c0,6.4-6.8,15.1-13.2,15.1c-6.4,0-9.9-8.7-9.9-15.1c0-6.4,5.2-11.6,11.6-11.6
		C255.9,16.8,261.1,22,261.1,28.3z"/>
	<path class="st1" d="M271.4,40.9l16.7,21.7c1.7,2.3,1.1,5.6-1.3,7.1l-19.5,11.9l-2.4-3.8l13.4-10.7c1-0.8,1.2-2.2,0.5-3.2
		l-10.1-14.4L271.4,40.9z"/>
	<path class="st1" d="M218,108.5h10.5c1.7,0,3.1-1.3,3.2-3l0.1-1.2L218,108.5z"/>
	<path class="st1" d="M246.4,36.1c-0.2-0.4,2.8,7.6,2.8,7.6s0.7,3.3,3.4,2.5c2.8-0.8,1.1-12.5,0.7-12.6S246.7,36.8,246.4,36.1z"/>
	<path class="st3" d="M253.3,26.8c-5.4,3.3-11,6.6-17.2,7c1.4-1.7,1.1-4.2,1.4-6.5c0.4-3.6,2.6-7.1,5.7-9c3.1-1.9,7.1-2.4,10.6-1.2
		c1.3,0.5,2.5,1.2,3.3,2.3C259.3,22.7,255.7,25.3,253.3,26.8z"/>
	<path class="st3" d="M252.8,39.7c0.4,1.7,1.4,3.2,1.6,5c0.1,1.1-0.1,2.3-0.4,3.4c-0.3,1.3-0.6,2.7-0.9,4c1.9-0.4,3.6-1.3,5-2.5
		c5.4-4.3,8.1-11.6,6.9-18.3c-0.3-1.9-1-3.8-1.7-5.6c-0.5-1.4-1.1-2.8-2.1-4c-0.9-1.2-2.3-2.1-3.8-2.1c-1.8,0-3.4,1.1-4.5,2.6
		c-0.7,1-1.2,2.2-1.2,3.4c0,1.2,0.5,5.4,1.6,5.9c1.4-0.9,3.6-0.1,4.1,1.5c0.9,2.5-1.3,3-2.8,3.8C252.8,37.7,252.4,37.7,252.8,39.7z"
		/>
	<path class="st3" d="M265.1,32.1c1.1,0.9,2.4,1.5,3.4,2.5c1,1,1.7,2.5,1.1,3.9c-0.3,0.8-1.1,1.4-1.7,2c-0.6,0.6-1.2,1.4-1.1,2.3
		c0.1,0.6,0.4,1.1,0.8,1.6c0.9,1.3,1.6,2.8,1.3,4.3c-0.2,1.2-1.1,2.3-2.1,2.9c-1.1,0.6-2.4,0.8-3.6,0.6c-0.7-0.1-1.4-0.3-2.1-0.3
		c-1.9,0.1-3.4,1.8-5.3,2c-1.1,0.1-2.2-0.3-2.9-1.1c-0.7-0.8-1.1-1.9-0.9-3c0.3-1.7,1.8-3,3.2-4c1.4-1.1,2.9-2.4,3.1-4.1
		c0.2-1.3-0.5-2.6-0.3-3.9c0.2-1.9,2-3.3,2.4-5.1c0.2-1-0.1-3.7,1.5-3.7C263,29.1,264.1,31.4,265.1,32.1z"/>
	<path class="st3" d="M251.3,30c-0.3,0.6-0.8,1.2-1.2,1.8c-0.6,0.8-1.2,1.6-1.8,2.4c0.4-1.6,0.6-3.2,0.4-4.8c0-0.2-0.1-0.5,0-0.7
		c0.1-0.5,0.5-0.8,0.9-1c0.6-0.4,2-1.6,2.6-0.8C252.6,27.5,251.6,29.5,251.3,30z"/>
</g>
<g>
	<polygon class="st3" points="265.4,74.3 264.3,75.3 268.1,79.8 	"/>
	<path class="st20" d="M346.6,111.2l-2.5-48.1c0,0-12.4-2.6-16-2.6c-2,0-5.4,1-8.1,1.8c-2.5,0.8-4.6,2.6-5.9,5l-20.3,38.9l12.5,1.2
		l4.2-4.7l-2.1-3.2l7.6-17.9l-0.1,30.3L346.6,111.2z"/>
	<path class="st1" d="M345,49.2c0,6.6-5.3,11.9-11.9,11.9c-3.6,0-6.2-3.8-8.3-6.3c-1.8-2.1-3.1-2.7-3.1-5.6
		c0-6.6,4.9-11.8,11.5-11.8S345,42.6,345,49.2z"/>
	<polygon class="st3" points="314.6,108.5 273.1,108.5 264.3,75.3 305.8,75.3 	"/>
	<polygon class="fill-white" points="314.6,108.5 274.4,108.5 265.4,74.3 306,75.3 	"/>
	<rect x="273.4" y="106.1" class="st3" width="28.5" height="2.4"/>
	<linearGradient id="SVGID_5_" gradientUnits="userSpaceOnUse" x1="315.7709" y1="90.7114" x2="345.7985" y2="90.7114">
		<stop  offset="0" style="stop-color:#B6567A;stop-opacity:0"/>
		<stop  offset="1" style="stop-color:#C45771"/>
	</linearGradient>
	<path class="st21" d="M329.9,102.9l15.9-7.6l-1.3-25.6l-2.8,0.2l-20.6,21.6c0,0-3.1,8-5.3,14.4l0,5.9l21.4-0.4L329.9,102.9z"/>
	<polygon class="fill-primary" points="303.5,100.8 281.4,100.8 276.4,82 298.8,82.5 	"/>
	<path class="fill-primary" d="M309.8,117.7l-29.3,7.5l14.9,58.6l5.1-2.6l-4.4-50.4l26.2-8.2l-15.2,8.7l0.3,47.8h4.6c0,0,12.9-46.8,14.1-46.8
		c1.3,0,22.9-14.4,22.9-14.4L309.8,117.7z"/>
	<polygon class="fill-dark" points="279.7,188.3 300,186.9 300.6,180.5 278.8,185.4 	"/>
	<path class="st17" d="M325.6,65.5c0.2,2.3,0.6,4.6,1.3,6.8c0.1,0.5,0.3,1,0.7,1.3c0.8,0.6,2,0.1,2.9-0.5c1.5-1,2.9-2.2,4-3.7
		c0.7-0.9,1.4-1.9,1.6-3.1c0.2-1.1,0-2.5-0.9-3.2c-1.4-1.2-4.3-1.1-6-1.2C326.8,62,325.4,63,325.6,65.5z"/>
	<polygon class="fill-dark" points="296.2,191.9 300.3,192.5 311.9,188.1 312.1,179.1 307.5,179.1 305.5,184.7 299.2,188.5 	"/>
	<path class="st1" d="M328.6,55.2l-0.9,10c0,0,0.7,4.2,3.2,3.5c2.5-0.7,2.8-2.6,2.8-2.6l1.1-12L328.6,55.2z"/>
	<path class="st6" d="M337.5,45.3c1.9-0.1,3.8-0.2,5.5-1c1.7-0.8,3.1-2.5,3.1-4.3c0-1.9-2-3.6-3.7-3.1c-0.4,0.1-0.8,0.4-1.2,0.5
		c-0.6,0.2-1.3,0-2-0.2c-4.8-1.4-10.2-2.4-14.7-0.1c-0.8,0.4-1.6,1-2.1,1.8c-0.3,0.6-0.4,1.4-0.5,2.1c-0.2,1.9-0.3,3.9-0.4,5.8
		c1.3-0.7,2.6-1.5,3.9-2.1c1.3-0.6,2.2,0,3.6,0.3C331.8,45.5,334.7,45.4,337.5,45.3z"/>
	<path class="st22" d="M326.3,42.1c-1.2-0.2-2.5,0.2-3.5,1c-0.9,1.5-1.5,3.2-1.6,5c0.1,0.6,0.3,1.3,0.2,1.9c0,0.4,0.2,1,0.4,1.7
		c0.7,1,1.8,1.7,2.9,3c0,0.1,0.1,0.1,0.1,0.2c1.2-2,3-6.5,3.4-7c0.5-0.7,2.3-2.8,2-3.7C329.9,43.3,327.2,42.3,326.3,42.1z"/>
	<path class="st1" d="M326.3,47c-0.1-0.1-0.2-0.3-0.3-0.4c-0.2-0.1-0.4-0.1-0.6-0.1c-0.8,0-1.7,0.1-2.2,0.7
		c-0.2,0.3-0.3,0.6-0.4,0.9c-0.2,0.8-0.2,1.6-0.1,2.4c0.1,1.2,0.7,2.6,1.9,2.8c0.7,0.2,1.5-0.1,2-0.6C328.6,51,327.6,48.8,326.3,47z
		"/>
	<path class="st6" d="M341.4,53.2c0.6-0.1,1.2-0.3,1.9-0.1c0.6,0.1,1.2,0.6,1.2,1.3c0,0.3-0.1,0.6-0.1,0.9
		c-0.2,0.9,0.2,1.9,0.5,2.8c0.7,1.9,1.2,4.3,0,6c-1.1,1.6-3.3,2-5.2,2c-5.8-0.3-11.2-4.4-13-9.9c-0.6-1.9-0.8-4-0.2-5.9
		c0.2-0.6,0.7-1.3,1.3-1c0.3,2.2,1.8,4.3,3.8,5.3C335.1,56.2,338,54,341.4,53.2z"/>
	<g>
		<path class="st3" d="M266.7,75.3l38.6,0.9l8,31.2h-38.2L266.7,75.3 M265.4,74.3l9,34.2h40.2L306,75.3L265.4,74.3L265.4,74.3z"/>
	</g>
	<path class="fill-white" d="M330.5,108.5h-57.1v-2.4h57.1c0.7,0,1.2,0.5,1.2,1.2l0,0C331.7,108,331.2,108.5,330.5,108.5z"/>
	<path class="fill-primary" d="M301.6,108.5h-28.2v-2.4h28.2c0.7,0,1.2,0.5,1.2,1.2l0,0C302.8,108,302.3,108.5,301.6,108.5z"/>
	<path class="st20" d="M344.1,63.1l-10.4,27.5l-26.5,3.5l1,5.3l33.9-1.1l9.2-24.1c0.5-1.2,0.5-2.5,0.2-3.7c-0.8-2.7-2.8-5-5.4-6.3
		L344.1,63.1z"/>
	<path class="st1" d="M307.3,94.1L293,86.4c0,0-0.8,1.1,0.4,2.1c1.1,0.9,4.7,3.6,4.7,3.6v2.1c1.2,3.9,4.9,5.7,8.9,5.3l1.3-0.1
		L307.3,94.1z"/>
</g>
<g>
	<path class="st23" d="M365.5,108.4h-17.1c0,0-0.5-1.2,2.2-1.7c2.7-0.5,10.4-0.7,10.4-0.7l2-2.2l2.7,0.7L365.5,108.4z"/>
	<path class="fill-primary" d="M379.5,56.3l-18.2,49l4.5,1.1l27.9-47.8c0,0-0.8-3.1-5.5-6.1C383.4,49.6,379.5,56.3,379.5,56.3z"/>
	<path class="st5" d="M380,33.8c-3.5-5.5-10.9-7.1-16.4-3.6c-3.1,2-5.1,5.5-5.4,9.2c-0.2,1.8-0.2,2.5,0.6,4.2
		c0.8,1.7,2.8,4.1,1.6,7.5c-0.3,0.8,0,2,0.9,2.4c0.9,0.4,1.8-0.6,2.7-0.7c1.7-0.1,5.1,2.5,6.3,3.6c0.5,0.4,1.1,0.9,1.8,1
		c0.6,0.1,1.2-0.1,1.7-0.4c2.6-1.4,4.2-4.1,5.5-6.7c1.2-2.5,2.3-5.1,2.5-7.8C382.2,39.6,381.7,36.5,380,33.8z"/>
	<path class="st5" d="M379.5,56.8c0.5,0.5,1.1,1.1,1.8,1c0.3,0,0.6-0.2,0.9-0.4c0.7-0.5,1.4-1.1,2-1.7c0.4-0.4,0.7-0.8,0.8-1.4
		c0-0.3-0.1-0.6-0.2-0.9c-1.2-2.7-3.7-4.8-4.5-7.6c-0.4-1.3-0.4-2.7-0.9-3.9c-0.4-1.3-1.5-2.5-2.8-2.5c-0.8,0-1.5,0.4-2.2,0.8
		c-2.1,1.5-3.3,4.2-3.1,6.8c0.2,2.3,1.5,4.5,3.5,5.8C376.6,54,377.9,55.2,379.5,56.8z"/>
	<path class="st6" d="M363.5,30.2c-2.2,1.4-3.8,3.6-4.7,6.1c2.3,1.1,8.1-1.4,9.7-2.3c-0.2,4,2,8,5.4,10c2.1,1.2,4.6,1.8,6.6,3
		c0.5-1.5,1-3,1.1-4.5c0.6-2.9,0.1-6-1.7-8.7C376.4,28.3,369.1,26.7,363.5,30.2z"/>
	<path class="st5" d="M369.9,42.3c-0.7-1.2,0-2.9,1.3-3.6c1.3-0.6,2.9-0.2,3.9,0.7c1,1,1.4,2.5,1.3,3.9c-0.1,1.8-1.4,3.7-3.2,3.6
		c-1,0-1.8-0.7-2.4-1.5c-0.5-0.8-0.8-1.8-1.1-2.7"/>
	<polygon class="fill-white" points="386.1,50.7 382.7,46.7 377.3,56.6 379.3,62.8 386.4,54.8 	"/>
	<path class="fill-primary" opacity="1" d="M389.9,51.2l31.8,35.4l-19.5,17.1l-23.9-36.7c-2.4-3.5,1.3-11.3,3.7-14.8l0,0
		C383.9,49.7,387.5,49.2,389.9,51.2z"/>
	<polygon class="fill-dark" points="420.6,195.3 412.1,147 402.3,103.8 421.7,86.6 420.6,146.5 425.4,192.9 	"/>
	<polygon class="fill-blue" opacity="0.7" points="420.6,195.3 412.1,147 402.3,103.8 421.7,86.6 420.6,146.5 425.4,192.9  "></polygon>
	<polygon class="fill-blue" points="421.7,86.6 405.7,196.8 400.8,196 402.3,103.8 	"/>
	<polygon class="fill-dark" points="391.9,200.3 404.8,199.8 405.5,195.8 401.8,195.4 389.4,198.8 389.7,200.5 	"/>
	<polygon class="fill-dark" points="425.4,192.9 425.8,196.6 410.9,197.5 410.8,196.3 423.9,192.1 	"/>
	<path class="st5" d="M359.1,108.4h-17.1c0,0-0.5-1.2,2.2-1.7c2.7-0.5,11-0.7,11-0.7l1.4-2.3l3.7,1.4L359.1,108.4z"/>
	<path class="fill-primary" opacity="0.7" d="M383.4,54.4l-12.9,24.4l-15.5,27.1l5,0.2L373.8,87l18.3-23.4c2.4-1.9,3.1-5.2,1.7-7.9l0,0
		C391.9,51.7,386.4,51,383.4,54.4z"/>
	<linearGradient id="SVGID_6_" gradientUnits="userSpaceOnUse" x1="385.6591" y1="89.0442" x2="389.9095" y2="62.878">
		<stop  offset="0" style="stop-color:#484EC2;stop-opacity:0"/>
		<stop  offset="1" style="stop-color:#2F9177;stop-opacity:0.5018"/>
	</linearGradient>
	<path class="st25" d="M390.8,86.1c-0.4-5-2.1-20.4-2.1-20.4l-5.3,9L390.8,86.1z"/>
</g>
<g>
	<path class="st1" d="M249.7,126.8c-0.9,0-7.8,2.9-7.8,2.9l5.4,44.7c-1.2,0.6-2.9,0.9-4.1,1.3c-2.7,0.8-5.1,1-7.4,2.6
		c-0.2,0.1-0.2,0.8-0.3,1c-0.1,0.5,0.6,0.7,1.1,0.8c3.2,0.1,6.5,0.2,9.7,0c2.1-0.1,3.7-1.1,5.6-2.1c1.1-0.5,1.5-2.2,1.4-2.9
		C253.3,174.8,250.5,126.8,249.7,126.8z"/>
	<path class="fill-dark" d="M243.7,178.4c3.1-0.3,7.3-1.7,9.7-3.6c0.2,2.1-0.4,4-4.3,5c-4.5,1.2-9.4,2.4-13.9,1.1c-0.5-0.1-1-0.4-1-0.9
		c0-0.2,0.1-0.4,0.3-0.6c0.8-1.1,3.2-3,4.6-2.5c0.7,0.2,1.3,1.1,2.1,1.3C242,178.4,242.9,178.5,243.7,178.4z"/>
</g>
<g>
	<path class="st1" d="M249.7,180"/>
	<path class="st1" d="M266.4,175.1c0-0.2-2.8-48.3-3.6-48.3c-0.9,0-7.8,2.9-7.8,2.9l5.4,44.7c0.9,2.4,1.7,4.7,3,6.9
		c1.3,2.2,3.1,4.2,5.4,5.4c0.2,0.1,0.6,0.2,0.8,0.1c0.1-0.1,0.2-0.3,0.2-0.4c0.4-1.3-0.2-2.7-0.7-4
		C268.1,180,266.6,177.6,266.4,175.1z"/>
	<path class="fill-dark" d="M261.8,181c1.4,2.6,3.1,5.2,5.8,6.4c0.5,0.2,1,0.4,1.4,0.3c0.7-0.1,1.1-0.7,1.3-1.4c0.2-0.7,0.1-1.3-0.1-2
		c-0.3-1-0.7-1.9-1.2-2.8c-0.1-0.2-0.3-0.4-0.5-0.5c-0.3,0-0.6,0.2-0.8,0.4c-0.7,0.5-1.7,0.4-2.4,0c-0.7-0.4-1.3-1.1-1.8-1.8
		c-1-1.4-1.9-3.9-3.3-4.7C259.7,177,260.8,179.2,261.8,181z"/>
</g>
<g>
	<circle class="st3" cx="185.4" cy="188.2" r="3.3"/>
	<circle class="st3" cx="225.4" cy="188.2" r="3.3"/>
	<circle class="st3" cx="204.6" cy="188.2" r="3.3"/>
	<path class="st26" d="M185.4,188.2v-1.7c0-3.8,3.1-7,7-7h13.1v-33.9"/>
	<path class="st26" d="M225.1,188.2v-1.7c0-3.8-3.1-7-7-7H205v-33.9"/>
	<line class="st26" x1="204.6" y1="188.2" x2="204.6" y2="179.5"/>
	<rect x="201" y="162.4" class="st3" width="7.4" height="16.8"/>
	<rect x="202.2" y="145.9" class="st3" width="4.7" height="19.1"/>
</g>
<g>
	<circle class="st3" cx="313" cy="188.2" r="3.3"/>
	<circle class="st3" cx="353" cy="188.2" r="3.3"/>
	<circle class="st3" cx="332.2" cy="188.2" r="3.3"/>
	<path class="st26" d="M313,188.2v-1.7c0-3.8,3.1-7,7-7H333v-33.9"/>
	<path class="st26" d="M352.6,188.2v-1.7c0-3.8-3.1-7-7-7h-13.1v-33.9"/>
	<line class="st26" x1="332.2" y1="188.2" x2="332.2" y2="179.5"/>
	<rect x="328.6" y="162.4" class="st3" width="7.4" height="16.8"/>
	<rect x="329.8" y="145.9" class="st3" width="4.7" height="19.1"/>
</g>
<g>
	<rect x="132.9" y="112.1" class="st27" width="228.3" height="36.2"/>
	<rect x="132.2" y="112.3" class="st3" width="3.8" height="92.2"/>
	<rect x="359" y="112.3" class="st3" width="3.8" height="92.2"/>
	<linearGradient id="SVGID_7_" gradientUnits="userSpaceOnUse" x1="245.99" y1="128.4342" x2="262.1484" y2="53.8566">
		<stop  offset="0" style="stop-color:#676475;stop-opacity:0"/>
		<stop  offset="1" style="stop-color:#524F63;stop-opacity:0.7"/>
	</linearGradient>
	<polygon class="st28" points="362.8,133.4 131.6,112.3 362.8,112.3 	"/>
	<rect x="123" y="108.5" class="st4" width="248.3" height="6.1"/>
</g>
</svg>
