<?xml version="1.0" encoding="utf-8"?>
<!-- Generator: Adobe Illustrator 23.0.0, SVG Export Plug-In . SVG Version: 6.00 Build 0)  -->
<svg version="1.1" id="Layer_1" xmlns="http://www.w3.org/2000/svg" xmlns:xlink="http://www.w3.org/1999/xlink" x="0px" y="0px"
	 viewBox="0 0 667 660" style="enable-background:new 0 0 667 660;" xml:space="preserve">
<style type="text/css">
	.st1{fill:#FFBDA1;}
	.st2{fill:#CE7152;}
	.st3{fill:#524F63;}
	.st4{fill:#E0E4ED;}
	.st5{fill:#91616A;}
	.st6{fill:#4A4549;}
	.st7{fill:#FFBB22;}
	.st8{fill:#DD851B;}
	.st10{fill:#91694D;}
	.st11{fill:#EAD18C;}
	.st13{opacity:0.1;fill:none;stroke:#000000;stroke-width:2;stroke-miterlimit:10;enable-background:new    ;}
</style>
<g>
	<polygon class="fill-primary" points="413,655.8 89,655.8 89,0.1 413,0.1 	"/>
	<polygon class="fill-primary" points="412.8,655.7 88.8,655.7 88.8,0 412.8,0 	"/>
	<circle class="fill-dark" cx="398.9" cy="340.9" r="4"/>
	<polygon class="fill-dark" points="398.9,341.5 401.7,346.3 404.5,351.1 398.9,351.1 393.4,351.1 396.2,346.3 	"/>
	<polygon class="fill-primary" points="427,655.8 407.2,655.8 408,0.1 427,0.1 	"/>
	<circle class="fill-dark" cx="398.9" cy="311.8" r="13"/>
	<circle class="fill-dark" cx="398.9" cy="309.8" r="13"/>
	<line class="st13" x1="141.6" y1="0" x2="141.6" y2="655.5"/>
	<line class="st13" x1="141.7" y1="0" x2="141.7" y2="655.5"/>
	<line class="st13" x1="141.8" y1="0" x2="141.8" y2="655.5"/>
	<line class="st13" x1="198.8" y1="0" x2="198.8" y2="655.5"/>
	<line class="st13" x1="198.9" y1="0" x2="198.9" y2="655.5"/>
	<line class="st13" x1="199" y1="0" x2="199" y2="655.5"/>
	<path class="st13" d="M216.8,23.6"/>
	<line class="st13" x1="256" y1="0" x2="256" y2="655.5"/>
	<line class="st13" x1="256.1" y1="0" x2="256.1" y2="655.5"/>
	<line class="st13" x1="256.2" y1="0" x2="256.2" y2="655.5"/>
	<line class="st13" x1="313.1" y1="0" x2="313.1" y2="655.5"/>
	<line class="st13" x1="313.3" y1="0" x2="313.3" y2="655.5"/>
	<line class="st13" x1="313.3" y1="0" x2="313.3" y2="655.5"/>
	<line class="st13" x1="370.3" y1="0" x2="370.3" y2="655.5"/>
	<line class="st13" x1="370.4" y1="0" x2="370.4" y2="655.5"/>
	<line class="st13" x1="370.5" y1="0" x2="370.5" y2="655.5"/>
</g>
<g>
	<path class="fill-blue" d="M667,660c-128-22.8-249.1-34.8-328.7-35.7l13.6-18.1c-5.3-1.6-28.5,13.4-28.5,13.4l20.5-76.5
		c-25.6,31.2-40,80.8-40,80.8l-29.6-26.6l15.2,29c-59.2,0.5-95.7,4.3-172.1,15.8C131,607,177,573.7,177,573.7
		c-35.1,8.9-53.6,24.1-63.2,38.2c-0.7-43.4,4.2-124,41-213c0,0-72.6,137.1-63.4,229.5l1.1,16.4C32.8,656.3,0,660,0,660"/>
	<path class="fill-white" d="M325.5,644.4c0,0-10.7-27.4,21.4-47.9L325.5,644.4z"/>
	<path class="fill-white" d="M312.3,643.9c0,0-4.9-29.1-42.5-28.8L312.3,643.9z"/>
</g>
<g>
	<path class="fill-primary" d="M589.8,199.8l6.1,3c0,0,33,80.8,21.8,100.1s-46.2,55.5-46.2,55.5l-6.6-18.3l27-57.1L589.8,199.8z"/>
	<path class="fill-dark" d="M589.8,199.8l6.1,3c0,0,33,80.8,21.8,100.1s-46.2,55.5-46.2,55.5l-6.6-18.3l27-57.1L589.8,199.8z"/>
	<path class="fill-primary" opacity="0.7" d="M589.8,199.8l6.1,3c0,0,33,80.8,21.8,100.1s-46.2,55.5-46.2,55.5l-6.6-18.3l27-57.1L589.8,199.8z"/>
	<path class="fill-dark" d="M562.1,603.8c0,0,8.6,19.3,4.1,20.8c-4.6,1.5-10.2,1.5-15.7,1.5c-5.6,0-12.2-2-13.2-4c-1-2,4.1-14.9,4.1-14.9
		L562.1,603.8z"/>
		<path class="fill-white" opacity="0.2" d="M562.1,603.8c0,0,8.6,19.3,4.1,20.8c-4.6,1.5-10.2,1.5-15.7,1.5c-5.6,0-12.2-2-13.2-4c-1-2,4.1-14.9,4.1-14.9
		L562.1,603.8z"/>
	<path class="fill-dark" d="M445.9,603.4c0,0,5.6,17.3,3,18.3c-2.5,1-10.7,5.5-15.2,4c-4.6-1.5-11.7-5-13.2-6.4c-1.5-1.5,0-9.4,0-9.4
		l7.1-9.9L445.9,603.4z"/>
		<path class="fill-white" opacity="0.2" d="M445.9,603.4c0,0,5.6,17.3,3,18.3c-2.5,1-10.7,5.5-15.2,4c-4.6-1.5-11.7-5-13.2-6.4c-1.5-1.5,0-9.4,0-9.4   l7.1-9.9L445.9,603.4z"></path>
	<path class="fill-blue" d="M566.9,356l7.3,2.5c0,0,1.9,16.9-0.2,22.8c-2,5.9-17.1,49.1-14.6,58s1,23.3,1,23.3s4.7,48.6,1.7,59
		c-3,10.4-2.5,25.3,0.5,32.7c3,7.4,5.6,10.4,4.1,16.4s-4.6,8.9-1.5,13.9c3,5,9.1,6.4,6.1,10.9c-3,4.5-6.1,7.9-5.1,10.9
		s-26.9,8.4-29.4,4c0,0,8.1-6.9,0-10.9c-8.1-4-5.6-18.8-5.6-18.8s-14.2-57-13.7-61.5c0.5-4.5-11.8-73.8-11.8-73.8
		s-44,99.1-46.1,103.6c-2,4.5,2.5,15.4,0,18.3s1,10.4-2.5,13.4c-3.6,3,1.9,14.3-3.2,17.8c-6,4.1-6,6.1-5.5,8.6
		c0.5,2.5-25.4-0.5-25.4-4s0.7-6.5-2-12.4c-0.3-0.6-1.3-1.7-1-2.6c0.9-2.7,2.5-3.4,0.5-10.4c-2-6.9,3-28.2,1.5-32.2
		c-1.5-4,1.1-30.7,1.1-30.7s13.5-39.2,12-45.6c-1.5-6.4,0-7.9,0.5-10.4c0.5-2.5,14.1-29.2,16.1-33.2c2-4,4.6-71.9,16.2-75.3
		S566.9,356,566.9,356z"/>
	<path class="fill-dark" d="M549.9,621.6c0,0,18.3-3,19.3,0s4.1,26.3-3,26.8c-7.1,0.5-19.3,2-21.3-2.5c-2-4.5-11.7-7.4-11.7-7.4
		s-14.2-4-14.2-8.4c0-4.5,0.5-11.4,3-11.9c2.5-0.5,12.7-5.9,12.7-7.9S549.9,621.6,549.9,621.6z"/>
	<path class="fill-dark" d="M435.7,619.2c0,0,13.2-4,16.2-1.5s7.1,29.7,0,29.2s-25.9,2.5-26.9-1.5c-1-4-14.7-5-14.7-5s-14.7-6.9-13.7-14.4
		c1-7.4,2.5-9.9,8.6-10.4c6.1-0.5,10.7-7.4,11.2-7.9s5-4.1,5.5-0.1C422.5,611.8,429.1,620.7,435.7,619.2z"/>
	<ellipse class="st1" cx="498.4" cy="119.1" rx="31" ry="30.2"/>
	<path class="st1" d="M525.3,126c0,0,2,33.2,9.6,36.2c7.6,3-38.6,3-38.6,3s-0.5-20.8-7.1-25.8C482.7,134.4,525.3,126,525.3,126z"/>
	<path class="fill-primary" d="M537.5,154.7c0,0-31.5-11.4-42.6,6.4c0,0-35.5,16.4-38.1,26.3c-2.5,9.9,21.3,84.3,21.3,84.3s0,61.5-5.1,67.9
		c-5.1,6.4-14.7,13.4-8.1,14.9s110.2,12.4,109.7,5.9s-7.1-11.9,0-15.9c7.1-4,1-8.4,5.6-21.3c4.6-12.9,15.7-119.4,15.7-119.4
		s-7.6-13.4-9.1-14.9C585.2,187.4,537.5,154.7,537.5,154.7z"/>
	<path class="st1" d="M446.6,371.8c0,0-19.8,43.6-2.5,49.6c17.3,5.9,16.2-46.1,16.2-46.1L446.6,371.8z"/>
	<path class="fill-dark" d="M513.2,124.7c-1.8-3.5-4.5-7.6-8.5-7.3c-2,0.1-3.8,1.3-5.6,2.2c-1.8,0.9-4.1,1.5-5.8,0.3
		c-2.4-1.7-1.7-5.7-3.8-7.7c-2.4-2.2-7.1-1-8.6-3.8c-0.8-1.5-0.2-3.3-0.5-5c-2.5,0.2-5-0.1-7.3-0.8c-2.3-0.9-4.3-3-4.2-5.4
		c0.1-1.7,1-3.2,2.3-4.3c3.1-2.8,7.6-3.3,11.5-5c3.1-1.3,5.7-3.4,8.7-4.9c5.2-2.5,11.2-3,16.9-2.5c8.7,0.7,17.6,3.5,23.9,9.4
		s9.7,15.2,7,23.4c-1.5,4.6-4.8,8.5-6.7,13c-1.1,3.1-1.9,6.3-2.3,9.5l-1.3,7.7c0.2-1.2-2.5-4.2-3.4-4.9c-1.9-1.6-4.7-1-6.5-2.5
		C516.3,133.9,514.8,127.7,513.2,124.7z"/>
	<path class="fill-dark" d="M468.4,184l-8.1,5c0,0-13.2,77.8-11.7,88.7s-6.1,72.4-3.6,77.3c2.5,5,3.6,5.9,3.6,8.9s-7.1,13.9-2.5,15.9
		c4.6,2,21.3,5.5,21.3,0c0-5.5-3-12.9,2.5-16.4c5.6-3.5,9.6-25.8,9.6-25.8s2.5-22.8,5.1-27.3c2.5-4.5,6.1-20.8,6.1-27.8
		c0-6.9,6.1-35.2,2.5-49.6S488.7,180,468.4,184z"/>
		<path class="fill-primary" opacity="0.7" d="M468.4,184l-8.1,5c0,0-13.2,77.8-11.7,88.7s-6.1,72.4-3.6,77.3c2.5,5,3.6,5.9,3.6,8.9s-7.1,13.9-2.5,15.9
		c4.6,2,21.3,5.5,21.3,0c0-5.5-3-12.9,2.5-16.4c5.6-3.5,9.6-25.8,9.6-25.8s2.5-22.8,5.1-27.3c2.5-4.5,6.1-20.8,6.1-27.8
		c0-6.9,6.1-35.2,2.5-49.6S488.7,180,468.4,184z"/>
	<path class="fill-primary" d="M464.9,182.5l-8.1,5c0,0-13.2,77.8-11.7,88.7c1.5,10.9-6.1,72.4-3.6,77.3c2.5,5,3.6,5.9,3.6,8.9
		s-7.1,13.9-2.5,15.9c4.6,2,21.3,5.5,21.3,0c0-5.5-3-12.9,2.5-16.4c5.6-3.5,9.6-25.8,9.6-25.8s2.5-22.8,5.1-27.3
		c2.5-4.5,6.1-20.8,6.1-27.8c0-6.9,6.1-35.2,2.5-49.6C486.2,217.2,485.2,178.5,464.9,182.5z"/>
</g>
</svg>
