<?xml version="1.0" encoding="utf-8"?>
<!-- Generator: Adobe Illustrator 23.0.0, SVG Export Plug-In . SVG Version: 6.00 Build 0)  -->
<svg version="1.1" id="Layer_1" xmlns="http://www.w3.org/2000/svg" xmlns:xlink="http://www.w3.org/1999/xlink" x="0px" y="0px" width="100%" height="auto" viewBox="0 0 667 676" style="enable-background:new 0 0 667 676;" xml:space="preserve">
<style type="text/css">
	.st1{fill:#FFBDA1;}
	.st2{fill:#CE7152;}
	.st3{fill:#524F63;}
	.st4{fill:#E0E4ED;}
	.st5{fill:#91616A;}
	.st6{fill:#4A4549;}
	.st7{fill:#FFBB22;}
	.st8{fill:#DD851B;}
	.st10{fill:#91694D;}
	.st11{fill:#EAD18C;}
	.st13{opacity:0.2;fill:none;stroke:#000000;stroke-width:2;stroke-miterlimit:10;enable-background:new    ;}
	<!-- .st0{fill:#4A787F;}
	.st1{fill:#138267;}
	.st2{fill:#232729;}
	.st3{opacity:0.1;}
	.st4{fill:#FFFFFF;}
	.st5{opacity:0.1;enable-background:new    ;}
	.st13{opacity:0.3;fill:none;stroke:#000000;stroke-width:2;stroke-miterlimit:10;enable-background:new    ;}
	.st7{fill:#03345F;}
	.st8{fill:#F2F2F2;}
	.st9{fill:#535461;}
	.st10{fill:#2F2E41;}
	.st11{fill:#FFBDA1;} -->
</style>
<g>
	<rect x="89" y="32.2" class="fill-dark" width="444" height="641.9"/>
	<rect x="89" y="32.2" class="fill-primary" opacity="0.5" width="444" height="641.9"/>
	<polygon class="fill-primary" points="412,674.1 89,674.1 89,17.1 412,0.1 	"/>
	<circle class="fill-dark" cx="388" cy="377.1" r="4"/>
	<polygon class="fill-dark" points="388,377.7 390.8,382.5 393.5,387.3 388,387.3 382.5,387.3 385.2,382.5 	"/>
	<polygon class="fill-primary" points="426,674.1 406.2,674 407,0.1 426,0.1 	"/>
	<g class="st3">
		<polygon class="fill-dark" points="426.2,674 406.2,674 407.2,0 426.2,0 		"/>
		<polygon class="fill-primary" opacity="0.8" points="426.2,674 406.2,674 407.2,0 426.2,0   "></polygon>
	</g>
	<circle class="fill-dark" cx="388" cy="348.1" r="13"/>
	<circle class="fill-dark" cx="388" cy="346.1" r="13"/>
	<line class="st13" x1="141.8" y1="15.1" x2="141.8" y2="674.2"/>
	<line class="st13" x1="198.8" y1="12.1" x2="198.8" y2="674.2"/>
	<line class="st13" x1="255.8" y1="8.1" x2="255.8" y2="674"/>
	<line class="st13" x1="312.8" y1="6.1" x2="312.8" y2="674.2"/>
	<line class="st13" x1="369.8" y1="3.1" x2="369.8" y2="674"/>
</g>
<g>
	<path class="fill-blue" d="M667,676c-128-22.8-249.1-34.8-328.7-35.7l13.6-18.1c-5.3-1.6-28.5,13.4-28.5,13.4l20.5-76.5
		c-25.6,31.2-40,80.8-40,80.8l-29.6-26.6l15.2,29c-59.2,0.5-95.7,4.3-172.1,15.8C131,623,177,589.7,177,589.7
		c-35.1,8.9-53.6,24.1-63.2,38.2c-0.7-43.4,4.2-124,41-213c0,0-72.6,137.1-63.4,229.5l1.1,16.4C32.8,672.3,0,676,0,676"/>
	<path class="fill-white" d="M325.5,660.4c0,0-10.7-27.4,21.4-47.9L325.5,660.4z"/>
	<path class="fill-white" d="M312.3,659.9c0,0-4.9-29.1-42.5-28.8L312.3,659.9z"/>
</g>
<g>
	<path class="st9" d="M404.4,374.7"/>
	<line class="st9" x1="403.3" y1="379.6" x2="405.8" y2="384"/>
	<ellipse class="fill-dark" cx="553.8" cy="116.9" rx="36.1" ry="33.9"/>
	<path class="st1" d="M448.5,327.8l-9.2,12.8c0,0-43.9,9.2-27.5,22.9c16.5,13.7,40.3-12.8,40.3-12.8l12.8-16.5L448.5,327.8z"/>
	<path class="fill-primary" d="M496.1,182.3c0,0-11.9,0-14.6,16.5s-5.5,71.4-5.5,71.4s-38.4,50.3-32,56.7s13.7,18.3,18.3,16.5
		c4.6-1.8,43.9-55.8,43.9-55.8L496.1,182.3z"/>
	<path class="fill-dark" d="M496.1,182.3c0,0-11.9,0-14.6,16.5s-5.5,71.4-5.5,71.4s-38.4,50.3-32,56.7s13.7,18.3,18.3,16.5
		c4.6-1.8,43.9-55.8,43.9-55.8L496.1,182.3z"/>
		<path class="fill-primary" opacity="0.7" d="M496.1,182.3c0,0-11.9,0-14.6,16.5s-5.5,71.4-5.5,71.4s-38.4,50.3-32,56.7s13.7,18.3,18.3,16.5   c4.6-1.8,43.9-55.8,43.9-55.8L496.1,182.3z"></path>
	<path class="st1" d="M532.7,135.6c0,0-0.9,35.7-11.9,37.5c-11,1.8-7.3,13.7-7.3,13.7s35.7,21,59.5,0l4.6-11
		c0,0-16.5-11.9-9.2-28.4L532.7,135.6z"/>
	<path class="fill-dark" d="M489.7,575.8l11.9,28.4c0,0,4.6,11.9,0,14.6c-4.6,2.7-17.4,19.2-9.2,21c1.7,0.3,3.3,0.5,5,0.5
		c13.9,0.2,27.2-5.2,37-15l7.4-7.4c0,0-25.4-58.5-25.1-58.1C517.1,560.2,489.7,575.8,489.7,575.8z"/>
	<path class="fill-dark" d="M520.8,599.6l-22.9,42.1c0,0-32.9,23.8-10.1,27.5c22.9,3.7,36.6-5.5,36.6-5.5l20.1-14.6v-42.1L520.8,599.6z"/>
	<path class="fill-blue" d="M471.4,355.3c0,0-54,100.7-33.9,131.8c20.1,31.1,50.3,95.2,54.9,95.2c4.6,0,30.2-12.8,28.4-21
		c-1.8-8.2-29.3-69.5-36.6-75c-7.3-5.5-3.7-20.1-2.7-21c0.9-0.9,31.1-49.4,31.1-49.4s-0.9,76.9,2.7,88.8c3.7,11.9-0.9,97,3.7,100.7
		c4.6,3.7,25.6,10.1,29.3,4.6c3.7-5.5,14.6-88.8,7.3-108l13.7-131.8L471.4,355.3z"/>
	<circle class="st1" cx="555.6" cy="126.5" r="31.1"/>
	<path class="fill-primary" d="M573.4,169.9l-9.6,9.6c0,0-29.3,11-43,0c0,0,5-10.5,5-9.6c0,0.9-39.8,6.9-43.5,23.3s2.7,44.8,2.7,44.8
		s-25.6,120.8-15.6,123.5c10.1,2.7,104.3,25.6,103.4,8.2c-0.9-17.4,7.3-88.8,7.3-88.8l32-61.3c0,0-4.6-20.1-15.6-26.5
		S573.4,169.9,573.4,169.9z"/>
	<path class="st1" d="M532.7,348.8l-11.9,7.3c0,0-45.8,31.1-22,36.6c23.8,5.5,37.5-22,37.5-22l9.2-11L532.7,348.8z"/>
	<path class="fill-dark" d="M601.3,212.5l8.2,8.2c0,0,5.5,76.9-5.5,92.4c-11,15.6-61.3,57.7-64.1,54.9c-2.7-2.7-20.1-16.5-16.5-18.3
		c3.7-1.8,52.3-52.7,52.3-52.7l-3.8-70.9L601.3,212.5z"/>
		<path class="fill-primary" opacity="0.7" d="M601.3,212.5l8.2,8.2c0,0,5.5,76.9-5.5,92.4c-11,15.6-61.3,57.7-64.1,54.9c-2.7-2.7-20.1-16.5-16.5-18.3
		c3.7-1.8,52.3-52.7,52.3-52.7l-3.8-70.9L601.3,212.5z"/>
	<path class="fill-primary" d="M604.1,211.6l8.2,8.2c0,0,5.5,76.9-5.5,92.4s-61.3,57.7-64.1,54.9c-2.7-2.7-20.1-16.5-16.5-18.3
		c3.7-1.8,52.3-52.7,52.3-52.7l-3.8-70.9L604.1,211.6z"/>
	<path class="fill-dark" d="M542.7,82.3c0,0-10.6-3.8-25,4.3l7.7,1.9c0,0-11.5,1-13,16.3h5.3c0,0-3.4,13.5,0,17.3l2.2-4.1l6.2,12.5
		l1.4-6.2l2.9,1l1.9-10.1c0,0,4.8,7.2,8.7,7.7v-6.2c0,0,10.6,12,13.9,11.5l-4.8-6.7l6.7,1.4l-2.9-4.8l17.3,4.8l-3.8-4.8l12,3.8
		l5.8,2.4c0,0,8.2-18.7-3.4-31.7C570.4,79.6,553.5,76.8,542.7,82.3z"/>
</g>
</svg>
