<?xml version="1.0" encoding="utf-8"?>
<!-- Generator: Adobe Illustrator 19.0.0, SVG Export Plug-In . SVG Version: 6.00 Build 0)  -->
<svg version="1.1" id="a706cf1c-1654-439b-8fcf-310eb7aa0e00"
	 xmlns="http://www.w3.org/2000/svg" xmlns:xlink="http://www.w3.org/1999/xlink" x="0px" y="0px" width="350px" height="auto" viewBox="0 0 1120.6 777.9"
	 style="enable-background:new 0 0 1120.6 777.9;" xml:space="preserve">
<style type="text/css">
	.st0{fill:#A03717;}
	<!-- .st1{fill:#F2F2F2;}
	.st2{fill:#03345F;}
	.st3{fill:#2F2E41;}
	.st4{fill:#138267;}
	.st5{fill:#172C47;}
	.st6{fill:#FFFFFF;} -->
</style>
<circle class="st0" cx="212.6" cy="103" r="64"/>
<path class="fill-dark" opacity="0.03" d="M524,343.1c0,151-89.8,203.7-200.5,203.7s-200.5-52.7-200.5-203.7S323.5,0,323.5,0S524,192.1,524,343.1z"/>
<polygon class="fill-blue" points="316.2,523.8 318.2,397.4 403.7,241 318.5,377.6 319.5,320.7 378.4,207.6 319.7,305.7 319.7,305.7
	321.4,203.5 384.4,113.4 321.6,187.4 322.7,0 316.1,248.1 316.7,237.9 252.5,139.7 315.6,257.5 309.7,371.7 309.5,368.6
	235.6,265.3 309.3,379.3 308.5,393.6 308.4,393.8 308.4,395 293.3,684.6 313.5,684.6 316,535 389.5,421.3 "/>
<path class="fill-dark" opacity="0.03" d="M1120.6,405c0,123.6-73.5,166.8-164.1,166.8S792.3,528.6,792.3,405s164.1-280.9,164.1-280.9
	S1120.6,281.4,1120.6,405z"/>
<polygon class="fill-blue" points="950.5,552.8 952.2,449.4 1022.1,321.4 952.4,433.2 953.2,386.6 1001.4,294 953.4,374.3 953.4,374.3
	954.7,290.7 1006.4,217 955,277.5 955.8,124.1 950.5,327.2 950.9,318.8 898.4,238.5 950.1,334.9 945.2,428.3 945,425.8 884.5,341.3
	944.8,434.6 944.2,446.3 944.1,446.5 944.2,447.4 931.8,684.5 948.3,684.5 950.3,562 1010.5,469 "/>
<ellipse class="fill-blue" cx="554.6" cy="680.5" rx="554.6" ry="28"/>
<ellipse class="fill-blue" cx="892.4" cy="726.8" rx="95" ry="4.8"/>
<ellipse class="fill-blue" cx="548.7" cy="773.1" rx="95" ry="4.8"/>
<ellipse class="fill-blue" cx="287.9" cy="734.3" rx="217" ry="11"/>
<rect x="108.1" y="628.5" transform="matrix(-0.9999 -1.178227e-002 1.178227e-002 -0.9999 232.5292 1301.4635)" class="st3" width="24" height="43"/>
<ellipse transform="matrix(-0.9999 -1.178222e-002 1.178222e-002 -0.9999 247.7841 1343.7389)" class="st3" cx="127.9" cy="671.1" rx="20" ry="7.5"/>
<path class="fill-primary" d="M217.6,610.3c0,55.1-32.7,74.3-73.1,74.3c-0.9,0-1.9,0-2.8,0c-1.9,0-3.7-0.1-5.6-0.3
	c-36.5-2.6-64.8-22.8-64.8-74c0-53,67.7-119.9,72.8-124.8l0,0c0.2-0.2,0.3-0.3,0.3-0.3S217.6,555.3,217.6,610.3z"/>
<path class="fill-blue" d="M141.8,676.2l26.7-37.4l-26.8,41.5l-0.1,4.3c-1.9,0-3.7-0.1-5.6-0.3l2.9-55.1l0-0.4l0-0.1l0.3-5.2L112.4,582
	l27,37.7l0.1,1.1l2.2-41.6l-23-43l23.3,35.7l2.3-86.3l0-0.3v0.3l-0.4,68.1l22.9-27l-23,32.8l-0.6,37.3l21.4-35.8L143,602.2
	l-0.3,20.7l31.1-49.8l-31.2,57L141.8,676.2z"/>
<circle class="fill-dark" cx="662.5" cy="565.4" r="79"/>
<rect x="652.1" y="630.8" transform="matrix(-0.9559 0.2938 -0.2938 -0.9559 1490.4633 1080.7019)" class="st3" width="24" height="43"/>
<rect x="698" y="616.7" transform="matrix(-0.9559 0.2938 -0.2938 -0.9559 1576.0579 1039.658)" class="st3" width="24" height="43"/>
<ellipse transform="matrix(-0.2938 -0.9559 0.9559 -0.2938 236.0527 1516.3252)" class="st3" cx="678.2" cy="671" rx="7.5" ry="20"/>
<ellipse transform="matrix(-0.2938 -0.9559 0.9559 -0.2938 309.4254 1540.4224)" class="st3" cx="723.8" cy="655.9" rx="7.5" ry="20"/>
<circle class="fill-white" cx="658.5" cy="545.7" r="27"/>
<circle class="fill-blue" cx="658.5" cy="545.7" r="9"/>
<path class="fill-primary" d="M567.7,517.7c-14.5-25.4-3.5-59,24.6-75s62.6-8.3,77.1,17.1c14.5,25.4-2.4,41.6-30.5,57.6
	C610.8,533.4,582.1,543.1,567.7,517.7z"/>
<path class="fill-primary" d="M785.6,621.3c0,55.1-32.7,74.3-73.1,74.3c-0.9,0-1.9,0-2.8,0c-1.9,0-3.7-0.1-5.6-0.3
	c-36.5-2.6-64.8-22.8-64.8-74c0-53,67.7-119.9,72.8-124.8l0,0c0.2-0.2,0.3-0.3,0.3-0.3S785.6,566.3,785.6,621.3z"/>
<path class="fill-blue" d="M709.8,687.2l26.7-37.4l-26.8,41.5l-0.1,4.3c-1.9,0-3.7-0.1-5.6-0.3l2.9-55.1l0-0.4l0-0.1l0.3-5.2L680.4,593
	l27,37.7l0.1,1.1l2.2-41.6l-23-43l23.3,35.7l2.3-86.3l0-0.3v0.3l-0.4,68.1l22.9-27l-23,32.8l-0.6,37.3l21.4-35.8L711,613.2
	l-0.3,20.7l31.1-49.8l-31.2,57L709.8,687.2z"/>
<ellipse transform="matrix(-0.9035 -0.4285 0.4285 -0.9035 947.3647 1404.8342)" class="fill-dark" cx="631.8" cy="595.8" rx="39.5" ry="12.4"/>
</svg>
