<?xml version="1.0" encoding="utf-8"?>
<!-- Generator: Adobe Illustrator 23.0.0, SVG Export Plug-In . SVG Version: 6.00 Build 0)  -->
<svg version="1.1" id="Layer_1" xmlns="http://www.w3.org/2000/svg" xmlns:xlink="http://www.w3.org/1999/xlink" x="0px" y="0px"
	 viewBox="0 0 667 660" style="enable-background:new 0 0 667 660;" xml:space="preserve">
<style type="text/css">
	.st1{fill:#FFBDA1;}
	.st2{fill:#CE7152;}
	.st3{fill:#524F63;}
	.st4{fill:#E0E4ED;}
	.st5{fill:#91616A;}
	.st6{fill:#4A4549;}
	.st7{fill:#FFBB22;}
	.st8{fill:#DD851B;}
	.st10{fill:#91694D;}
	.st11{fill:#EAD18C;}
	.st13{opacity:0.1;fill:none;stroke:#000000;stroke-width:2;stroke-miterlimit:10;enable-background:new    ;}

</style>
<g>
	<polygon class="fill-primary" points="413,655.8 89,655.8 89,0.1 413,0.1 	"/>
	<polygon class="fill-primary" points="412.8,655.7 88.8,655.7 88.8,0 412.8,0 	"/>
	<circle class="fill-dark" cx="398.9" cy="340.9" r="4"/>
	<polygon class="fill-dark" points="398.9,341.5 401.7,346.3 404.5,351.1 398.9,351.1 393.4,351.1 396.2,346.3 	"/>
	<polygon class="fill-primary" points="427,655.8 407.2,655.8 408,0.1 427,0.1 	"/>
	<circle class="fill-dark" cx="398.9" cy="311.8" r="13"/>
	<circle class="fill-dark" cx="398.9" cy="309.8" r="13"/>
	<line class="st13" x1="141.6" y1="0" x2="141.6" y2="655.5"/>
	<line class="st13" x1="141.7" y1="0" x2="141.7" y2="655.5"/>
	<line class="st13" x1="141.8" y1="0" x2="141.8" y2="655.5"/>
	<line class="st13" x1="198.8" y1="0" x2="198.8" y2="655.5"/>
	<line class="st13" x1="198.9" y1="0" x2="198.9" y2="655.5"/>
	<line class="st13" x1="199" y1="0" x2="199" y2="655.5"/>
	<path class="st13" d="M216.8,23.6"/>
	<line class="st13" x1="256" y1="0" x2="256" y2="655.5"/>
	<line class="st13" x1="256.1" y1="0" x2="256.1" y2="655.5"/>
	<line class="st13" x1="256.2" y1="0" x2="256.2" y2="655.5"/>
	<line class="st13" x1="313.1" y1="0" x2="313.1" y2="655.5"/>
	<line class="st13" x1="313.3" y1="0" x2="313.3" y2="655.5"/>
	<line class="st13" x1="313.3" y1="0" x2="313.3" y2="655.5"/>
	<line class="st13" x1="370.3" y1="0" x2="370.3" y2="655.5"/>
	<line class="st13" x1="370.4" y1="0" x2="370.4" y2="655.5"/>
	<line class="st13" x1="370.5" y1="0" x2="370.5" y2="655.5"/>
</g>
<g>
	<path class="fill-blue" d="M667,660c-128-22.8-249.1-34.8-328.7-35.7l13.6-18.1c-5.3-1.6-28.5,13.4-28.5,13.4l20.5-76.5
		c-25.6,31.2-40,80.8-40,80.8l-29.6-26.6l15.2,29c-59.2,0.5-95.7,4.3-172.1,15.8C131,607,177,573.7,177,573.7
		c-35.1,8.9-53.6,24.1-63.2,38.2c-0.7-43.4,4.2-124,41-213c0,0-72.6,137.1-63.4,229.5l1.1,16.4C32.8,656.3,0,660,0,660"/>
	<path class="fill-white" d="M325.5,644.4c0,0-10.7-27.4,21.4-47.9L325.5,644.4z"/>
	<path class="fill-white" d="M312.3,643.9c0,0-4.9-29.1-42.5-28.8L312.3,643.9z"/>
</g>
<g>
	<path class="fill-dark" d="M545.9,78.7c0,0-19.2-17.2-45,15.2s-48.1,45.7-57.3,58.3c0,0,20.3-13.3,33.5-19.9c13.2-6.6,12.6-5.3,12.6-5.3
		s-17.9,12.6-21.2,25.1c-3.3,12.6-0.7,23.2-6.6,35.7c-6,12.6,113.8,8.6,113.8,8.6s11.9-20.5,8.6-41.7
		C581,133.6,582.9,81.3,545.9,78.7z"/>
	<path class="st1" d="M509.6,132.8c0,0,4.2,29.2-13.7,35.8c-17.9,6.6-11.3,15.5-11.3,15.5l26.8,13.1l28.6-8.9l9.5-14.3
		c0,0-15.5-3.6-11.3-14.3c4.2-10.7,5.4-14.3,5.4-14.3L509.6,132.8z"/>
	<path class="st1" d="M509.6,132.8c0,0,4.2,29.2-13.7,35.8c-17.9,6.6-11.3,15.5-11.3,15.5l26.8,13.1l28.6-8.9l9.5-14.3
		c0,0-15.5-3.6-11.3-14.3c4.2-10.7,5.4-14.3,5.4-14.3L509.6,132.8z"/>
	<path class="st1" d="M584.7,216.2c0,0-4.2,54.8-3,57.2s0,85.2,0,85.2s8.3,44.7-2.4,47.1c-10.7,2.4-8.3-50.1-8.3-50.1l-10.7-69.1
		l1.2-68.5L584.7,216.2z"/>
	<path class="st1" d="M584.7,216.2c0,0-4.2,54.8-3,57.2s0,85.2,0,85.2s8.3,44.7-2.4,47.1c-10.7,2.4-8.3-50.1-8.3-50.1l-10.7-69.1
		l1.2-68.5L584.7,216.2z"/>
	<path class="st1" d="M468.5,381.3c0,0-19.7,74.5-19.1,110.8c0.6,36.4,8.3,87,8.3,87s1.2,22-0.6,24.4c-1.8,2.4,8.9,12.5,8.9,12.5
		l11.3-6.6l4.2-4.8v-4.2c0,0-6.6-20.3-1.2-36.4c5.4-16.1,8.3-56.6,3-69.1l36.9-109.6L468.5,381.3z"/>
	<path class="fill-dark" d="M467.3,606.5c0,0-7.2-8.9-11.9-6c-4.8,3-12.5,23.2-12.5,23.2s-26.8,25.6-7.7,26.8c19.1,1.2,27.4-5.4,29.8-10.1
		s24.4-17.3,24.4-17.3s-2.4-22.6-6-23.2s-8.9,8.9-8.9,8.9L467.3,606.5z"/>
	<path class="st1" d="M533.4,386v73.9c0.1,9,0.7,17.9,1.8,26.8c1.8,13.1-10.1,110.8-10.1,110.8l1.2,17.3l14.9-1.2l1.8-14.9
		l21.5-65.6c0,0,7.2-39.9,3.6-54.8c-3.6-14.9,18.5-110.2,18.5-110.2L533.4,386z"/>
	<path class="fill-dark" d="M521.5,610.7l4.4-1c0,0,3.3-7.4,7.5-5.6c2.9,1.4,5.7,3,8.3,5l1.8,3.4c0,0,4.2,8.9,9.5,14.9
		c5.4,6,11.3,19.1,2.4,20.3s-20.9,1.8-24.4-1.2c-3.6-3-1.2-7.7-4.8-8.9c-3.6-1.2-6.6-4.8-6-6C520.9,630.4,521.5,610.7,521.5,610.7z"
		/>
	<circle class="st1" cx="533.4" cy="126.8" r="26.5"/>
	<path class="fill-primary" d="M483.4,173.3l7.9-2.7c0,0-3.1,5.1,13.6,8.1c16.7,3,34,4,41.7-5.7c0,0,3-1.4,7.2,2.8s6.6,3,6.6,3l-3,15.5
		l-6,28.6l-7.7,21.5l-22-4.8l-23.8-17.3l-8.9-23.2v-21.5L483.4,173.3z"/>
	<path class="fill-primary" d="M556.1,181.6l6-4.2c0,0,20.3,3.6,21.5,13.1L568,220.4c3.2,8.3,2.9,17.5-0.6,25.6c-6,13.7-5.4,16.7-5.4,16.7
		l-4.2,17.9l-75.7,6c0,0-3-7.2-4.2-8.3s-1.2-5.4,0-5.4s0-1.8-1.2-3.6c-1.2-1.8-1.8-2.4,0-4.8c1.8-2.4-3-23.8-3-23.8v-23.2
		l-20.3-26.8c0,0,7.2-10.7,10.7-11.9c3.6-1.2,20.6-5.9,20.6-5.9l3.8,5.7l5.4,43.1l7.7,26.2l32.6-5.5l12.7-21.3l8.3-25L556.1,181.6z"
		/>
	<path class="fill-primary" d="M578.7,187l4.8,3.6c0,0,4.2,33.4,3,35.8s-22,4.8-22.6,3.6C563.2,228.7,578.7,187,578.7,187z"/>
	<path class="fill-blue" d="M480.4,170.3l6,39.3c0,0-5.4,58.4-4.2,70.3l1.2,3.6c0,0-2.4-1.2-3,1.2c-0.6,2.4,0,10.1,0,10.1
		s-3.6,3.6-4.8,23.2c-1.2,19.7-15.5,66.7-10.1,68.5c5.4,1.8,37.5,10.7,54.8,8.9c17.3-1.8,79.3-22.6,78.7-28
		c-0.6-5.4-30.4-81-30.4-81s-5.4-8.9-5.4-10.1s7.2-6,5.4-10.7c-1.8-4.8-11.3-54.8-11.3-54.8l6.6-35.8l-8.9-2.4l-6.6,34.6
		c0,0-25.6,12.5-52.4,1.2l-6-40.5L480.4,170.3z"/>
	<path class="fill-dark" d="M509.1,107.8c0,0,44.1,30.4,56,16.7s-20.9-25.6-20.9-25.6l-27.4-3L509.1,107.8z"/>
	<path class="fill-dark" d="M440.6,431.1c10.3,7.7,24.9,5.5,32.5-4.8c7.7-10.3,5.5-24.9-4.8-32.5c-10.3-7.7-24.9-5.5-32.5,4.8
		c-5,6.8-6,15.8-2.5,23.5l-60.8,50.6l-8.1-9.6l-3.6,2.4l-4-4.8l3.3-2.8l-4-4.8l-5.2,4.4l2.5,3l-5.5,4.7l-2.5-3l-8.1,6.9l3.7,4.4
		l3-2.5l4,4.8l-3.7,3.1l7.5,8.9l-8.9,7.5l9,10.7L440.6,431.1z M455.7,397.1c8.5,0.7,14.7,8.2,14,16.6c-0.7,8.5-8.2,14.7-16.6,14
		c-8.5-0.7-14.7-8.2-14-16.6S447.3,396.4,455.7,397.1L455.7,397.1z"/>
	<path class="st1" d="M449.4,223.3c0,0,4.2,54.8,3,57.2s0,85.2,0,85.2s-8.3,44.7,2.4,47.1c10.7,2.4,8.3-50.1,8.3-50.1l10.7-69.1
		l-1.2-68.5L449.4,223.3z"/>
	<path class="fill-primary" d="M458.4,188.8l-4.8,1.8c0,0-8.9,37.5-6.6,37.5s31,3.6,31,2.4c0-1.2-5.4-30.4-5.4-30.4L458.4,188.8z"/>
</g>
</svg>
