<?xml version="1.0" encoding="utf-8"?>
<!-- Generator: Adobe Illustrator 23.0.0, SVG Export Plug-In . SVG Version: 6.00 Build 0)  -->
<svg version="1.1" id="Layer_1" xmlns="http://www.w3.org/2000/svg" xmlns:xlink="http://www.w3.org/1999/xlink" x="0px" y="0px"
	 viewBox="0 0 570 547" style="enable-background:new 0 0 570 547;" xml:space="preserve">
<style type="text/css">
	.st1{fill:#FFBDA1;}
	.st2{fill:#CE7152;}
	.st3{fill:#524F63;}
	.st4{fill:#E0E4ED;}
	.st5{fill:#91616A;}
	.st6{fill:#4A4549;}
	.st7{fill:#FFBB22;}
	.st8{fill:#DD851B;}
	.st11{fill:#EAD18C;}

	<!-- .st0{fill:#F5F5F5;} -->
	<!-- .st1{fill:#FFBDA1;} -->
	<!-- .st2{fill:#514E58;} -->
	<!-- .st3{fill:#38373D;} -->
	<!-- .st4{fill:#232729;} -->
	<!-- .st5{fill:#81807E;} -->
	<!-- .st6{fill:#03345F;} -->
	<!-- .st7{fill:#138267;} -->
	<!-- .st8{fill:#A77860;}
	.st9{fill:#323657;}
	.st10{fill:#116D55;}
	.st11{fill:#D9C8C0;}
	.st12{fill:#3C4145;}
	.st13{fill:#F5E2D9;}
	.st14{fill:#1E3A5E;}
	.st15{fill:#172C47;}
	.st16{fill:#A03717;}
	.st17{fill:#0A1925;} -->
</style>
<g>
	<g>
		<path class="fill-white" d="M567.3,506.6c-4.6-3.3-9.9-4.9-15.3-6.5c-8.5-2.5-17.1-4.7-25.8-6.4c-5.8-1.2-11.6-2.4-17.5-3.2
			c-5.4-0.7-10.7-1.5-16.1-2c-7.1-0.6-14.1-1.7-21.2-2.2c-5.8-0.4-11.6-0.8-17.4-1.1c-3.1-0.2-6.2-0.1-9.3-1
			c-6.7-2.1-13.6-3.6-20.6-4.5c-9-1.2-18.1-1.9-27.2-2.6c-6.7-0.5-13.4-0.5-20.1-0.9c-12.5-0.8-25.1-0.7-37.7-1.6c0-0.1,0-0.3,0-0.4
			c-15.5-0.4-31-0.9-46.5-1.3c0,0.1,0,0.3,0,0.4c-7.5,0.1-15,0.1-22.5,0.2c-7.2,0.1-14.3,0.2-21.5,0.2c-0.8,0-1.7,0-2.5,0
			c-0.5,0-1,0-1.5,0c-4.1,0-8.3,0.1-12.4,0.1c-4.1,0.1-8.3,0.1-12.4,0.1c-0.1,0-0.1,0-0.2,0c0,0-0.1,0-0.1,0c-4.5,0-9,0.2-13.4,0.5
			c-6.2,0.4-12.4,1.2-18.6,1.6c-6.2,0.4-12.4,1.2-18.5,1.9c-8.3,0.9-16.6,2.1-24.8,3.2c-8.8,1.1-17.3,3.4-25.5,6.8
			c-7.7,3.2-15.1,7.2-23.5,8.8c-7.9,1.5-15.7,3.8-23.6,5.5c-10.8,2.4-21.6,4.3-32.4,6.8c-9,2.1-18,4.6-26.7,7.7
			c-3.5,1.2-7.2,2.3-10.1,4.9c-2.4,2.2-2.6,4.5-0.8,7.4c2.3,3.8,5.4,6.9,9.2,9.2c8.7,5.2,18.3,7.8,28.3,8.4c2.1,0.1,4.2,0.2,6.3,0.2
			c7.4,0,14.7-0.6,22.1-1c6-0.3,12-0.9,17.9-1.4c11.9-1.1,23.7-3,35.6-4.4c7.9-0.9,15.8-1.3,23.7-1.3c0.4,0,0.7,0,1.1,0
			c17.5,0.1,34.9,1.1,52.4,1.1c4.6,0,9.3-0.1,13.9-0.3c5.6-0.2,11.3-0.2,16.9-0.5c8.6-0.5,17.3-1.3,25.9-1.9
			c7.9-0.5,15.8-1.4,23.6-2.6c14.7-2.2,28.6-7.2,42.1-13.3c10-4.5,20.4-6.7,31.2-6.7c0.2,0,0.5,0,0.7,0c9.8,0.1,19.6,0.2,29.4,1.1
			c7.7,0.7,15.4,1.3,23,2c8.6,0.8,17.2,1.6,25.9,2.5c5.9,0.6,11.8,1.2,17.7,1.8c9.2,1,18.4,2.1,27.7,2.5c8.6,0.4,17.1,0.8,25.7,0.8
			c2.4,0,4.7,0,7.1-0.1c9.6-0.3,19.1-0.8,28.6-1.5c6.7-0.5,13.3-1.2,19.8-2.7c3.7-0.9,7.5-1.8,10.5-4.6
			C571.5,513,571.3,509.5,567.3,506.6z"/>
			<path class="fill-dark" opacity="0.03" d="M567.3,506.6c-4.6-3.3-9.9-4.9-15.3-6.5c-8.5-2.5-17.1-4.7-25.8-6.4c-5.8-1.2-11.6-2.4-17.5-3.2    c-5.4-0.7-10.7-1.5-16.1-2c-7.1-0.6-14.1-1.7-21.2-2.2c-5.8-0.4-11.6-0.8-17.4-1.1c-3.1-0.2-6.2-0.1-9.3-1    c-6.7-2.1-13.6-3.6-20.6-4.5c-9-1.2-18.1-1.9-27.2-2.6c-6.7-0.5-13.4-0.5-20.1-0.9c-12.5-0.8-25.1-0.7-37.7-1.6c0-0.1,0-0.3,0-0.4    c-15.5-0.4-31-0.9-46.5-1.3c0,0.1,0,0.3,0,0.4c-7.5,0.1-15,0.1-22.5,0.2c-7.2,0.1-14.3,0.2-21.5,0.2c-0.8,0-1.7,0-2.5,0    c-0.5,0-1,0-1.5,0c-4.1,0-8.3,0.1-12.4,0.1c-4.1,0.1-8.3,0.1-12.4,0.1c-0.1,0-0.1,0-0.2,0c0,0-0.1,0-0.1,0c-4.5,0-9,0.2-13.4,0.5    c-6.2,0.4-12.4,1.2-18.6,1.6c-6.2,0.4-12.4,1.2-18.5,1.9c-8.3,0.9-16.6,2.1-24.8,3.2c-8.8,1.1-17.3,3.4-25.5,6.8    c-7.7,3.2-15.1,7.2-23.5,8.8c-7.9,1.5-15.7,3.8-23.6,5.5c-10.8,2.4-21.6,4.3-32.4,6.8c-9,2.1-18,4.6-26.7,7.7    c-3.5,1.2-7.2,2.3-10.1,4.9c-2.4,2.2-2.6,4.5-0.8,7.4c2.3,3.8,5.4,6.9,9.2,9.2c8.7,5.2,18.3,7.8,28.3,8.4c2.1,0.1,4.2,0.2,6.3,0.2    c7.4,0,14.7-0.6,22.1-1c6-0.3,12-0.9,17.9-1.4c11.9-1.1,23.7-3,35.6-4.4c7.9-0.9,15.8-1.3,23.7-1.3c0.4,0,0.7,0,1.1,0    c17.5,0.1,34.9,1.1,52.4,1.1c4.6,0,9.3-0.1,13.9-0.3c5.6-0.2,11.3-0.2,16.9-0.5c8.6-0.5,17.3-1.3,25.9-1.9    c7.9-0.5,15.8-1.4,23.6-2.6c14.7-2.2,28.6-7.2,42.1-13.3c10-4.5,20.4-6.7,31.2-6.7c0.2,0,0.5,0,0.7,0c9.8,0.1,19.6,0.2,29.4,1.1    c7.7,0.7,15.4,1.3,23,2c8.6,0.8,17.2,1.6,25.9,2.5c5.9,0.6,11.8,1.2,17.7,1.8c9.2,1,18.4,2.1,27.7,2.5c8.6,0.4,17.1,0.8,25.7,0.8    c2.4,0,4.7,0,7.1-0.1c9.6-0.3,19.1-0.8,28.6-1.5c6.7-0.5,13.3-1.2,19.8-2.7c3.7-0.9,7.5-1.8,10.5-4.6    C571.5,513,571.3,509.5,567.3,506.6z"></path>
	</g>
</g>
<image style="overflow:visible;" width="270" height="519" xlink:href="images/mobile-img-02.png"  transform="matrix(1 0 0 1 150 0)">
</image>
<g>
	<g>
		<g>
			<path class="fill-light-pink" d="M45.8,144.2c0,0-3.1-5.7-4.2-7c-1.1-1.3,1.6-4.4,3.8-1.1c2.2,3.4,3.5,5.5,3.5,5.5L45.8,144.2z"/>
		</g>
	</g>
	<g>
		<g>
			<path class="st3" d="M49,149.9L38,125.2c-0.7-1.6,0.2-3.5,2-4l12.9-3.5c1.6-0.4,3.3,0.4,3.8,1.9l8.9,25.6
				c0.6,1.6-0.4,3.4-2.2,3.8l-10.9,2.6C51.1,152,49.6,151.3,49,149.9z"/>
		</g>
	</g>
	<g>
		<g>
			<path class="fill-light-pink" d="M45.2,148.1c0,0-1.3-2.1,2.2-6.1c4.7-5.3,11.3-11.5,13-11.4c2.5,0.2,2.1,2-1.1,4.8c-3.2,2.8-4.3,3.7-4.3,3.7
				s7.1-3.9,9.1-3.8c2.1,0.1,3.1,2,2,2.8c-1.1,0.8-3.8,2.3-3.8,2.3s3.2-1.3,4.1-0.2c0.7,0.8,1.4,2-1.3,3.8c0,0,3.1,1.2,0.7,3.9
				c-2.4,2.7-2.6,4.2-1.9,7.4c0.7,3.2-1,8.4-1,8.4l-10.7-0.6c0,0-1.9-7.9-3.4-9.7C47.5,151.5,45.2,148.1,45.2,148.1z"/>
		</g>
	</g>
	<g>
		<g>
			<path class="st3" d="M55.4,121.1c0.1,0.6-0.4,1.2-1.1,1.3c-0.7,0.1-1.3-0.4-1.4-1c-0.1-0.6,0.4-1.2,1.1-1.3
				C54.7,120,55.3,120.5,55.4,121.1z"/>
		</g>
	</g>
	<g>
		<g>
			<path class="fill-dark" d="M114.9,496.1c0,0-5.3,7.5-12.7,9.1c-7.4,1.6-14.7,4.2-14.8,8.6c-0.1,4.4,21.5,7,30,2.6
				c12.7-6.6,14-4.6,15.4-8c1.4-3.3-1.7-12.2-1.6-13.2C131.3,493.8,114.9,496.1,114.9,496.1z"/>
		</g>
	</g>
	<g>
		<g>
			<path class="st5" d="M115.7,492.4c0,0-1,3.6-0.8,3.7c0.1,0.1,16.7,1.9,16.2-1c-0.4-2.3-1-4.9-1-4.9L115.7,492.4z"/>
		</g>
	</g>
	<g>
		<g>
			<path class="fill-dark" d="M155.7,496.5c0,0-3.8,7.1-10.2,9.6c-6.9,2.6-12.4,5.6-12.3,9.9c0.1,4.3,16.9,8.7,29,0.4
				c7.7-5.2,10.1-5.2,11.4-8.5c1.2-3.3-2.1-11.8-2.1-12.8C171.5,493.7,155.7,496.5,155.7,496.5z"/>
		</g>
	</g>
	<g>
		<g>
			<path class="st5" d="M155.5,492.8c0,0,0,3.6,0.2,3.7c0.1,0.1,16.2,1.3,15.8-1.5c-0.3-2.2-1.6-5-1.6-5L155.5,492.8z"/>
		</g>
	</g>
	<g>
		<g>
			<path class="fill-blue" d="M96.7,275c0,0-9.9,51.8-13.3,70.6c-2.9,16-5.2,40.2-3.8,51.8c1.7,14.3,33,91.2,32.1,95.4
				c-0.9,4.2,23.5,1.9,23.5,1.9s-24-90.9-20.7-106.4c2.4-11.4,15.6-80.4,18.9-76.5c3.3,3.9,7.3,71.6,9.7,82.8
				c2.4,11.2,9.8,100,9.8,100s16.6,2.3,21-1.2c0,0,2-75.8,0.5-96.9c-0.6-8,10-96.3-3.6-131.8C163.5,246,96.7,275,96.7,275z"/>
		</g>
	</g>
	<g>
		<g>
			<path class="fill-primary" d="M214,220.6c0,0.9-1.7,4.3-4.5,9.3c-4.1-7.7-7.3-13.9-8.3-16.3c-3.4-7.6-21.1-25.1-21.1-25.1s0,0,0,0
				c0,0,0,0,0,0c0,0,0,0,0,0c0,0,0,0,0,0.1c0,0,0,0.1,0,0.1c0,0,0,0.1,0,0.1c0,0,0,0,0,0.1c-1,3.4-6.9,24.4-7.1,34.8
				c-0.2,11.3-1.3,43.3-1.3,43.3s-35,7.3-74.9,7.8c0,0-0.4-8.9-0.5-22.3c-0.1-5.6,1-16.1,0.7-25.8c0-0.1,0-0.1,0-0.2
				c0-0.1,0-0.2,0-0.4c0,0,0-0.1,0-0.1v0c-0.2-5.4,0.3-10.6-0.7-14.5l-0.9-5.1c-2.3,7.5-14.6,20.9-14.6,20.9
				c-19.6,24-27.8-60.3-31.8-66l18.3-4.8l9.3,35l4.2-11.5v0l4.5-12.3c0.5-0.4,5.9-17.5,10.3-19.4c4.5-2,15.7-6.7,20.6-9.2
				c2.5-1.3,4.8-2.5,6.9-3.3l0.3-0.1l0,0c3.4-1.4,5.6-2.4,5.6-2.4s0,0,0,0c0.1,0,0.6-0.1,1.5-0.1c4.7-0.4,19.3-1.7,24.2-2
				c0.4,0,0.7,0,1,0c0.2,0,0.4,0,0.5,0c0.6,0,3.6,1,7.6,2.4h0c0.2,0.1,0.3,0.1,0.5,0.2c0.2,0.1,0.4,0.1,0.6,0.2
				c0.3,0.1,0.7,0.2,1,0.4c0.7,0.3,1.4,0.5,2.2,0.8c0.3,0.1,0.5,0.2,0.8,0.3c7.9,3,16.8,6.9,19.1,8.1c4.7,2.2,6.6,6.3,11,18.5
				c6.6,20,15,50.5,15.3,58C214,220.4,214,220.5,214,220.6z"/>
		</g>
	</g>
	<g>
		<g>
			<path class="fill-light-pink" d="M155.9,129.2c-0.2,9.9-20.6,15.3-20.6,15.3s-8.5-10-6.5-11c0.8-0.4,1.1-1.9,1.2-3.6c0.1-1.6,0-3.4-0.1-4.5
				c-0.1-0.7-0.1-1.1-0.1-1.1s2.9-2.9,6.6-6.3c6.5-6,15.3-13.7,15.4-10.6c0,0.2,0,0.4-0.1,0.6C150.1,114.8,155.9,129.2,155.9,129.2z
				"/>
		</g>
	</g>
	<g>
		<g>
			<path class="st8" d="M148,114.7C148,114.7,148,114.7,148,114.7c0,0.1-0.9,1.3-2.4,3c-3.1,3.7-9,9.8-15.6,12.2
				c0.1-1.6,0-3.4-0.1-4.5c-0.7,0-1.4-0.1-2-0.2c1.8-3,4.4-6.1,4.4-6.1l4.1-1.2L148,114.7z"/>
		</g>
	</g>
	<g>
		<g>
			<path class="fill-light-pink" d="M151.9,107.5c-1.8,3.6-3.4,6.2-3.9,7.2c0,0,0,0,0,0c-0.3,0.7-1.1,1.8-2.4,3c-3.4,3.4-9.6,7.9-15.7,7.7
				c-0.7,0-1.4-0.1-2-0.2c-2.5-0.5-5.4-1.6-7-4.6c-12.7-23.4-3.5-42.5-3.5-42.5s34.7-9.2,40.1,0.6C161.4,85.7,156.1,99,151.9,107.5z
				"/>
		</g>
	</g>
	<g>
		<g>
			<path class="fill-dark" d="M117.4,78.2c0,0-3.2-0.2-4-5.9c-0.8-5.7,0.8-7.3,0.8-7.3s14.3-5.6,19.5-6.4c5.1-0.7,17.8-1.4,20.8,1.8
				c0,0,7.2-1.6,9.2,9.7c3.1,17.9-10.6,35.2-10.6,35.2s0.1-11.7-2.6-13.2c-2.7-1.5-5.1,2.1-5.1,2.1l-5.6,0.9c0,0,8.5-17.3-1.7-17.9
				C127.8,76.6,123.2,79.2,117.4,78.2z"/>
		</g>
	</g>
	<g>
		<g>
			<path class="fill-light-pink" d="M145.4,89.5c0.5-5.1,10.4-7.1,9.7-1.7c-0.7,5.4-5.5,10.6-7.8,10.4C145.2,98,145,93.4,145.4,89.5z"/>
		</g>
	</g>
	<g>
		<g>
			<path class="st9" d="M135.3,144.5c0,0,2.2,8.2,1.4,10.5c0,0-4.8,1.6-8.3-0.4C128.5,154.6,130.9,148.8,135.3,144.5z"/>
		</g>
	</g>
	<g>
		<g>
			<path class="fill-white" d="M123.7,154.4c0,0,6.8,4.9,20.5,0.9l-9-10.8L123.7,154.4z"/>
		</g>
	</g>
	<g>
		<g>
			<path class="st11" d="M127.3,152.7c0,0,4.5,3.2,13.5,0.6l-5.4-8.8L127.3,152.7z"/>
		</g>
	</g>
	<g>
		<g>
			<path class="st12" d="M164.6,279c0,0,4.1,4.8,10.8,7.6l22.4-37.9l-11.6-21.1C186.1,227.6,165.1,275.3,164.6,279z"/>
		</g>
	</g>
	<g>
		<g>
			<path class="fill-white" d="M164.1,133.9l-8.2-4.7c0,0-0.2,4.2-20.6,15.3l5.8,15.3L164.1,133.9z"/>
		</g>
	</g>
	<g>
		<g>
			<path class="fill-white" d="M129.9,131.3c0,0,0.3,4.6,5.4,13.2L124,158.3l-0.8-22.4L129.9,131.3z"/>
		</g>
	</g>
	<g>
		<path class="fill-light-pink" d="M170,273.6c0,0-2.7,6.2-6.2,7.2c-3.5,1-6.8,3-8.4,5.3c-1.5,2.3,17.2,8.8,17.2,8.8s7.7-11.4,7-16.3
			C179,273.6,170,273.6,170,273.6z"/>
	</g>
	<g>
		<path class="fill-primary" d="M179.9,189c0,0,11.6,15.9,9.8,31.1l-27.2,58c0,0,8.6,7,15.9,9.8c0,0,31.8-58.1,35.6-67.5
			C214,220.6,201.5,185.5,179.9,189z"/>
	</g>
	<g>
		<polygon class="fill-blue" points="153.7,285.8 178.2,297.2 177.3,306.4 151.1,290.5 		"/>
	</g>
	<g>
		<path class="st15" d="M152.4,494.7c0,0,14.3,3,21.8-1.2l0.4-6.9c0,0-11.5,2.1-23.4,0.9L152.4,494.7z"/>
	</g>
	<g>
		<path class="st15" d="M111.1,493.5c0,0,5.3,4.5,24.7,1.2l-2.1-8.2c0,0-12.4,2.9-24.1,0L111.1,493.5z"/>
	</g>
	<g>
		<path class="fill-dark" d="M80.6,180.4c0,3.4-1.1,26.1-1.1,26.1l-3.1-14.5L80.6,180.4z"></path>
		<path class="fill-primary" opacity="0.7" d="M80.6,180.4c0,3.4-1.1,26.1-1.1,26.1l-3.1-14.5L80.6,180.4z"></path>
	</g>
</g>
<g>
	<path id="XMLID_90_" class="st2" d="M412.7,100.9c-19.5,33.8-0.7,68.5,16.4,80.9c9.7,7.1,25.8,8.3,36.9,3.9
		c9.8-3.9,25.2-19.8,15.7-30.5c-3.3-3.7-8.1-5.7-12.6-7.7c-9.3-4.1-17.2-10.1-17.9-21C450.5,116.8,412.9,100.5,412.7,100.9z"/>
	<g id="XMLID_405_">
		<path id="XMLID_47_" class="fill-light-pink" d="M466.9,174.6c4,1.2,5.7,9.6,11.2,23.2c4.4,11.1,10.5,21.8,10.5,21.8s20-31.2,23.7-38.3
			c3.7-7.1,13.1-4,7.9,9.5c-5,12.9-25.3,50.7-29.9,52.2c-4.6,1.6-8.6-0.8-14.6-14.5c-6.1-13.7-19.2-37.7-19.2-37.7L466.9,174.6z"/>
		<path id="XMLID_87_" class="fill-primary" d="M418.4,217.3c-13.8,13.3-27.7,49-26.5,76.1c1.2,27.1,4.8,84,4.8,84s-4.4,13.2-4.9,28.8
			c-0.5,15.5,4.9,92.1,4.9,92.1h18.2c0,0,8.7-110.5,11-119.1c2.3-8.6,6.9-74.3,6.9-74.3l26.4,80c0,0-8.8,10.9-13.6,21.9
			c-4.7,10.9-20.2,91.5-20.2,91.5h17.7c0,0,37.5-92.1,42.1-101.9c4.6-9.8-4.6-61.6-13.3-100.2c-8.7-38.6-26.4-79.4-26.4-79.4
			L418.4,217.3z"/>
		<g id="XMLID_49_">
			<path id="XMLID_53_" class="fill-light-pink" d="M466.9,174.6c0,0-11.5,48.3-35.1,48.3c-23.5,0-35.1-48.3-35.1-48.3s6.5-1.4,13.3-4.5
				c7.3-3.3,14.8-8.5,14.8-16v-12.3h14v12.3c0,7.9,9.1,13.4,16.9,16.7C461.6,173.4,466.9,174.6,466.9,174.6z"/>
			<g>
				<g>
					<path class="st8" d="M422.2,139.2c0,0-0.2,0-0.2,0c0,0.1,0.9,1.1,2.2,2.7c2.9,3.3,8.4,8.6,14.5,10.7c0-1.4,0-3,0-4.1
						c0.6,0,1.2-0.1,1.8-0.3c-1.7-2.7-4.2-5.4-4.2-5.4l-3.7-0.9L422.2,139.2z"/>
				</g>
			</g>

				<ellipse id="XMLID_51_" transform="matrix(0.9973 -7.377736e-02 7.377736e-02 0.9973 -7.7641 32.7218)" class="fill-light-pink" cx="439" cy="121.5" rx="22.8" ry="27.3"/>
		</g>
		<path id="XMLID_48_" class="fill-blue" d="M466.9,174.6c0,0-11.5,48.3-35.1,48.3c-23.5,0-35.1-48.3-35.1-48.3s6.5-1.4,13.3-4.5
			c0,0,4.7,7.5,21.8,7.5c17.2,0,23.9-6.8,23.9-6.8C461.6,173.4,466.9,174.6,466.9,174.6z"/>
		<path id="XMLID_46_" class="fill-light-pink" d="M396.7,174.6c-6.4,1.5-7.3,4.9-11,14c-3.7,9-13.8,49.6-15.4,55.5
			c-1.6,5.9,30.2,38.9,35.7,42.6c5.5,3.7,15.5,2.7,6.7-8.3c-8.7-10.9-26.5-38.1-26.5-38.1l15.1-44.4c1.9-4.9,1.6-10.3-1-14.9
			L396.7,174.6z"/>
		<path id="XMLID_45_" class="fill-dark" d="M425.5,498.3l-2,9.7c0,0,46.6,0,53.7,0c7.1,0-33.9-9.7-33.9-9.7H425.5z"/>
		<path id="XMLID_55_" class="fill-dark" d="M396.6,498.3l-2,9.7c0,0,46.6,0,53.7,0c7.1,0-33.9-9.7-33.9-9.7H396.6z"/>
	</g>
	<path id="XMLID_88_" class="st2" d="M417.8,131.5c0,0-3.3-11,0-13c3.3-2.1,7,5.4,7,5.4s20.6-4.9,27.1-23.8c0,0,5.8,3.5,9.2,14.5
		c0,0-0.6-17-9.1-22.5c-11.5-7.4-32.2-5.4-39.5,9.3C405,116.5,411.3,123.4,417.8,131.5z"/>
	<path id="XMLID_50_" class="fill-dark" d="M514.3,185.8l-4.6-1.9c-0.7-0.3-1-1.1-0.7-1.8l13.8-33.2c0.3-0.7,1.1-1,1.8-0.7l4.6,1.9
		c0.7,0.3,1,1.1,0.7,1.8l-13.8,33.2C515.8,185.8,515,186.1,514.3,185.8z"/>
</g>
</svg>
