<?xml version="1.0" encoding="utf-8"?>
<!-- Generator: Adobe Illustrator 19.0.0, SVG Export Plug-In . SVG Version: 6.00 Build 0)  -->
<svg version="1.1" id="Isolation_Mode" xmlns="http://www.w3.org/2000/svg" xmlns:xlink="http://www.w3.org/1999/xlink" x="0px"
	 y="0px" viewBox="0 0 236.2 260.9" style="enable-background:new 0 0 236.2 260.9;" xml:space="preserve">
<style type="text/css">
	.st1{fill:#FFBDA1;}
	.st2{fill:#CE7152;}
	.st3{fill:#524F63;}
	.st4{fill:#E0E4ED;}
	.st5{fill:#91616A;}
	.st6{fill:#4A4549;}
	.st7{fill:#FFBB22;}
	.st8{fill:#DD851B;}

	<!-- .st0{fill:#E3FFF5;} -->
	<!-- .st1{fill:#1D2942;} -->
	<!-- .st2{fill:#138267;} -->
	<!-- .st3{fill:#FF9D08;}
	.st4{fill:#EF941D;}
	.st5{fill:#DD851B;}
	.st6{fill:#FFBB22;}
	.st7{fill:#62C4A6;}
	.st8{fill:#FFFFFF;} -->
	<!-- .st9{fill:#1AA882;} -->
	<!-- .st10{fill:#54B594;}
	.st11{fill:#199B76;} -->
	<!-- .st12{fill:#6FDDB9;} -->
</style>
<g>
	<path class="fill-primary" opacity="0.07" d="M78.6,106.7c51,31.1,8.3,109.7,89.7,90.5c86.8-20.4,43.9-107.2-2.7-151.1C81-33.5-29.9,40.5,78.6,106.7z"/>
	<path class="st3" d="M197.4,12.8c0,0-51.4,18.8-40.7,78.9C156.7,91.7,210.8,68.8,197.4,12.8z"/>
	<path class="fill-primary" d="M213.9,40.9c0,0-43.1-1.7-53.3,45.3C160.6,86.2,206.9,85.7,213.9,40.9z"/>
	<path class="st3" d="M33,158.8c0,0,40.2,14.5,33.2,58C66.2,216.9,23.8,199.4,33,158.8z"/>
	<path class="fill-primary" d="M20.8,179c0,0,33.4-0.5,42.3,33.8C63.1,212.8,27.1,211.8,20.8,179z"/>
	<path class="fill-primary" d="M112.4,12.8c0,0-12.6,26.4,14,45.4C126.5,58.1,138.6,29.1,112.4,12.8z"/>
	<ellipse class="fill-primary" opacity="0.07" cx="118.3" cy="251.3" rx="114.2" ry="7.7"/>
	<g>
		<g>
			<g>
				<path class="st3" d="M121.1,249.1h1.1C121.8,249.1,121.4,249.1,121.1,249.1z"/>
				<path class="st7" d="M191,144.8c0,4.7-0.3,9.3-0.6,14c-0.1,1.3-0.2,2.5-0.4,3.8c-0.5,4.6-1.2,9.1-2,13.6
					c-0.2,1.3-0.5,2.5-0.8,3.8c-0.9,4.4-2,8.6-3.3,12.8c-0.4,1.3-0.8,2.5-1.2,3.8c-1.3,4-2.8,7.8-4.5,11.6c-0.6,1.3-1.2,2.5-1.8,3.8
					c-1.1,2.2-2.2,4.3-3.4,6.4c-1,1.8-2.1,3.4-3.1,5c-0.9,1.3-1.8,2.6-2.6,3.8c-2.7,3.6-5.4,6.7-8.3,9.4c-1.5,1.4-2.9,2.6-4.4,3.8
					c-2.1,1.6-4.3,3-6.5,4.2c-2.1,1.1-4.3,2-6.4,2.8c-1.2,0.4-2.5,0.8-3.7,1c-2.5,0.6-4.9,0.8-7.4,0.9h-24.3l-0.5-0.9l-0.6-1
					l-1.5-2.8l0-0.1c-2.2-1.2-4.3-2.5-6.4-4.1c-1.5-1.1-3-2.4-4.5-3.8c-2.9-2.7-5.7-5.8-8.3-9.4c-0.9-1.2-1.8-2.5-2.7-3.8
					c-1.2-1.8-2.3-3.6-3.4-5.5c-1.1-1.9-2.1-3.9-3.1-5.9c-0.6-1.2-1.2-2.5-1.8-3.8c-1.7-3.7-3.2-7.6-4.5-11.6
					c-0.4-1.2-0.8-2.5-1.2-3.8c-1.3-4.1-2.4-8.4-3.3-12.8c-0.3-1.2-0.5-2.5-0.8-3.8c-0.5-2.6-1-5.3-1.3-8l-3-5.6l-0.3-0.6v-38.4
					l0.2-0.3l3.1-5.6c0.4-2.7,0.8-5.3,1.3-8c0.2-1.3,0.5-2.5,0.8-3.8c0.9-4.4,2-8.6,3.2-12.8c0.4-1.3,0.8-2.5,1.2-3.8
					c1.3-4,2.8-7.9,4.5-11.6c0.6-1.3,1.1-2.5,1.8-3.8c1.1-2.3,2.2-4.5,3.5-6.6c1-1.7,2-3.4,3-4.9c0.9-1.3,1.7-2.6,2.6-3.8
					c2.6-3.6,5.4-6.7,8.3-9.4c1.4-1.4,2.9-2.6,4.4-3.8c2.1-1.6,4.3-3.1,6.5-4.2c0.2-0.1,0.4-0.2,0.5-0.3l1.4-2.5l1-1.9h24.2
					c2.5,0.1,5,0.4,7.5,0.9c1.1,0.3,2.2,0.6,3.3,0.9c2.2,0.7,4.4,1.7,6.6,2.8c2.2,1.2,4.4,2.6,6.5,4.2c1.5,1.1,3,2.4,4.4,3.8
					c2.9,2.7,5.6,5.8,8.3,9.4c0.9,1.2,1.8,2.5,2.7,3.8c1.2,1.7,2.3,3.5,3.4,5.4c1.1,2,2.2,4,3.2,6.1c0.6,1.2,1.2,2.5,1.8,3.8
					c1.7,3.7,3.2,7.6,4.5,11.6c0.4,1.2,0.8,2.5,1.2,3.8c1.3,4.2,2.4,8.4,3.3,12.8c0.3,1.2,0.5,2.5,0.8,3.8c0.9,4.5,1.5,9,2,13.6
					c0.1,1.3,0.3,2.5,0.4,3.8c0.4,4.6,0.6,9.3,0.7,14C191,142.2,191,143.5,191,144.8z"/>
					<path class="st8" opacity="0.7" d="M191,144.8c0,4.7-0.3,9.3-0.6,14c-0.1,1.3-0.2,2.5-0.4,3.8c-0.5,4.6-1.2,9.1-2,13.6      c-0.2,1.3-0.5,2.5-0.8,3.8c-0.9,4.4-2,8.6-3.3,12.8c-0.4,1.3-0.8,2.5-1.2,3.8c-1.3,4-2.8,7.8-4.5,11.6c-0.6,1.3-1.2,2.5-1.8,3.8      c-1.1,2.2-2.2,4.3-3.4,6.4c-1,1.8-2.1,3.4-3.1,5c-0.9,1.3-1.8,2.6-2.6,3.8c-2.7,3.6-5.4,6.7-8.3,9.4c-1.5,1.4-2.9,2.6-4.4,3.8      c-2.1,1.6-4.3,3-6.5,4.2c-2.1,1.1-4.3,2-6.4,2.8c-1.2,0.4-2.5,0.8-3.7,1c-2.5,0.6-4.9,0.8-7.4,0.9h-24.3l-0.5-0.9l-0.6-1      l-1.5-2.8l0-0.1c-2.2-1.2-4.3-2.5-6.4-4.1c-1.5-1.1-3-2.4-4.5-3.8c-2.9-2.7-5.7-5.8-8.3-9.4c-0.9-1.2-1.8-2.5-2.7-3.8      c-1.2-1.8-2.3-3.6-3.4-5.5c-1.1-1.9-2.1-3.9-3.1-5.9c-0.6-1.2-1.2-2.5-1.8-3.8c-1.7-3.7-3.2-7.6-4.5-11.6      c-0.4-1.2-0.8-2.5-1.2-3.8c-1.3-4.1-2.4-8.4-3.3-12.8c-0.3-1.2-0.5-2.5-0.8-3.8c-0.5-2.6-1-5.3-1.3-8l-3-5.6l-0.3-0.6v-38.4      l0.2-0.3l3.1-5.6c0.4-2.7,0.8-5.3,1.3-8c0.2-1.3,0.5-2.5,0.8-3.8c0.9-4.4,2-8.6,3.2-12.8c0.4-1.3,0.8-2.5,1.2-3.8      c1.3-4,2.8-7.9,4.5-11.6c0.6-1.3,1.1-2.5,1.8-3.8c1.1-2.3,2.2-4.5,3.5-6.6c1-1.7,2-3.4,3-4.9c0.9-1.3,1.7-2.6,2.6-3.8      c2.6-3.6,5.4-6.7,8.3-9.4c1.4-1.4,2.9-2.6,4.4-3.8c2.1-1.6,4.3-3.1,6.5-4.2c0.2-0.1,0.4-0.2,0.5-0.3l1.4-2.5l1-1.9h24.2      c2.5,0.1,5,0.4,7.5,0.9c1.1,0.3,2.2,0.6,3.3,0.9c2.2,0.7,4.4,1.7,6.6,2.8c2.2,1.2,4.4,2.6,6.5,4.2c1.5,1.1,3,2.4,4.4,3.8      c2.9,2.7,5.6,5.8,8.3,9.4c0.9,1.2,1.8,2.5,2.7,3.8c1.2,1.7,2.3,3.5,3.4,5.4c1.1,2,2.2,4,3.2,6.1c0.6,1.2,1.2,2.5,1.8,3.8      c1.7,3.7,3.2,7.6,4.5,11.6c0.4,1.2,0.8,2.5,1.2,3.8c1.3,4.2,2.4,8.4,3.3,12.8c0.3,1.2,0.5,2.5,0.8,3.8c0.9,4.5,1.5,9,2,13.6      c0.1,1.3,0.3,2.5,0.4,3.8c0.4,4.6,0.6,9.3,0.7,14C191,142.2,191,143.5,191,144.8z"></path>
				<g>
					<path class="st8" d="M141.3,38.3c-1.1-0.4-2.2-0.7-3.3-0.9c-2.5-0.6-5-0.9-7.5-0.9h-24.2l-0.5,0.9l-0.5,0.9l-1.4,2.5
						c-0.2,0.1-0.4,0.2-0.5,0.3h44.5C145.7,40,143.5,39,141.3,38.3z"/>
					<path class="st8" d="M154.4,45.4H96.8c-1.5,1.1-3,2.4-4.4,3.8h66.4C157.4,47.8,155.9,46.5,154.4,45.4z"/>
					<path class="st8" d="M167.1,58.6h-83c-0.9,1.2-1.8,2.5-2.6,3.8h88.3C168.9,61,168,59.8,167.1,58.6z"/>
					<path class="st8" d="M176.3,73.9H74.9c-0.6,1.2-1.2,2.5-1.8,3.8h104.9C177.5,76.4,177,75.1,176.3,73.9z"/>
					<path class="st8" d="M182.6,89.3H68.7c-0.4,1.2-0.8,2.5-1.2,3.8h116.3C183.5,91.8,183,90.5,182.6,89.3z"/>
					<path class="st8" d="M187.1,105.8H64.3c-0.3,1.2-0.5,2.5-0.8,3.8h124.4C187.7,108.4,187.4,107.1,187.1,105.8z"/>
					<path class="st8" d="M189.9,123.2H59.2l-0.2,0.3v3.4h131.3C190.2,125.7,190,124.5,189.9,123.2z"/>
					<path class="st8" d="M191,141H59v3.8h132C191,143.5,191,142.2,191,141z"/>
					<path class="st8" d="M59,161.9l0.3,0.6H190c0.1-1.3,0.3-2.5,0.4-3.8H59V161.9z"/>
					<path class="st8" d="M64.4,179.9h122.8c0.3-1.2,0.5-2.5,0.8-3.8H63.7C63.9,177.4,64.2,178.6,64.4,179.9z"/>
					<path class="st8" d="M69,196.4h113.8c0.4-1.2,0.8-2.5,1.2-3.8H67.8C68.1,193.9,68.5,195.2,69,196.4z"/>
					<path class="st8" d="M75.3,211.8h101.2c0.6-1.2,1.2-2.5,1.8-3.8H73.5C74.1,209.3,74.7,210.5,75.3,211.8z"/>
					<path class="st8" d="M84.5,227h82.9c0.9-1.2,1.8-2.5,2.6-3.8H81.8C82.7,224.5,83.6,225.8,84.5,227z"/>
					<path class="st8" d="M97.3,240.2h57.3c1.5-1.1,3-2.4,4.4-3.8H92.8C94.3,237.8,95.8,239.1,97.3,240.2z"/>
					<path class="st8" d="M105.3,247.2l0.6,1l0.5,0.9h24.3c2.5,0,4.9-0.3,7.4-0.9c1.2-0.3,2.5-0.6,3.7-1c2.2-0.7,4.3-1.6,6.4-2.8
						h-44.3L105.3,247.2z"/>
				</g>
			</g>
		</g>
		<g>
			<g>
				<path class="st7" d="M62.6,217.7c-23.8-41.7-23.8-109,0-150.4c23.8-41.4,62.5-41.2,86.3,0.5c23.8,41.7,23.8,109,0,150.4
					C125,259.6,86.4,259.4,62.6,217.7"/>
				<path class="st8" d="M51.8,142.4c0-27.2,6-52.5,16.9-71.5C78.9,53.3,92,43.6,105.6,43.6c13.7,0,26.9,9.9,37.1,27.8
					c10.9,19.1,16.9,44.5,16.9,71.7c0,0,0,0,0,0c0,27.2-6,52.5-16.9,71.5c-10.2,17.6-23.2,27.3-36.8,27.3
					c-13.7,0-26.9-9.9-37.1-27.8C57.8,195,51.8,169.5,51.8,142.4z"/>
				<path class="st7" d="M58.7,146.4c0-27.2,5.8-52.5,16.2-71.5c9.7-17.6,22.2-27.3,35.3-27.3c13.1,0,25.8,9.9,35.6,27.8
					c10.4,19.1,16.2,44.5,16.2,71.7c0,0,0,0,0,0c0,27.2-5.7,52.5-16.2,71.5c-9.7,17.6-22.2,27.3-35.3,27.3
					c-13.1,0-25.8-9.9-35.6-27.8C64.5,199,58.7,173.5,58.7,146.4z"/>
			</g>
		</g>
		<g>
			<g>
				<path class="st8" d="M127.4,198.7l4.4-7.6c0.9-1.5,0.9-4,0-5.4l-3.5-6.1c3.4-8.4,4.9-16.6,4.5-24.7c-0.4-8-2.3-15-5.6-20.7
					c-3.5-6.1-7.1-9.2-10.7-9.1c-3.6,0-7.5,1.9-11.7,5.6c-0.4,0.3-1.6,1.3-3.3,2.9c-3.9,3.5-6.9,5.7-8.9,6.6c-2.1,1-3.8,0.3-5.2-2.1
					c-3.1-5.4-2.6-11.7,1.5-18.9c2.4-4.2,5.3-7.8,8.7-10.7c1.7-1.4,3.4-2.6,5.1-3.5c0.5-0.3,1-0.7,1.3-1.3c1.1-2,1.3-5.3,0-7.5
					l-4.9-8.6c-0.7-1.2-1.8-1.6-2.7-1c-4.5,3.1-8.9,7.9-13.1,14.5l-4.1-7.1c-0.9-1.5-2.3-1.5-3.1,0l-4.4,7.6c-0.9,1.5-0.9,4,0,5.4
					l4.3,7.5c-3.1,7.7-4.5,15.6-4,23.6c0.4,8,2.4,15.1,5.9,21.3c2.5,4.4,5.1,7.1,7.8,8.1c2.7,1,5.4,0.8,8.1-0.6
					c2.7-1.4,5.8-3.8,9.3-7.1c3-2.8,5.2-4.7,6.6-5.8c1.4-1.1,2.8-1.7,4.3-1.6c1.4,0,2.7,1,3.8,3c1.4,2.5,2,5.4,1.6,8.8
					c-0.4,3.3-1.6,6.7-3.5,10.1c-2.1,3.7-4.7,6.7-7.8,8.7c-1.3,0.9-2.6,1.7-4,2.3c-0.6,0.3-1,0.8-1.4,1.4c-1.1,2-1.3,5.3,0,7.5
					l5,8.7c0.7,1.2,1.8,1.6,2.7,1c1.8-1.2,3.5-2.5,5-4c1.9-1.8,3.8-4.2,5.8-6.9l3.3,5.7C125.1,200.2,126.5,200.3,127.4,198.7"/>
			</g>
		</g>
	</g>
	<path class="st3" d="M108.8,67.7c-0.5-0.1-1,0.2-1.1,0.7l-2,10.3H86.3l1.9-9.9c0.1-0.5-0.2-1-0.7-1.1c-0.5-0.1-1,0.2-1.1,0.7
		L52.1,248.9c-0.1,0.5,0.2,1,0.7,1.1c0.1,0,0.1,0,0.2,0c0.4,0,0.8-0.3,0.9-0.7l2-10.3h19.5l-1.9,9.9c-0.1,0.5,0.2,1,0.7,1.1
		c0.1,0,0.1,0,0.2,0c0.4,0,0.8-0.3,0.9-0.7l34.3-180.5C109.6,68.3,109.3,67.8,108.8,67.7z M105.5,80.5l-3.4,18H82.5l3.4-18H105.5z
		 M98.3,118.3H78.8l3.4-18h19.5L98.3,118.3z M94.5,138.1H75l3.4-18h19.5L94.5,138.1z M90.8,157.9H71.2l3.4-18h19.5L90.8,157.9z
		 M87,177.7H67.5l3.4-18h19.5L87,177.7z M83.2,197.5H63.7l3.4-18h19.5L83.2,197.5z M79.5,217.3H59.9l3.4-18h19.5L79.5,217.3z
		 M56.2,237.1l3.4-18h19.5l-3.4,18H56.2z"/>
	<g>
		<path class="st1" d="M106.8,68.8c0.8,0.3,2.9,0.7,2.8-0.3c-0.1-0.8-1.9-0.9-2.5-0.8C106.4,67.7,106.8,68.8,106.8,68.8z"/>
		<path class="st1" d="M90.5,49.1c-2.6-1.3-4.8,0.5-5,4.1c-0.1,1.2,0.1,2.3,0.5,3.2l-0.5,2.8c-0.2,1,0.5,2,1.5,2.2
			c1,0.2,1.9-0.4,2.1-1.4l0-0.2l0.2-1c1.9,0,2.9-1.9,3.3-4.3C93.1,51.8,92.5,50.1,90.5,49.1z"/>
		<path class="fill-primary" d="M94.5,84.9l-9.9-0.6c0,0.3-0.1,0.6-0.1,1l-6-1c-0.7,4.6-0.9,14.2-1,17.8c0,1.5,0,2.9,0,4.1c0,0,0,0,0,0.1
			c-0.7,2.3-2.3,8.2-3.3,13.5c-0.9,5.3-2.7,16.9-0.3,16.7c1.9-0.1,8.1-18.1,10.8-25.7c0.1,2.9,0.2,6.9,0.6,10.5
			c0.6,5.4,2.2,17.1,4.4,16.3c2.1-0.7,3-26.8,3.4-30.5c0-0.1,0-0.2,0-0.3C94.4,99.6,94,84.9,94.5,84.9z"/>
		<path class="fill-white" d="M107.7,68.4L107.7,68.4c-0.5-0.2-0.6,0.1-0.8,0.2l-0.6,0.3c-0.4,0.2-0.8,0.4-1.2,0.6
			c-0.8,0.3-1.6,0.6-2.4,0.8c-0.8,0.2-1.5,0.2-2.2,0.1c-0.3,0-0.6-0.1-0.8-0.3c-0.1-0.1-0.2-0.1-0.3-0.2l-0.4-0.3
			c-1.3-1-2.5-2.2-3.6-3.5c-0.5-0.6-1.1-1.3-1.6-2c-0.4-0.5-0.8-1.1-1.1-1.6c-0.1-0.2-0.2-0.4-0.3-0.6c-0.4-0.7-1.1-1.3-2-1.7
			c-2.1-1-5.2-1.1-7.2-0.4c-0.3,0.1-0.5,0.2-0.7,0.3c-0.3,0.1-0.6,0.2-0.8,0.4c-1,0.9-1.7,1.7-2.5,2.6c-0.8,0.9-1.5,1.9-2.1,3
			c-1.2,2.1-2.2,4.4-2.5,7c-0.1,1.3-0.2,2.6,0.3,4c0.2,0.7,0.5,1.5,1.2,2.1c0.5,0.6,1.2,1,1.9,1.2c0,2.1,0.1,3.8,0.3,4.7
			c0.2,1.2,16.4,2,16.3-0.4c-0.2-3.2-0.2-9-0.6-14.1c0.9,0.8,1.8,1.5,2.8,2.1l0.3,0.2l0.4,0.2c0.3,0.1,0.6,0.3,0.9,0.4
			c0.6,0.2,1.3,0.3,1.9,0.2c1.2-0.1,2.3-0.5,3.2-0.9c0.9-0.5,1.7-1.1,2.5-1.7c0.4-0.3,0.7-0.6,1.1-1l0.5-0.5
			c0.1-0.2,0.4-0.3,0.4-0.7C108.1,68.7,108,68.5,107.7,68.4z"/>
		<path class="st3" d="M72.9,134.1c-0.4,0.3-0.5,1.3-0.7,2.3c-0.3,1,1.1,0.8,2.1,1.1c2.4,0.8,5.7,1.4,4.1,0.3
			c-2.1-1.4-2.5-2.8-3-3.2C75.3,134.6,73,134.1,72.9,134.1z"/>
		<path class="st3" d="M88.1,135.6c-0.3,0.3-0.1,1.4-0.1,2.4c0,1,1.3,0.5,2.4,0.6c2.5,0.2,5.9,0,4-0.6c-2.5-0.9-3.2-2.1-3.7-2.4
			C90.5,135.6,88.2,135.6,88.1,135.6z"/>
		<path class="st3" d="M91.6,52.2c0-0.1,0.1-0.3,0.1-0.4L93,52c-0.2-6.1-8.7-5.1-9.7-3.4l0.1,0c-2.4,1-2,3.6-1.5,8.9
			c2.2,2.3,10.3,0.6,10.3,0.6S90.3,56.4,91.6,52.2z"/>
		<path class="st1" d="M92,53.6c0.1,0.7,0.1,1.4-0.3,1.6c-0.4,0.2-0.8-0.2-1-0.9c-0.3-0.9,0-1.7,0.5-1.7
			C91.7,52.5,91.9,52.9,92,53.6z"/>
	</g>
	<g>
		<g>
			<rect x="125" y="199.5" class="fill-primary" opacity="1" width="10.7" height="53.3"/>
			<rect x="135.7" y="199.5" class="fill-dark" width="10.7" height="53.3"/>
			<rect x="135.7" y="199.5" class="fill-primary" opacity="0.7" width="10.7" height="53.3"/>
		</g>
		<g>
			<rect x="152.7" y="183.4" class="fill-primary" width="10.7" height="69.5"/>
			<rect x="163.5" y="183.4" class="fill-dark" width="10.7" height="69.5"/>
			<rect x="163.5" y="183.4" class="fill-primary"  opacity="0.8" width="10.7" height="69.5"/>
		</g>
		<g>
			<rect x="180.5" y="167.8" class="fill-primary" opacity="0.8" width="10.7" height="85.1"/>
			<rect x="191.2" y="167.8" class="fill-primary" opacity="0.9" width="10.7" height="85.1"/>
		</g>
	</g>
	<g>
		<polygon class="fill-primary" points="89.2,2.9 49.4,2.9 49.4,26.2 77.5,26.2 83.3,35.5 84.8,26.2 89.2,26.2 		"/>
		<g>
			<g>
				<path class="fill-white" opacity="0.5" d="M62,18.7c-0.5,0.6-1.3,1-2.2,1.2V21c0,0.2-0.2,0.4-0.4,0.4h-1.1c-0.2,0-0.4-0.2-0.4-0.4v-1
					c-1-0.1-1.9-0.3-2.7-0.6c-0.2-0.1-0.3-0.2-0.3-0.4v-1.3c0-0.4,0.4-0.7,0.8-0.5c0.3,0.2,0.6,0.3,0.9,0.4c0.6,0.2,1.3,0.3,1.9,0.3
					c1,0,1.6-0.4,1.6-1.2c0-0.3-0.2-0.6-0.5-0.8c-0.3-0.2-0.9-0.4-1.6-0.7c-0.3-0.1-0.6-0.2-0.6-0.2c-0.8-0.3-1.4-0.6-1.9-1.1
					c-0.5-0.5-0.7-1.1-0.7-2c0-0.8,0.3-1.6,0.8-2.2c0.5-0.6,1.3-1,2.4-1.2V7.6c0-0.2,0.2-0.4,0.4-0.4h1.1c0.2,0,0.4,0.2,0.4,0.4v0.8
					c0.4,0,0.9,0.1,1.2,0.2C61.3,8.8,61.6,8.9,62,9c0.2,0.1,0.3,0.2,0.3,0.4v1.3c0,0.4-0.5,0.7-0.8,0.5c-0.2-0.1-0.4-0.2-0.7-0.3
					c-0.5-0.2-1.1-0.3-1.6-0.3c-0.5,0-0.9,0.1-1.2,0.3c-0.3,0.2-0.4,0.5-0.4,0.8c0,0.3,0.1,0.5,0.3,0.7c0.2,0.2,0.4,0.3,0.7,0.4
					c0.3,0.1,0.7,0.2,1.3,0.4c0.7,0.2,1.3,0.4,1.7,0.7c0.4,0.2,0.8,0.6,1.1,1c0.3,0.4,0.4,0.9,0.4,1.6C62.8,17.3,62.6,18.1,62,18.7z
					"/>
			</g>
			<g>
				<path class="fill-white" opacity="0.5" d="M72.5,18.7c-0.5,0.6-1.3,1-2.2,1.2V21c0,0.2-0.2,0.4-0.4,0.4h-1.1c-0.2,0-0.4-0.2-0.4-0.4v-1
					c-1-0.1-1.9-0.3-2.7-0.6c-0.2-0.1-0.3-0.2-0.3-0.4v-1.3c0-0.4,0.4-0.7,0.8-0.5c0.3,0.2,0.6,0.3,0.9,0.4c0.6,0.2,1.3,0.3,1.9,0.3
					c1,0,1.6-0.4,1.6-1.2c0-0.3-0.2-0.6-0.5-0.8c-0.3-0.2-0.9-0.4-1.6-0.7c-0.3-0.1-0.6-0.2-0.6-0.2c-0.8-0.3-1.4-0.6-1.9-1.1
					c-0.5-0.5-0.7-1.1-0.7-2c0-0.8,0.3-1.6,0.8-2.2c0.5-0.6,1.3-1,2.4-1.2V7.6c0-0.2,0.2-0.4,0.4-0.4h1.1c0.2,0,0.4,0.2,0.4,0.4v0.8
					c0.4,0,0.9,0.1,1.2,0.2c0.3,0.1,0.6,0.2,0.9,0.3c0.2,0.1,0.3,0.2,0.3,0.4v1.3c0,0.4-0.5,0.7-0.8,0.5c-0.2-0.1-0.4-0.2-0.7-0.3
					c-0.5-0.2-1.1-0.3-1.6-0.3c-0.5,0-0.9,0.1-1.2,0.3C68.1,11,68,11.3,68,11.6c0,0.3,0.1,0.5,0.3,0.7c0.2,0.2,0.4,0.3,0.7,0.4
					c0.3,0.1,0.7,0.2,1.3,0.4c0.7,0.2,1.3,0.4,1.7,0.7c0.4,0.2,0.8,0.6,1.1,1c0.3,0.4,0.4,0.9,0.4,1.6
					C73.3,17.3,73.1,18.1,72.5,18.7z"/>
			</g>
			<g>
				<path class="fill-white" opacity="0.5" d="M83,18.7c-0.5,0.6-1.3,1-2.2,1.2V21c0,0.2-0.2,0.4-0.4,0.4h-1.1c-0.2,0-0.4-0.2-0.4-0.4v-1
					c-1-0.1-1.9-0.3-2.7-0.6c-0.2-0.1-0.3-0.2-0.3-0.4v-1.3c0-0.4,0.4-0.7,0.8-0.5c0.3,0.2,0.6,0.3,0.9,0.4c0.6,0.2,1.3,0.3,1.9,0.3
					c1,0,1.6-0.4,1.6-1.2c0-0.3-0.2-0.6-0.5-0.8c-0.3-0.2-0.9-0.4-1.6-0.7c-0.3-0.1-0.6-0.2-0.6-0.2c-0.8-0.3-1.4-0.6-1.9-1.1
					c-0.5-0.5-0.7-1.1-0.7-2c0-0.8,0.3-1.6,0.8-2.2c0.5-0.6,1.3-1,2.4-1.2V7.6c0-0.2,0.2-0.4,0.4-0.4h1.1c0.2,0,0.4,0.2,0.4,0.4v0.8
					c0.4,0,0.9,0.1,1.2,0.2c0.3,0.1,0.6,0.2,0.9,0.3c0.2,0.1,0.3,0.2,0.3,0.4v1.3c0,0.4-0.5,0.7-0.8,0.5c-0.2-0.1-0.4-0.2-0.7-0.3
					c-0.5-0.2-1.1-0.3-1.6-0.3c-0.5,0-0.9,0.1-1.2,0.3c-0.3,0.2-0.4,0.5-0.4,0.8c0,0.3,0.1,0.5,0.3,0.7c0.2,0.2,0.4,0.3,0.7,0.4
					c0.3,0.1,0.7,0.2,1.3,0.4c0.7,0.2,1.3,0.4,1.7,0.7c0.4,0.2,0.8,0.6,1.1,1c0.3,0.4,0.4,0.9,0.4,1.6C83.8,17.3,83.6,18.1,83,18.7z
					"/>
			</g>
		</g>
	</g>
</g>
</svg>
