<?xml version="1.0" encoding="utf-8"?>
<!-- Generator: Adobe Illustrator 23.0.0, SVG Export Plug-In . SVG Version: 6.00 Build 0)  -->
<svg version="1.1" id="OBJECTS" xmlns="http://www.w3.org/2000/svg" xmlns:xlink="http://www.w3.org/1999/xlink" x="0px" y="0px"
	 viewBox="0 0 500 500" style="enable-background:new 0 0 500 500;" xml:space="preserve">
<style type="text/css">
	<!-- .st1{fill:#138267;} -->
	<!-- .st1{fill:#65AA98;} -->
	<!-- .st2{fill:#7F7F7F;} -->
	<!-- .st3{fill:#BFE2D8;} -->
	.fill-light-pink{fill:#FFBDA1;}
	<!-- .st5{fill:#232729;} -->
	<!-- .st6{fill:#03345F;} -->
	<!-- .st7{fill:#16634F;} -->
	.st9{clip-path:url(#SVGID_2_);fill:#232729;}
</style>
<g>
	<path class="fill-primary" d="M151.4,83.9c-0.4,0-0.7,0.3-0.7,0.7c0,0.4,0.3,0.7,0.7,0.7c0.4,0,0.7-0.3,0.7-0.7
		C152.1,84.2,151.8,83.9,151.4,83.9z"/>
	<path class="fill-primary" d="M151.4,76.2c-0.4,0-0.7,0.3-0.7,0.7c0,0.4,0.3,0.7,0.7,0.7c0.4,0,0.7-0.3,0.7-0.7
		C152.1,76.5,151.8,76.2,151.4,76.2z"/>
	<path class="fill-primary" d="M151.4,60.8c-0.2,0-0.4,0.1-0.5,0.2c-0.1,0.2-0.1,0.5-0.2,0.7c0.1,0.3,0.4,0.5,0.7,0.5c0.4,0,0.7-0.3,0.7-0.7
		C152.1,61.1,151.8,60.8,151.4,60.8z"/>
	<path class="fill-primary" d="M151.4,68.5c-0.1,0-0.1,0-0.2,0c0,0,0,0,0,0c0,0-0.1,0-0.1,0c0,0,0,0,0,0c0,0-0.1,0-0.1,0.1c0,0,0,0,0,0
		c-0.2,0.1-0.3,0.3-0.3,0.5c0,0.2,0.1,0.4,0.3,0.6c0,0,0,0,0,0c0.1,0,0.1,0.1,0.2,0.1c0,0,0,0,0,0c0.1,0,0.1,0,0.2,0c0,0,0,0,0,0
		c0.4,0,0.7-0.3,0.7-0.7C152.1,68.8,151.8,68.5,151.4,68.5z"/>
	<path class="fill-primary" d="M151.4,91.6C151.4,91.6,151.4,91.6,151.4,91.6c-0.1,0-0.2,0-0.2,0c0,0,0,0,0,0c-0.1,0-0.1,0.1-0.2,0.1
		c0,0,0,0,0,0c-0.2,0.1-0.3,0.3-0.3,0.6c0,0.2,0.1,0.4,0.3,0.5c0,0,0,0,0,0c0,0,0.1,0.1,0.1,0.1c0,0,0,0,0,0c0,0,0.1,0,0.1,0
		c0,0,0,0,0,0c0.1,0,0.1,0,0.2,0c0.4,0,0.7-0.3,0.7-0.7C152.1,91.9,151.8,91.6,151.4,91.6z"/>
	<path class="fill-primary" d="M161.4,45.4c-0.4,0-0.7,0.3-0.7,0.7c0,0.4,0.3,0.7,0.7,0.7c0.4,0,0.7-0.3,0.7-0.7
		C162.1,45.7,161.8,45.4,161.4,45.4z"/>
	<path class="fill-primary" d="M161.4,53.1c-0.4,0-0.7,0.3-0.7,0.7c0,0.4,0.3,0.7,0.7,0.7c0.4,0,0.7-0.3,0.7-0.7
		C162.1,53.4,161.8,53.1,161.4,53.1z"/>
	<path class="fill-primary" d="M161.4,37.7c-0.4,0-0.7,0.3-0.7,0.7c0,0.4,0.3,0.7,0.7,0.7c0.4,0,0.7-0.3,0.7-0.7
		C162.1,38,161.8,37.7,161.4,37.7z"/>
	<path class="fill-primary" d="M161.4,83.9c-0.4,0-0.7,0.3-0.7,0.7c0,0.4,0.3,0.7,0.7,0.7c0.4,0,0.7-0.3,0.7-0.7
		C162.1,84.2,161.8,83.9,161.4,83.9z"/>
	<path class="fill-primary" d="M161.4,91.6c-0.4,0-0.7,0.3-0.7,0.7c0,0.4,0.3,0.7,0.7,0.7c0.4,0,0.7-0.3,0.7-0.7
		C162.1,91.9,161.8,91.6,161.4,91.6z"/>
	<path class="fill-primary" d="M161.4,60.8c-0.4,0-0.7,0.3-0.7,0.7c0,0.4,0.3,0.7,0.7,0.7c0.4,0,0.7-0.3,0.7-0.7
		C162.1,61.1,161.8,60.8,161.4,60.8z"/>
	<path class="fill-primary" d="M161.4,76.2c-0.4,0-0.7,0.3-0.7,0.7c0,0.4,0.3,0.7,0.7,0.7c0.4,0,0.7-0.3,0.7-0.7
		C162.1,76.5,161.8,76.2,161.4,76.2z"/>
	<path class="fill-primary" d="M161.4,68.5c-0.4,0-0.7,0.3-0.7,0.7c0,0.4,0.3,0.7,0.7,0.7c0.4,0,0.7-0.3,0.7-0.7
		C162.1,68.8,161.8,68.5,161.4,68.5z"/>
	<path class="fill-primary" d="M171.4,60.8c-0.4,0-0.7,0.3-0.7,0.7c0,0.4,0.3,0.7,0.7,0.7s0.7-0.3,0.7-0.7C172.2,61.1,171.8,60.8,171.4,60.8z
		"/>
	<path class="fill-primary" d="M171.4,76.2c-0.4,0-0.7,0.3-0.7,0.7c0,0.4,0.3,0.7,0.7,0.7s0.7-0.3,0.7-0.7C172.2,76.5,171.8,76.2,171.4,76.2z
		"/>
	<path class="fill-primary" d="M171.4,68.5c-0.4,0-0.7,0.3-0.7,0.7c0,0.4,0.3,0.7,0.7,0.7s0.7-0.3,0.7-0.7C172.2,68.8,171.8,68.5,171.4,68.5z
		"/>
	<path class="fill-primary" d="M171.4,37.7c-0.4,0-0.7,0.3-0.7,0.7c0,0.4,0.3,0.7,0.7,0.7s0.7-0.3,0.7-0.7C172.2,38,171.8,37.7,171.4,37.7z"
		/>
	<path class="fill-primary" d="M171.4,53.1c-0.4,0-0.7,0.3-0.7,0.7c0,0.4,0.3,0.7,0.7,0.7s0.7-0.3,0.7-0.7C172.2,53.4,171.8,53.1,171.4,53.1z
		"/>
	<path class="fill-primary" d="M171.4,83.9c-0.4,0-0.7,0.3-0.7,0.7c0,0.4,0.3,0.7,0.7,0.7s0.7-0.3,0.7-0.7C172.2,84.2,171.8,83.9,171.4,83.9z
		"/>
	<path class="fill-primary" d="M171.4,45.4c-0.4,0-0.7,0.3-0.7,0.7c0,0.4,0.3,0.7,0.7,0.7s0.7-0.3,0.7-0.7C172.2,45.7,171.8,45.4,171.4,45.4z
		"/>
	<path class="fill-primary" d="M170.9,23.6c0.1,0.1,0.3,0.2,0.5,0.2c0.4,0,0.7-0.3,0.7-0.7c0-0.2-0.1-0.4-0.2-0.5
		C171.6,22.9,171.3,23.2,170.9,23.6z"/>
	<path class="fill-primary" d="M171.4,30c-0.4,0-0.7,0.3-0.7,0.7c0,0.4,0.3,0.7,0.7,0.7s0.7-0.3,0.7-0.7C172.2,30.3,171.8,30,171.4,30z"/>
	<path class="fill-primary" d="M171.4,91.6c-0.4,0-0.7,0.3-0.7,0.7c0,0.4,0.3,0.7,0.7,0.7s0.7-0.3,0.7-0.7C172.2,91.9,171.8,91.6,171.4,91.6z
		"/>
	<path class="fill-primary" d="M181.4,60.8c-0.4,0-0.7,0.3-0.7,0.7c0,0.4,0.3,0.7,0.7,0.7c0.4,0,0.7-0.3,0.7-0.7
		C182.2,61.1,181.8,60.8,181.4,60.8z"/>
	<path class="fill-primary" d="M181.4,76.2c-0.4,0-0.7,0.3-0.7,0.7c0,0.4,0.3,0.7,0.7,0.7c0.4,0,0.7-0.3,0.7-0.7
		C182.2,76.5,181.8,76.2,181.4,76.2z"/>
	<path class="fill-primary" d="M181.4,68.5c-0.4,0-0.7,0.3-0.7,0.7c0,0.4,0.3,0.7,0.7,0.7c0.4,0,0.7-0.3,0.7-0.7
		C182.2,68.8,181.8,68.5,181.4,68.5z"/>
	<path class="fill-primary" d="M181.4,45.4c-0.4,0-0.7,0.3-0.7,0.7c0,0.4,0.3,0.7,0.7,0.7c0.4,0,0.7-0.3,0.7-0.7
		C182.2,45.7,181.8,45.4,181.4,45.4z"/>
	<path class="fill-primary" d="M181.4,22.3c-0.4,0-0.7,0.3-0.7,0.7c0,0.4,0.3,0.7,0.7,0.7c0.4,0,0.7-0.3,0.7-0.7
		C182.2,22.6,181.8,22.3,181.4,22.3z"/>
	<path class="fill-primary" d="M181.4,30c-0.4,0-0.7,0.3-0.7,0.7c0,0.4,0.3,0.7,0.7,0.7c0.4,0,0.7-0.3,0.7-0.7C182.2,30.3,181.8,30,181.4,30z
		"/>
	<path class="fill-primary" d="M181.4,37.7c-0.4,0-0.7,0.3-0.7,0.7c0,0.4,0.3,0.7,0.7,0.7c0.4,0,0.7-0.3,0.7-0.7
		C182.2,38,181.8,37.7,181.4,37.7z"/>
	<path class="fill-primary" d="M181.4,53.1c-0.4,0-0.7,0.3-0.7,0.7c0,0.4,0.3,0.7,0.7,0.7c0.4,0,0.7-0.3,0.7-0.7
		C182.2,53.4,181.8,53.1,181.4,53.1z"/>
	<path class="fill-primary" d="M181.4,91.6c-0.4,0-0.7,0.3-0.7,0.7c0,0.4,0.3,0.7,0.7,0.7c0.4,0,0.7-0.3,0.7-0.7
		C182.2,91.9,181.8,91.6,181.4,91.6z"/>
	<path class="fill-primary" d="M181.4,83.9c-0.4,0-0.7,0.3-0.7,0.7c0,0.4,0.3,0.7,0.7,0.7c0.4,0,0.7-0.3,0.7-0.7
		C182.2,84.2,181.8,83.9,181.4,83.9z"/>
	<path class="fill-primary" d="M181.4,14.6C181.4,14.6,181.4,14.6,181.4,14.6c-0.3,0.1-0.5,0.3-0.7,0.4c0,0.1-0.1,0.2-0.1,0.3
		c0,0.4,0.3,0.7,0.7,0.7c0.4,0,0.7-0.3,0.7-0.7C182.2,14.9,181.8,14.6,181.4,14.6z"/>
	<path class="fill-primary" d="M191.4,91.6c-0.4,0-0.7,0.3-0.7,0.7c0,0.4,0.3,0.7,0.7,0.7c0.4,0,0.7-0.3,0.7-0.7
		C192.2,91.9,191.9,91.6,191.4,91.6z"/>
	<path class="fill-primary" d="M191.4,83.9c-0.4,0-0.7,0.3-0.7,0.7c0,0.4,0.3,0.7,0.7,0.7c0.4,0,0.7-0.3,0.7-0.7
		C192.2,84.2,191.9,83.9,191.4,83.9z"/>
	<path class="fill-primary" d="M191.4,37.7c-0.4,0-0.7,0.3-0.7,0.7c0,0.4,0.3,0.7,0.7,0.7c0.4,0,0.7-0.3,0.7-0.7
		C192.2,38,191.9,37.7,191.4,37.7z"/>
	<path class="fill-primary" d="M191.4,30c-0.4,0-0.7,0.3-0.7,0.7c0,0.4,0.3,0.7,0.7,0.7c0.4,0,0.7-0.3,0.7-0.7C192.2,30.3,191.9,30,191.4,30z
		"/>
	<path class="fill-primary" d="M191.4,45.4c-0.4,0-0.7,0.3-0.7,0.7c0,0.4,0.3,0.7,0.7,0.7c0.4,0,0.7-0.3,0.7-0.7
		C192.2,45.7,191.9,45.4,191.4,45.4z"/>
	<path class="fill-primary" d="M191.4,76.2c-0.4,0-0.7,0.3-0.7,0.7c0,0.4,0.3,0.7,0.7,0.7c0.4,0,0.7-0.3,0.7-0.7
		C192.2,76.5,191.9,76.2,191.4,76.2z"/>
	<path class="fill-primary" d="M191.4,68.5c-0.4,0-0.7,0.3-0.7,0.7c0,0.4,0.3,0.7,0.7,0.7c0.4,0,0.7-0.3,0.7-0.7
		C192.2,68.8,191.9,68.5,191.4,68.5z"/>
	<path class="fill-primary" d="M191.4,60.8c-0.4,0-0.7,0.3-0.7,0.7c0,0.4,0.3,0.7,0.7,0.7c0.4,0,0.7-0.3,0.7-0.7
		C192.2,61.1,191.9,60.8,191.4,60.8z"/>
	<path class="fill-primary" d="M191.4,53.1c-0.4,0-0.7,0.3-0.7,0.7c0,0.4,0.3,0.7,0.7,0.7c0.4,0,0.7-0.3,0.7-0.7
		C192.2,53.4,191.9,53.1,191.4,53.1z"/>
	<path class="fill-primary" d="M191.4,22.3c-0.4,0-0.7,0.3-0.7,0.7c0,0.4,0.3,0.7,0.7,0.7c0.4,0,0.7-0.3,0.7-0.7
		C192.2,22.6,191.9,22.3,191.4,22.3z"/>
	<path class="fill-primary" d="M191.4,14.6c-0.4,0-0.7,0.3-0.7,0.7c0,0.4,0.3,0.7,0.7,0.7c0.4,0,0.7-0.3,0.7-0.7
		C192.2,14.9,191.9,14.6,191.4,14.6z"/>
	<path class="fill-primary" d="M201.5,83.9c-0.4,0-0.7,0.3-0.7,0.7c0,0.4,0.3,0.7,0.7,0.7c0.4,0,0.7-0.3,0.7-0.7
		C202.2,84.2,201.9,83.9,201.5,83.9z"/>
	<path class="fill-primary" d="M201.5,76.2c-0.4,0-0.7,0.3-0.7,0.7c0,0.4,0.3,0.7,0.7,0.7c0.4,0,0.7-0.3,0.7-0.7
		C202.2,76.5,201.9,76.2,201.5,76.2z"/>
	<path class="fill-primary" d="M201.5,91.6c-0.4,0-0.7,0.3-0.7,0.7c0,0.4,0.3,0.7,0.7,0.7c0.4,0,0.7-0.3,0.7-0.7
		C202.2,91.9,201.9,91.6,201.5,91.6z"/>
	<path class="fill-primary" d="M201.5,60.8c-0.4,0-0.7,0.3-0.7,0.7c0,0.4,0.3,0.7,0.7,0.7c0.4,0,0.7-0.3,0.7-0.7
		C202.2,61.1,201.9,60.8,201.5,60.8z"/>
	<path class="fill-primary" d="M201.5,68.5c-0.4,0-0.7,0.3-0.7,0.7c0,0.4,0.3,0.7,0.7,0.7c0.4,0,0.7-0.3,0.7-0.7
		C202.2,68.8,201.9,68.5,201.5,68.5z"/>
	<path class="fill-primary" d="M201.5,53.1c-0.4,0-0.7,0.3-0.7,0.7c0,0.4,0.3,0.7,0.7,0.7c0.4,0,0.7-0.3,0.7-0.7
		C202.2,53.4,201.9,53.1,201.5,53.1z"/>
	<path class="fill-primary" d="M201.5,22.3c-0.4,0-0.7,0.3-0.7,0.7c0,0.4,0.3,0.7,0.7,0.7c0.4,0,0.7-0.3,0.7-0.7
		C202.2,22.6,201.9,22.3,201.5,22.3z"/>
	<path class="fill-primary" d="M201.5,6.9c-0.4,0-0.7,0.3-0.7,0.7c0,0.4,0.3,0.7,0.7,0.7c0.4,0,0.7-0.3,0.7-0.7
		C202.2,7.2,201.9,6.9,201.5,6.9z"/>
	<path class="fill-primary" d="M201.5,14.6c-0.4,0-0.7,0.3-0.7,0.7c0,0.4,0.3,0.7,0.7,0.7c0.4,0,0.7-0.3,0.7-0.7
		C202.2,14.9,201.9,14.6,201.5,14.6z"/>
	<path class="fill-primary" d="M201.5,45.4c-0.4,0-0.7,0.3-0.7,0.7c0,0.4,0.3,0.7,0.7,0.7c0.4,0,0.7-0.3,0.7-0.7
		C202.2,45.7,201.9,45.4,201.5,45.4z"/>
	<path class="fill-primary" d="M201.5,30c-0.4,0-0.7,0.3-0.7,0.7c0,0.4,0.3,0.7,0.7,0.7c0.4,0,0.7-0.3,0.7-0.7C202.2,30.3,201.9,30,201.5,30z
		"/>
	<path class="fill-primary" d="M201.5,37.7c-0.4,0-0.7,0.3-0.7,0.7c0,0.4,0.3,0.7,0.7,0.7c0.4,0,0.7-0.3,0.7-0.7
		C202.2,38,201.9,37.7,201.5,37.7z"/>
	<path class="fill-primary" d="M211.5,60.8c-0.4,0-0.7,0.3-0.7,0.7c0,0.4,0.3,0.7,0.7,0.7c0.4,0,0.7-0.3,0.7-0.7
		C212.2,61.1,211.9,60.8,211.5,60.8z"/>
	<path class="fill-primary" d="M211.5,53.1c-0.4,0-0.7,0.3-0.7,0.7c0,0.4,0.3,0.7,0.7,0.7c0.4,0,0.7-0.3,0.7-0.7
		C212.2,53.4,211.9,53.1,211.5,53.1z"/>
	<path class="fill-primary" d="M211.5,6.9c-0.4,0-0.7,0.3-0.7,0.7c0,0.4,0.3,0.7,0.7,0.7c0.4,0,0.7-0.3,0.7-0.7
		C212.2,7.2,211.9,6.9,211.5,6.9z"/>
	<path class="fill-primary" d="M211.5,45.4c-0.4,0-0.7,0.3-0.7,0.7c0,0.4,0.3,0.7,0.7,0.7c0.4,0,0.7-0.3,0.7-0.7
		C212.2,45.7,211.9,45.4,211.5,45.4z"/>
	<path class="fill-primary" d="M211.5,76.2c-0.4,0-0.7,0.3-0.7,0.7c0,0.4,0.3,0.7,0.7,0.7c0.4,0,0.7-0.3,0.7-0.7
		C212.2,76.5,211.9,76.2,211.5,76.2z"/>
	<path class="fill-primary" d="M211.5,30c-0.4,0-0.7,0.3-0.7,0.7c0,0.4,0.3,0.7,0.7,0.7c0.4,0,0.7-0.3,0.7-0.7C212.2,30.3,211.9,30,211.5,30z
		"/>
	<path class="fill-primary" d="M211.5,22.3c-0.4,0-0.7,0.3-0.7,0.7c0,0.4,0.3,0.7,0.7,0.7c0.4,0,0.7-0.3,0.7-0.7
		C212.2,22.6,211.9,22.3,211.5,22.3z"/>
	<path class="fill-primary" d="M211.5,37.7c-0.4,0-0.7,0.3-0.7,0.7c0,0.4,0.3,0.7,0.7,0.7c0.4,0,0.7-0.3,0.7-0.7
		C212.2,38,211.9,37.7,211.5,37.7z"/>
	<path class="fill-primary" d="M211.5,83.9c-0.4,0-0.7,0.3-0.7,0.7c0,0.4,0.3,0.7,0.7,0.7c0.4,0,0.7-0.3,0.7-0.7
		C212.2,84.2,211.9,83.9,211.5,83.9z"/>
	<path class="fill-primary" d="M211.5,68.5c-0.4,0-0.7,0.3-0.7,0.7c0,0.4,0.3,0.7,0.7,0.7c0.4,0,0.7-0.3,0.7-0.7
		C212.2,68.8,211.9,68.5,211.5,68.5z"/>
	<path class="fill-primary" d="M211.5,91.6c-0.4,0-0.7,0.3-0.7,0.7c0,0.4,0.3,0.7,0.7,0.7c0.4,0,0.7-0.3,0.7-0.7
		C212.2,91.9,211.9,91.6,211.5,91.6z"/>
	<path class="fill-primary" d="M211.5,14.6c-0.4,0-0.7,0.3-0.7,0.7c0,0.4,0.3,0.7,0.7,0.7c0.4,0,0.7-0.3,0.7-0.7
		C212.2,14.9,211.9,14.6,211.5,14.6z"/>
	<path class="fill-primary" d="M221.5,0.6c0.2,0,0.4-0.1,0.5-0.2c0.1-0.1,0.2-0.2,0.2-0.4c-0.5,0-0.9,0.1-1.4,0.1c0,0.1,0.1,0.2,0.2,0.3
		C221.1,0.6,221.3,0.6,221.5,0.6z"/>
	<path class="fill-primary" d="M221.5,76.2c-0.4,0-0.7,0.3-0.7,0.7c0,0.4,0.3,0.7,0.7,0.7c0.4,0,0.7-0.3,0.7-0.7
		C222.2,76.5,221.9,76.2,221.5,76.2z"/>
	<path class="fill-primary" d="M221.5,68.5c-0.4,0-0.7,0.3-0.7,0.7c0,0.4,0.3,0.7,0.7,0.7c0.4,0,0.7-0.3,0.7-0.7
		C222.2,68.8,221.9,68.5,221.5,68.5z"/>
	<path class="fill-primary" d="M221.5,60.8c-0.4,0-0.7,0.3-0.7,0.7c0,0.4,0.3,0.7,0.7,0.7c0.4,0,0.7-0.3,0.7-0.7
		C222.2,61.1,221.9,60.8,221.5,60.8z"/>
	<path class="fill-primary" d="M221.5,83.9c-0.4,0-0.7,0.3-0.7,0.7c0,0.4,0.3,0.7,0.7,0.7c0.4,0,0.7-0.3,0.7-0.7
		C222.2,84.2,221.9,83.9,221.5,83.9z"/>
	<path class="fill-primary" d="M221.5,91.6c-0.4,0-0.7,0.3-0.7,0.7c0,0.4,0.3,0.7,0.7,0.7c0.4,0,0.7-0.3,0.7-0.7
		C222.2,91.9,221.9,91.6,221.5,91.6z"/>
	<path class="fill-primary" d="M221.5,6.9c-0.4,0-0.7,0.3-0.7,0.7c0,0.4,0.3,0.7,0.7,0.7c0.4,0,0.7-0.3,0.7-0.7
		C222.2,7.2,221.9,6.9,221.5,6.9z"/>
	<path class="fill-primary" d="M221.5,14.6c-0.4,0-0.7,0.3-0.7,0.7c0,0.4,0.3,0.7,0.7,0.7c0.4,0,0.7-0.3,0.7-0.7
		C222.2,14.9,221.9,14.6,221.5,14.6z"/>
	<path class="fill-primary" d="M221.5,30c-0.4,0-0.7,0.3-0.7,0.7c0,0.4,0.3,0.7,0.7,0.7c0.4,0,0.7-0.3,0.7-0.7C222.2,30.3,221.9,30,221.5,30z
		"/>
	<path class="fill-primary" d="M221.5,37.7c-0.4,0-0.7,0.3-0.7,0.7c0,0.4,0.3,0.7,0.7,0.7c0.4,0,0.7-0.3,0.7-0.7
		C222.2,38,221.9,37.7,221.5,37.7z"/>
	<path class="fill-primary" d="M221.5,45.4c-0.4,0-0.7,0.3-0.7,0.7c0,0.4,0.3,0.7,0.7,0.7c0.4,0,0.7-0.3,0.7-0.7
		C222.2,45.7,221.9,45.4,221.5,45.4z"/>
	<path class="fill-primary" d="M221.5,53.1c-0.4,0-0.7,0.3-0.7,0.7c0,0.4,0.3,0.7,0.7,0.7c0.4,0,0.7-0.3,0.7-0.7
		C222.2,53.4,221.9,53.1,221.5,53.1z"/>
	<path class="fill-primary" d="M221.5,22.3c-0.4,0-0.7,0.3-0.7,0.7c0,0.4,0.3,0.7,0.7,0.7c0.4,0,0.7-0.3,0.7-0.7
		C222.2,22.6,221.9,22.3,221.5,22.3z"/>
	<path class="fill-primary" d="M231.5,0.6c0.2,0,0.4-0.1,0.5-0.2c0.1-0.1,0.2-0.2,0.2-0.3c-0.5,0-1-0.1-1.4-0.1c0,0.2,0.1,0.3,0.2,0.4
		C231.1,0.6,231.3,0.6,231.5,0.6z"/>
	<path class="fill-primary" d="M231.5,68.5c-0.4,0-0.7,0.3-0.7,0.7c0,0.4,0.3,0.7,0.7,0.7c0.4,0,0.7-0.3,0.7-0.7
		C232.2,68.8,231.9,68.5,231.5,68.5z"/>
	<path class="fill-primary" d="M231.5,60.8c-0.4,0-0.7,0.3-0.7,0.7c0,0.4,0.3,0.7,0.7,0.7c0.4,0,0.7-0.3,0.7-0.7
		C232.2,61.1,231.9,60.8,231.5,60.8z"/>
	<path class="fill-primary" d="M231.5,45.4c-0.4,0-0.7,0.3-0.7,0.7c0,0.4,0.3,0.7,0.7,0.7c0.4,0,0.7-0.3,0.7-0.7
		C232.2,45.7,231.9,45.4,231.5,45.4z"/>
	<path class="fill-primary" d="M231.5,37.7c-0.4,0-0.7,0.3-0.7,0.7c0,0.4,0.3,0.7,0.7,0.7c0.4,0,0.7-0.3,0.7-0.7
		C232.2,38,231.9,37.7,231.5,37.7z"/>
	<path class="fill-primary" d="M231.5,30c-0.4,0-0.7,0.3-0.7,0.7c0,0.4,0.3,0.7,0.7,0.7c0.4,0,0.7-0.3,0.7-0.7C232.2,30.3,231.9,30,231.5,30z
		"/>
	<path class="fill-primary" d="M231.5,83.9c-0.4,0-0.7,0.3-0.7,0.7c0,0.4,0.3,0.7,0.7,0.7c0.4,0,0.7-0.3,0.7-0.7
		C232.2,84.2,231.9,83.9,231.5,83.9z"/>
	<path class="fill-primary" d="M231.5,76.2c-0.4,0-0.7,0.3-0.7,0.7c0,0.4,0.3,0.7,0.7,0.7c0.4,0,0.7-0.3,0.7-0.7
		C232.2,76.5,231.9,76.2,231.5,76.2z"/>
	<path class="fill-primary" d="M231.5,91.6c-0.4,0-0.7,0.3-0.7,0.7c0,0.4,0.3,0.7,0.7,0.7c0.4,0,0.7-0.3,0.7-0.7
		C232.2,91.9,231.9,91.6,231.5,91.6z"/>
	<path class="fill-primary" d="M231.5,22.3c-0.4,0-0.7,0.3-0.7,0.7c0,0.4,0.3,0.7,0.7,0.7c0.4,0,0.7-0.3,0.7-0.7
		C232.2,22.6,231.9,22.3,231.5,22.3z"/>
	<path class="fill-primary" d="M231.5,53.1c-0.4,0-0.7,0.3-0.7,0.7c0,0.4,0.3,0.7,0.7,0.7c0.4,0,0.7-0.3,0.7-0.7
		C232.2,53.4,231.9,53.1,231.5,53.1z"/>
	<path class="fill-primary" d="M231.5,14.6c-0.4,0-0.7,0.3-0.7,0.7c0,0.4,0.3,0.7,0.7,0.7c0.4,0,0.7-0.3,0.7-0.7
		C232.2,14.9,231.9,14.6,231.5,14.6z"/>
	<path class="fill-primary" d="M231.5,6.9c-0.4,0-0.7,0.3-0.7,0.7c0,0.4,0.3,0.7,0.7,0.7c0.4,0,0.7-0.3,0.7-0.7
		C232.2,7.2,231.9,6.9,231.5,6.9z"/>
	<path class="fill-primary" d="M241.5,91.6c-0.4,0-0.7,0.3-0.7,0.7c0,0.4,0.3,0.7,0.7,0.7c0.4,0,0.7-0.3,0.7-0.7
		C242.3,91.9,241.9,91.6,241.5,91.6z"/>
	<path class="fill-primary" d="M241.5,60.8c-0.4,0-0.7,0.3-0.7,0.7c0,0.4,0.3,0.7,0.7,0.7c0.4,0,0.7-0.3,0.7-0.7
		C242.3,61.1,241.9,60.8,241.5,60.8z"/>
	<path class="fill-primary" d="M241.5,83.9c-0.4,0-0.7,0.3-0.7,0.7c0,0.4,0.3,0.7,0.7,0.7c0.4,0,0.7-0.3,0.7-0.7
		C242.3,84.2,241.9,83.9,241.5,83.9z"/>
	<path class="fill-primary" d="M241.5,68.5c-0.4,0-0.7,0.3-0.7,0.7c0,0.4,0.3,0.7,0.7,0.7c0.4,0,0.7-0.3,0.7-0.7
		C242.3,68.8,241.9,68.5,241.5,68.5z"/>
	<path class="fill-primary" d="M241.5,53.1c-0.4,0-0.7,0.3-0.7,0.7c0,0.4,0.3,0.7,0.7,0.7c0.4,0,0.7-0.3,0.7-0.7
		C242.3,53.4,241.9,53.1,241.5,53.1z"/>
	<path class="fill-primary" d="M241.5,76.2c-0.4,0-0.7,0.3-0.7,0.7c0,0.4,0.3,0.7,0.7,0.7c0.4,0,0.7-0.3,0.7-0.7
		C242.3,76.5,241.9,76.2,241.5,76.2z"/>
	<path class="fill-primary" d="M241.5,22.3c-0.4,0-0.7,0.3-0.7,0.7c0,0.4,0.3,0.7,0.7,0.7c0.4,0,0.7-0.3,0.7-0.7
		C242.3,22.6,241.9,22.3,241.5,22.3z"/>
	<path class="fill-primary" d="M241.5,6.9c-0.4,0-0.7,0.3-0.7,0.7c0,0.4,0.3,0.7,0.7,0.7c0.4,0,0.7-0.3,0.7-0.7
		C242.3,7.2,241.9,6.9,241.5,6.9z"/>
	<path class="fill-primary" d="M241.5,45.4c-0.4,0-0.7,0.3-0.7,0.7c0,0.4,0.3,0.7,0.7,0.7c0.4,0,0.7-0.3,0.7-0.7
		C242.3,45.7,241.9,45.4,241.5,45.4z"/>
	<path class="fill-primary" d="M241.5,14.6c-0.4,0-0.7,0.3-0.7,0.7c0,0.4,0.3,0.7,0.7,0.7c0.4,0,0.7-0.3,0.7-0.7
		C242.3,14.9,241.9,14.6,241.5,14.6z"/>
	<path class="fill-primary" d="M241.5,30c-0.4,0-0.7,0.3-0.7,0.7c0,0.4,0.3,0.7,0.7,0.7c0.4,0,0.7-0.3,0.7-0.7C242.3,30.3,241.9,30,241.5,30z
		"/>
	<path class="fill-primary" d="M241.5,37.7c-0.4,0-0.7,0.3-0.7,0.7c0,0.4,0.3,0.7,0.7,0.7c0.4,0,0.7-0.3,0.7-0.7
		C242.3,38,241.9,37.7,241.5,37.7z"/>
	<path class="fill-primary" d="M251.5,6.9c-0.4,0-0.7,0.3-0.7,0.7c0,0.4,0.3,0.7,0.7,0.7c0.4,0,0.7-0.3,0.7-0.7
		C252.3,7.2,251.9,6.9,251.5,6.9z"/>
	<path class="fill-primary" d="M251.5,30c-0.4,0-0.7,0.3-0.7,0.7c0,0.4,0.3,0.7,0.7,0.7c0.4,0,0.7-0.3,0.7-0.7C252.3,30.3,251.9,30,251.5,30z
		"/>
	<path class="fill-primary" d="M251.5,22.3c-0.4,0-0.7,0.3-0.7,0.7c0,0.4,0.3,0.7,0.7,0.7c0.4,0,0.7-0.3,0.7-0.7
		C252.3,22.6,251.9,22.3,251.5,22.3z"/>
	<path class="fill-primary" d="M251.5,14.6c-0.4,0-0.7,0.3-0.7,0.7c0,0.4,0.3,0.7,0.7,0.7c0.4,0,0.7-0.3,0.7-0.7
		C252.3,14.9,251.9,14.6,251.5,14.6z"/>
	<path class="fill-primary" d="M251.5,53.1c-0.4,0-0.7,0.3-0.7,0.7c0,0.4,0.3,0.7,0.7,0.7c0.4,0,0.7-0.3,0.7-0.7
		C252.3,53.4,251.9,53.1,251.5,53.1z"/>
	<path class="fill-primary" d="M251.5,91.6c-0.4,0-0.7,0.3-0.7,0.7c0,0.4,0.3,0.7,0.7,0.7c0.4,0,0.7-0.3,0.7-0.7
		C252.3,91.9,251.9,91.6,251.5,91.6z"/>
	<path class="fill-primary" d="M251.5,45.4c-0.4,0-0.7,0.3-0.7,0.7c0,0.4,0.3,0.7,0.7,0.7c0.4,0,0.7-0.3,0.7-0.7
		C252.3,45.7,251.9,45.4,251.5,45.4z"/>
	<path class="fill-primary" d="M251.5,37.7c-0.4,0-0.7,0.3-0.7,0.7c0,0.4,0.3,0.7,0.7,0.7c0.4,0,0.7-0.3,0.7-0.7
		C252.3,38,251.9,37.7,251.5,37.7z"/>
	<path class="fill-primary" d="M251.5,83.9c-0.4,0-0.7,0.3-0.7,0.7c0,0.4,0.3,0.7,0.7,0.7c0.4,0,0.7-0.3,0.7-0.7
		C252.3,84.2,251.9,83.9,251.5,83.9z"/>
	<path class="fill-primary" d="M251.5,76.2c-0.4,0-0.7,0.3-0.7,0.7c0,0.4,0.3,0.7,0.7,0.7c0.4,0,0.7-0.3,0.7-0.7
		C252.3,76.5,251.9,76.2,251.5,76.2z"/>
	<path class="fill-primary" d="M251.5,68.5c-0.4,0-0.7,0.3-0.7,0.7c0,0.4,0.3,0.7,0.7,0.7c0.4,0,0.7-0.3,0.7-0.7
		C252.3,68.8,251.9,68.5,251.5,68.5z"/>
	<path class="fill-primary" d="M251.5,60.8c-0.4,0-0.7,0.3-0.7,0.7c0,0.4,0.3,0.7,0.7,0.7c0.4,0,0.7-0.3,0.7-0.7
		C252.3,61.1,251.9,60.8,251.5,60.8z"/>
	<path class="fill-primary" d="M261.6,68.5c-0.4,0-0.7,0.3-0.7,0.7c0,0.4,0.3,0.7,0.7,0.7c0.4,0,0.7-0.3,0.7-0.7
		C262.3,68.8,262,68.5,261.6,68.5z"/>
	<path class="fill-primary" d="M261.6,53.1c-0.4,0-0.7,0.3-0.7,0.7c0,0.4,0.3,0.7,0.7,0.7c0.4,0,0.7-0.3,0.7-0.7
		C262.3,53.4,262,53.1,261.6,53.1z"/>
	<path class="fill-primary" d="M261.6,60.8c-0.4,0-0.7,0.3-0.7,0.7c0,0.4,0.3,0.7,0.7,0.7c0.4,0,0.7-0.3,0.7-0.7
		C262.3,61.1,262,60.8,261.6,60.8z"/>
	<path class="fill-primary" d="M261.6,37.7c-0.4,0-0.7,0.3-0.7,0.7c0,0.4,0.3,0.7,0.7,0.7c0.4,0,0.7-0.3,0.7-0.7
		C262.3,38,262,37.7,261.6,37.7z"/>
	<path class="fill-primary" d="M261.6,45.4c-0.4,0-0.7,0.3-0.7,0.7c0,0.4,0.3,0.7,0.7,0.7c0.4,0,0.7-0.3,0.7-0.7
		C262.3,45.7,262,45.4,261.6,45.4z"/>
	<path class="fill-primary" d="M261.6,30c-0.4,0-0.7,0.3-0.7,0.7c0,0.4,0.3,0.7,0.7,0.7c0.4,0,0.7-0.3,0.7-0.7C262.3,30.3,262,30,261.6,30z"
		/>
	<path class="fill-primary" d="M261.6,14.6c-0.4,0-0.7,0.3-0.7,0.7c0,0.4,0.3,0.7,0.7,0.7c0.4,0,0.7-0.3,0.7-0.7
		C262.3,14.9,262,14.6,261.6,14.6z"/>
	<path class="fill-primary" d="M261.6,8.3c0.2,0,0.4-0.1,0.5-0.2c-0.4-0.2-0.8-0.4-1.3-0.6c0,0,0,0.1,0,0.1C260.8,8,261.1,8.3,261.6,8.3z"/>
	<path class="fill-primary" d="M261.6,22.3c-0.4,0-0.7,0.3-0.7,0.7c0,0.4,0.3,0.7,0.7,0.7c0.4,0,0.7-0.3,0.7-0.7
		C262.3,22.6,262,22.3,261.6,22.3z"/>
	<path class="fill-primary" d="M261.6,76.2c-0.4,0-0.7,0.3-0.7,0.7c0,0.4,0.3,0.7,0.7,0.7c0.4,0,0.7-0.3,0.7-0.7
		C262.3,76.5,262,76.2,261.6,76.2z"/>
	<path class="fill-primary" d="M261.6,83.9c-0.4,0-0.7,0.3-0.7,0.7c0,0.4,0.3,0.7,0.7,0.7c0.4,0,0.7-0.3,0.7-0.7
		C262.3,84.2,262,83.9,261.6,83.9z"/>
	<path class="fill-primary" d="M261.6,91.6c-0.4,0-0.7,0.3-0.7,0.7c0,0.4,0.3,0.7,0.7,0.7c0.4,0,0.7-0.3,0.7-0.7
		C262.3,91.9,262,91.6,261.6,91.6z"/>
	<path class="fill-primary" d="M271.6,30c-0.4,0-0.7,0.3-0.7,0.7c0,0.4,0.3,0.7,0.7,0.7c0.4,0,0.7-0.3,0.7-0.7C272.3,30.3,272,30,271.6,30z"
		/>
	<path class="fill-primary" d="M271.6,91.6c-0.4,0-0.7,0.3-0.7,0.7c0,0.4,0.3,0.7,0.7,0.7c0.4,0,0.7-0.3,0.7-0.7
		C272.3,91.9,272,91.6,271.6,91.6z"/>
	<path class="fill-primary" d="M271.6,83.9c-0.4,0-0.7,0.3-0.7,0.7c0,0.4,0.3,0.7,0.7,0.7c0.4,0,0.7-0.3,0.7-0.7
		C272.3,84.2,272,83.9,271.6,83.9z"/>
	<path class="fill-primary" d="M271.6,45.4c-0.4,0-0.7,0.3-0.7,0.7c0,0.4,0.3,0.7,0.7,0.7c0.4,0,0.7-0.3,0.7-0.7
		C272.3,45.7,272,45.4,271.6,45.4z"/>
	<path class="fill-primary" d="M271.6,22.3c-0.4,0-0.7,0.3-0.7,0.7c0,0.4,0.3,0.7,0.7,0.7c0.4,0,0.7-0.3,0.7-0.7
		C272.3,22.6,272,22.3,271.6,22.3z"/>
	<path class="fill-primary" d="M271.6,76.2c-0.4,0-0.7,0.3-0.7,0.7c0,0.4,0.3,0.7,0.7,0.7c0.4,0,0.7-0.3,0.7-0.7
		C272.3,76.5,272,76.2,271.6,76.2z"/>
	<path class="fill-primary" d="M271.6,14.6c-0.4,0-0.7,0.3-0.7,0.7c0,0.4,0.3,0.7,0.7,0.7c0.4,0,0.7-0.3,0.7-0.7
		C272.3,14.9,272,14.6,271.6,14.6z"/>
	<path class="fill-primary" d="M271.6,37.7c-0.4,0-0.7,0.3-0.7,0.7c0,0.4,0.3,0.7,0.7,0.7c0.4,0,0.7-0.3,0.7-0.7
		C272.3,38,272,37.7,271.6,37.7z"/>
	<path class="fill-primary" d="M271.6,60.8c-0.4,0-0.7,0.3-0.7,0.7c0,0.4,0.3,0.7,0.7,0.7c0.4,0,0.7-0.3,0.7-0.7
		C272.3,61.1,272,60.8,271.6,60.8z"/>
	<path class="fill-primary" d="M271.6,53.1c-0.4,0-0.7,0.3-0.7,0.7c0,0.4,0.3,0.7,0.7,0.7c0.4,0,0.7-0.3,0.7-0.7
		C272.3,53.4,272,53.1,271.6,53.1z"/>
	<path class="fill-primary" d="M271.6,68.5c-0.4,0-0.7,0.3-0.7,0.7c0,0.4,0.3,0.7,0.7,0.7c0.4,0,0.7-0.3,0.7-0.7
		C272.3,68.8,272,68.5,271.6,68.5z"/>
	<path class="fill-primary" d="M281.6,68.5c-0.4,0-0.7,0.3-0.7,0.7c0,0.4,0.3,0.7,0.7,0.7c0.4,0,0.7-0.3,0.7-0.7
		C282.3,68.8,282,68.5,281.6,68.5z"/>
	<path class="fill-primary" d="M281.6,60.8c-0.4,0-0.7,0.3-0.7,0.7c0,0.4,0.3,0.7,0.7,0.7c0.4,0,0.7-0.3,0.7-0.7
		C282.3,61.1,282,60.8,281.6,60.8z"/>
	<path class="fill-primary" d="M281.6,37.7c-0.4,0-0.7,0.3-0.7,0.7c0,0.4,0.3,0.7,0.7,0.7c0.4,0,0.7-0.3,0.7-0.7
		C282.3,38,282,37.7,281.6,37.7z"/>
	<path class="fill-primary" d="M281.6,22.3c-0.4,0-0.7,0.3-0.7,0.7c0,0.4,0.3,0.7,0.7,0.7c0.4,0,0.7-0.3,0.7-0.7
		C282.3,22.6,282,22.3,281.6,22.3z"/>
	<ellipse class="fill-primary" cx="281.6" cy="30.7" rx="0.7" ry="0.7"/>
	<ellipse class="fill-primary" cx="281.6" cy="53.8" rx="0.7" ry="0.7"/>
	<path class="fill-primary" d="M281.6,91.6c-0.4,0-0.7,0.3-0.7,0.7c0,0.4,0.3,0.7,0.7,0.7c0.4,0,0.7-0.3,0.7-0.7
		C282.3,91.9,282,91.6,281.6,91.6z"/>
	<ellipse class="fill-primary" cx="281.6" cy="46.1" rx="0.7" ry="0.7"/>
	<path class="fill-primary" d="M281.6,83.9c-0.4,0-0.7,0.3-0.7,0.7c0,0.4,0.3,0.7,0.7,0.7c0.4,0,0.7-0.3,0.7-0.7
		C282.3,84.2,282,83.9,281.6,83.9z"/>
	<path class="fill-primary" d="M281.6,76.2c-0.4,0-0.7,0.3-0.7,0.7c0,0.4,0.3,0.7,0.7,0.7c0.4,0,0.7-0.3,0.7-0.7
		C282.3,76.5,282,76.2,281.6,76.2z"/>
	<path class="fill-primary" d="M291.6,53.1c-0.4,0-0.7,0.3-0.7,0.7c0,0.4,0.3,0.7,0.7,0.7c0.4,0,0.7-0.3,0.7-0.7
		C292.3,53.4,292,53.1,291.6,53.1z"/>
	<path class="fill-primary" d="M291.6,68.5c-0.4,0-0.7,0.3-0.7,0.7c0,0.4,0.3,0.7,0.7,0.7c0.4,0,0.7-0.3,0.7-0.7
		C292.3,68.8,292,68.5,291.6,68.5z"/>
	<path class="fill-primary" d="M291.6,91.6c-0.4,0-0.7,0.3-0.7,0.7c0,0.4,0.3,0.7,0.7,0.7c0.4,0,0.7-0.3,0.7-0.7
		C292.3,91.9,292,91.6,291.6,91.6z"/>
	<path class="fill-primary" d="M291.6,76.2c-0.4,0-0.7,0.3-0.7,0.7c0,0.4,0.3,0.7,0.7,0.7c0.4,0,0.7-0.3,0.7-0.7
		C292.3,76.5,292,76.2,291.6,76.2z"/>
	<path class="fill-primary" d="M291.6,37.7c-0.4,0-0.7,0.3-0.7,0.7c0,0.4,0.3,0.7,0.7,0.7c0.4,0,0.7-0.3,0.7-0.7
		C292.3,38,292,37.7,291.6,37.7z"/>
	<path class="fill-primary" d="M291.6,45.4c-0.4,0-0.7,0.3-0.7,0.7c0,0.4,0.3,0.7,0.7,0.7c0.4,0,0.7-0.3,0.7-0.7
		C292.3,45.7,292,45.4,291.6,45.4z"/>
	<path class="fill-primary" d="M291.6,60.8c-0.4,0-0.7,0.3-0.7,0.7c0,0.4,0.3,0.7,0.7,0.7c0.4,0,0.7-0.3,0.7-0.7
		C292.3,61.1,292,60.8,291.6,60.8z"/>
	<path class="fill-primary" d="M291.6,83.9c-0.4,0-0.7,0.3-0.7,0.7c0,0.4,0.3,0.7,0.7,0.7c0.4,0,0.7-0.3,0.7-0.7
		C292.3,84.2,292,83.9,291.6,83.9z"/>
	<path class="fill-primary" d="M301.6,68.5c-0.4,0-0.7,0.3-0.7,0.7c0,0.4,0.3,0.7,0.7,0.7c0.4,0,0.7-0.3,0.7-0.7
		C302.4,68.8,302,68.5,301.6,68.5z"/>
	<path class="fill-primary" d="M301.6,62.2c0.4,0,0.7-0.3,0.7-0.7c0-0.4-0.3-0.7-0.7-0.7c-0.4,0-0.7,0.3-0.7,0.7
		C300.9,61.9,301.2,62.2,301.6,62.2z"/>
	<path class="fill-primary" d="M301.6,76.2c-0.4,0-0.7,0.3-0.7,0.7c0,0.4,0.3,0.7,0.7,0.7c0.4,0,0.7-0.3,0.7-0.7
		C302.4,76.5,302,76.2,301.6,76.2z"/>
	<path class="fill-primary" d="M301.6,91.6c-0.4,0-0.7,0.3-0.7,0.7c0,0.4,0.3,0.7,0.7,0.7c0.4,0,0.7-0.3,0.7-0.7
		C302.4,91.9,302,91.6,301.6,91.6z"/>
	<path class="fill-primary" d="M301.6,83.9c-0.4,0-0.7,0.3-0.7,0.7c0,0.4,0.3,0.7,0.7,0.7c0.4,0,0.7-0.3,0.7-0.7
		C302.4,84.2,302,83.9,301.6,83.9z"/>
	<path class="fill-primary" d="M301.6,54.5c-0.1-0.4-0.3-0.9-0.4-1.3c-0.2,0.1-0.3,0.3-0.3,0.6C300.9,54.2,301.2,54.5,301.6,54.5z"/>
	<path class="fill-primary" d="M151.4,99.3c-0.3,0-0.6,0.2-0.7,0.5c0,0.2,0.1,0.5,0.2,0.7c0.1,0.1,0.3,0.2,0.5,0.2c0.4,0,0.7-0.3,0.7-0.7
		C152.1,99.6,151.8,99.3,151.4,99.3z"/>
	<path class="fill-primary" d="M161.4,114.7c-0.4,0-0.7,0.3-0.7,0.7c0,0.4,0.3,0.7,0.7,0.7c0.4,0,0.7-0.3,0.7-0.7
		C162.1,115,161.8,114.7,161.4,114.7z"/>
	<path class="fill-primary" d="M161.4,107c-0.4,0-0.7,0.3-0.7,0.7c0,0.4,0.3,0.7,0.7,0.7c0.4,0,0.7-0.3,0.7-0.7
		C162.1,107.3,161.8,107,161.4,107z"/>
	<path class="fill-primary" d="M161.4,122.4c-0.4,0-0.7,0.3-0.7,0.7c0,0.4,0.3,0.7,0.7,0.7c0.4,0,0.7-0.3,0.7-0.7
		C162.1,122.7,161.8,122.4,161.4,122.4z"/>
	<path class="fill-primary" d="M161.4,99.3c-0.4,0-0.7,0.3-0.7,0.7c0,0.4,0.3,0.7,0.7,0.7c0.4,0,0.7-0.3,0.7-0.7
		C162.1,99.6,161.8,99.3,161.4,99.3z"/>
	<path class="fill-primary" d="M171.4,99.3c-0.4,0-0.7,0.3-0.7,0.7c0,0.4,0.3,0.7,0.7,0.7s0.7-0.3,0.7-0.7C172.2,99.6,171.8,99.3,171.4,99.3z
		"/>
	<path class="fill-primary" d="M171.4,122.4c-0.4,0-0.7,0.3-0.7,0.7c0,0.4,0.3,0.7,0.7,0.7s0.7-0.3,0.7-0.7
		C172.2,122.7,171.8,122.4,171.4,122.4z"/>
	<path class="fill-primary" d="M171.4,107c-0.4,0-0.7,0.3-0.7,0.7c0,0.4,0.3,0.7,0.7,0.7s0.7-0.3,0.7-0.7C172.2,107.3,171.8,107,171.4,107z"
		/>
	<path class="fill-primary" d="M171.4,114.7c-0.4,0-0.7,0.3-0.7,0.7c0,0.4,0.3,0.7,0.7,0.7s0.7-0.3,0.7-0.7
		C172.2,115,171.8,114.7,171.4,114.7z"/>
	<path class="fill-primary" d="M171.4,137.8c-0.2,0-0.4,0.1-0.5,0.2c0.3,0.3,0.7,0.7,1,1c0.1-0.1,0.2-0.3,0.2-0.5
		C172.2,138.1,171.8,137.8,171.4,137.8z"/>
	<path class="fill-primary" d="M171.4,130.1c-0.4,0-0.7,0.3-0.7,0.7c0,0.4,0.3,0.7,0.7,0.7s0.7-0.3,0.7-0.7
		C172.2,130.4,171.8,130.1,171.4,130.1z"/>
	<path class="fill-primary" d="M181.4,99.3c-0.4,0-0.7,0.3-0.7,0.7c0,0.4,0.3,0.7,0.7,0.7c0.4,0,0.7-0.3,0.7-0.7
		C182.2,99.6,181.8,99.3,181.4,99.3z"/>
	<path class="fill-primary" d="M181.4,114.7c-0.4,0-0.7,0.3-0.7,0.7c0,0.4,0.3,0.7,0.7,0.7c0.4,0,0.7-0.3,0.7-0.7
		C182.2,115,181.8,114.7,181.4,114.7z"/>
	<path class="fill-primary" d="M181.4,137.8c-0.4,0-0.7,0.3-0.7,0.7c0,0.4,0.3,0.7,0.7,0.7c0.4,0,0.7-0.3,0.7-0.7
		C182.2,138.1,181.8,137.8,181.4,137.8z"/>
	<path class="fill-primary" d="M181.4,130.1c-0.4,0-0.7,0.3-0.7,0.7c0,0.4,0.3,0.7,0.7,0.7c0.4,0,0.7-0.3,0.7-0.7
		C182.2,130.4,181.8,130.1,181.4,130.1z"/>
	<path class="fill-primary" d="M181.4,122.4c-0.4,0-0.7,0.3-0.7,0.7c0,0.4,0.3,0.7,0.7,0.7c0.4,0,0.7-0.3,0.7-0.7
		C182.2,122.7,181.8,122.4,181.4,122.4z"/>
	<path class="fill-primary" d="M181.4,107c-0.4,0-0.7,0.3-0.7,0.7c0,0.4,0.3,0.7,0.7,0.7c0.4,0,0.7-0.3,0.7-0.7
		C182.2,107.3,181.8,107,181.4,107z"/>
	<path class="fill-primary" d="M181.4,145.5c-0.4,0-0.7,0.3-0.7,0.7c0,0.1,0,0.2,0.1,0.3c0.2,0.1,0.4,0.3,0.6,0.4c0,0,0.1,0,0.1,0
		c0.4,0,0.7-0.3,0.7-0.7C182.2,145.8,181.8,145.5,181.4,145.5z"/>
	<path class="fill-primary" d="M191.4,122.4c-0.4,0-0.7,0.3-0.7,0.7c0,0.4,0.3,0.7,0.7,0.7c0.4,0,0.7-0.3,0.7-0.7
		C192.2,122.7,191.9,122.4,191.4,122.4z"/>
	<path class="fill-primary" d="M191.4,130.1c-0.4,0-0.7,0.3-0.7,0.7c0,0.4,0.3,0.7,0.7,0.7c0.4,0,0.7-0.3,0.7-0.7
		C192.2,130.4,191.9,130.1,191.4,130.1z"/>
	<path class="fill-primary" d="M191.4,114.7c-0.4,0-0.7,0.3-0.7,0.7c0,0.4,0.3,0.7,0.7,0.7c0.4,0,0.7-0.3,0.7-0.7
		C192.2,115,191.9,114.7,191.4,114.7z"/>
	<path class="fill-primary" d="M191.4,99.3c-0.4,0-0.7,0.3-0.7,0.7c0,0.4,0.3,0.7,0.7,0.7c0.4,0,0.7-0.3,0.7-0.7
		C192.2,99.6,191.9,99.3,191.4,99.3z"/>
	<path class="fill-primary" d="M191.4,107c-0.4,0-0.7,0.3-0.7,0.7c0,0.4,0.3,0.7,0.7,0.7c0.4,0,0.7-0.3,0.7-0.7
		C192.2,107.3,191.9,107,191.4,107z"/>
	<path class="fill-primary" d="M191.4,137.8c-0.4,0-0.7,0.3-0.7,0.7c0,0.4,0.3,0.7,0.7,0.7c0.4,0,0.7-0.3,0.7-0.7
		C192.2,138.1,191.9,137.8,191.4,137.8z"/>
	<path class="fill-primary" d="M191.4,145.5c-0.4,0-0.7,0.3-0.7,0.7c0,0.4,0.3,0.7,0.7,0.7c0.4,0,0.7-0.3,0.7-0.7
		C192.2,145.8,191.9,145.5,191.4,145.5z"/>
	<path class="fill-primary" d="M201.5,99.3c-0.4,0-0.7,0.3-0.7,0.7c0,0.4,0.3,0.7,0.7,0.7c0.4,0,0.7-0.3,0.7-0.7
		C202.2,99.6,201.9,99.3,201.5,99.3z"/>
	<path class="fill-primary" d="M201.5,107c-0.4,0-0.7,0.3-0.7,0.7c0,0.4,0.3,0.7,0.7,0.7c0.4,0,0.7-0.3,0.7-0.7
		C202.2,107.3,201.9,107,201.5,107z"/>
	<path class="fill-primary" d="M201.5,137.8c-0.4,0-0.7,0.3-0.7,0.7c0,0.4,0.3,0.7,0.7,0.7c0.4,0,0.7-0.3,0.7-0.7
		C202.2,138.1,201.9,137.8,201.5,137.8z"/>
	<path class="fill-primary" d="M201.5,153.2c-0.4,0-0.7,0.3-0.7,0.7c0,0.4,0.3,0.7,0.7,0.7c0.4,0,0.7-0.3,0.7-0.7
		C202.2,153.5,201.9,153.2,201.5,153.2z"/>
	<path class="fill-primary" d="M201.5,145.5c-0.4,0-0.7,0.3-0.7,0.7c0,0.4,0.3,0.7,0.7,0.7c0.4,0,0.7-0.3,0.7-0.7
		C202.2,145.8,201.9,145.5,201.5,145.5z"/>
	<path class="fill-primary" d="M201.5,114.7c-0.4,0-0.7,0.3-0.7,0.7c0,0.4,0.3,0.7,0.7,0.7c0.4,0,0.7-0.3,0.7-0.7
		C202.2,115,201.9,114.7,201.5,114.7z"/>
	<path class="fill-primary" d="M201.5,130.1c-0.4,0-0.7,0.3-0.7,0.7c0,0.4,0.3,0.7,0.7,0.7c0.4,0,0.7-0.3,0.7-0.7
		C202.2,130.4,201.9,130.1,201.5,130.1z"/>
	<path class="fill-primary" d="M201.5,122.4c-0.4,0-0.7,0.3-0.7,0.7c0,0.4,0.3,0.7,0.7,0.7c0.4,0,0.7-0.3,0.7-0.7
		C202.2,122.7,201.9,122.4,201.5,122.4z"/>
	<path class="fill-primary" d="M211.5,99.3c-0.4,0-0.7,0.3-0.7,0.7c0,0.4,0.3,0.7,0.7,0.7c0.4,0,0.7-0.3,0.7-0.7
		C212.2,99.6,211.9,99.3,211.5,99.3z"/>
	<path class="fill-primary" d="M211.5,107c-0.4,0-0.7,0.3-0.7,0.7c0,0.4,0.3,0.7,0.7,0.7c0.4,0,0.7-0.3,0.7-0.7
		C212.2,107.3,211.9,107,211.5,107z"/>
	<path class="fill-primary" d="M211.5,153.2c-0.4,0-0.7,0.3-0.7,0.7c0,0.4,0.3,0.7,0.7,0.7c0.4,0,0.7-0.3,0.7-0.7
		C212.2,153.5,211.9,153.2,211.5,153.2z"/>
	<path class="fill-primary" d="M211.5,114.7c-0.4,0-0.7,0.3-0.7,0.7c0,0.4,0.3,0.7,0.7,0.7c0.4,0,0.7-0.3,0.7-0.7
		C212.2,115,211.9,114.7,211.5,114.7z"/>
	<path class="fill-primary" d="M211.5,130.1c-0.4,0-0.7,0.3-0.7,0.7c0,0.4,0.3,0.7,0.7,0.7c0.4,0,0.7-0.3,0.7-0.7
		C212.2,130.4,211.9,130.1,211.5,130.1z"/>
	<path class="fill-primary" d="M211.5,137.8c-0.4,0-0.7,0.3-0.7,0.7c0,0.4,0.3,0.7,0.7,0.7c0.4,0,0.7-0.3,0.7-0.7
		C212.2,138.1,211.9,137.8,211.5,137.8z"/>
	<path class="fill-primary" d="M211.5,122.4c-0.4,0-0.7,0.3-0.7,0.7c0,0.4,0.3,0.7,0.7,0.7c0.4,0,0.7-0.3,0.7-0.7
		C212.2,122.7,211.9,122.4,211.5,122.4z"/>
	<path class="fill-primary" d="M211.5,145.5c-0.4,0-0.7,0.3-0.7,0.7c0,0.4,0.3,0.7,0.7,0.7c0.4,0,0.7-0.3,0.7-0.7
		C212.2,145.8,211.9,145.5,211.5,145.5z"/>
	<path class="fill-primary" d="M221.5,160.9c-0.2,0-0.4,0.1-0.5,0.2c-0.1,0.1-0.1,0.2-0.2,0.3c0.5,0,0.9,0.1,1.4,0.1c0-0.1-0.1-0.3-0.2-0.4
		C221.9,160.9,221.7,160.9,221.5,160.9z"/>
	<path class="fill-primary" d="M221.5,99.3c-0.4,0-0.7,0.3-0.7,0.7c0,0.4,0.3,0.7,0.7,0.7c0.4,0,0.7-0.3,0.7-0.7
		C222.2,99.6,221.9,99.3,221.5,99.3z"/>
	<path class="fill-primary" d="M221.5,153.2c-0.4,0-0.7,0.3-0.7,0.7c0,0.4,0.3,0.7,0.7,0.7c0.4,0,0.7-0.3,0.7-0.7
		C222.2,153.5,221.9,153.2,221.5,153.2z"/>
	<path class="fill-primary" d="M221.5,145.5c-0.4,0-0.7,0.3-0.7,0.7c0,0.4,0.3,0.7,0.7,0.7c0.4,0,0.7-0.3,0.7-0.7
		C222.2,145.8,221.9,145.5,221.5,145.5z"/>
	<path class="fill-primary" d="M221.5,130.1c-0.4,0-0.7,0.3-0.7,0.7c0,0.4,0.3,0.7,0.7,0.7c0.4,0,0.7-0.3,0.7-0.7
		C222.2,130.4,221.9,130.1,221.5,130.1z"/>
	<path class="fill-primary" d="M221.5,122.4c-0.4,0-0.7,0.3-0.7,0.7c0,0.4,0.3,0.7,0.7,0.7c0.4,0,0.7-0.3,0.7-0.7
		C222.2,122.7,221.9,122.4,221.5,122.4z"/>
	<path class="fill-primary" d="M221.5,114.7c-0.4,0-0.7,0.3-0.7,0.7c0,0.4,0.3,0.7,0.7,0.7c0.4,0,0.7-0.3,0.7-0.7
		C222.2,115,221.9,114.7,221.5,114.7z"/>
	<path class="fill-primary" d="M221.5,107c-0.4,0-0.7,0.3-0.7,0.7c0,0.4,0.3,0.7,0.7,0.7c0.4,0,0.7-0.3,0.7-0.7
		C222.2,107.3,221.9,107,221.5,107z"/>
	<path class="fill-primary" d="M221.5,137.8c-0.4,0-0.7,0.3-0.7,0.7c0,0.4,0.3,0.7,0.7,0.7c0.4,0,0.7-0.3,0.7-0.7
		C222.2,138.1,221.9,137.8,221.5,137.8z"/>
	<path class="fill-primary" d="M231.5,160.9c-0.2,0-0.4,0.1-0.5,0.2c-0.1,0.1-0.2,0.3-0.2,0.4c0.5,0,1-0.1,1.4-0.1c0-0.1-0.1-0.2-0.2-0.3
		C231.9,160.9,231.7,160.9,231.5,160.9z"/>
	<path class="fill-primary" d="M231.5,99.3c-0.4,0-0.7,0.3-0.7,0.7c0,0.4,0.3,0.7,0.7,0.7c0.4,0,0.7-0.3,0.7-0.7
		C232.2,99.6,231.9,99.3,231.5,99.3z"/>
	<path class="fill-primary" d="M231.5,114.7c-0.4,0-0.7,0.3-0.7,0.7c0,0.4,0.3,0.7,0.7,0.7c0.4,0,0.7-0.3,0.7-0.7
		C232.2,115,231.9,114.7,231.5,114.7z"/>
	<path class="fill-primary" d="M231.5,122.4c-0.4,0-0.7,0.3-0.7,0.7c0,0.4,0.3,0.7,0.7,0.7c0.4,0,0.7-0.3,0.7-0.7
		C232.2,122.7,231.9,122.4,231.5,122.4z"/>
	<path class="fill-primary" d="M231.5,130.1c-0.4,0-0.7,0.3-0.7,0.7c0,0.4,0.3,0.7,0.7,0.7c0.4,0,0.7-0.3,0.7-0.7
		C232.2,130.4,231.9,130.1,231.5,130.1z"/>
	<path class="fill-primary" d="M231.5,137.8c-0.4,0-0.7,0.3-0.7,0.7c0,0.4,0.3,0.7,0.7,0.7c0.4,0,0.7-0.3,0.7-0.7
		C232.2,138.1,231.9,137.8,231.5,137.8z"/>
	<path class="fill-primary" d="M231.5,107c-0.4,0-0.7,0.3-0.7,0.7c0,0.4,0.3,0.7,0.7,0.7c0.4,0,0.7-0.3,0.7-0.7
		C232.2,107.3,231.9,107,231.5,107z"/>
	<path class="fill-primary" d="M231.5,145.5c-0.4,0-0.7,0.3-0.7,0.7c0,0.4,0.3,0.7,0.7,0.7c0.4,0,0.7-0.3,0.7-0.7
		C232.2,145.8,231.9,145.5,231.5,145.5z"/>
	<path class="fill-primary" d="M231.5,153.2c-0.4,0-0.7,0.3-0.7,0.7c0,0.4,0.3,0.7,0.7,0.7c0.4,0,0.7-0.3,0.7-0.7
		C232.2,153.5,231.9,153.2,231.5,153.2z"/>
	<path class="fill-primary" d="M241.5,99.3c-0.4,0-0.7,0.3-0.7,0.7c0,0.4,0.3,0.7,0.7,0.7c0.4,0,0.7-0.3,0.7-0.7
		C242.3,99.6,241.9,99.3,241.5,99.3z"/>
	<path class="fill-primary" d="M241.5,107c-0.4,0-0.7,0.3-0.7,0.7c0,0.4,0.3,0.7,0.7,0.7c0.4,0,0.7-0.3,0.7-0.7
		C242.3,107.3,241.9,107,241.5,107z"/>
	<path class="fill-primary" d="M241.5,137.8c-0.4,0-0.7,0.3-0.7,0.7c0,0.4,0.3,0.7,0.7,0.7c0.4,0,0.7-0.3,0.7-0.7
		C242.3,138.1,241.9,137.8,241.5,137.8z"/>
	<path class="fill-primary" d="M241.5,153.2c-0.4,0-0.7,0.3-0.7,0.7c0,0.4,0.3,0.7,0.7,0.7c0.4,0,0.7-0.3,0.7-0.7
		C242.3,153.5,241.9,153.2,241.5,153.2z"/>
	<path class="fill-primary" d="M241.5,114.7c-0.4,0-0.7,0.3-0.7,0.7c0,0.4,0.3,0.7,0.7,0.7c0.4,0,0.7-0.3,0.7-0.7
		C242.3,115,241.9,114.7,241.5,114.7z"/>
	<path class="fill-primary" d="M241.5,145.5c-0.4,0-0.7,0.3-0.7,0.7c0,0.4,0.3,0.7,0.7,0.7c0.4,0,0.7-0.3,0.7-0.7
		C242.3,145.8,241.9,145.5,241.5,145.5z"/>
	<path class="fill-primary" d="M241.5,130.1c-0.4,0-0.7,0.3-0.7,0.7c0,0.4,0.3,0.7,0.7,0.7c0.4,0,0.7-0.3,0.7-0.7
		C242.3,130.4,241.9,130.1,241.5,130.1z"/>
	<path class="fill-primary" d="M241.5,122.4c-0.4,0-0.7,0.3-0.7,0.7c0,0.4,0.3,0.7,0.7,0.7c0.4,0,0.7-0.3,0.7-0.7
		C242.3,122.7,241.9,122.4,241.5,122.4z"/>
	<path class="fill-primary" d="M251.5,153.2c-0.4,0-0.7,0.3-0.7,0.7c0,0.4,0.3,0.7,0.7,0.7c0.4,0,0.7-0.3,0.7-0.7
		C252.3,153.5,251.9,153.2,251.5,153.2z"/>
	<path class="fill-primary" d="M251.5,130.1c-0.4,0-0.7,0.3-0.7,0.7c0,0.4,0.3,0.7,0.7,0.7c0.4,0,0.7-0.3,0.7-0.7
		C252.3,130.4,251.9,130.1,251.5,130.1z"/>
	<path class="fill-primary" d="M251.5,137.8c-0.4,0-0.7,0.3-0.7,0.7c0,0.4,0.3,0.7,0.7,0.7c0.4,0,0.7-0.3,0.7-0.7
		C252.3,138.1,251.9,137.8,251.5,137.8z"/>
	<path class="fill-primary" d="M251.5,145.5c-0.4,0-0.7,0.3-0.7,0.7c0,0.4,0.3,0.7,0.7,0.7c0.4,0,0.7-0.3,0.7-0.7
		C252.3,145.8,251.9,145.5,251.5,145.5z"/>
	<path class="fill-primary" d="M251.5,107c-0.4,0-0.7,0.3-0.7,0.7c0,0.4,0.3,0.7,0.7,0.7c0.4,0,0.7-0.3,0.7-0.7
		C252.3,107.3,251.9,107,251.5,107z"/>
	<path class="fill-primary" d="M251.5,114.7c-0.4,0-0.7,0.3-0.7,0.7c0,0.4,0.3,0.7,0.7,0.7c0.4,0,0.7-0.3,0.7-0.7
		C252.3,115,251.9,114.7,251.5,114.7z"/>
	<path class="fill-primary" d="M251.5,122.4c-0.4,0-0.7,0.3-0.7,0.7c0,0.4,0.3,0.7,0.7,0.7c0.4,0,0.7-0.3,0.7-0.7
		C252.3,122.7,251.9,122.4,251.5,122.4z"/>
	<path class="fill-primary" d="M251.5,99.3c-0.4,0-0.7,0.3-0.7,0.7c0,0.4,0.3,0.7,0.7,0.7c0.4,0,0.7-0.3,0.7-0.7
		C252.3,99.6,251.9,99.3,251.5,99.3z"/>
	<path class="fill-primary" d="M261.6,107c-0.4,0-0.7,0.3-0.7,0.7c0,0.4,0.3,0.7,0.7,0.7c0.4,0,0.7-0.3,0.7-0.7
		C262.3,107.3,262,107,261.6,107z"/>
	<path class="fill-primary" d="M261.6,99.3c-0.4,0-0.7,0.3-0.7,0.7c0,0.4,0.3,0.7,0.7,0.7c0.4,0,0.7-0.3,0.7-0.7
		C262.3,99.6,262,99.3,261.6,99.3z"/>
	<path class="fill-primary" d="M261.6,122.4c-0.4,0-0.7,0.3-0.7,0.7c0,0.4,0.3,0.7,0.7,0.7c0.4,0,0.7-0.3,0.7-0.7
		C262.3,122.7,262,122.4,261.6,122.4z"/>
	<path class="fill-primary" d="M261.6,114.7c-0.4,0-0.7,0.3-0.7,0.7c0,0.4,0.3,0.7,0.7,0.7c0.4,0,0.7-0.3,0.7-0.7
		C262.3,115,262,114.7,261.6,114.7z"/>
	<path class="fill-primary" d="M261.6,130.1c-0.4,0-0.7,0.3-0.7,0.7c0,0.4,0.3,0.7,0.7,0.7c0.4,0,0.7-0.3,0.7-0.7
		C262.3,130.4,262,130.1,261.6,130.1z"/>
	<path class="fill-primary" d="M261.6,145.5c-0.4,0-0.7,0.3-0.7,0.7c0,0.4,0.3,0.7,0.7,0.7c0.4,0,0.7-0.3,0.7-0.7
		C262.3,145.8,262,145.5,261.6,145.5z"/>
	<path class="fill-primary" d="M260.8,153.9c0,0,0,0.1,0,0.1c0.4-0.2,0.8-0.4,1.3-0.6c-0.1-0.1-0.3-0.2-0.5-0.2
		C261.1,153.2,260.8,153.5,260.8,153.9z"/>
	<path class="fill-primary" d="M261.6,137.8c-0.4,0-0.7,0.3-0.7,0.7c0,0.4,0.3,0.7,0.7,0.7c0.4,0,0.7-0.3,0.7-0.7
		C262.3,138.1,262,137.8,261.6,137.8z"/>
	<path class="fill-primary" d="M271.6,130.1c-0.4,0-0.7,0.3-0.7,0.7c0,0.4,0.3,0.7,0.7,0.7c0.4,0,0.7-0.3,0.7-0.7
		C272.3,130.4,272,130.1,271.6,130.1z"/>
	<path class="fill-primary" d="M271.6,114.7c-0.4,0-0.7,0.3-0.7,0.7c0,0.4,0.3,0.7,0.7,0.7c0.4,0,0.7-0.3,0.7-0.7
		C272.3,115,272,114.7,271.6,114.7z"/>
	<path class="fill-primary" d="M271.6,137.8c-0.4,0-0.7,0.3-0.7,0.7c0,0.4,0.3,0.7,0.7,0.7c0.4,0,0.7-0.3,0.7-0.7
		C272.3,138.1,272,137.8,271.6,137.8z"/>
	<path class="fill-primary" d="M271.6,145.5c-0.4,0-0.7,0.3-0.7,0.7c0,0.4,0.3,0.7,0.7,0.7c0.4,0,0.7-0.3,0.7-0.7
		C272.3,145.8,272,145.5,271.6,145.5z"/>
	<path class="fill-primary" d="M271.6,122.4c-0.4,0-0.7,0.3-0.7,0.7c0,0.4,0.3,0.7,0.7,0.7c0.4,0,0.7-0.3,0.7-0.7
		C272.3,122.7,272,122.4,271.6,122.4z"/>
	<path class="fill-primary" d="M271.6,99.3c-0.4,0-0.7,0.3-0.7,0.7c0,0.4,0.3,0.7,0.7,0.7c0.4,0,0.7-0.3,0.7-0.7
		C272.3,99.6,272,99.3,271.6,99.3z"/>
	<path class="fill-primary" d="M271.6,107c-0.4,0-0.7,0.3-0.7,0.7c0,0.4,0.3,0.7,0.7,0.7c0.4,0,0.7-0.3,0.7-0.7
		C272.3,107.3,272,107,271.6,107z"/>
	<path class="fill-primary" d="M281.6,99.3c-0.4,0-0.7,0.3-0.7,0.7c0,0.4,0.3,0.7,0.7,0.7c0.4,0,0.7-0.3,0.7-0.7
		C282.3,99.6,282,99.3,281.6,99.3z"/>
	<path class="fill-primary" d="M281.6,122.4c-0.4,0-0.7,0.3-0.7,0.7c0,0.4,0.3,0.7,0.7,0.7c0.4,0,0.7-0.3,0.7-0.7
		C282.3,122.7,282,122.4,281.6,122.4z"/>
	<path class="fill-primary" d="M281.6,137.8c-0.4,0-0.7,0.3-0.7,0.7c0,0.4,0.3,0.7,0.7,0.7c0.4,0,0.7-0.3,0.7-0.7
		C282.3,138.1,282,137.8,281.6,137.8z"/>
	<path class="fill-primary" d="M281.6,130.1c-0.4,0-0.7,0.3-0.7,0.7c0,0.4,0.3,0.7,0.7,0.7c0.4,0,0.7-0.3,0.7-0.7
		C282.3,130.4,282,130.1,281.6,130.1z"/>
	<path class="fill-primary" d="M281.6,107c-0.4,0-0.7,0.3-0.7,0.7c0,0.4,0.3,0.7,0.7,0.7c0.4,0,0.7-0.3,0.7-0.7
		C282.3,107.3,282,107,281.6,107z"/>
	<path class="fill-primary" d="M281.6,114.7c-0.4,0-0.7,0.3-0.7,0.7c0,0.4,0.3,0.7,0.7,0.7c0.4,0,0.7-0.3,0.7-0.7
		C282.3,115,282,114.7,281.6,114.7z"/>
	<path class="fill-primary" d="M291.6,107c-0.4,0-0.7,0.3-0.7,0.7c0,0.4,0.3,0.7,0.7,0.7c0.4,0,0.7-0.3,0.7-0.7
		C292.3,107.3,292,107,291.6,107z"/>
	<path class="fill-primary" d="M291.6,122.4c-0.4,0-0.7,0.3-0.7,0.7c0,0.4,0.3,0.7,0.7,0.7c0.4,0,0.7-0.3,0.7-0.7
		C292.3,122.7,292,122.4,291.6,122.4z"/>
	<path class="fill-primary" d="M291.6,114.7c-0.4,0-0.7,0.3-0.7,0.7c0,0.4,0.3,0.7,0.7,0.7c0.4,0,0.7-0.3,0.7-0.7
		C292.3,115,292,114.7,291.6,114.7z"/>
	<path class="fill-primary" d="M291.6,99.3c-0.4,0-0.7,0.3-0.7,0.7c0,0.4,0.3,0.7,0.7,0.7c0.4,0,0.7-0.3,0.7-0.7
		C292.3,99.6,292,99.3,291.6,99.3z"/>
	<path class="fill-primary" d="M301.6,99.3c-0.4,0-0.7,0.3-0.7,0.7c0,0.4,0.3,0.7,0.7,0.7c0.4,0,0.7-0.3,0.7-0.7
		C302.4,99.6,302,99.3,301.6,99.3z"/>
	<path class="fill-primary" d="M300.9,107.7c0,0.2,0.1,0.5,0.3,0.6c0.1-0.4,0.3-0.9,0.4-1.3C301.2,107,300.9,107.3,300.9,107.7z"/>
</g>
<image style="overflow:visible;" width="376" height="645" xlink:href="images/mobile-img.png"  transform="matrix(0.6989 0 0 0.6989 186.8955 43.9682)">
</image>
<g>
	<g>
		<g>
			<path class="fill-primary" opacity="0.6" d="M71.3,242.6L71.3,242.6c6.4-6.7,3.3-14.1,2.2-16.3c0,0,0,0,0,0c-0.2-0.4-0.4-0.7-0.4-0.7l0.1,0
				c-1.9-3.7-2.9-7.8-2.9-12.2c0-7.5,3-14.2,7.9-19.1c4.5-5.9,1.1-13.8,1.1-13.8h0c-0.7-2-1.1-4.1-1.1-6.3
				c0-10.5,8.5-19.1,19.1-19.1s19.1,8.5,19.1,19.1c0,2.2-0.4,4.4-1.1,6.3h0c0,0-3.4,7.9,1.1,13.8c4.9,4.9,7.9,11.6,7.9,19.1
				c0,4.4-1.1,8.5-2.9,12.2l0,0c0,0,0,0.1-0.1,0.1c-0.2,0.3-0.3,0.6-0.5,0.9c-1.2,2.5-3.5,9.1,1.8,15.3c0.2,0.2,0.3,0.4,0.5,0.6
				c0,0.1,0.1,0.1,0.1,0.2l0,0c4.6,5.7,7.3,12.9,7.3,20.8c0,18.4-14.9,33.2-33.2,33.2S64,281.7,64,263.3
				C64,255.5,66.8,248.3,71.3,242.6z"/>
			<path class="fill-dark" opacity="0.3" d="M87.5,256.9l8.1,8.1v-28.3l-10-9.9c-0.5-0.5-0.5-1.3,0-1.9c0.5-0.5,1.3-0.5,1.9,0l8.1,8.1v-39
				c0-0.7,0.6-1.3,1.3-1.3c0.7,0,1.3,0.6,1.3,1.3v23.5l7.9-7.9c0.5-0.5,1.4-0.5,1.9,0c0.5,0.5,0.5,1.4,0,1.9l-9.8,9.7v28.4l8.7-8.8
				c0.5-0.5,1.3-0.5,1.9,0c0.5,0.5,0.5,1.3,0,1.9l-10.6,10.7v75.4c0,0.7-0.6,1.3-1.3,1.3c-0.7,0-1.3-0.6-1.3-1.3v-60.1l-10-9.9
				c-0.5-0.5-0.5-1.3,0-1.9C86.1,256.4,87,256.4,87.5,256.9z"/>
		</g>
	</g>
	<path class="fill-primary" opacity="0.3" d="M111.4,331.6H69.2c-0.7,0-1.3-0.6-1.3-1.3c0-0.7,0.6-1.3,1.3-1.3h42.2c0.7,0,1.3,0.6,1.3,1.3
		C112.7,331,112.1,331.6,111.4,331.6z"/>
</g>
<g>
	<path class="fill-light-pink" d="M180.4,342.5l8.9-8l1.5-11c0.1-1.1,0.4-1.9,1.5-2l0.6,0c1,0,1.9,0.8,2,2.1l-0.2,24c0,1.4-1.1,2.7-2.5,2.8
		l-11.3,1.2L180.4,342.5z"/>
	<path class="fill-light-pink" d="M184.4,364.3l8.9-8l1.8-11.3c0.1-1.1,0.4-1.9,1.5-2.1l0.6,0c1,0,1.9,0.8,2,2.1l0,24c0,1.4-1.1,2.7-2.5,2.8
		l-11.3,1.2L184.4,364.3z"/>
	<g>
		<g>
			<path class="fill-light-pink" d="M141.6,490.8c0.2-0.9,6.5-22.4,6.5-22.4l11.5,0.5l-6.4,22.4L141.6,490.8z"/>
			<path class="fill-dark" d="M173.4,497.1l-32-1.3l0.4-9.8l22.1,0.9C169.4,487.1,173.6,491.7,173.4,497.1L173.4,497.1z"/>
		</g>
		<path class="fill-light-pink" d="M5.1,475.5c0.8-0.3,22.2-7.1,22.2-7.1l6,9.8l-22.2,7.2L5.1,475.5z"/>
		<path class="fill-blue" d="M98.8,390.4l71.8,8.1l1.4,0.2c6.1,0.7,10.5,6.2,9.8,12.3c-0.1,0.7-0.3,1.5-0.5,2.2l-18.4,58.4l-19.1-1.3
			l15.4-63.4l10.7,14.7l-72.2-3.9L98.8,390.4z"/>
		<path class="fill-blue" d="M111.4,410.4l-27.8,54.5l-0.8,1.5c-1.3,2.5-3.6,4.2-6.1,4.8l-49,13.1l-5.4-16.8l47.4-17.9l-7,6.4l18.8-59.1
			L111.4,410.4z"/>
		<path class="fill-dark" d="M8.3,474.2l6.3,13.4v6.9c0,0,6.5,1.1,7.8,5.5H7.6L0,476.3L8.3,474.2z"/>
		<path class="fill-primary" d="M148.2,366.2c-0.1,0-0.2,0-0.3,0l-37.8-1.6l0.7-16.2l36.3,1.5l36.2-11.8l4,15.1l-36.4,12.6
			C150,366,149.1,366.2,148.2,366.2z"/>
      <path class="fill-dark" opacity="0.2" d="M148.2,366.2c-0.1,0-0.2,0-0.3,0l-37.8-1.6l0.7-16.2l36.3,1.5l36.2-11.8l4,15.1l-36.4,12.6
      C150,366,149.1,366.2,148.2,366.2z"/>
		<path class="fill-primary" d="M112.5,343.7l-1.3-0.9l-3.3,2.5c-6.1,4.6-10.7,10.9-13.2,18.2l-3,6.6l-15.7,34.3l33,3.4l12.5-19.7
			C130.9,373.2,126.9,353.6,112.5,343.7z"/>
		<g>
			<polygon class="fill-light-pink" points="114,337.8 109.8,345.5 118.4,353.6 124.2,337.9 			"/>
			<g>
				<path class="fill-light-pink" d="M137.5,324.2l-3.4-1.7l-2.3,4.5l3.4,1l2.4-1.3C138.6,326.2,138.6,324.7,137.5,324.2z"/>
				<g>
					<defs>
						<path id="SVGID_1_" d="M135,331.5c-2.5,8.1-11.1,12.7-19.2,10.2c-8.1-2.5-12.7-11.1-10.2-19.2c2.5-8.1,11.1-12.7,19.2-10.2
							C132.9,314.7,137.5,323.3,135,331.5z"/>
					</defs>
					<use xlink:href="#SVGID_1_"  style="overflow:visible;fill:#FFBDA1;"/>
					<clipPath id="SVGID_2_">
						<use xlink:href="#SVGID_1_"  style="overflow:visible;"/>
					</clipPath>
					<polygon class="st9" points="126.6,307.9 106.4,343.3 101,316.9 					"/>
				</g>
				<path class="fill-light-pink" d="M117.7,327.6c-0.7,2.3-3.1,3.6-5.4,2.9c-2.3-0.7-3.6-3.1-2.9-5.4c0.7-2.3,3.1-3.6,5.4-2.9
					C117.1,322.9,118.4,325.3,117.7,327.6z"/>
			</g>
		</g>
		<path class="fill-primary" d="M146.3,388.3c-1.3,0-2.7-0.3-3.9-1l-42-22.9l7.7-14.2l39.6,21.6l39.9-12.2l2.7,15.9l-42.7,12.7
			C147.2,388.3,146.8,388.3,146.3,388.3z"/>
	</g>
</g>
<g>
	<path class="fill-light-pink" d="M463.8,375.2c-3.7-1-7.4,1.3-8.2,5.3c-0.8,3.9,1.5,8,5.3,9c3.7,1,7.4-1.3,8.2-5.3
		C469.9,380.2,467.5,376.2,463.8,375.2z"/>
	<g>
		<g>
			<path class="fill-light-pink" d="M339,233.9c4.3,0.1,7.8,3.7,7.8,8.1c0,4.4-3.4,7.9-7.7,7.9c-4.3-0.1-7.8-3.7-7.8-8.1
				C331.2,237.3,334.7,233.8,339,233.9z"/>
		</g>
		<g>
			<polygon class="fill-light-pink" points="394,493.3 404.1,492.9 404,475.1 393.7,475.5 			"/>
			<path class="fill-dark" d="M377.5,500l26.8-0.3l-0.2-10.1l-16.2,0.2C382.1,489.8,377.4,493.5,377.5,500L377.5,500z"/>
			<polygon class="fill-light-pink" points="439.1,493.3 429,492.9 426.9,475.1 437.2,475.5 			"/>
			<path class="fill-dark" d="M455.6,500l-25.9-0.3l-1.2-10.1l16.6,0.2C451,489.8,455.7,493.5,455.6,500L455.6,500z"/>
			<g>
				<g>
					<polygon class="fill-blue" points="393.3,354.6 411,353.9 412.8,353.9 430.4,353.2 430.6,379 394.7,380.3 					"/>
				</g>
				<path class="fill-blue" d="M425.5,483.6l16-0.1l-8.4-66.4l-2.7-63.9l-17,2.8l2.3,61.7c0,0.7,0,1.4,0.2,2.1L425.5,483.6z"/>
				<path class="fill-blue" d="M390.5,482.8l15.3,0.1l-2.3-63.3l8.5-63.2l-18.7-1.9l-7.2,64c-0.1,0.6-0.1,1.3,0,1.9L390.5,482.8z"/>
			</g>
			<g>
				<g>
					<rect x="406.8" y="289.4" class="fill-light-pink" width="10.4" height="13.9"/>
					<g>
						<path class="fill-light-pink" d="M401.7,281c0,1.9-1.5,3.4-3.4,3.4c-1.9,0-3.4-1.5-3.4-3.4c0-1.9,1.5-3.4,3.4-3.4
							C400.1,277.5,401.7,279.1,401.7,281z"/>
						<path class="fill-light-pink" d="M429.4,281c0,1.9-1.5,3.4-3.4,3.4c-1.9,0-3.4-1.5-3.4-3.4c0-1.9,1.5-3.4,3.4-3.4
							C427.9,277.5,429.4,279.1,429.4,281z"/>
						<circle class="fill-dark" cx="412.1" cy="278" r="14.2"/>
					</g>
					<path class="fill-primary" d="M430.4,356.3H393l-1.4-44c0-7.4,4.6-13.4,11.5-13.4h17.3c6.9,0,11.5,6,11.5,13.4L430.4,356.3z"/>
				</g>
			</g>
			<path class="fill-primary" d="M454,379.1l-14.2-37.6l-24.3-33.1l13-5.9l21.7,30.5c0.7,0.8,1.3,1.8,1.6,2.9l14.6,39.2L454,379.1z"/>
		</g>
		<path class="fill-primary" d="M393.7,315.1l-28.1-29.1c-0.1-0.1-0.3-0.3-0.4-0.4l-27.6-33.4l11.8-9.7l27.4,33.1l27.9,28.9L393.7,315.1z"/>
	</g>
</g>
</svg>
