<?xml version="1.0" encoding="utf-8"?>
<!-- Generator: Adobe Illustrator 23.0.0, SVG Export Plug-In . SVG Version: 6.00 Build 0)  -->
<svg version="1.1" id="Layer_1" xmlns="http://www.w3.org/2000/svg" xmlns:xlink="http://www.w3.org/1999/xlink" x="0px" y="0px"
	 viewBox="0 0 70 224" width="70" height="220"  style="enable-background:new 0 0 70 224;" xml:space="preserve">
<!-- <style type="text/css">
	.st0{fill:#8EA9E2;}
	.st1{fill:#FFFFFF;}
	.st2{fill:#003160;}
	.st3{fill:#5C86D1;}
</style> -->
<g>
	<path class="fill-white" d="M4.7,16.4c0,0-15.1,64.3,8.9,108C37,167,37.6,168,37.6,168S43.9,58.8,4.7,16.4z"/>
	<path class="fill-blue" opacity="0.5" d="M4.7,16.4c0,0-15.1,64.3,8.9,108C37,167,37.6,168,37.6,168S43.9,58.8,4.7,16.4z"/>
	<path class="fill-white" d="M5.6,184.1c1.4,7.9,3.2,15.8,7.2,22.8s10.3,13,18.1,14.9c3.6,0.9,7.3,0.8,10.9,0.7c4-0.1,8.2-0.4,11.7-2.4
		c4.5-2.6,6.9-7.7,8.7-12.6c3.1-8.2,5.5-16.7,7-25.4c0.9-5,1.5-10.4-0.9-14.9c-3.2-6.1-10.6-8.6-17.5-9.7c-11.4-1.8-27-2.8-37.9,1.8
		C3.5,163.5,4,175.5,5.6,184.1z"/>
	<path class="fill-blue" d="M31.3,168.1c9,0.5,18.8-0.8,24.5-3.9c1.1-0.6,2.1-1.4,1.6-2.1c-0.6-0.9-3-1.2-5.1-1.5
		c-10.8-1.1-22.8-1.6-33.5,0.2C3.3,163.4,23.1,167.6,31.3,168.1z"/>
	<path class="fill-blue" d="M26.6,0.6c0,0-7.3,121.8,9.8,166.4C36.4,167,47.4,58.5,26.6,0.6z"/>
	<path class="fill-white" d="M34.2,167h4C44,142.8,61.5,64.3,52.3,27.6c0,0-29.4,103-22,126.1C32.1,159.7,33.3,164,34.2,167z"/>
	<path class="fill-blue" opacity="0.5" d="M34.2,167h4C44,142.8,61.5,64.3,52.3,27.6c0,0-29.4,103-22,126.1C32.1,159.7,33.3,164,34.2,167z"/>
</g>
</svg>
