<?xml version="1.0" encoding="utf-8"?>
<!-- Generator: Adobe Illustrator 19.0.0, SVG Export Plug-In . SVG Version: 6.00 Build 0)  -->
<svg version="1.1" id="Isolation_Mode" xmlns="http://www.w3.org/2000/svg" xmlns:xlink="http://www.w3.org/1999/xlink" x="0px"
	 y="0px" viewBox="0 0 764.9 266" width="665" height="225" style="enable-background:new 0 0 764.9 266;" xml:space="preserve">
<style type="text/css">
	.st1{fill:#FFBDA1;}
	.st2{fill:#CE7152;}
	.st3{fill:#524F63;}
	.st4{fill:#E0E4ED;}
	.st5{fill:#91616A;}
	.st6{fill:#4A4549;}
	.st7{fill:#FFBB22;}
	.st8{fill:#DD851B;}
	.st10{fill:#91694D;}
	.st11{fill:#EAD18C;}
	<!-- .st1{fill:#EDEDED;enable-background:new    ;} -->
	<!-- .st2{fill:#138267;} -->
	<!-- .st3{fill:#BCD8D0;} -->
	<!-- .st4{fill:url(#SVGID_1_);}
	.st5{fill:#BE6F72;}
	.st6{opacity:0.1;enable-background:new    ;} -->
	<!-- .st7{fill:#232729;} -->
	<!-- .st8{fill:#03345F;} -->
	<!-- .st9{opacity:0.1;}
	.st10{fill:url(#SVGID_2_);}
	.st11{fill:url(#SVGID_3_);}
	.st12{fill:#3F3D56;}
	.st13{opacity:0.1;fill:none;stroke:#000000;stroke-miterlimit:10;enable-background:new    ;}
	.st14{fill:url(#SVGID_4_);}
	.st15{fill:#2F2E41;}
	.st16{fill:#FBBEBE;}
	.st17{fill:#E8E8F0;}
	.st18{fill:#A03717;} -->
</style>
<pattern  x="-337" y="331.7" width="36.9" height="49.5" patternUnits="userSpaceOnUse" id="ad310e25-2b04-44c8-bb7b-9823891" viewBox="0 -49.5 36.9 49.5" style="overflow:visible;">
	<g>
		<polygon class="st0" points="0,0 36.9,0 36.9,-49.5 0,-49.5 		"/>
		<polygon class="st0" points="0,0 36.9,0 36.9,-49.5 0,-49.5 		"/>
		<path d="M4.3-13.2c4.5,0,4.5,7,0,7S-0.2-13.2,4.3-13.2z"/>
		<path d="M4.5-17.2c4.5,0,4.5,7,0,7S0-17.2,4.5-17.2z"/>
		<path d="M4.5-20.9c4.5,0,4.5,7,0,7S0-20.9,4.5-20.9z"/>
		<path d="M3.4-24.7c4.5,0,4.5,7,0,7S-1.1-24.7,3.4-24.7z"/>
		<path d="M1.1-28.3l0.2-0.4c1-1.7,3.1-2.2,4.8-1.3c1.6,1,2.2,3.1,1.3,4.8l-0.2,0.4c-1,1.7-3.1,2.2-4.8,1.3
			C0.7-24.5,0.2-26.6,1.1-28.3z"/>
		<path d="M1.5-30.1l0.2-0.6c0.3-0.9,0.8-1.6,1.6-2.1c0.8-0.5,1.8-0.6,2.7-0.3c1.9,0.5,2.9,2.4,2.4,4.3l-0.2,0.6
			c-0.3,0.9-0.8,1.6-1.6,2.1c-0.8,0.5-1.8,0.6-2.7,0.4C2.1-26.3,1-28.2,1.5-30.1z"/>
		<path d="M1.6-33.9v-0.4c0-1.9,1.6-3.5,3.5-3.5c1.9,0,3.5,1.6,3.5,3.5v0.4c0,1.9-1.6,3.5-3.5,3.5C3.2-30.4,1.6-32,1.6-33.9z"/>
		<path d="M4.9-42.3c4.5,0,4.5,7,0,7S0.4-42.3,4.9-42.3z"/>
		<path d="M1.8-42v-0.2c0-1.9,1.6-3.5,3.5-3.5c1.9,0,3.5,1.6,3.5,3.5v0.2c0,1.9-1.6,3.5-3.5,3.5C3.4-38.5,1.8-40.1,1.8-42z"/>
		<path d="M6-49.3c4.5,0,4.5,7,0,7S1.5-49.3,6-49.3z"/>
		<path d="M10-14.1c4.5,0,4.5,7,0,7S5.5-14.1,10-14.1z"/>
		<path d="M6.6-20.9c4.5,0,4.5,7,0,7S2.1-20.9,6.6-20.9z"/>
		<path d="M8.5-27c4.5,0,4.5,7,0,7S4-27,8.5-27z"/>
		<path d="M8.5-29.3c4.5,0,4.5,7,0,7S4-29.3,8.5-29.3z"/>
		<path d="M14.9-33.8c4.5,0,4.5,7,0,7S10.4-33.8,14.9-33.8z"/>
		<path d="M9.8-38.5c4.5,0,4.5,7,0,7S5.3-38.5,9.8-38.5z"/>
		<path d="M10.6-45.1c4.5,0,4.5,7,0,7S6.1-45.1,10.6-45.1z"/>
		<path d="M10.6-49.5c4.5,0,4.5,7,0,7S6.1-49.5,10.6-49.5z"/>
		<path d="M12.8-18.1c2.6,0,2.6,4,0,4S10.3-18.1,12.8-18.1z"/>
		<path d="M13-20.4c2.6,0,2.6,4,0,4S10.4-20.4,13-20.4z"/>
		<path d="M13.1-21v-0.2c0-1.1,0.9-2,2-2s2,0.9,2,2v0.2c0,1.1-0.9,2-2,2S13.1-19.9,13.1-21z"/>
		<path d="M15.1-25.9c2.6,0,2.6,4,0,4S12.5-25.9,15.1-25.9z"/>
		<path d="M16.6-11.1c0.6,0,1,0.4,1,1s-0.4,1-1,1s-1-0.4-1-1S16.1-11.1,16.6-11.1z"/>
		<path d="M21.7-16.5c0.6,0,1,0.4,1,1c0,0.6-0.4,1-1,1s-1-0.4-1-1C20.7-16.1,21.2-16.5,21.7-16.5z"/>
		<path d="M16.9-8.9v0.4c0,0.6-0.4,1-1,1c-0.6,0-1-0.4-1-1v-0.4c0-0.6,0.4-1,1-1C16.4-9.9,16.9-9.5,16.9-8.9z"/>
		<path d="M16.5-4.8v0.2c0,0.6-0.4,1-1,1c-0.6,0-1-0.4-1-1v-0.2c0-0.6,0.4-1,1-1C16-5.8,16.5-5.3,16.5-4.8z"/>
		<path d="M15.5-2c0.6,0,1,0.4,1,1s-0.4,1-1,1c-0.6,0-1-0.4-1-1S14.9-2,15.5-2z"/>
		<path d="M10.6-2c0.6,0,1,0.4,1,1s-0.4,1-1,1c-0.6,0-1-0.4-1-1S10-2,10.6-2z"/>
		<path d="M10.4-4.7c0.6,0,1,0.4,1,1s-0.4,1-1,1c-0.6,0-1-0.4-1-1S9.8-4.7,10.4-4.7z"/>
		<path d="M7.4-6.2c0.6,0,1,0.4,1,1s-0.4,1-1,1s-1-0.4-1-1S6.8-6.2,7.4-6.2z"/>
		<path d="M11.9-7.1h0.4c0.6,0,1,0.4,1,1s-0.4,1-1,1h-0.4c-0.6,0-1-0.4-1-1S11.3-7.1,11.9-7.1z"/>
		<path d="M13.3-11l0.6-1.3c0.3-0.5,0.9-0.6,1.4-0.4c0,0,0,0,0,0c0.5,0.3,0.6,0.9,0.4,1.4c0,0,0,0,0,0L15-10
			c-0.3,0.5-0.9,0.6-1.4,0.4c0,0,0,0,0,0C13.2-9.9,13-10.5,13.3-11z"/>
		<path d="M18.4-19.3v-0.2c0-0.6,0.4-1,1-1s1,0.4,1,1v0.2c0,0.6-0.4,1-1,1S18.4-18.8,18.4-19.3z"/>
		<path d="M20.7-24.9l0.2-0.4c0.6-1.1,2.3-0.1,1.7,1l-0.2,0.4C21.8-22.8,20.1-23.8,20.7-24.9z"/>
		<path d="M22.1-29.4c-0.5-0.5-0.8-1.1-0.8-1.9c0-0.6,0.4-1,1-1s1,0.4,1,1c0,0.2,0.1,0.3,0.3,0.4c0.4,0.4,0.4,1,0,1.4c0,0,0,0,0,0
			C23.2-29,22.5-29,22.1-29.4z"/>
		<path d="M20.3-33.4l-0.5-1.7c-0.4-1.2,1.5-1.8,1.9-0.5l0.5,1.7C22.6-32.7,20.7-32.2,20.3-33.4z"/>
		<path d="M19.4-37h-0.2c-0.6,0-1-0.4-1-1s0.4-1,1-1h0.2c0.6,0,1,0.4,1,1S20-37,19.4-37z"/>
		<path d="M17.6-41.5l-0.2-0.4c-0.6-1.2,1.1-2.2,1.7-1l0.2,0.4C19.9-41.3,18.2-40.3,17.6-41.5z"/>
		<path d="M15.8-47.9v-0.6c0-0.6,0.4-1,1-1c0.6,0,1,0.4,1,1v0.6c0,0.6-0.4,1-1,1S15.8-47.3,15.8-47.9z"/>
		<path d="M14.3-49.4c0.6,0,1,0.4,1,1s-0.4,1-1,1c-0.6,0-1-0.4-1-1S13.8-49.4,14.3-49.4z"/>
		<path d="M14.3-41.3c0.6,0,1,0.4,1,1s-0.4,1-1,1c-0.6,0-1-0.4-1-1S13.8-41.3,14.3-41.3z"/>
		<path d="M17.1-36.5c0.6,0.3,1,1,1,1.6c0,0.6-0.4,1-1,1s-1-0.4-1-1c0,0.1,0.2,0.2,0,0.1C15-35.3,16-37,17.1-36.5z"/>
		<path d="M17.4-31.3c0.6,0,1,0.4,1,1s-0.4,1-1,1s-1-0.4-1-1S16.8-31.3,17.4-31.3z"/>
		<path d="M18.1-28.5c0.6,0,1,0.4,1,1s-0.4,1-1,1s-1-0.4-1-1S17.6-28.5,18.1-28.5z"/>
		<path d="M19-24.9l0.2,0.4c0.6,1.1-1.1,2.2-1.7,1l-0.2-0.4C16.7-25.1,18.4-26.1,19-24.9z"/>
		<path d="M17.9-16c0.6,0,1,0.4,1,1s-0.4,1-1,1s-1-0.4-1-1S17.4-16,17.9-16z"/>
		<path d="M24.6-16l0.6-0.9c0.3-0.4,1-0.5,1.4-0.2c0.4,0.3,0.5,0.8,0.3,1.2l-0.6,1c-0.3,0.5-0.9,0.6-1.4,0.3
			C24.6-15,24.4-15.5,24.6-16L24.6-16z"/>
		<path d="M34.9-29.7v-0.2c0-0.6,0.4-1,1-1s1,0.4,1,1v0.2c0,0.6-0.4,1-1,1S34.9-29.2,34.9-29.7z"/>
		<path d="M24-39.2c0.6,0,1,0.4,1,1s-0.4,1-1,1s-1-0.4-1-1S23.5-39.2,24-39.2z"/>
		<path d="M22.9-29c0.6,0,1,0.4,1,1s-0.4,1-1,1s-1-0.4-1-1S22.3-29,22.9-29z"/>
		<path d="M18.2-21.9l0.6,0.6c0.9,0.9-0.5,2.3-1.4,1.4l-0.6-0.6C15.9-21.4,17.3-22.8,18.2-21.9z"/>
	</g>
</pattern>
<g id="ae37f038-3a9e-4b82-ad68-fc94ba16af2a">
	<title>contact us</title>
	<ellipse class="fill-dark" opacity="0.03" cx="246.4" cy="252.1" rx="173.9" ry="8.9"/>
	<ellipse class="fill-dark" opacity="0.03" cx="656.9" cy="202.9" rx="108" ry="8.9"/>
	<ellipse class="fill-dark" opacity="0.03" cx="469.7" cy="117.1" rx="98" ry="8"/>
	<ellipse class="fill-dark" opacity="0.03" cx="102.9" cy="160.3" rx="98" ry="8"/>
	<path class="fill-primary" d="M488.8,71.7c-1.6-1.6-5.3-3.9-7.1-4.8c-2.1-1-2.9-1-4.4,0.1c-1.3,0.9-2.1,1.8-3.5,1.4
		c-1.4-0.3-4.3-2.5-7.1-5.2c-2.8-2.8-4.9-5.6-5.2-7.1c-0.3-1.5,0.5-2.3,1.4-3.5c1.1-1.5,1.1-2.3,0.1-4.4c-0.9-1.8-3.2-5.6-4.8-7.1
		s-1.9-1.2-2.8-0.9c-0.9,0.4-1.7,0.8-2.5,1.3c-1.6,1-2.4,1.9-3,3.2c-0.6,1.3-1.3,3.7,2.3,10c2.6,4.8,5.9,9.3,9.8,13.1l0,0l0,0
		c3.9,3.9,8.3,7.2,13.2,9.9c6.3,3.6,8.7,2.9,10,2.3s2.2-1.5,3.2-3c0.5-0.8,1-1.6,1.3-2.5C490.1,73.6,490.4,73.2,488.8,71.7z"/>
	<path class="fill-primary" opacity="0.2" d="M469.7,4.9c-30.6,0-55.3,24.7-55.3,55.3c0,30.6,24.7,55.3,55.3,55.3c30.6,0,55.3-24.7,55.3-55.3c0,0,0,0,0-0.1
		C525,29.7,500.2,4.9,469.7,4.9z M469.7,108.1c-26.5,0-47.9-21.5-47.9-47.9c0-26.5,21.5-47.9,47.9-47.9c26.5,0,47.9,21.5,47.9,47.9
		v0C517.7,86.7,496.2,108.1,469.7,108.1L469.7,108.1L469.7,108.1z"/>
	<path class="fill-primary" d="M332.4,180.1l-11.8,12c-0.1,0.1-0.1,0.2,0,0.3c0,0,0,0,0,0l8.3,8.8c0.6,0.6,0.6,1.5,0,2
		c-0.3,0.3-0.6,0.4-1,0.4c-0.4,0-0.7-0.2-1-0.4l-8.2-8.8c-0.1-0.1-0.2-0.1-0.3,0l-2,2c-1.7,1.7-3.9,2.6-6.3,2.6
		c-2.4,0-4.7-1-6.4-2.7l-1.9-2c-0.1-0.1-0.2-0.1-0.3,0l-8.2,8.7c-0.6,0.6-1.5,0.6-2,0c0,0,0,0,0,0c-0.6-0.6-0.6-1.4,0-2c0,0,0,0,0,0
		l8.2-8.8c0.1-0.1,0.1-0.2,0-0.3l-11.8-12c-0.1-0.1-0.2-0.1-0.3,0c0,0-0.1,0.1-0.1,0.2v24c0,1.9,1.6,3.5,3.5,3.5h38.5
		c1.9,0,3.5-1.6,3.5-3.5v-24c0-0.1-0.1-0.2-0.2-0.2C332.6,180,332.5,180.1,332.4,180.1z"/>
	<path class="fill-primary" d="M310.1,196.3c1.6,0,3.2-0.6,4.3-1.8l17.2-17.5c-0.6-0.5-1.4-0.8-2.2-0.8h-38.5c-0.8,0-1.6,0.3-2.2,0.8
		l17.2,17.5C306.9,195.6,308.5,196.3,310.1,196.3z"/>
	<path class="fill-primary" opacity="0.2" d="M309,136.6c-30.5,0-55.2,24.8-55.2,55.5c0,30.7,24.7,55.5,55.1,55.5c30.5,0,55.2-24.8,55.2-55.5c0,0,0,0,0-0.1
		C364.1,161.4,339.4,136.6,309,136.6z M309,240.1c-26.4,0-47.8-21.5-47.8-48.1c0-26.6,21.4-48.1,47.8-48.1
		c26.4,0,47.8,21.5,47.8,48.1l0,0C356.8,218.6,335.4,240.1,309,240.1z"/>
	<path class="fill-primary" d="M102.9,82.1l-16.9,39l1.6,1.6l15.3-6.8l15.3,6.8l1.6-1.6L102.9,82.1z"/>
	<path class="fill-primary" opacity="0.2" d="M102.8,47.1c-30.5,0-55.3,24.7-55.3,55.3c0,30.5,24.7,55.3,55.3,55.3c30.5,0,55.3-24.7,55.3-55.3c0,0,0,0,0,0
		C158.1,71.8,133.4,47.1,102.8,47.1z M102.8,150.3c-26.5,0-47.9-21.5-47.9-47.9s21.5-47.9,47.9-47.9s47.9,21.5,47.9,47.9
		c0,0,0,0,0,0C150.8,128.8,129.3,150.3,102.8,150.3L102.8,150.3z"/>

		<linearGradient id="SVGID_1_" gradientUnits="userSpaceOnUse" x1="709.0939" y1="-281.5377" x2="709.0939" y2="-109.46" gradientTransform="matrix(1 0 0 -1 -52 -74.63)">
		<stop  offset="0" style="stop-color:#808080;stop-opacity:0.25"/>
		<stop  offset="0.54" style="stop-color:#808080;stop-opacity:0.12"/>
		<stop  offset="1" style="stop-color:#808080;stop-opacity:0.1"/>
	</linearGradient>
	<path class="st4" d="M678.9,78.3c-0.9-2.2-1.8-4.4-2.8-6.6c-0.8-2.1-1.9-4.1-3.4-5.9c-0.6-0.6-1.2-1.1-2-1.5
		c-0.8-0.3-1.7-0.5-2.6-0.5c-1.4-0.2-2.7-0.2-4.1-0.1c-0.5-0.2-1.1-0.4-1.7-0.6c6.1-1.6,10.4-7,10.6-13.3c0-0.2,0-0.4,0-0.6
		c0-7.9-6.3-14.3-14.2-14.3c0,0,0,0,0,0c-2.6,0-5.2,0.7-7.5,2.1c-6.1-1.4-12.3,1.6-15,7.2c-3.3,3.2-5.2,7.7-5.1,12.3
		c0,0.2,0,0.4,0,0.6c0.3,7.8,5.3,14,11.6,14.6c-0.7,0.3-1.3,0.7-1.8,1.2c-1.9,1.9-2.3,4.8-2.5,7.5l-0.2,2l-3.4,1.2
		c-0.3,0.1-0.5,0.5-0.4,0.8c0,0.1,0.1,0.2,0.2,0.3l3.2,2.3c0,0.2,0,0.4,0,0.6s0,0.4,0.1,0.7c-0.5,0.5-1,1.1-1.2,1.8
		c-0.3,1-0.4,2.2-0.3,3.2l0.1,2.8c0,2.1,0.3,4.2,0.8,6.2c0.4,1.2,2.2,4.2,3.5,4.3c-1.2,5.5-1.5,17.1-1.5,17.1
		c-0.2,0.2,0.3,0.3,1,0.4c0.7,5.5,3.1,21,7.2,27.8c0.7,2.2,1.2,4.5,1.6,6.8c0,0,1.2,14.7,2.8,19.1c1.3,3.7,2.4,12.9,2.7,15.6
		c-0.6,0.1-1,0.6-1.1,1.1c-0.8,2.4-5.9,6-5.9,6c-1.6,0.8-3.1,1.7-4.4,2.8c-1.6,1.5-1.5,2.8,5.6,1.9c13.8-1.6,16.2-6,16.2-6
		s-0.2-0.7-0.5-1.7c-0.4-1.5-1-2.9-1.8-4.3c-0.2-0.2-0.4,0.1-0.6,0.6c-1-6.4-1.4-12.9-0.9-19.3c0,0,0.4-6.8-1.6-11.5
		c-0.4-2.5-0.4-5.1,0-7.5c0.8-3.2-3.2-18.7-3.2-18.7l-2.3-11.4c0.3,0.4,0.5,0.8,0.6,1.3l0.1,0.2l0.1,0.3c0,0.1,0.1,0.2,0.2,0.3
		c1.5,6.4,5.8,24.1,5.8,26.7c0,3.2,3.9,11.1,3.9,11.1s1.6,13.1,4.3,18.3c2.1,3.9,2.2,9.7,2,12.2l0,0c0,0-0.5,3.3-1.3,4.1
		c-0.6,0.8-1.1,1.7-1.5,2.6l-0.1,0.2c0,0-1.2,2.4-0.4,2.8c3,1.2,6.3,1.6,9.5,1.2c0,0,1.6-2,1.6-2.8c0-0.5-0.1-1-0.2-1.4
		c-0.3-1.9-0.8-4.8-0.8-4.9c0.3-1.3-1-4.8-1-4.8l-0.4-11.1c0.7-7.5-0.2-15.1-2.8-22.3c0,0-2-7.2-1.6-9.1s-0.8-23.1-0.8-23.1
		l-0.1-0.3c-0.1-1.5-0.1-3,0.1-4.5c0.4-4.8-1.2-14.7-1.6-15.1c-0.3-1.1-0.5-2.2-0.6-3.3c0.1-0.8,0.4-3.3,0.7-6.3
		c3.9-0.1,7.8-0.5,11.6-1c0.4,0,0.7-0.1,1-0.4c0.2-0.2,0.2-0.5,0.2-0.8C683.4,89.6,681.2,83.8,678.9,78.3z M671,90.9
		c0.4-2.8,0.8-5.6,1.3-7.7l0.1,0.2c0.8,2.1,1.4,4.2,1.9,6.3C673.2,90.2,672.1,90.6,671,90.9z"/>
	<path class="st1" d="M640.4,123c0,0,2.4,21.2,7.5,29.5c0.7,2.2,1.2,4.4,1.6,6.7c0,0,1.2,14.5,2.8,18.9s2.8,16.1,2.8,16.1
		s5.5,6.3,7.5,1.2c-1.2-6.7-1.6-13.6-1.2-20.4c0,0,0.4-6.7-1.6-11.4c-0.4-2.5-0.4-5,0-7.5c0.8-3.2-3.2-18.5-3.2-18.5l-3.1-15.3
		L640.4,123z"/>
	<path class="fill-primary" d="M665.1,199.3c0,0-2.4,4.3-16.1,5.9c-7.1,0.8-7.2-0.5-5.6-1.9c1.4-1.1,2.8-2,4.4-2.8c0,0,5.1-3.5,5.9-5.9
		s3.5-0.4,3.5-0.4c3.9,5.9,4.7-1.6,5.5-0.8c0.8,1.3,1.4,2.7,1.8,4.2C664.9,198.6,665.1,199.3,665.1,199.3z"/>
	<path class="st2" d="M665.1,199.3c0,0-2.4,4.3-16.1,5.9c-7.1,0.8-7.2-0.5-5.6-1.9c1.1,0.7,3.4,1,7.9-0.8c6.5-2.7,11.3-4.2,13.2-4.8
		C664.9,198.6,665.1,199.3,665.1,199.3z"/>
	<path class="fill-light-pink" d="M661.2,174.9c0,0,0.4-6.7-1.6-11.4c-0.4-2.5-0.4-5,0-7.5c0.8-3.2-3.2-18.5-3.2-18.5l-3.1-15.3l-2.7,0.2
		l3.1,15.2c0,0,3.9,15.3,3.2,18.5c-0.4,2.5-0.4,5,0,7.5c2,4.7,1.6,11.4,1.6,11.4c-0.5,6.8-0.1,13.7,1.2,20.4
		c-0.2,0.6-0.6,1.2-1.1,1.6c1.5,0.7,3,0.6,3.9-1.6C661.1,188.6,660.7,181.8,661.2,174.9z"/>
		<path class="fill-dark" opacity="0.1" d="M661.2,174.9c0,0,0.4-6.7-1.6-11.4c-0.4-2.5-0.4-5,0-7.5c0.8-3.2-3.2-18.5-3.2-18.5l-3.1-15.3l-2.7,0.2   l3.1,15.2c0,0,3.9,15.3,3.2,18.5c-0.4,2.5-0.4,5,0,7.5c2,4.7,1.6,11.4,1.6,11.4c-0.5,6.8-0.1,13.7,1.2,20.4   c-0.2,0.6-0.6,1.2-1.1,1.6c1.5,0.7,3,0.6,3.9-1.6C661.1,188.6,660.7,181.8,661.2,174.9z"></path>
	<path class="fill-dark" d="M658.6,36.8c-2.6,0-5.2,0.7-7.4,2.1c-6.1-1.4-12.3,1.6-15,7.2c-3.3,3.2-5.2,7.6-5.1,12.2
		c0,8.4,5.6,15.1,12.6,15.1c5,0,9.4-3.6,11.4-8.7c1.2,0.3,2.3,0.5,3.5,0.5c7.8,0,14.1-6.3,14.1-14.2
		C672.8,43.1,666.4,36.8,658.6,36.8L658.6,36.8z"/>
	<path class="st1" d="M670.2,125l1.2,3.1c0,0,1.2,20.8,0.8,22.8s1.6,9,1.6,9c2.5,7,3.5,14.6,2.8,22l0.4,11c0,0,1.6,4.3,0.8,5.1
		s-6.7-0.7-6.7-0.7s0.8-8.3-2-13.4s-4.3-18.1-4.3-18.1s-3.9-7.9-3.9-11s-6.3-28.7-6.3-28.7L670.2,125z"/>
	<path class="fill-blue" d="M639.6,124.6c0,0,0.4-14.2,2-18.5c0.8-2,1.4-4.1,1.8-6.3c0,0,23.8,4.3,25.8,2.7c0,0,0.4,5.5,0.8,5.9
		s2,10.2,1.6,14.9s0,4.7,0,4.7s-16.1,2.4-16.5,0s-1.6-2.3-1.6-2.3S638.8,125.4,639.6,124.6z"/>
	<g class="fill-blue">
		<path d="M652.5,124.6c0,0-9.9-0.3-12.9-0.8c0,0.5,0,0.8,0,0.8c-0.8,0.8,13.8,1.2,13.8,1.2c0.2,0,0.4,0.1,0.5,0.2
			C653.4,124.6,652.5,124.6,652.5,124.6z"/>
		<path d="M669.8,108.5c-0.4-0.4-0.8-5.9-0.8-5.9c-0.2,0.1-0.4,0.2-0.7,0.2c0.1,1.7,0.4,4.2,0.7,4.5s2,10.2,1.6,14.9s0,4.7,0,4.7
			s-12.8,1.9-15.8,0.6c0,0.2,0.1,0.4,0.1,0.6c0.4,2.4,16.5,0,16.5,0s-0.4,0,0-4.7S670.2,108.9,669.8,108.5z"/>

			<pattern  id="SVGID_2_" xlink:href="#ad310e25-2b04-44c8-bb7b-9823891" patternTransform="matrix(1 0 0 -1 43.88 -16474.2891)"  class="st9">
		</pattern>
		<path class="st10" d="M652.5,124.6c0,0-9.9-0.3-12.9-0.8c0,0.5,0,0.8,0,0.8c-0.8,0.8,13.8,1.2,13.8,1.2c0.2,0,0.4,0.1,0.5,0.2
			C653.4,124.6,652.5,124.6,652.5,124.6z"/>

			<pattern  id="SVGID_3_" xlink:href="#ad310e25-2b04-44c8-bb7b-9823891" patternTransform="matrix(1 0 0 -1 43.88 -16474.2891)"  class="st9">
		</pattern>
		<path class="fill-blue" d="M669.8,108.5c-0.4-0.4-0.8-5.9-0.8-5.9c-0.2,0.1-0.4,0.2-0.7,0.2c0.1,1.7,0.4,4.2,0.7,4.5s2,10.2,1.6,14.9
			s0,4.7,0,4.7s-12.8,1.9-15.8,0.6c0,0.2,0.1,0.4,0.1,0.6c0.4,2.4,16.5,0,16.5,0s-0.4,0,0-4.7S670.2,108.9,669.8,108.5z"/>
	</g>
	<path class="st1" d="M656.9,61.5c0.3,0.8,0.9,1.4,1.5,1.9c0.4,0.3,0.9,0.5,1.4,0.6c-0.9,0.5-1.8,0.9-2.7,1.4c-1.4,0.9-2.7,1.9-4,3
		c-1.3,1.1-2.9,1.7-4.6,1.8c1.2-1.6,1.4-3.7,0.6-5.6c-0.4-0.6-0.6-1.3-0.7-1.9c0-1.1,1-2,1.9-2.6c0.8-0.5,1.5-1,2.3-1.5
		c0.6-0.4,1.5-1.2,2.3-1.2s0.9,0.7,1,1.4C656.2,59.8,656.5,60.7,656.9,61.5z"/>
	<path class="st2" d="M656.9,61.5c0.3,0.8,0.9,1.4,1.5,1.9c0.4,0.3,0.9,0.5,1.4,0.6c-0.9,0.5-1.8,0.9-2.7,1.4c-1.4,0.9-2.7,1.9-4,3
		c-1.3,1.1-2.9,1.7-4.6,1.8c1.2-1.6,1.4-3.7,0.6-5.6c-0.4-0.6-0.6-1.3-0.7-1.9c0-1.1,1-2,1.9-2.6c0.8-0.5,1.5-1,2.3-1.5
		c0.6-0.4,1.5-1.2,2.3-1.2s0.9,0.7,1,1.4C656.2,59.8,656.5,60.7,656.9,61.5z"/>
	<circle class="st1" cx="666.1" cy="75.7" r="9"/>
	<path class="fill-primary" d="M678.9,204c0,0.8-1.6,2.8-1.6,2.8c-3.2,0.4-6.4,0-9.4-1.2c-0.8-0.4,0.4-2.8,0.4-2.8l0.1-0.2
		c0.4-0.9,0.9-1.8,1.5-2.6c0.8-0.8,1.3-4,1.3-4c2.4-4,6.8,1.7,6.8,1.7s0.5,3,0.8,4.8C678.8,203.3,678.9,203.8,678.9,204z"/>
	<path class="st2" d="M678.9,204c0,0.8-1.6,2.8-1.6,2.8c-3.2,0.4-6.4,0-9.4-1.2c-0.8-0.4,0.4-2.8,0.4-2.8l0.1-0.2
		c2.7,1.2,5.6,1.8,8.6,1.8l1.8-1.8C678.8,203.3,678.9,203.8,678.9,204z"/>
	<circle class="st1" cx="648" cy="56.8" r="8.8"/>
	<path class="st1" d="M640.9,74.5c-1.9,1.8-2.3,4.8-2.5,7.5l-0.3,3.9c-0.1,1.1-0.1,2.1-0.1,3.2c0,0.7,0.2,1.3,0.2,2s0.1,1.6,0.1,2.3
		v5.8c-0.1,1.2,0.1,2.4,0.6,3.5c0.6,1.1,1.9,1.6,3,1.1c0.6-0.5,1.1-1.2,1.2-1.9c1-2.3,1.6-4.8,2-7.3c0.1-0.9,0.1-1.7,0.2-2.6
		s0.2-1.8,0.4-2.7c0.6-3.7,0.8-7.4,1.1-11.1c0.1-1.1,1.1-5.4-0.4-5.9c-0.7-0.2-2.2,0.5-2.8,0.7C642.6,73.3,641.7,73.8,640.9,74.5z"
		/>
	<path class="st1" d="M640.9,74.5c-1.9,1.8-2.3,4.8-2.5,7.5l-0.3,3.9c-0.1,1.1-0.1,2.1-0.1,3.2c0,0.7,0.2,1.3,0.2,2s0.1,1.6,0.1,2.3
		v5.8c-0.1,1.2,0.1,2.4,0.6,3.5c0.6,1.1,1.9,1.6,3,1.1c0.6-0.5,1.1-1.2,1.2-1.9c1-2.3,1.6-4.8,2-7.3c0.1-0.9,0.1-1.7,0.2-2.6
		s0.2-1.8,0.4-2.7c0.6-3.7,0.8-7.4,1.1-11.1c0.1-1.1,1.1-5.4-0.4-5.9c-0.7-0.2-2.2,0.5-2.8,0.7C642.6,73.3,641.7,73.8,640.9,74.5z"
		/>
	<path class="fill-primary" d="M659.2,62.5c0,0-6.7,5.1-10.6,6.3c0,0-2.3,2.7-2.7,3.3s-1.2,7.7-2,9.3s-2.8,5.1,0,8.6c0,0,0.8,3.5,0.4,4.7
		s-1.8,5.5-0.5,5.7s5.2,2.9,8.8,2.2s16.7,3,16.7,3s2.2-20.2,3.8-23.8l-3.5-1.2c0,0-9.8-5.9-3.9-14.9C665.5,65.7,660,64.5,659.2,62.5
		z"/>
	<path class="st3" d="M634.8,86.2L643,92c0.2,0.2,0.5,0.2,0.7,0l2.2-1.7c0.3-0.2,0.3-0.6,0.1-0.9c0,0,0,0-0.1-0.1l-6.3-5.5
		c-0.2-0.2-0.4-0.2-0.6-0.1l-4,1.4c-0.3,0.1-0.5,0.5-0.4,0.8C634.7,86,634.7,86.1,634.8,86.2z"/>
	<path class="st1" d="M637.6,103.5c-0.6-2-0.9-4.1-0.8-6.1l-0.1-2.8c-0.1-1.1,0-2.2,0.3-3.2c0.6-1.4,1.9-2.5,3.4-3
		c1.5-0.4,3.1-0.5,4.6-0.3c0.2,0,0.4,0.1,0.6,0.2c0.2,0.1,0.3,0.3,0.3,0.5c0.5,0.9,0.5,1.9,0.2,2.9c-0.2,0.4-0.5,0.7-0.9,1
		c-1.1,0.8-2.4,1.3-3.4,2.2c-0.2,0.1-0.4,0.3-0.5,0.6c0,0.2,0,0.4,0,0.6c0.1,0.6,0.3,1.1,0.5,1.6c0.1,0.3,0.2,0.5,0.5,0.7
		c0.2,0.2,0.4,0.2,0.6,0.4c0.4,0.3,1.3,0.8,1.3,1.4c-0.2,2-1.3,4.2-1.8,6.2C641.3,110.2,638.2,105.2,637.6,103.5z"/>
	<g class="fill-primary">
		<path d="M650.2,102.6H650c0.8,0.2,1.7,0.2,2.6,0h0.3C651.9,102.5,651.1,102.5,650.2,102.6z"/>
		<path d="M670.8,81.2c-1.4,3.2-3.5,20.3-3.9,23.8c1.4,0.4,2.3,0.6,2.3,0.6s2.2-20.2,3.7-23.8L670.8,81.2z"/>
	</g>
	<g class="fill-dark" opacity="0.1">
		<path d="M650.2,102.6H650c0.8,0.2,1.7,0.2,2.6,0h0.3C651.9,102.5,651.1,102.5,650.2,102.6z"></path>
		<path d="M670.8,81.2c-1.4,3.2-3.5,20.3-3.9,23.8c1.4,0.4,2.3,0.6,2.3,0.6s2.2-20.2,3.7-23.8L670.8,81.2z"></path>
	</g>
	<path class="st1" d="M666.4,76c0.1,0.8,0.6,1.5,1.3,2c0.8,0.7,1.6,1.5,2.3,2.3c1,1.4,1.8,2.9,2.3,4.5c0.8,2,1.4,4.1,1.9,6.2
		c-5,2.3-10.7,2.2-16,3.7c-2.3,0.6-4.4,1.8-6,3.5c-1.6,1.7-2.5,4.1-2.2,6.5c0,0.1,0,0.3,0.1,0.4c0.2,0.2,0.4,0.3,0.7,0.3
		c1.3,0,2.6-0.4,3.7-1.3c1-0.8,2-1.7,2.8-2.8c0.5-0.7,1.2-1.2,2-1.5c2.9-0.9,6-0.8,9-0.9c4.5-0.1,9-0.4,13.4-1.1
		c0.6,0.1,1.1-0.4,1.2-0.9c0-0.1,0-0.2,0-0.3c0.4-5.9-1.8-11.7-4-17.1c-0.9-2.2-1.8-4.4-2.8-6.5c-0.8-2.1-1.9-4.1-3.4-5.8
		c-0.6-0.6-1.2-1.1-2-1.5c-0.9-0.3-1.8-0.5-2.7-0.5c-1.5-0.2-2.9-0.2-4.4-0.1c-0.2,0.7-0.4,1.5-0.4,2.3c0.1,2.7,1.3,5.2,2.4,7.7
		C665.8,75.6,666.2,75.6,666.4,76z"/>
	<path class="fill-dark" d="M650.4,81c-0.7,1.2-1,2.5-1,3.8c0,0.5,0.1,1.1,0.3,1.6c0.6,1.4,1.7,2.5,3.2,3"/>
	<path class="fill-primary" opacity="0.8" d="M650.4,81c-0.7,1.2-1,2.5-1,3.8c0,0.5,0.1,1.1,0.3,1.6c0.6,1.4,1.7,2.5,3.2,3"></path>
	<path class="fill-dark" d="M655.5,48.2c-0.5,0-1,0.1-1.5,0.2c-1.3-2-4.4-3.4-8-3.4c-4.8,0-8.7,2.5-8.7,5.5s3.9,5.5,8.7,5.5
		c1.8,0,3.6-0.4,5.2-1.1c1.1,2.3,3.9,3.3,6.3,2.2c2.3-1.1,3.3-3.9,2.2-6.3C658.9,49.2,657.3,48.2,655.5,48.2L655.5,48.2z"/>
	<path class="st2" d="M655.9,56.4c-1.8,0-3.5-1-4.2-2.7c-1.6,0.7-3.4,1.1-5.2,1.1c-4.8,0-8.6-2.5-8.6-5.5c0-0.2,0-0.4,0-0.5
		c-0.3,0.5-0.4,1.1-0.4,1.7c0,3,3.9,5.5,8.7,5.5c1.8,0,3.6-0.4,5.2-1.1c1.1,2.3,3.9,3.3,6.3,2.2c1.3-0.6,2.3-1.9,2.6-3.4
		C659.3,55.4,657.7,56.4,655.9,56.4z"/>
	<path class="st3" d="M636.2,48.4c2.7-5.6,8.9-8.5,15-7.2c6.6-4.1,15.4-2,19.5,4.6c1.2,1.9,1.9,4,2.1,6.3c0-0.4,0-0.8,0-1.2
		c0-7.8-6.4-14.1-14.2-14.1c-2.6,0-5.2,0.7-7.4,2.1c-6.1-1.4-12.3,1.6-15,7.2c-3.3,3.2-5.2,7.6-5.1,12.2c0,0.4,0,0.8,0,1.2
		C631.3,55.2,633.1,51.2,636.2,48.4z"/>

		<linearGradient id="SVGID_4_" gradientUnits="userSpaceOnUse" x1="252.9624" y1="-329.6928" x2="252.9624" y2="-228.7028" gradientTransform="matrix(1 0 0 -1 -52 -74.63)">
		<stop  offset="0" style="stop-color:#808080;stop-opacity:0.25"/>
		<stop  offset="0.54" style="stop-color:#808080;stop-opacity:0.12"/>
		<stop  offset="1" style="stop-color:#808080;stop-opacity:0.1"/>
	</linearGradient>
	<path class="st2" d="M268,182.3c0-3.1-1.4-6-3.9-7.9c0-5.6-4.1-10.4-9.6-11.3c-0.8-4-3.8-7.3-7.6-8.5l0,0
		c-0.5-0.1-0.9-0.3-1.4-0.3h-0.1H245h-0.2h-0.2h-0.3h-0.6c-5.5,0.1-10.1,4.2-10.9,9.6c-3.5-0.8-6.7,0.2-7.3,2.5
		c-0.1,0.6-0.1,1.2,0.1,1.8c0.6,1.7,2.5,3.4,5.2,4.2l0.3,0.1l0.5,0.1h0.1l0,0c-0.6,1.2-0.8,2.5-0.8,3.8c0,3.3,1.8,6.3,4.7,7.8
		l-0.2,0.1c-0.3,0.3-0.6,0.7-0.8,1.1c-0.6,1.1-1.1,2.3-1.5,3.5c-0.3,1.1-0.3,2.2-0.6,3.2c-0.6,1.9-2.1,3.6-2.2,5.6
		c-0.1,0.9,0.1,2-0.6,2.6c-0.2,0.1-0.3,0.3-0.5,0.4c-0.4,0.3-0.8,0.7-1.1,1.2c-0.2,0.4-0.5,0.8-0.8,1.1c-0.6,0.4-1.5,0.4-1.8,1.1
		s0.5,1.5,0.3,2.2s-0.8,0.9-1.2,1.3c-0.5,0.6-0.9,1.3-1.1,2c-1.9,0.4-3.9-0.1-5.4-1.4c0.3,0.6,0.4,1.3,0.6,2
		c-0.9-0.7-1.9-1.2-2.9-1.5c-1.2-0.5-2.2-1.3-3.1-2.3l1.7-0.2l-7.3-11.2l-2.2-0.5l1.9,3.7c-0.3,0.1-0.6,0.4-0.7,0.8
		c-0.1,0.4-0.1,0.8-0.1,1.3c0.1,1,0.3,2,0.5,3l0.6,2.6c0,0.2,0.1,0.5,0.2,0.7c-0.7,0-1.5,0-2.2,0.2c-1.5-0.5-3-0.9-4.5-1.1
		c-0.3-0.1-0.7-0.1-1,0c-0.4,0.2-0.7,0.4-1,0.8c-1.3,1.5-2.4,3-3.4,4.7c-4,6.9-9.2,12.8-14.1,19c-3.4,1.4-6.8,2.7-10.3,4l-7.4,2.8
		c-1.4,0.7-3,1-4.6,1c-0.7,0-1.6-0.2-2,0.5c-0.2,0.3-0.3,0.6-0.5,1l-0.8,0.1l0,0c-0.3-1.2-1-2.3-1.8-3.3c-0.4,0.1-0.7,0.3-0.8,0.6
		c-0.2,0.3-0.3,0.7-0.5,1c-0.4,0.6-1.1,0.9-1.6,1.3s-0.8,1.3-1.3,1.8c-0.7,0.5-1.6,0.9-2.5,1c-1.4,0.3-2.7,0.8-3.9,1.5
		c-0.5,0.3-0.9,0.5-1.5,0.7c-0.6,0.1-1.1,0.1-1.7,0.1l-3.9-0.3c-0.4,0-0.7,0-1,0c-0.8,0.3-1.3,1.1-1.2,2c0.1,0.9,0.5,1.6,1.2,2.2
		c0.7,0.5,1.4,0.9,2.2,1.2c3.4,1.3,6.9,2.3,10.4,3.1v0.8c2.5,1.3,5.2,1.9,8,1.9c0.2,0,0.4,0,0.6-0.1c0.3-0.2,0.4-0.5,0.5-0.8
		c0.8-2.5,1.4-5.1,1.6-7.7l0,0c0.5,0,1-0.2,1.4-0.4c1.3-0.4,2.7,0.5,4.1,0.7c1.7,0.2,3.3-0.8,4.9-1.4l0.7-0.2
		c-0.5,0.6-1,1.1-1.6,1.5c-0.7,0.5-1.4,0.8-2.1,1.3c-0.6,0.5-1.1,1-1.8,1.4c-0.4,0.2-0.9,0.4-1.4,0.5c-0.7,0.3-1.3,0.6-1.9,1
		c-0.5,0.3-1,0.8-1.3,1.3c-0.3,0.5-0.4,1.2-0.1,1.8c0.3,0.5,0.8,0.8,1.3,0.9c0.5,0.1,1.1,0.1,1.6,0c2.1-0.2,4.2-0.3,6.3-0.5
		c0.9-0.1,1.8-0.2,2.6-0.4c0.5-0.1,0.9-0.3,1.4-0.4c0.8-0.2,1.6-0.3,2.4-0.4c0.2,0,0.5,0,0.7,0.1c0.5,0.2,0.8,0.7,1.3,0.8
		c0.3,0,0.7,0,1-0.1c1.5-0.3,3.1-0.5,4.7-0.5c0.7,0,1.5-0.2,1.8-0.8s-0.3-1.7-0.5-2.5c-0.1-0.5-0.2-1.1-0.2-1.7
		c-0.1-1.4-0.5-2.7-1.2-3.9c-0.3-0.6-0.6-1.2-0.9-1.8c3-1.1,5.9-2.6,8.6-4.4c1.5-1.1,3.2-1.9,4.9-2.4c2.1-0.2,4.2,0,6.2,0.7
		c4.8,1.4,9.5,3,14.2,4.9c2.2,0.9,4.4,1.9,6.7,2.6c0.7,0.9,1.5,1.7,2.4,2.3c1.6,0.9,3.3,1.4,5.1,1.4c2.4,0.2,4.8,0.3,7.3,0.3
		c1.9,0.1,3.7-0.3,5.4-1c0.4-0.2,0.8-0.5,1.1-0.8c1.3,0.1,2.6-0.4,3.6-1.3c1.3-1.1,2.3-2.6,2.7-4.3c0.6-2.3,0.1-5,1.5-6.8
		c0.4-0.5,0.9-0.9,1.2-1.4c0.4-0.7,0.7-1.5,0.6-2.3c0,0,0-0.1,0.1-0.1c0.3-0.7,0.5-1.5,0.6-2.3c0.2-0.6,0.4-1.2,0.7-1.8
		c0.7-1.8,1.3-3.6,1.9-5.4c0.4-1.2,0.6-2.5,0.9-3.7c0.2-1,0.2-2,0.3-3c0.1-1.6,0.4-3.1,0.9-4.6c1.3-3.6,2-7.3,2.1-11.1v-0.2
		c3.8-0.4,6.7-3.7,6.6-7.6c0-1.1-0.2-2.2-0.7-3.2C267.5,185.8,268,184,268,182.3z M232.2,225.8c0.1,0.4,0.2,0.8,0.4,1.2
		c-0.6-0.6-1.2-1.2-1.8-1.7c0.2,0.1,0.5,0.2,0.7,0.2C231.8,225.5,232,225.6,232.2,225.8L232.2,225.8z M229.4,223.8
		c-3.5-3-7.5-5.3-11-8.2c1.9,1,3.8,2.1,5.7,3.1c2.2,1.3,4.4,2.5,6.7,3.6C230.4,222.9,229.9,223.4,229.4,223.8L229.4,223.8z
		 M230.9,216.3l0.2-0.2c0,0.4,0,0.8,0,1.2l-0.9-0.3C230.4,216.8,230.6,216.5,230.9,216.3L230.9,216.3z M200.4,224.4
		c1.4-1.6,2.7-3.4,3.7-5.3c1.4,2.4,3.6,4.1,5.5,6.1C206.5,224.9,203.5,224.5,200.4,224.4z"/>
	<polygon class="fill-primary" points="205.4,195.3 207.5,195.7 215,206.7 211.7,207.1 	"/>
	<path class="fill-light-pink" d="M152.5,239.8c0.6,1.9,1.3,3.8,2.2,5.7c2.5-0.5,4.9-1.2,7.3-2.1c-0.5-0.7-1-1.4-1.5-2c-0.6-0.6-1.3-1.2-2-1.6
		c-0.8-0.2-1.7-0.2-2.5,0C154.8,239.8,153.6,239.8,152.5,239.8z"/>
	<path class="fill-dark" d="M158.4,242.8c-1.2-0.5-2.1-1.6-2.5-2.8c-0.4-1.2-1-2.4-1.9-3.4c-0.4,0.1-0.7,0.3-0.8,0.6
		c-0.2,0.3-0.3,0.7-0.5,1c-0.4,0.6-1.1,0.8-1.6,1.3s-0.8,1.2-1.3,1.7c-0.7,0.5-1.6,0.9-2.5,1c-1.4,0.3-2.7,0.8-4,1.5
		c-0.5,0.3-1,0.5-1.5,0.7c-0.6,0.1-1.1,0.1-1.7,0l-3.9-0.3c-0.3-0.1-0.7-0.1-1,0c-0.8,0.3-1.3,1.1-1.3,2c0.1,0.9,0.5,1.6,1.3,2.1
		c0.7,0.5,1.4,0.9,2.2,1.1c3.4,1.3,7,2.3,10.6,3v0.8c2.5,1.2,5.3,1.9,8,1.9c0.2,0,0.4,0,0.6-0.1c0.3-0.2,0.4-0.5,0.5-0.8
		c0.9-2.8,1.5-5.6,1.6-8.6c0.1-0.7,0-1.5-0.2-2.2C158.3,242.6,159,242.9,158.4,242.8"/>
	<path class="fill-primary" d="M233.9,227.9c-11.7,0.7-23.2-2.7-34.9-3.1c-1.5-0.1-2.9,0-4.3,0.3c-1.5,0.4-2.9,1-4.3,1.7
		c-6.3,2.9-12.8,5.3-19.2,7.8l-7.5,2.8c-1.4,0.7-3,1-4.6,1c-0.7,0-1.6-0.2-2,0.4c-1.2,1.8-0.6,4.4,0.2,6.5c0.3,0.7,0.7,1.4,1.4,1.4
		c0.5,0,1-0.2,1.4-0.4c1.4-0.4,2.7,0.5,4.1,0.7c1.7,0.2,3.3-0.8,5-1.4c2.7-1,5.6-1,8.5-1.4c4.8-0.8,9.2-3,13.3-5.5
		c1.5-1.1,3.2-1.9,5-2.3c2.1-0.2,4.2,0,6.2,0.7c4.8,1.4,9.6,3,14.3,4.9c2.4,1.1,4.9,2,7.5,2.7c5.5,1.4,11.4,1.1,16.7-1
		c1.9-0.7,3.9-2,4-4.1c0.1-1.2-0.8-2.2-1.4-3.2c-0.4-0.6-0.8-1.3-1.2-1.9C239.9,231.6,237.5,227.7,233.9,227.9z"/>
	<path class="fill-blue" d="M233.9,227.9c-11.7,0.7-23.2-2.7-34.9-3.1c-1.5-0.1-2.9,0-4.3,0.3c-1.5,0.4-2.9,1-4.3,1.7
		c-6.3,2.9-12.8,5.3-19.2,7.8l-7.5,2.8c-1.4,0.7-3,1-4.6,1c-0.7,0-1.6-0.2-2,0.4c-1.2,1.8-0.6,4.4,0.2,6.5c0.3,0.7,0.7,1.4,1.4,1.4
		c0.5,0,1-0.2,1.4-0.4c1.4-0.4,2.7,0.5,4.1,0.7c1.7,0.2,3.3-0.8,5-1.4c2.7-1,5.6-1,8.5-1.4c4.8-0.8,9.2-3,13.3-5.5
		c1.5-1.1,3.2-1.9,5-2.3c2.1-0.2,4.2,0,6.2,0.7c4.8,1.4,9.6,3,14.3,4.9c2.4,1.1,4.9,2,7.5,2.7c5.5,1.4,11.4,1.1,16.7-1
		c1.9-0.7,3.9-2,4-4.1c0.1-1.2-0.8-2.2-1.4-3.2c-0.4-0.6-0.8-1.3-1.2-1.9C239.9,231.6,237.5,227.7,233.9,227.9z"/>
	<path class="fill-light-pink" d="M174.9,240.4c1.8,0.6,3.7,1.2,5.5,1.7c1-1.7,3-2.9,3.4-4.9c0-0.1,0-0.2,0-0.3c0-0.1-0.1-0.1-0.2-0.2
		c-1.3-0.7-2.8-1.2-4.3-1.3c-1.2-0.1-1.8,1.2-2.3,2.1C176.8,238,175.4,240.6,174.9,240.4z"/>
	<path class="fill-dark" d="M177.5,239.2c-1.1-0.2-2.1-0.8-2.7-1.8c-0.3-0.5-0.5-1.1-1-1s-0.7,0.6-0.8,1.1c-0.3,1.8-0.9,3.5-1.5,5.2
		c-0.7,1.7-1.8,3.2-3.2,4.3c-0.7,0.5-1.4,0.8-2.1,1.3c-0.6,0.5-1.1,0.9-1.8,1.3c-0.4,0.2-0.9,0.4-1.4,0.5c-0.7,0.3-1.3,0.6-1.9,1
		c-0.5,0.3-1,0.7-1.3,1.3c-0.3,0.5-0.4,1.2-0.1,1.8c0.3,0.5,0.8,0.8,1.3,0.9c0.5,0.1,1.1,0.1,1.6,0c2.1-0.2,4.3-0.3,6.4-0.5
		c0.9-0.1,1.8-0.2,2.7-0.4l1.4-0.4c0.8-0.2,1.6-0.3,2.4-0.4c0.2,0,0.5,0,0.7,0.1c0.5,0.2,0.8,0.7,1.4,0.8c0.3,0,0.7,0,1-0.1
		c1.6-0.3,3.1-0.5,4.7-0.5c0.7,0,1.5-0.2,1.8-0.8c0.4-0.8-0.3-1.7-0.5-2.5c-0.1-0.5-0.2-1.1-0.2-1.6c-0.1-1.4-0.5-2.7-1.2-3.9
		c-0.5-1-1.3-2.1-0.9-3.2c0.2-0.3,0.3-0.7,0.4-1.1C182.4,238.8,178.5,239.4,177.5,239.2z"/>
	<path class="fill-light-pink" d="M216.4,209.2c-2.1-0.9-3.7-2.6-4.7-4.6c-0.2-0.4-0.4-0.9-0.5-1.3c-0.6-1.5-1.6-2.8-2.8-3.9
		c-0.3-0.3-0.6-0.4-1-0.4c-0.4,0.1-0.7,0.4-0.8,0.8c-0.1,0.4-0.1,0.8-0.1,1.3c0.1,1,0.3,2,0.5,2.9l0.6,2.6c0.1,0.4,0.2,0.8,0.4,1.2
		c0.2,0.4,0.6,0.8,1,1.1c0.5,0.5,1,0.9,1.6,1.4c0.3,0.3,0.6,0.5,1,0.7c0.6,0.3,1.2,0.4,1.8,0.5c2.4,0.3,4.7,1.2,6.6,2.6
		c0,0,0-1.7,0-1.9c0-0.5-0.2-1-0.5-1.4C218.6,209.9,217.5,209.4,216.4,209.2z"/>
	<path class="st1" d="M216.4,209.2c-2.1-0.9-3.7-2.6-4.7-4.6c-0.2-0.4-0.4-0.9-0.5-1.3c-0.6-1.5-1.6-2.8-2.8-3.9
		c-0.3-0.3-0.6-0.4-1-0.4c-0.4,0.1-0.7,0.4-0.8,0.8c-0.1,0.4-0.1,0.8-0.1,1.3c0.1,1,0.3,2,0.5,2.9l0.6,2.6c0.1,0.4,0.2,0.8,0.4,1.2
		c0.2,0.4,0.6,0.8,1,1.1c0.5,0.5,1,0.9,1.6,1.4c0.3,0.3,0.6,0.5,1,0.7c0.6,0.3,1.2,0.4,1.8,0.5c2.4,0.3,4.7,1.2,6.6,2.6
		c0,0,0-1.7,0-1.9c0-0.5-0.2-1-0.5-1.4C218.6,209.9,217.5,209.4,216.4,209.2z"/>
	<ellipse class="fill-primary" cx="240.2" cy="186.6" rx="2.8" ry="2.9"/>
	<path class="fill-primary" d="M238.4,184.8c-0.8-0.2-1.6-0.1-2.2,0.3c-0.3,0.3-0.6,0.6-0.8,1c-0.6,1.1-1.1,2.3-1.5,3.5
		c-0.3,1-0.3,2.1-0.6,3.2c-0.6,1.9-2.1,3.5-2.2,5.5c-0.1,0.9,0.1,1.9-0.6,2.5c-0.2,0.1-0.3,0.3-0.5,0.4c-0.5,0.3-0.8,0.7-1.1,1.2
		c-0.2,0.4-0.5,0.8-0.8,1.1c-0.6,0.4-1.5,0.4-1.8,1s0.5,1.4,0.3,2.2s-0.8,0.9-1.3,1.3c-0.5,0.6-0.9,1.2-1.1,2
		c-1.9,0.4-3.9-0.1-5.4-1.3c0.7,2,0.9,4.1,0.9,6.2c0.1,0.7-0.1,1.4-0.5,1.9c2.3,0.2,4.5,0.6,6.7,1.2c0.9,0.3,2,0.3,2.9,0
		c0.5-0.3,1-0.6,1.3-1.1c1.2-1.2,2.5-2.5,2.8-4.2c0.1-1,0.1-1.9,0-2.9c0.1-1.2,0.4-2.4,0.7-3.5c0.6-2.4,1.1-4.8,1.3-7.2
		c0.1-1.5,1.4-2.7,2.1-4c1.3-2.5,2.6-5.2,2.7-8C239.7,186.1,239.4,185,238.4,184.8z"/>
	<path class="fill-primary" d="M238.4,184.8c-0.8-0.2-1.6-0.1-2.2,0.3c-0.3,0.3-0.6,0.6-0.8,1c-0.6,1.1-1.1,2.3-1.5,3.5
		c-0.3,1-0.3,2.1-0.6,3.2c-0.6,1.9-2.1,3.5-2.2,5.5c-0.1,0.9,0.1,1.9-0.6,2.5c-0.2,0.1-0.3,0.3-0.5,0.4c-0.5,0.3-0.8,0.7-1.1,1.2
		c-0.2,0.4-0.5,0.8-0.8,1.1c-0.6,0.4-1.5,0.4-1.8,1s0.5,1.4,0.3,2.2s-0.8,0.9-1.3,1.3c-0.5,0.6-0.9,1.2-1.1,2
		c-1.9,0.4-3.9-0.1-5.4-1.3c0.7,2,0.9,4.1,0.9,6.2c0.1,0.7-0.1,1.4-0.5,1.9c2.3,0.2,4.5,0.6,6.7,1.2c0.9,0.3,2,0.3,2.9,0
		c0.5-0.3,1-0.6,1.3-1.1c1.2-1.2,2.5-2.5,2.8-4.2c0.1-1,0.1-1.9,0-2.9c0.1-1.2,0.4-2.4,0.7-3.5c0.6-2.4,1.1-4.8,1.3-7.2
		c0.1-1.5,1.4-2.7,2.1-4c1.3-2.5,2.6-5.2,2.7-8C239.7,186.1,239.4,185,238.4,184.8z"/>
	<path class="fill-blue" d="M235.8,230.4c-2.4-1.2-4.2-3.3-6.2-5.2c-3.8-3.5-8.3-6-12.3-9.3c-2.6-2.2-5-4.7-7.8-6.6
		c-2.5-1.6-5.4-2.6-8.4-2.9c-0.3-0.1-0.7-0.1-1,0c-0.4,0.2-0.7,0.4-1,0.8c-1.3,1.4-2.4,3-3.4,4.7c-5,8.5-12.1,15.6-18,23.5
		c-0.1,0.2-0.2,0.4-0.3,0.6c0,0.3,0.1,0.6,0.2,0.9l1.2,2.3c0.7,1.3,1.8,2.8,3.2,2.6c0.6-0.2,1.2-0.6,1.7-1.1l5.4-5.2l5.6-5.4
		c3.3-3.2,6.7-6.4,8.8-10.4c1.7,2.9,4.7,4.8,6.7,7.5c0.8,1,1.4,2.1,2.1,3.2c1.1,1.7,2.4,3.3,3.6,5l6.5,8.3c0.8,1.2,1.8,2.2,3,3
		c1.6,0.9,3.4,1.3,5.2,1.4c2.4,0.2,4.9,0.3,7.3,0.3c1.9,0.1,3.7-0.3,5.5-1c1.7-0.8,2.9-2.5,3-4.4c-0.1-1-0.4-1.9-0.9-2.7
		C243.1,236,240.1,232.4,235.8,230.4z"/>
	<ellipse class="fill-white" cx="242" cy="188.5" rx="2.2" ry="2.2"/>
	<path class="fill-light-pink" d="M241.5,186.9c0.5,1,0.6,2.1,0.2,3.2c-0.3,1-0.8,2-1.4,2.9c-0.5,0.9-1.1,1.8-1.8,2.6c3.4,0.2,6.6-1.2,9.6-2.8
		c2.4-1.3,4.8-2.9,6.1-5.3c-0.8,0.2-1.6,0-2.2-0.4c-0.6-0.4-1.2-1-1.7-1.6l-1.7-1.9c-0.4-0.4-0.7-0.9-1-1.4
		c-0.4-0.7-0.5-1.4-0.5-2.2c-0.7,0.7-1.4,1.3-2.2,1.9c-1.2,0.8-2.5,1.4-3.8,2.1c-0.4,0.3-1.4,0.7-1.1,1.3S241.1,186.3,241.5,186.9z"
		/>
	<path class="st1" d="M241.5,186.9c0.5,1,0.6,2.1,0.2,3.2c-0.3,1-0.8,2-1.4,2.9c-0.5,0.9-1.1,1.8-1.8,2.6c3.4,0.2,6.6-1.2,9.6-2.8
		c2.4-1.3,4.8-2.9,6.1-5.3c-0.8,0.2-1.6,0-2.2-0.4c-0.6-0.4-1.2-1-1.7-1.6l-1.7-1.9c-0.4-0.4-0.7-0.9-1-1.4
		c-0.4-0.7-0.5-1.4-0.5-2.2c-0.7,0.7-1.4,1.3-2.2,1.9c-1.2,0.8-2.5,1.4-3.8,2.1c-0.4,0.3-1.4,0.7-1.1,1.3S241.1,186.3,241.5,186.9z"
		/>
	<path class="fill-white" d="M241.5,187.2c-0.7,1-0.7,2.3,0,3.3c0.1,0.1,0.5,0.9,0.6,0.9c0.1,0,0.3-0.1,0.4-0.2c0.8-0.8,1.5-1.7,2.1-2.5
		c0.7-0.9,1.6-1.5,2.7-1.8c1.3-0.1,2.7,0.4,3.7,1.2c0.5,0.2,0.9,0.6,1.3,1c0.2,0.4,0.4,0.9,0.4,1.4c0.3,3,0.5,6.1,0.4,9.1
		c0.1,2.2-0.1,4.4-0.4,6.5c-0.2,1.1-0.5,2.2-0.7,3.3c-0.1,1-0.2,2-0.1,3v4.2c0,0.8,0,1.5,0.2,2.3c0.2,0.9,0.6,1.8,0.9,2.7
		c0.3,1,0.5,2.1,0.6,3.1l0.6,4.3c0.2,1.4,0.3,2.8-0.5,4c-0.4,0.5-0.9,0.9-1.2,1.4c-1.4,1.8-1,4.5-1.5,6.7c-0.5,1.6-1.4,3.1-2.7,4.2
		c-1,0.9-2.3,1.4-3.6,1.3c-1.8-0.3-2.8-2.2-3.3-3.9s-0.6-3.6-1.7-5.1c-1-1.1-2.1-2-3.3-2.8c-1.3-0.8-2.2-2-2.6-3.4
		c-0.1-0.6,0-1.3-0.1-1.9c-0.2-1.6-1.3-3-2.8-3.7c-0.9-0.3-2-0.5-2.5-1.3c1.3-0.8,2.2-2.1,2.6-3.5c0.4-1.5,0.6-3,0.6-4.5l0.3-5
		c0.1-2.3,0.2-4.5,1.2-6.5c0.4-0.9,1-1.8,1.5-2.6c0.6-1.3,1.1-2.5,1.5-3.9c0.7-2.1,1.4-4.1,2.1-6.2c0.2-1,0.6-2,1.1-2.9
		C239.7,188.6,240.5,187.4,241.5,187.2z"/>
	<path class="fill-primary" d="M230.4,219.9h1.3l0.3-2c0-0.4,0.1-0.8,0.3-1.2c0.2-0.4,0.5-0.8,0.8-1.1c1.3-1.8,1.2-4.3,1.5-6.5
		c0.6-3,1.6-5.9,2.9-8.6l2.6-5.8c0.2-0.5,0.4-1,0.6-1.5c0.1-0.6,0.2-1.1,0.2-1.7c0-0.9,0.3-4.1,0.3-5c0-0.3-0.7-0.2-0.9-0.4
		c-0.3-0.6-0.8,1.1-1.4,1.5c-0.6,0.4-1,1-1.2,1.7c-0.6,1.4-0.9,3-1.4,4.4c-0.5,1.5-1.3,2.8-2.4,3.9c-0.5,0.5-1.1,0.8-1.6,1.3
		c-1.6,1.6-1.8,4.1-1.8,6.3C230.3,206.7,230.1,219.9,230.4,219.9z"/>
	<path class="fill-primary" d="M249.5,184.8c-1.3,0.7-2.1,1.9-2.4,3.3c-0.2,1.4-0.6,2.7-1.2,4c-1.6,2.8-5.8,3.6-6.9,6.7
		c-0.3,1-0.4,2.1-0.5,3.2c-0.2,2.2-0.9,4.3-1.1,6.5c-0.1,1.7-0.1,3.4,0.1,5.1l1.5,17.2c0.3,2.5,0.1,5.1-0.4,7.6c1.5,0.2,3,0,4.3-0.7
		c1.4-0.6,2.6-1.5,3.9-2.2c2.2-1.2,4.7-2.1,6.7-3.8c0.4-0.3,0.7-0.6,0.9-1c0.3-0.7,0.5-1.5,0.6-2.3c0.2-0.6,0.4-1.2,0.7-1.8
		c0.7-1.7,1.3-3.5,1.9-5.3c0.4-1.2,0.6-2.4,0.9-3.6c0.2-1,0.3-2,0.3-3c0.1-1.6,0.4-3.1,0.9-4.5c1.3-3.5,2-7.2,2.1-10.9
		c0-0.5,0-1.1-0.1-1.6c-0.2-0.6-0.5-1.3-0.9-1.8c-0.6-1.1-1-2.4-1.5-3.5c-1.4-2.5-3.5-4.7-5.9-6.2
		C252.2,185.2,250.8,184.4,249.5,184.8z"/>
	<path class="fill-light-pink" d="M219.3,212.9c-1-0.5-2-1.2-2.8-2.1c-0.4-0.4-0.7-0.9-1-1.3c-0.9-1-2.1-1.7-3.5-2c-1.3-0.3-2.7-0.4-4-0.4
		c-0.9-0.1-1.8,0-2.7,0.3c-0.9,0.3-1.5,1-1.8,1.9c-0.1,1.1,0.4,2.2,1.4,2.8c0.8,0.6,1.7,1.1,2.7,1.3c0.8,0.1,1.6,0.2,2.4,0.3
		c4.8,0.5,9,3.1,13.2,5.5c3.7,2.1,7.4,4,11.3,5.8c0.1-1.1,0.2-2.3,0.2-3.5c0-0.9-0.1-2.2-0.9-2.7c-1.2-0.5-2.4-0.8-3.6-1.1
		c-2.5-0.8-4.9-1.8-7.2-2.9C221.8,214.4,220.5,213.7,219.3,212.9z"/>
	<ellipse class="fill-light-pink" cx="240.2" cy="177.4" rx="8.5" ry="8.6"/>
	<path class="fill-primary" d="M251.9,194.5c-0.7,1-1.2,2-1.7,3.1c-1,2.2-2.7,4-3.5,6.3s-0.8,5.2-2.5,7.1c-0.3,0.3-0.6,0.7-0.8,1.1
		c0,0.3,0,0.5-0.1,0.8c-0.3,0.7-1.4,0.7-1.6,1.4c-0.1,0.2,0,0.4-0.1,0.6c-0.2,0.5-0.8,0.5-1.2,0.8c-0.8,0.6-0.7,1.9-1.3,2.7
		c-0.5,0.6-1.3,0.9-2.1,0.8c-0.8-0.2-1.5-0.4-2.2-0.8c-0.2-0.1-0.5-0.2-0.8-0.3c-0.3,0-0.7,0.1-0.9,0.3c-1.5,1.1-2.4,2.9-2.3,4.8
		c0.1,1.9,0.6,3.7,1.3,5.4c0.1,0.3,0.2,0.6,0.4,0.8c0.6,0.5,1.4,0.5,2.1,0.2c0.7-0.4,1.3-0.7,2.1-0.9c1.3-0.2,2.6,0.7,4,0.6
		c1-0.1,1.9-0.5,2.7-1.2c1.3-0.8,2.6-1.8,3.6-3c0.6-0.8,1-1.6,1.5-2.5c0.7-1,1.4-2,2.1-2.9l4.9-6c0.5-0.6,0.9-1.2,1.3-1.8
		c0.4-0.9,0.8-1.8,1-2.8c0.5-1.6,0.9-3.2,1-4.9c0-1.4-0.1-2.8-0.4-4.1c-0.1-1.3-0.5-2.7-1-3.9C256.5,194,253.9,192.2,251.9,194.5z"
		/>
	<path class="st2" d="M269,183.4c0-3.1-1.5-6-3.9-7.8c-0.1-5.6-4.2-10.3-9.7-11.1c-1.2-6-7-9.9-13-8.7c-4.6,0.9-8.1,4.6-8.8,9.3
		c-3.5-0.8-6.8,0.2-7.4,2.4s1.9,5,5.6,6c1.2,0.3,2.4,0.5,3.6,0.4c1.8,2.6,4.5,4.3,7.6,4.8c0.9,4.2,4.1,7.5,8.3,8.6
		c0.6,1.4,1.4,2.6,2.6,3.5c0,0.3,0,0.5,0,0.8c0,4,3.2,7.2,7.2,7.2c4,0,7.2-3.2,7.2-7.2c0,0,0,0,0,0c0-1.1-0.2-2.2-0.7-3.2
		C268.6,186.8,269.1,185.1,269,183.4z"/>
	<path class="st2" d="M228.6,167.9c0.6-2.2,3.8-3.2,7.4-2.4c0.9-5.4,5.5-9.4,11-9.5h0.7c-1-0.3-2.1-0.5-3.1-0.5
		c-5.5,0.1-10.1,4.1-11,9.5c-3.5-0.8-6.8,0.2-7.4,2.4s1.9,5,5.6,6c0.7,0.2,1.4,0.3,2.1,0.4C230.4,172.8,228,170.2,228.6,167.9z"/>
	<path class="st2" d="M256.4,192c0-0.3,0-0.5,0-0.8c-1.1-1-2-2.2-2.6-3.5c-4.2-1-7.4-4.4-8.3-8.6c-3.1-0.4-5.9-2.2-7.6-4.7
		c-0.7,0.1-1.4,0-2.1-0.1c1.8,2.4,4.4,4,7.4,4.4c0.9,4.2,4.1,7.5,8.3,8.6c0.6,1.4,1.4,2.6,2.6,3.5c0,0.3,0,0.5,0,0.8
		c-0.1,4,3.1,7.4,7.2,7.5C258.2,197.9,256.3,195.1,256.4,192z"/>

		<ellipse transform="matrix(-0.6049 -0.7963 0.7963 -0.6049 247.4407 480.9815)" class="fill-light-pink" cx="243" cy="179.1" rx="1.8" ry="1.3"/>
</g>
</svg>
