<?xml version="1.0" encoding="utf-8"?>
<!-- Generator: Adobe Illustrator 23.0.0, SVG Export Plug-In . SVG Version: 6.00 Build 0)  -->
<svg version="1.1" id="Layer_1" xmlns="http://www.w3.org/2000/svg" xmlns:xlink="http://www.w3.org/1999/xlink" x="0px" y="0px"
	 viewBox="0 0 670 536" style="enable-background:new 0 0 670 536;" xml:space="preserve">
<style type="text/css">

	.st1{fill:#FFBDA1;}
	.st2{fill:#CE7152;}
	.st3{fill:#524F63;}
	.st4{fill:#E0E4ED;}
	.st5{fill:#91616A;}
	.st6{fill:#4A4549;}
	.st7{fill:#FFBB22;}
	.st8{fill:#DD851B;}
	.st10{fill:#91694D;}
	.st11{fill:#EAD18C;}
	<!-- .st0{fill:#F5F5F5;}
	.st1{fill:#7FC6A8;}
	.st2{fill:#FEFEFE;}
	.st3{fill:#659E86;}
	.st4{fill:#CE7152;}
	.st5{fill:#B56348;}
	.st6{fill:#91694D;}
	.st7{fill:#116D55;}
	.st8{fill:#FFBDA1;}
	.st9{fill:#B0EDD7;}
	.st10{fill:#03345F;}
	.st11{fill:#172C47;}
	.st12{fill:#A03717;}
	.st13{fill:#EAAA94;}
	.st14{fill:#138267;}
	.st15{fill:#4F4A46;}
	.st16{display:none;}
	.st17{display:inline;fill:#FC697C;}
	.st18{display:inline;}
	.st19{fill:#87634B;} -->
</style>
<path class="fill-white" d="M343.6,535.9c-8.8-0.1-17.6-0.1-26.4-0.2c-8.4-0.1-16.9-0.3-25.3-0.3c-1,0-2,0-3,0c-0.6,0-1.2,0-1.8,0
	c-4.9,0-9.7-0.1-14.6-0.2c-4.8-0.1-9.7-0.2-14.5-0.2c-0.1,0-0.1,0-0.2,0c0,0-0.1,0-0.1,0c-5.3,0-10.6-0.3-15.8-0.7
	c-7.3-0.5-14.5-1.5-21.8-2c-7.3-0.5-14.5-1.5-21.8-2.3c-9.8-1.1-19.5-2.6-29.2-3.9c-10.3-1.4-20.3-4.2-29.9-8.4
	c-9.1-3.9-17.8-8.8-27.6-10.8c-9.3-1.8-18.5-4.7-27.7-6.8c-12.7-2.9-25.4-5.3-38.1-8.4c-10.6-2.6-21.1-5.7-31.4-9.5
	c-4.2-1.5-8.4-2.8-11.9-6.1c-2.8-2.7-3-5.5-1-9c2.7-4.6,6.4-8.5,10.8-11.3c10.2-6.4,21.5-9.6,33.3-10.3c2.5-0.1,5-0.2,7.4-0.2
	c8.7,0,17.3,0.8,26,1.3c7,0.4,14.1,1,21.1,1.8c14,1.4,27.9,3.7,41.9,5.4c9.3,1.1,18.6,1.6,27.9,1.6c0.4,0,0.9,0,1.3,0
	c20.5-0.1,41.1-1.4,61.6-1.4c5.4,0,10.9,0.1,16.3,0.3c6.6,0.3,13.3,0.2,19.9,0.6c10.1,0.6,20.3,1.6,30.4,2.3
	c9.3,0.6,18.5,1.8,27.7,3.2c17.3,2.7,33.6,8.9,49.5,16.4c11.7,5.5,24,8.2,36.7,8.2c0.3,0,0.5,0,0.8,0c11.5-0.1,23.1-0.2,34.6-1.3
	c9-0.9,18.1-1.6,27.1-2.5c10.1-1,20.3-2,30.4-3.1c6.9-0.7,13.8-1.5,20.8-2.3c10.8-1.2,21.7-2.6,32.5-3.1c10.1-0.4,20.1-0.9,30.2-0.9
	c2.8,0,5.6,0,8.4,0.1c11.2,0.3,22.4,1,33.6,1.8c7.8,0.6,15.6,1.5,23.2,3.3c4.4,1.1,8.8,2.2,12.3,5.7c4.2,4.2,3.9,8.5-0.8,12.1
	c-5.4,4-11.7,6.1-18,8c-10,3.1-20.1,5.7-30.4,7.9c-6.8,1.5-13.6,2.9-20.5,3.9c-6.3,0.9-12.6,1.9-18.9,2.4
	c-8.3,0.7-16.6,2.1-24.9,2.7c-6.8,0.5-13.6,1-20.4,1.4c-3.6,0.2-7.3,0.1-10.9,1.2c-7.9,2.6-16,4.4-24.2,5.5
	c-10.6,1.4-21.3,2.3-32,3.2c-7.8,0.7-15.7,0.6-23.6,1.1c-14.7,1-29.6,0.8-44.3,2l0,0C380,534.8,361.8,535.4,343.6,535.9L343.6,535.9
	"/>
	<path class="fill-dark" opacity="0.03" d="M343.6,535.9c-8.8-0.1-17.6-0.1-26.4-0.2c-8.4-0.1-16.9-0.3-25.3-0.3c-1,0-2,0-3,0c-0.6,0-1.2,0-1.8,0
	c-4.9,0-9.7-0.1-14.6-0.2c-4.8-0.1-9.7-0.2-14.5-0.2c-0.1,0-0.1,0-0.2,0c0,0-0.1,0-0.1,0c-5.3,0-10.6-0.3-15.8-0.7
	c-7.3-0.5-14.5-1.5-21.8-2c-7.3-0.5-14.5-1.5-21.8-2.3c-9.8-1.1-19.5-2.6-29.2-3.9c-10.3-1.4-20.3-4.2-29.9-8.4
	c-9.1-3.9-17.8-8.8-27.6-10.8c-9.3-1.8-18.5-4.7-27.7-6.8c-12.7-2.9-25.4-5.3-38.1-8.4c-10.6-2.6-21.1-5.7-31.4-9.5
	c-4.2-1.5-8.4-2.8-11.9-6.1c-2.8-2.7-3-5.5-1-9c2.7-4.6,6.4-8.5,10.8-11.3c10.2-6.4,21.5-9.6,33.3-10.3c2.5-0.1,5-0.2,7.4-0.2
	c8.7,0,17.3,0.8,26,1.3c7,0.4,14.1,1,21.1,1.8c14,1.4,27.9,3.7,41.9,5.4c9.3,1.1,18.6,1.6,27.9,1.6c0.4,0,0.9,0,1.3,0
	c20.5-0.1,41.1-1.4,61.6-1.4c5.4,0,10.9,0.1,16.3,0.3c6.6,0.3,13.3,0.2,19.9,0.6c10.1,0.6,20.3,1.6,30.4,2.3
	c9.3,0.6,18.5,1.8,27.7,3.2c17.3,2.7,33.6,8.9,49.5,16.4c11.7,5.5,24,8.2,36.7,8.2c0.3,0,0.5,0,0.8,0c11.5-0.1,23.1-0.2,34.6-1.3
	c9-0.9,18.1-1.6,27.1-2.5c10.1-1,20.3-2,30.4-3.1c6.9-0.7,13.8-1.5,20.8-2.3c10.8-1.2,21.7-2.6,32.5-3.1c10.1-0.4,20.1-0.9,30.2-0.9
	c2.8,0,5.6,0,8.4,0.1c11.2,0.3,22.4,1,33.6,1.8c7.8,0.6,15.6,1.5,23.2,3.3c4.4,1.1,8.8,2.2,12.3,5.7c4.2,4.2,3.9,8.5-0.8,12.1
	c-5.4,4-11.7,6.1-18,8c-10,3.1-20.1,5.7-30.4,7.9c-6.8,1.5-13.6,2.9-20.5,3.9c-6.3,0.9-12.6,1.9-18.9,2.4
	c-8.3,0.7-16.6,2.1-24.9,2.7c-6.8,0.5-13.6,1-20.4,1.4c-3.6,0.2-7.3,0.1-10.9,1.2c-7.9,2.6-16,4.4-24.2,5.5
	c-10.6,1.4-21.3,2.3-32,3.2c-7.8,0.7-15.7,0.6-23.6,1.1c-14.7,1-29.6,0.8-44.3,2l0,0C380,534.8,361.8,535.4,343.6,535.9L343.6,535.9
	"/>
<g>
	<g>
		<g>
			<path class="fill-primary" d="M542.9,255.3c-9.4,65.2,8.7,134.1,49.1,185.9c5.8-31.1,5.6-63.3-0.8-94.3C584.2,312.4,569,278.6,542.9,255.3
				z"/>
			<path class="st4" d="M552.7,279.2c7.8,10.6,12.1,24.4,15.5,36.9c3.7,13.6,6.1,27.5,8.6,41.3c2.8,15.5,5.5,30.9,8.2,46.4
				c1.3,7.6,2.8,15.2,3.8,22.9c1,7,1.8,14.8,0.2,21.8c-0.3,1.2-2.1,0.9-2.1-0.3c0.1-7.6,0.2-14.8-0.8-22.4c-1-7.7-2.6-15.3-3.9-22.9
				c-2.6-14.9-5.2-29.8-7.8-44.8c-2.3-13.4-4.6-26.8-8-40c-3.5-13.6-8.9-25.8-14.7-38.5C551.6,279.1,552.3,278.7,552.7,279.2z"/>
		</g>
		<g>
			<path class="fill-dark" d="M623.8,250.4C588.4,305.7,576.7,376,592,440.1c18.1-25.8,31.1-55.3,38.1-86.1
				C637.9,319.6,638,282.5,623.8,250.4z"/>
				<path class="fill-primary" opacity="0.8" d="M623.8,250.4C588.4,305.7,576.7,376,592,440.1c18.1-25.8,31.1-55.3,38.1-86.1
				C637.9,319.6,638,282.5,623.8,250.4z"/>
			<path class="st4" d="M591,429c12-17.8,14.3-39.7,17.3-60.5c3.4-23.7,7.1-47.4,10.7-71.1c0.1-0.7,1.2-0.5,1.2,0.2
				c-3.1,23.9-6.2,47.7-9.5,71.6c-2.9,21-5.3,43.2-17.4,61.2C592.4,431.7,590.1,430.4,591,429z"/>
		</g>
		<g>
			<path class="fill-primary" d="M668.3,332.9c-41.2,22.8-72.5,63.1-84.5,109c20.2-10.1,38.4-24.2,53.3-41.3
				C653.7,381.6,666.4,358.2,668.3,332.9z"/>
			<path class="st4" d="M598.2,428.1c1.2-2.6,3.2-4.6,5-6.7c2.5-2.9,4.9-5.8,7.3-8.7c4.5-5.4,8.9-10.9,13.3-16.4
				c9.1-11.4,17.6-23.4,27.1-34.5c0.3-0.4,1,0.1,0.7,0.6c-7.5,12-16.4,23.2-25.1,34.3c-4.4,5.6-8.8,11-13.3,16.5
				c-2.4,2.9-4.8,5.9-7.3,8.8c-2.1,2.5-4,5.4-6.8,7.2C598.5,429.5,597.9,428.7,598.2,428.1z"/>
		</g>
	</g>
	<g>
		<polygon class="st2" points="551.3,415.8 638.5,419.1 633.9,430.9 625.1,432.7 613,485 562.9,485 558.5,430.9 551.3,426.8 		"/>
		<path class="st5" d="M574.2,430.7c8.1-0.5,16.4,0.4,24.5,0.6c8.7,0.2,17.4,0,26.1-0.4c1.7-0.1,1.7,2.6,0,2.7
			c-8.7,0.4-17.4,0.4-26.1,0.2c-8.1-0.2-16.6-0.3-24.6-2.2C573.6,431.3,573.7,430.7,574.2,430.7z"/>
		<path class="st5" d="M594.2,441.5c3.4-0.6,6.6-0.3,10,0.3c2.6,0.4,5.2,0.8,7.9,1c2.2,0.1,4.3-0.6,6.5-0.7c0.5,0,0.9,0.7,0.5,1.1
			c-2.7,2.1-6.3,1.9-9.6,1.5c-5.1-0.5-9.9-2-15.1-2.1C593.8,442.5,593.6,441.6,594.2,441.5z"/>
		<path class="st5" d="M598.8,454c5.3-1.3,12.9-2.5,17.9,0.6c0.5,0.3,0.3,1.1-0.3,1.1c-2.5,0.2-4.9-0.5-7.4-0.7
			c-3.2-0.3-6.6-0.2-9.8,0.3C598.3,455.4,597.9,454.2,598.8,454z"/>
		<path class="st5" d="M601.1,466.7c2.4,0,4.8-0.1,7.3-0.2c2.1,0,4.4-0.3,6.4,0.5c0.5,0.2,0.5,0.8,0,1c-2,0.8-4.2,0.5-6.4,0.5
			c-2.4,0-4.8-0.1-7.3-0.2C600.1,468.4,600.1,466.7,601.1,466.7z"/>
	</g>
</g>
<image style="overflow:visible;" width="270" height="519" xlink:href="images/mobile-img-03.png"  transform="matrix(1 0 0 1 315 0)">
</image>
<g>
	<g>
		<path class="st10" d="M415.1,476.9c4.2-0.7,8.6,0.5,12.4,2.5c3.8,2,7,4.9,10.3,7.7c-5.7,3.2-12,5.9-18.6,5.8
			c-6.6-0.1-13.4-3.7-15.8-9.8C407,480.4,410.7,477.7,415.1,476.9z"/>
		<path class="st10" d="M172.9,465.8c-6.2-1-12.7,3-14.7,9c3.6,1.6,6.1,5,9.4,7c6.5,4,16.1,1.5,19.9-5.1
			C183.5,471.8,179,466.8,172.9,465.8z"/>
		<path class="st10" d="M408.2,487c0.8-1.2,1.6-2.6,1.4-4c-0.1-1.2-0.9-2.2-1.6-3.2c-25-32.3-71.4-46-110-32.5
			c-7.6,2.7-15,6.3-23,7.6c-13.1,2.2-26.4-2-39.8-2.2c-19.5-0.3-39,8.3-51.8,23c15.7,16.9,37.6,26.8,60.1,31.8
			c22.5,5,45.7,5.3,68.7,5.5c16.4,0.1,32.9,0.2,49.2-2.1C379.3,508.3,398.1,501.9,408.2,487z"/>
		<g>
			<polygon class="fill-primary" points="273.5,352.7 254.7,350.7 257,392.9 273.5,391.9 			"/>
			<path class="st1" d="M262.3,362.3l-48.5-29.9c0,0-8.2-22.9-12.9-23.6s-12.1,2.5-12.1,2.5s-3.7-2.8-6.2,0.6
				c-2.5,3.4,4.3,6.2,4.3,6.2s0.6,10.1,8.4,14.7c7.8,4.5,52.4,49.8,52.4,49.8L262.3,362.3z"/>
			<g>
				<path class="st1" d="M80,477.6c0.6,1,1.7,1.6,2.7,2.1c7.2,3.3,15.5,2.9,23.3,2c2.4-0.3,4.9-0.7,6.8-2c2.6-1.7,3.9-4.7,5.1-7.6
					c0.1-0.4,0.3-0.7,0.5-1.1c0.8-1.9,1.6-3.8,2.4-5.7c0.3-0.7,0.6-1.4,0.3-2.1c-0.2-0.5-0.8-0.8-1.3-1.1c-3.2-1.7-6.5-3.3-9.7-5
					c-1.7,3-4.1,5.4-6.9,7.3c-4.4,3-9.7,4.9-15.1,5.7c-2.2,0.3-4.4,0.6-6.3,1.7C80,473.2,78.9,475.7,80,477.6z"/>
				<path class="fill-primary" d="M80,477.6c0.6,1,1.7,1.6,2.7,2.1c7.2,3.3,15.5,2.9,23.3,2c2.4-0.3,4.9-0.7,6.8-2c2.6-1.7,3.9-4.7,5.1-7.6
					c0.1-0.4,0.3-0.7,0.5-1.1c-4.5-0.3-9-1.9-12.7-4.6c-0.9-0.6-1.7-1.3-2.5-1.9c-4.4,3-9.7,4.9-15.1,5.7c-2.2,0.3-4.4,0.6-6.3,1.7
					C80,473.2,78.9,475.7,80,477.6z"/>
			</g>
			<g>
				<path class="st1" d="M161.1,490.3c0.6,0.8,1.6,1.2,2.6,1.4c6.5,1.9,13.6,0.6,20.1-1.2c2-0.5,4.1-1.2,5.6-2.6
					c2-1.8,2.7-4.5,3.4-7.1c0.1-0.3,0.2-0.7,0.3-1c0.4-1.7,0.9-3.4,1.3-5.1c0.2-0.6,0.3-1.3,0-1.8c-0.3-0.4-0.8-0.6-1.2-0.8
					c-3-1-5.9-2-8.9-3c-1.1,2.8-2.8,5.1-5,7.1c-3.4,3.1-7.7,5.4-12.1,6.7c-1.8,0.6-3.7,1-5.1,2.3C160.7,486.5,160,488.8,161.1,490.3
					z"/>
				<path class="fill-primary" d="M161.1,490.3c0.6,0.8,1.6,1.2,2.6,1.4c6.5,1.9,13.6,0.6,20.1-1.2c2-0.5,4.1-1.2,5.6-2.6
					c2-1.8,2.7-4.5,3.4-7.1c0.1-0.3,0.2-0.7,0.3-1c-3.9,0.3-7.9-0.5-11.4-2.3c-0.8-0.4-1.6-0.9-2.4-1.3c-3.4,3.1-7.7,5.4-12.1,6.7
					c-1.8,0.6-3.7,1-5.1,2.3C160.7,486.5,160,488.8,161.1,490.3z"/>
			</g>
			<path class="fill-blue" d="M268,391.9c0,0-55.6-61.2-88.9-51.9c-26,9.2-2.1,135.8-2.1,135.8s9.6,4.7,20.3-2.3l1.2-67.9l53,26
				L268,391.9z"/>
			<path class="fill-blue" d="M313.9,452.1c0,0-6.2,20.9-31,21.4c-24.8,0.5-77.8-30.2-103.9-69.8c0,0-20.9,29.3-34.4,38.1
				c-13.5,8.8-20.9,24.7-20.9,24.7s-14.9,0-17.7-11.2c0,0,49.7-108.8,70.9-106s91.1,47.4,91.1,47.4l19.8,25.6L313.9,452.1z"/>
			<path class="fill-dark" d="M113.3,460.5c8.9-16.6,17.5-33.3,27.4-49.3c5.1-8.2,10.4-16.3,16.1-24.1c4.4-6,8.9-13.9,15.6-17.6
				c6-3.3,11.7,1.5,16.1,5.2c7.7,6.5,15.5,13,23.3,19.4c15.6,12.8,31.7,25,47.2,37.9c0.6,0.5-0.2,1.6-0.9,1.2
				c-14.2-9.9-27.8-20.7-41.4-31.5c-7-5.6-13.9-11.2-20.8-16.9c-3.2-2.7-6.4-5.3-9.6-8c-4.9-4.1-9.7-7.5-15.4-2.7
				c-6.2,5.3-10.9,13.5-15.5,20.1c-4.9,7-9.5,14.2-13.9,21.5c-9.2,15.1-17.9,30.4-26.4,45.9C114.4,462.7,112.6,461.6,113.3,460.5z"
				/>
			<path class="st2" d="M297.1,220c-3.7-2.9-4.3-8.6-2.2-12.8c2.1-4.2,6.5-6.9,11-8.2c8.5-2.5,18.2-0.5,25,5.1
				c6.9,5.6,10.9,14.5,10.6,23.3c-0.4,11.9-7.9,22.9-7.3,34.8c0.4,9,5.5,17.1,11.3,24c1,1.2,2.1,2.8,1.5,4.2
				c-0.3,0.7-1.1,1.2-1.8,1.5c-7,3.3-15.8,0-20.8-5.9s-6.9-13.9-7.7-21.6c-0.8-7.7-0.8-15.6-2.5-23.1s-5.8-15.1-12.7-18.7
				C300,221.6,298.4,221,297.1,220z"/>
			<path class="fill-primary" d="M287.8,208.1c0,4,3.2,7.2,7.2,7.2s7.2-3.2,7.2-7.2s-3.2-7.2-7.2-7.2S287.8,204.1,287.8,208.1z"/>
			<path class="st1" d="M268.1,280.3c8.6-0.3,11.3-14,11.3-14l13.3,17l4-4l10-9.9l-16.1-26l-5-13.3c0,0-22-5-23.9-5
				c-1.8,0-22-3.4-22-3.4l-6.2,7.4C225.4,245.6,256.4,281.8,268.1,280.3z"/>
			<path class="st2" d="M265.7,247c1.2,4.2-8.9-2.2-10-6.4c-3.2-0.3-6.9,1.1-9.7-0.6c-0.9-0.5-1.6-1.3-2.3-2
				c-1.3-1.4-2.6-2.7-3.9-4.1c-0.7-0.8-1.5-1.6-2.6-1.9c-2-0.7-4.4,1-4.5,3.1c-1.5-4.8-1.5-10.4,0.7-15c2.2-4.6,5.7-8.4,9.7-11.5
				c12.7-9.7,31-11.7,45.5-4.9c2.3,1.1,4.6,2.4,6.6,4.1c8.7,7.3,10.8,20.4,7.8,31.3c-1.5,5.4-4.6,11-10,12.8l-13.7-4.7
				c0,0,4.3-6.5-2.5-10.9C270.1,231.9,262.7,235.9,265.7,247z"/>
			<path class="st13" d="M279.4,266.3l13.3,17l4-4c-9.2-7.4-12-26.8-12-26.8L279.4,266.3z"/>
			<path class="fill-primary" d="M257,392.9c0,0,3.5,35,33,57.4c6.7,5.1,14.7,9.5,24.4,12.7c0,0,39.7-23.9,22.3-119.1
				c-6.5-48.4-8-56.9-18.6-70.9l-7-11.2c0,0-22.8,11.2-28.2,23.6l4.9,10.9c0,0-6.9,4.9-11.3,38.1c-1.7,12.7-3.6,23.3-5.8,31.9
				C267.1,380.2,262.6,389,257,392.9z"/>
			<path class="st15" d="M163.6,355.3l-13.3-10.5l-10.7-20.4c-1.1-2.2-0.2-4.9,2-5.9l0,0c1.8-0.8,3.9-0.3,5.1,1.3l21.1,27.8
				c1.9,2.5,0.7,6.1-2.3,7L163.6,355.3z"/>
			<path class="st1" d="M233.5,360c0,0-52.7,8.6-67.6-5.3c0,0,1.6-7.7-4.3-9.9c-5.9-2.2-6.2-7.8-8.7-6.5c-2.5,1.2-1.6,4.1-1.6,4.1
				s-7.1-16.8-11.2-17.1c-4-0.3,5.6,24,5.6,24s20.2,44.5,98,34.6L233.5,360z"/>
			<path class="fill-primary" d="M254.7,383.9l-9.4,8.1c0,0-18.6-26.4-16.1-40.9l9.3-4.3l5.3,6.1c0,0,18.9-17.6,28.2-33.4
				c9.3-15.8,22.1-38.8,41.9-18.6c19.8,20.2-34.9,67.6-62.3,78.8L254.7,383.9z"/>
			<path class="fill-dark" d="M258.5,418.9c0.1-0.5,0.9-0.5,1,0c1.1,4.7,1.5,9.4,3,14.1c2.2,6.6,5.1,10.7,12.2,12c1.1,0.2,0.9,1.7,0,2
				C262.1,451.5,256.8,426.9,258.5,418.9z"/>
			<path class="fill-dark" d="M257,392.9c0,0,3.5,35,33,57.4c0.6-0.4,0.9-1.2,0.4-1.8c-10.3-16.5-10.7-38-7-56.6
				c1.9-9.5,4.7-18.8,8.9-27.6c3.8-8,8.8-14.9,13.4-22.5c0.2-0.4-0.2-0.7-0.5-0.5c5.5-7.6,10.2-16.2,12.2-25.2
				c0.1-0.3-0.3-0.5-0.5-0.2c-5.6,10.4-10.5,20.7-18.3,29.8c-7.8,9.1-16.5,16.6-28,20.4C267.1,380.2,262.6,389,257,392.9z"/>
				<path class="fill-primary" opacity="0.7" d="M257,392.9c0,0,3.5,35,33,57.4c0.6-0.4,0.9-1.2,0.4-1.8c-10.3-16.5-10.7-38-7-56.6     c1.9-9.5,4.7-18.8,8.9-27.6c3.8-8,8.8-14.9,13.4-22.5c0.2-0.4-0.2-0.7-0.5-0.5c5.5-7.6,10.2-16.2,12.2-25.2     c0.1-0.3-0.3-0.5-0.5-0.2c-5.6,10.4-10.5,20.7-18.3,29.8c-7.8,9.1-16.5,16.6-28,20.4C267.1,380.2,262.6,389,257,392.9z"></path>
			<path class="fill-dark" d="M239.3,353.2c0.1-0.6,0.9-1,1.2-0.3c1.6,3.7,1.9,8,3.3,11.8c1.7,4.7,4.4,8.9,7,13.1c0.3,0.5-0.4,1.1-0.8,0.6
				c-3.3-3.3-5.5-7.3-7.5-11.6C240.8,362.9,238.7,357.6,239.3,353.2z"/>
				<path class="fill-primary" opacity="0.7" d="M239.3,353.2c0.1-0.6,0.9-1,1.2-0.3c1.6,3.7,1.9,8,3.3,11.8c1.7,4.7,4.4,8.9,7,13.1c0.3,0.5-0.4,1.1-0.8,0.6
				c-3.3-3.3-5.5-7.3-7.5-11.6C240.8,362.9,238.7,357.6,239.3,353.2z"/>
			<path class="fill-dark" d="M288.1,295.9c0.3-0.2,0.7-0.3,1-0.5c1.1-3.9,6-7.4,8.9-9.8c3.3-2.9,7.3-6.2,11.6-7.4
				c0.3-0.1,0.5,0.3,0.3,0.5c-2.9,3.3-7,5.6-10.3,8.5c-1.7,1.5-3.2,3.1-4.8,4.7c-0.7,0.7-1.2,1.4-1.8,2.1c6.7-1.8,14.6-1,19.1,4.6
				c0.3,0.4-0.1,0.9-0.5,0.7c-7.5-3.3-14.4-5.3-22-1.1C288,298.9,286.6,296.7,288.1,295.9z"/>
				<path class="fill-primary" opacity="0.7" d="M288.1,295.9c0.3-0.2,0.7-0.3,1-0.5c1.1-3.9,6-7.4,8.9-9.8c3.3-2.9,7.3-6.2,11.6-7.4
				c0.3-0.1,0.5,0.3,0.3,0.5c-2.9,3.3-7,5.6-10.3,8.5c-1.7,1.5-3.2,3.1-4.8,4.7c-0.7,0.7-1.2,1.4-1.8,2.1c6.7-1.8,14.6-1,19.1,4.6
				c0.3,0.4-0.1,0.9-0.5,0.7c-7.5-3.3-14.4-5.3-22-1.1C288,298.9,286.6,296.7,288.1,295.9z"/>
			<path class="st13" d="M191.2,312.3c1.1,0,2,0.9,2.9,1.6c1.2,0.8,2.3,1.6,3.3,2.6c0.4,0.4-0.1,0.9-0.5,0.7
				c-1.2-0.6-2.3-1.4-3.4-2.1c-0.9-0.6-2.1-1.2-2.6-2.3C190.8,312.5,191,312.3,191.2,312.3z"/>
			<path class="st13" d="M189.2,319.4c1.1,0.4,2,0.9,3,1.6c0.9,0.7,1.8,1.8,1.8,3c0,0.3-0.3,0.5-0.6,0.4c-0.8-0.5-1.4-1.4-2-2.1
				c-0.7-0.8-1.5-1.6-2.4-2.2C188.6,319.8,188.8,319.2,189.2,319.4z"/>
			<path class="st13" d="M151.4,342.5c0.1-0.7,1.1-0.5,1.1,0.2c0,0.9,0.2,1.8,0.4,2.7c0.2,0.8,0.6,1.4,0.7,2.2
				c0,0.3-0.3,0.4-0.5,0.3C151.3,346.9,151.1,344.2,151.4,342.5z"/>
		</g>
		<!-- <g class="st16">
			<path class="st4" d="M157,276.9h62.4V219c0-5.2-4.2-9.3-9.3-9.3h-53c-5.2,0-9.3,4.2-9.3,9.3v48.6
				C147.7,272.7,151.8,276.9,157,276.9z"/>
			<g class="st18">
				<path class="st2" d="M172.6,232.3c0,6,4.9,10.9,10.9,10.9c6,0,10.9-4.9,10.9-10.9c0-6-4.9-10.9-10.9-10.9
					C177.5,221.4,172.6,226.3,172.6,232.3z"/>
				<path class="st2" d="M161.8,265.1c0.9-11.3,10.3-20.2,21.8-20.2c11.5,0,20.9,8.9,21.8,20.2H161.8z"/>
			</g>
		</g> -->
		<path class="st10" d="M205.2,478.1c7.3,3.1,14.2,7.3,21.6,10.4c7,2.9,14.3,5.2,21.6,7.2c15.6,4.2,31.7,6,47.9,5.8
			c17.3-0.3,34.5-3.3,51.5-6c7.8-1.3,15.6-2.8,23.3-4.7c8.2-2,15.9-5.3,24-7.8c0.9-0.3,1.4,1,0.6,1.4c-13.6,8.6-31.5,11.4-47,14
			c-17.3,2.9-34.8,5.8-52.4,6.3c-15.9,0.4-31.8-1.6-47.2-5.4c-7.9-2-15.6-4.6-23.2-7.6c-7.5-3-15.7-6.3-22.1-11.2
			C202.3,479.4,203.5,477.3,205.2,478.1z"/>
			<path class="fill-dark" opacity="0.08" d="M205.2,478.1c7.3,3.1,14.2,7.3,21.6,10.4c7,2.9,14.3,5.2,21.6,7.2c15.6,4.2,31.7,6,47.9,5.8    c17.3-0.3,34.5-3.3,51.5-6c7.8-1.3,15.6-2.8,23.3-4.7c8.2-2,15.9-5.3,24-7.8c0.9-0.3,1.4,1,0.6,1.4c-13.6,8.6-31.5,11.4-47,14    c-17.3,2.9-34.8,5.8-52.4,6.3c-15.9,0.4-31.8-1.6-47.2-5.4c-7.9-2-15.6-4.6-23.2-7.6c-7.5-3-15.7-6.3-22.1-11.2    C202.3,479.4,203.5,477.3,205.2,478.1z"></path>
	</g>
	<path class="st10" d="M254.5,480.8c4.7,1.4,8.6,3.2,13.6,3.3c4.7,0.1,9-1.4,12.9-3.7c-6.2,0.1-12.1-0.9-16.6-4.3
		c-1-0.8-0.5-2.5,0.9-2.1c5.4,1.4,10.1,3,15.9,3.1c6.1,0,12.2-1.3,18.1-2.7c12.1-3,22.6-8.4,27.4-20.5c0.3-0.8,1.8-0.8,1.7,0.2
		c-1.5,12.5-14.4,19-25.2,22.2c-5.3,1.6-12.1,3.3-18.8,3.9c-7.1,7.1-23,9.8-30.4,1.6C253.6,481.4,253.9,480.7,254.5,480.8z"/>
		<path  class="fill-dark" opacity="0.08" d="M254.5,480.8c4.7,1.4,8.6,3.2,13.6,3.3c4.7,0.1,9-1.4,12.9-3.7c-6.2,0.1-12.1-0.9-16.6-4.3
		c-1-0.8-0.5-2.5,0.9-2.1c5.4,1.4,10.1,3,15.9,3.1c6.1,0,12.2-1.3,18.1-2.7c12.1-3,22.6-8.4,27.4-20.5c0.3-0.8,1.8-0.8,1.7,0.2
		c-1.5,12.5-14.4,19-25.2,22.2c-5.3,1.6-12.1,3.3-18.8,3.9c-7.1,7.1-23,9.8-30.4,1.6C253.6,481.4,253.9,480.7,254.5,480.8z"/>
</g>
</svg>
